<svg fill="none" xmlns="http://www.w3.org/2000/svg" viewBox="31.96 0 82.02 95.94"> <g id="Frame" clip-path="url(#clip0_1480_2159)" filter="url(#filter0_dddddd_1480_2159)"> <g id="Group"> <path id="Vector" d="M35.5361 33.2505C35.5361 33.2505 35.6098 76.7999 36.5676 78.3447C37.5254 79.8896 73.3313 96.2942 74.5838 95.9263L74.3627 49.3608L35.5361 33.2505Z" fill="#E54242"></path> <path id="Vector_2" d="M49.0923 84.9655C49.0923 84.9655 52.2603 89.6736 59.1857 89.6736V45.7563L49.0923 41.1218V84.9655Z" fill="#FFAE1F"></path> <path id="Vector_3" opacity="0.2" d="M59.1857 53.1126V45.7563L49.0923 41.1218V50.1701C52.4813 51.2735 55.7967 52.3034 59.1857 53.1126Z" fill="#FFAE1F"></path> <path id="Vector_4" d="M74.0684 49.5815L74.6578 95.9263C74.6578 95.9263 109.359 79.1539 109.653 77.3148C110.022 75.5493 110.906 31.4114 110.906 31.4114L74.0684 49.5815Z" fill="#C13838"></path> <path id="Vector_5" d="M90.3505 88.2023C90.3505 88.2023 96.4655 87.4667 99.4861 83.4943L100.518 39.9448L90.2031 43.108L90.3505 88.2023Z" fill="#EF9926"></path> <path id="Vector_6" opacity="0.17" d="M100.297 52.5241L100.591 39.9448L90.2031 43.108L90.2768 56.1287C93.6658 54.9517 96.9812 53.7747 100.297 52.5241Z" fill="#EF9926"></path> <path id="Vector_7" d="M32.0735 27.1448C32.0735 27.1448 31.7788 37.0022 32.1472 38.3264C32.5156 39.6505 75.3206 57.3057 76.2784 57.5999C76.2784 57.5999 75.9837 45.6091 75.9837 45.1678C76.0573 44.6528 32.0735 27.1448 32.0735 27.1448Z" fill="#EF4B4B"></path> <path id="Vector_8" d="M76.0571 45.2412L76.3518 57.6734C76.3518 57.6734 112.968 42.8136 113.484 41.0481C113.779 40.1654 114.589 28.9102 113.189 28.9838L76.0571 45.2412Z" fill="#D33C3C"></path> <path id="Vector_9" d="M76.0576 45.2414L113.19 28.9839C113.19 28.9839 74.142 13.9771 72.3001 13.9771C70.4583 13.9771 32.0737 27.1449 32.0737 27.1449L76.0576 45.2414Z" fill="#E54242"></path> <path id="Vector_10" d="M50.3447 20.9656L93.2971 37.6644L94.1075 50.2437C94.1075 50.2437 99.7805 50.8322 102.654 46.492L101.991 33.8391L58.67 18.1702C58.67 18.1702 52.6286 18.2437 50.3447 20.9656Z" fill="#FFAE1F"></path> <path id="Vector_11" d="M86.0035 18.6849C86.0035 18.6849 92.1185 18.6114 95.1392 22.0688L57.6387 37.6642L57.4914 49.8022C57.4914 49.8022 49.1661 48.9194 46.7349 45.2413L47.0296 33.324L86.0035 18.6849Z" fill="#FFC91F"></path> <path id="Vector_12" d="M101.107 4.41368C85.5613 -12.138 71.4157 23.6872 74.8047 27.1447C79.4463 31.8528 117.61 21.9953 101.107 4.41368ZM75.8362 26.262C75.2468 25.4528 87.9189 -5.37023 97.7913 7.50334C109.285 22.5838 76.794 27.5125 75.8362 26.262Z" fill="#FFE424"></path> <path id="Vector_13" opacity="0.18" d="M102.801 6.47363C102.801 6.84145 102.728 7.1357 102.654 7.50352C102.286 10.2989 101.254 12.5794 100.149 15.007C99.9281 16.1104 99.4124 17.1403 98.7493 18.0231C98.6019 18.3909 98.3809 18.6116 98.0862 18.7587C93.0763 24.2024 80.6253 26.4828 76.9416 26.4828C76.1312 26.63 75.3944 26.63 74.584 26.7035C74.6577 26.9242 74.7313 27.0713 74.8787 27.2185C79.2992 31.7058 114.663 22.7311 102.801 6.47363Z" fill="#FFBB24"></path> <path id="Vector_14" d="M74.952 25.9677C77.3096 24.8643 77.457 4.41372 66.4794 9.56315C54.8388 14.9333 71.7103 27.3654 74.952 25.9677ZM67.5109 11.6965C74.952 7.28269 75.0994 25.0114 74.6573 25.3057C73.8469 25.7471 58.8173 16.9195 67.5109 11.6965Z" fill="#FFE424"></path> <path id="Vector_15" opacity="0.18" d="M65.227 10.2253C65.1533 10.3725 65.1533 10.5932 65.0796 10.7403C64.7112 12.2115 64.7849 13.5357 64.8586 14.9334C64.7112 15.5219 64.7849 16.1104 64.9323 16.6989C64.9323 16.9196 65.0059 17.0667 65.0796 17.2138C66.4794 20.892 72.1524 24.4966 73.9943 25.2322C74.3626 25.4529 74.731 25.6001 75.0994 25.8207C75.0257 25.8943 74.952 25.9679 74.8784 26.0414C71.8577 27.292 56.165 15.8897 65.227 10.2253Z" fill="#FFBB24"></path> <path id="Vector_16" d="M75.0994 27.0712C78.4884 23.6138 64.3429 -12.2115 48.7975 4.34019C32.2943 21.9218 70.4579 31.7793 75.0994 27.0712ZM52.1129 7.42985C61.9116 -5.44371 74.6573 25.3793 73.9943 26.1885C73.0365 27.439 40.6196 22.5103 52.1129 7.42985Z" fill="#FFE424"></path> <path id="Vector_17" opacity="0.18" d="M47.103 6.3999C47.103 6.76772 47.1767 7.06197 47.2504 7.42979C47.6187 10.2252 48.6502 12.5056 49.7553 14.9332C49.9763 16.0367 50.4921 17.0666 51.1551 17.9493C51.3025 18.3171 51.5235 18.5378 51.8182 18.685C56.9018 24.2022 69.2791 26.4827 73.0365 26.4091C73.847 26.5562 74.5837 26.5562 75.3941 26.6298C75.3204 26.8505 75.2468 26.9976 75.0994 27.1447C70.6053 31.6321 35.2414 22.6574 47.103 6.3999Z" fill="#FFBB24"></path> <path id="Vector_18" d="M84.6772 16.9195C78.0465 11.4022 74.4364 25.5999 75.9099 26.777C77.8991 28.2482 91.75 22.731 84.6772 16.9195ZM76.2783 26.3356C75.9836 26.0413 79.2989 13.8298 83.6458 18.2436C88.6556 23.3195 76.6467 26.777 76.2783 26.3356Z" fill="#FFE424"></path> <path id="Vector_19" opacity="0.18" d="M85.4141 17.5815C85.4141 17.7287 85.4141 17.8022 85.4141 17.9494C85.4141 19.0528 85.1194 19.9356 84.8247 20.8919C84.8247 21.3333 84.6773 21.7011 84.4563 22.0689C84.3826 22.216 84.309 22.2896 84.2353 22.3632C82.6144 24.6436 78.0466 26.1149 76.6468 26.3356C76.3521 26.4091 76.0574 26.4827 75.7627 26.5563C75.8364 26.6298 75.8364 26.7034 75.91 26.7034C77.8256 28.2482 90.7187 23.0988 85.4141 17.5815Z" fill="#FFBB24"></path> <path id="Vector_20" opacity="0.48" d="M53.4391 34.2805C56.2388 32.9563 59.0384 31.8529 62.0591 31.0437C63.4589 30.6759 62.8695 28.5426 61.4697 28.9104C58.3017 29.7931 55.281 30.9701 52.334 32.3678C51.0079 33.0299 52.113 34.9426 53.4391 34.2805Z" fill="#FFE424"></path> <path id="Vector_21" opacity="0.48" d="M49.2398 37.0024C49.0925 38.5472 49.0188 40.1656 48.8714 41.7104C48.7978 43.1081 51.008 43.1081 51.0817 41.7104C51.229 40.1656 51.3027 38.5472 51.45 37.0024C51.5237 35.5311 49.3135 35.5311 49.2398 37.0024Z" fill="#FFE424"></path> <path id="Vector_22" opacity="0.45" d="M86.372 31.9265C89.6874 33.03 93.0028 34.1334 96.3181 35.2368C97.6443 35.6782 98.2337 33.5449 96.9075 33.1035C93.5922 32.0001 90.2768 30.8966 86.9614 29.7932C85.6353 29.3518 85.0459 31.4851 86.372 31.9265Z" fill="#FFC91F"></path> <path id="Vector_23" opacity="0.45" d="M98.3807 37.0759C98.3807 38.6207 98.3807 40.2391 98.307 41.7839C98.2333 43.1816 100.444 43.1816 100.517 41.7839C100.591 40.2391 100.665 38.6943 100.591 37.0759C100.517 35.6782 98.307 35.6782 98.3807 37.0759Z" fill="#FFC91F"></path> <path id="Vector_24" opacity="0.45" d="M51.1551 73.0483C51.1551 74.8874 51.1551 76.7264 51.2288 78.6391C51.2288 80.0368 53.439 80.0368 53.439 78.6391C53.439 76.8 53.439 74.9609 53.3654 73.0483C53.2917 71.6506 51.0814 71.6506 51.1551 73.0483Z" fill="#FFC91F"></path> <path id="Vector_25" opacity="0.45" d="M51.1553 60.1747C51.1553 63.1908 51.2289 66.2069 51.2289 69.2966C51.2289 70.6943 53.4392 70.6943 53.4392 69.2966C53.3655 66.2069 53.3655 63.1908 53.3655 60.1747C53.3655 58.7035 51.1553 58.7035 51.1553 60.1747Z" fill="#FFC91F"></path> <path id="Vector_26" opacity="0.51" d="M96.4652 56.1286C96.3915 60.4688 96.3179 64.8826 96.3179 69.2228C96.3179 70.6205 98.5281 70.6205 98.5281 69.2228C98.5281 64.8826 98.5281 60.4688 98.6755 56.1286C98.6755 54.7309 96.4652 54.7309 96.4652 56.1286Z" fill="#FFAE1F"></path> <path id="Vector_27" opacity="0.51" d="M96.3917 73.416C96.2444 75.3286 96.2444 77.2412 96.5391 79.1539C96.6864 80.5516 98.8966 80.5516 98.7493 79.1539C98.5283 77.2412 98.4546 75.3286 98.602 73.416C98.6756 72.0183 96.4654 72.0183 96.3917 73.416Z" fill="#FFAE1F"></path> <path id="Vector_28" d="M39.9565 28.3953C42.8299 27.5126 45.7032 26.5563 48.5028 25.5264C49.829 25.0114 49.2396 22.8781 47.9134 23.393C45.1138 24.4229 42.2405 25.3793 39.3671 26.262C38.041 26.7034 38.6304 28.8367 39.9565 28.3953Z" fill="#EF4B4B"></path> <path id="Vector_29" d="M37.5256 45.5356C37.3782 50.7586 37.3782 56.0551 37.5256 61.2781C37.5992 62.6758 39.8095 62.6758 39.7358 61.2781C39.5884 56.0551 39.5884 50.7586 39.7358 45.5356C39.7358 44.1379 37.5256 44.1379 37.5256 45.5356Z" fill="#EF4B4B"></path> <path id="Vector_30" d="M37.5992 64.9562C37.5255 66.7217 37.5255 68.4873 37.5992 70.3263C37.5992 71.724 39.8094 71.724 39.8094 70.3263C39.8094 68.5608 39.8094 66.7953 39.8094 64.9562C39.8831 63.485 37.6729 63.485 37.5992 64.9562Z" fill="#EF4B4B"></path> </g> </g> <defs> </defs> </svg>
