<svg width="279" height="360" viewBox="0 0 279 360" fill="none" xmlns="http://www.w3.org/2000/svg">
<g clip-path="url(#clip0_71_14092)">
<path d="M213.628 259.575C212.644 259.329 211.906 259.084 210.922 259.084C206.74 258.102 202.805 256.874 198.869 255.4C198.131 255.155 197.147 254.663 196.409 254.418C195.671 254.172 194.687 253.681 193.949 253.436C191.981 252.453 190.013 251.716 188.046 250.734C187.308 250.243 186.57 249.997 185.832 249.506C180.42 246.559 175.5 243.612 171.811 241.156L146.229 257.119C161.971 267.925 197.393 287.571 225.435 270.381L251.017 254.418C238.964 261.294 225.927 262.031 213.628 259.575Z" fill="url(#paint0_linear_71_14092)"/>
<path d="M145.982 256.874C166.399 268.907 191.243 280.695 215.35 274.064C218.793 273.082 221.991 271.854 225.189 270.135C222.237 272.1 219.039 273.819 215.841 275.047C192.227 283.396 164.923 271.117 145.982 256.874Z" fill="url(#paint1_linear_71_14092)"/>
<path d="M164.431 244.84L138.849 260.803C159.266 304.516 156.806 330.302 151.64 343.809C151.394 344.546 151.148 345.037 150.902 345.774C150.656 346.019 150.656 346.265 150.41 346.756C150.164 347.247 149.918 347.984 149.672 348.475C149.426 348.966 149.18 349.457 148.934 349.948C146.721 353.878 144.507 355.842 144.261 356.088L169.843 340.125C171.319 338.897 197.147 314.83 164.431 244.84Z" fill="url(#paint2_linear_71_14092)"/>
<path d="M138.849 260.803C151.394 284.87 162.955 319.742 151.394 345.774C149.672 349.457 147.213 353.387 144.015 356.088C146.967 353.141 148.934 349.212 150.41 345.528C154.1 335.705 154.592 325.145 153.854 314.83C152.132 296.166 145.737 278.239 138.849 260.803Z" fill="url(#paint3_linear_71_14092)"/>
<path d="M169.843 340.125L144.261 356.088L146.475 360.017L172.057 344.055L169.843 340.125Z" fill="url(#paint4_linear_71_14092)"/>
<path d="M212.89 321.707L172.057 344.054L146.475 360.017L187.308 337.669L227.895 315.322L253.723 299.359L212.89 321.707Z" fill="url(#paint5_linear_71_14092)"/>
<path d="M120.154 322.444C58.9047 332.267 22.4992 265.469 27.6649 202.355C41.4399 31.922 30.8626 1.22446 30.3707 -0.249023L4.78848 15.7137C5.28044 17.4328 15.8577 48.1303 2.08267 218.317C-3.08297 281.186 33.3225 347.984 94.5722 338.406C101.952 337.178 107.855 334.968 113.021 331.776L138.603 315.813C133.437 318.76 127.288 321.216 120.154 322.444Z" fill="url(#paint6_linear_71_14092)"/>
<path d="M4.54242 15.468C5.52635 18.415 6.01831 21.6075 6.51028 24.5545C7.49421 30.694 7.98617 36.8335 8.47814 43.2186C10.2 67.0399 9.95404 90.8612 9.21609 114.682C8.23216 152.011 5.28036 189.093 2.82054 226.176C2.32857 246.559 6.01831 267.433 13.8898 286.098C23.4831 308.445 40.7019 329.074 64.8082 335.95C76.6153 339.388 89.4065 339.388 101.46 336.196C105.395 335.214 109.331 333.495 112.775 331.284C109.331 333.495 105.395 335.214 101.46 336.442C89.4065 340.125 76.3694 340.125 64.3162 337.178C22.2532 325.39 2.32857 278.485 -0.131258 238.455C-0.623223 230.105 -0.377239 221.755 0.360709 213.406C1.34464 201.127 3.06652 176.323 4.05045 163.799C5.52635 141.451 6.75626 117.875 7.49421 95.5272C7.98618 72.9338 8.47814 49.8493 6.51028 27.2559C6.26429 24.5545 5.77233 20.8708 5.28036 17.9238L5.03438 17.1871L4.7884 16.4503L4.54242 15.7136C4.7884 15.9592 4.54242 15.7136 4.54242 15.468Z" fill="url(#paint7_linear_71_14092)"/>
<path d="M206.986 103.877C52.2629 25.7825 31.3543 0.978878 30.1244 -0.249023C30.6164 1.47004 41.1936 32.1676 27.4186 202.355C22.253 265.223 58.6584 332.021 119.908 322.444C129.009 320.97 136.389 317.777 142.047 313.111C164.185 296.166 165.169 261.785 164.185 244.84C196.655 314.831 170.827 338.897 169.597 340.125L171.81 344.055L212.644 321.707L253.231 299.359L251.017 295.43C249.295 295.921 214.857 305.007 171.318 240.911C187.799 252.208 225.927 273.327 254.215 251.471C256.674 249.506 259.134 247.296 261.594 244.595C302.673 198.18 264.054 132.61 206.986 103.877Z" fill="url(#paint8_linear_71_14092)"/>
<path d="M34.3061 6.8728C38.9798 10.8021 46.6053 16.696 59.6423 25.0457C92.1121 46.1657 141.309 73.4251 205.756 106.087C241.67 124.26 268.974 156.431 275.123 187.866C277.091 197.689 276.845 207.266 274.631 216.353C272.171 225.93 267.498 234.771 260.364 242.875C258.15 245.331 255.691 247.542 253.231 249.506C248.065 253.681 241.915 256.382 235.52 257.61C225.189 259.575 213.382 258.347 200.344 253.435C189.029 249.261 179.436 243.121 173.04 238.946L161.971 231.333L169.351 242.384C186.569 267.925 204.526 285.115 222.729 293.465C236.012 299.605 245.605 299.113 249.787 298.377L250.033 298.622L211.66 319.742L173.04 340.862V340.616C175.746 337.669 180.42 330.793 182.388 318.76C185.831 298.622 180.666 273.573 166.891 243.858L161.479 232.07L162.217 245.086C162.709 253.435 162.709 265.96 159.757 278.485C156.314 293.219 150.164 304.025 141.063 311.147C135.897 315.322 129.501 318.023 122.368 319.497C121.63 319.742 120.892 319.742 119.908 319.988C109.085 321.707 98.5076 320.97 88.9143 317.777C79.8129 314.831 71.4495 309.919 63.824 302.797C52.2629 291.992 42.9155 276.766 37.0119 258.838C31.1084 241.156 28.8945 221.756 30.3704 202.6C36.028 131.382 38.2418 76.1264 37.0119 37.8159C36.274 22.3444 35.2901 12.7667 34.3061 6.8728ZM30.1244 -0.249023C30.6164 1.47004 41.1936 32.1676 27.4186 202.355C22.253 265.223 58.6584 332.021 119.908 322.444C120.646 322.198 121.63 322.198 122.368 321.952C130.239 320.233 136.881 317.286 142.047 313.111C164.185 296.166 165.169 261.785 164.185 244.84C196.655 314.831 170.827 338.897 169.597 340.125L171.81 344.055L212.644 321.707L253.231 299.359L251.017 295.43C250.771 295.43 250.525 295.43 250.033 295.675C244.129 296.903 211.66 300.341 171.318 240.911C184.356 249.752 210.922 264.978 235.52 260.066C241.915 258.838 248.311 256.137 254.215 251.471C256.674 249.506 259.134 247.296 261.594 244.595C302.181 198.425 263.562 132.855 206.494 104.123C52.2628 25.7825 31.3543 0.978878 30.1244 -0.249023Z" fill="url(#paint9_linear_71_14092)"/>
</g>
<defs>
<linearGradient id="paint0_linear_71_14092" x1="242.155" y1="287.314" x2="160.674" y2="227.71" gradientUnits="userSpaceOnUse">
<stop stop-color="#8129D0"/>
<stop offset="1" stop-color="#2400A4"/>
</linearGradient>
<linearGradient id="paint1_linear_71_14092" x1="231.808" y1="276.17" x2="192.059" y2="270.397" gradientUnits="userSpaceOnUse">
<stop stop-color="#F497E7"/>
<stop offset="0.1584" stop-color="#CF60E7"/>
<stop offset="0.323" stop-color="#5712BD"/>
<stop offset="0.4877" stop-color="#CF60E7"/>
<stop offset="0.6193" stop-color="#F497E7"/>
<stop offset="0.7444" stop-color="#8129D0"/>
<stop offset="0.8695" stop-color="#F497E7"/>
<stop offset="1" stop-color="#5712BD"/>
</linearGradient>
<linearGradient id="paint2_linear_71_14092" x1="160.291" y1="346.34" x2="159.762" y2="263.887" gradientUnits="userSpaceOnUse">
<stop stop-color="#8129D0"/>
<stop offset="1" stop-color="#2400A4"/>
</linearGradient>
<linearGradient id="paint3_linear_71_14092" x1="155.146" y1="360.185" x2="142.61" y2="294.427" gradientUnits="userSpaceOnUse">
<stop stop-color="#F497E7"/>
<stop offset="0.1584" stop-color="#CF60E7"/>
<stop offset="0.323" stop-color="#5712BD"/>
<stop offset="0.4877" stop-color="#CF60E7"/>
<stop offset="0.6193" stop-color="#F497E7"/>
<stop offset="0.7444" stop-color="#8129D0"/>
<stop offset="0.8695" stop-color="#F497E7"/>
<stop offset="1" stop-color="#5712BD"/>
</linearGradient>
<linearGradient id="paint4_linear_71_14092" x1="155.141" y1="345.794" x2="161.924" y2="355.368" gradientUnits="userSpaceOnUse">
<stop stop-color="#8129D0"/>
<stop offset="1" stop-color="#2400A4"/>
</linearGradient>
<linearGradient id="paint5_linear_71_14092" x1="169.724" y1="354.314" x2="243.292" y2="294.645" gradientUnits="userSpaceOnUse">
<stop stop-color="#3DB941"/>
<stop offset="1" stop-color="#50D954"/>
</linearGradient>
<linearGradient id="paint6_linear_71_14092" x1="-22.3313" y1="23.9559" x2="101.911" y2="363.567" gradientUnits="userSpaceOnUse">
<stop stop-color="#8129D0"/>
<stop offset="1" stop-color="#2400A4"/>
</linearGradient>
<linearGradient id="paint7_linear_71_14092" x1="-28.3935" y1="44.0379" x2="77.0927" y2="354.323" gradientUnits="userSpaceOnUse">
<stop stop-color="#F497E7"/>
<stop offset="0.1584" stop-color="#CF60E7"/>
<stop offset="0.323" stop-color="#5712BD"/>
<stop offset="0.4877" stop-color="#CF60E7"/>
<stop offset="0.6193" stop-color="#F497E7"/>
<stop offset="0.7444" stop-color="#8129D0"/>
<stop offset="0.8695" stop-color="#F497E7"/>
<stop offset="1" stop-color="#5712BD"/>
</linearGradient>
<linearGradient id="paint8_linear_71_14092" x1="131.007" y1="-63.1052" x2="168.272" y2="400.161" gradientUnits="userSpaceOnUse">
<stop offset="3.1e-07" stop-color="#F497E7"/>
<stop offset="0.4481" stop-color="#CF60E7"/>
<stop offset="1" stop-color="#5712BD"/>
</linearGradient>
<linearGradient id="paint9_linear_71_14092" x1="143.098" y1="30.2044" x2="160.854" y2="351.898" gradientUnits="userSpaceOnUse">
<stop stop-color="#F497E7"/>
<stop offset="0.1584" stop-color="#CF60E7"/>
<stop offset="0.323" stop-color="#5712BD"/>
<stop offset="0.4877" stop-color="#CF60E7"/>
<stop offset="0.6193" stop-color="#F497E7"/>
<stop offset="0.7444" stop-color="#8129D0"/>
<stop offset="0.8695" stop-color="#F497E7"/>
<stop offset="1" stop-color="#5712BD"/>
</linearGradient>
<clipPath id="clip0_71_14092">
<rect width="279" height="360" fill="white"/>
</clipPath>
</defs>
</svg>
