<svg width="316" height="361" viewBox="0 0 316 361" fill="none" xmlns="http://www.w3.org/2000/svg">
<g clip-path="url(#clip0_71_13735)">
<path d="M66.4463 127.737L85.8157 148.465C91.6852 154.759 98.8125 159.794 106.778 163.318L87.4089 142.591C79.4431 139.066 72.3158 134.031 66.4463 127.737Z" fill="url(#paint0_linear_71_13735)"/>
<mask id="mask0_71_13735" style="mask-type:luminance" maskUnits="userSpaceOnUse" x="66" y="127" width="41" height="37">
<path d="M66.4463 127.737L85.8157 148.465C91.6852 154.759 98.8125 159.794 106.778 163.318L87.4089 142.591C79.4431 139.066 72.3158 134.031 66.4463 127.737Z" fill="white"/>
</mask>
<g mask="url(#mask0_71_13735)">
<path d="M66.4463 127.737L85.8157 148.465C91.6852 154.759 98.8125 159.794 106.778 163.318L87.4089 142.591C79.4431 139.066 72.3158 134.031 66.4463 127.737Z" fill="url(#paint1_linear_71_13735)"/>
</g>
<path d="M200.02 41.722C207.902 50.1137 213.52 60.7712 215.951 73.191C220.311 94.9256 214.023 117.415 200.69 135.122L181.321 114.394C194.737 96.6039 200.942 74.198 196.582 52.4634C194.905 43.9039 191.635 36.2674 187.274 29.554C185.262 26.533 183.082 23.6798 180.566 21.0784L200.02 41.722Z" fill="url(#paint2_linear_71_13735)"/>
<path d="M200.02 41.7219C217.209 62.2817 220.227 90.8974 210.752 115.569C210.249 116.912 209.495 118.674 208.992 119.933C208.572 121.024 207.482 123.122 206.979 124.213C205.134 127.989 202.954 131.597 200.69 135.206C203.457 132.017 205.889 128.492 208.069 124.884C223.665 98.8696 222.575 63.2047 200.02 41.7219Z" fill="url(#paint3_linear_71_13735)"/>
<path d="M74.4121 289.949C79.1077 289.446 83.8872 288.523 88.6666 287.012C116.673 278.62 137.887 256.131 145.685 230.2L165.054 250.928C157.256 276.942 135.958 299.348 108.036 307.74C103.257 309.166 98.4771 310.089 93.7815 310.677C83.3002 311.852 73.1543 310.761 63.9308 307.74C62.6731 307.32 61.4991 306.901 60.2414 306.397C59.0675 305.894 57.8936 305.39 56.7197 304.887C54.3719 303.796 52.1079 302.621 49.9278 301.278C49.4247 300.942 48.8378 300.607 48.3347 300.271C44.0583 297.502 40.2012 294.229 36.6795 290.537L17.3101 269.809C31.2292 284.663 52.1079 292.383 74.4121 289.949Z" fill="url(#paint4_linear_71_13735)"/>
<path d="M165.054 250.928C151.554 291.292 106.191 319.572 64.4338 306.901C54.0363 303.712 44.4774 298.173 36.7632 290.453C43.8905 298.761 53.5332 304.971 63.8468 308.579C106.191 323.013 154.321 293.306 165.054 250.928Z" fill="url(#paint5_linear_71_13735)"/>
<path d="M182.159 245.725C190.461 270.397 200.02 286.425 209.662 296.663L190.293 275.935C180.734 265.697 171.091 249.669 162.79 224.997L182.159 245.725Z" fill="url(#paint6_linear_71_13735)"/>
<path d="M182.16 245.725C187.107 263.935 195.827 283.488 209.663 296.663C197.337 281.558 189.538 263.599 182.16 245.725Z" fill="url(#paint7_linear_71_13735)"/>
<path d="M220.647 246.061C225.343 245.557 230.122 244.634 234.902 243.123C275.234 231.039 301.646 189.584 293.848 150.563C291.333 138.143 285.715 127.485 277.917 119.094L297.286 139.821C305.168 148.213 310.786 158.871 313.218 171.29C321.016 210.312 294.603 251.767 254.271 263.851C249.492 265.278 244.712 266.201 240.017 266.788C217.712 269.222 196.834 261.501 182.998 246.648L163.629 225.92C177.464 240.774 198.259 248.494 220.647 246.061Z" fill="url(#paint8_linear_71_13735)"/>
<path d="M297.202 139.905C316.823 161.892 317.997 195.542 304.162 220.802C293.01 241.949 272.802 258.061 249.575 263.851C235.656 267.376 220.731 266.956 207.231 262.005C198.175 258.816 189.874 253.529 182.998 246.648C189.371 253.949 197.672 259.655 206.728 263.348C254.774 282.565 310.283 244.047 315.23 193.864C317.326 174.479 311.121 153.752 297.202 139.905Z" fill="url(#paint9_linear_71_13735)"/>
<path d="M169.918 320.243L175.368 318.649L242.951 298.341L262.321 319.069L194.737 339.377L189.203 340.971L121.62 361.279L102.25 340.551L169.918 320.243Z" fill="url(#paint10_linear_71_13735)"/>
<path d="M242.951 298.341L262.32 319.069L260.643 310.593L241.274 289.949L242.951 298.341Z" fill="url(#paint11_linear_71_13735)"/>
<path d="M123.632 0.854367C118.937 1.35787 114.157 2.28096 109.378 3.79147C69.0456 15.8756 42.6328 57.3307 50.4309 96.3522C54.7911 118.087 68.7941 134.451 87.4089 142.591C83.2163 142.339 78.8561 142.423 74.4959 142.842C69.8003 143.346 65.1047 144.269 60.3252 145.696C19.9932 157.864 -6.4196 199.319 1.37847 238.256C8.2542 272.662 39.4465 293.726 74.4121 289.865C79.1077 289.362 83.8871 288.439 88.6666 286.928C116.673 278.537 137.887 256.047 145.685 230.116C152.812 325.446 102.502 331.824 100.657 332.076L102.334 340.552L169.918 320.243L175.368 318.565L242.951 298.257L241.274 289.782C241.023 289.865 236.914 292.047 229.954 292.803C213.855 294.565 183.921 287.935 162.79 224.913C176.709 240.354 197.84 248.41 220.647 245.977C225.343 245.473 230.122 244.55 234.901 243.04C275.233 230.956 301.646 189.5 293.848 150.479C286.972 116.073 255.78 95.0096 220.815 98.8698C216.119 99.3733 211.34 100.296 206.56 101.807C197.337 104.576 188.868 108.856 181.405 114.311C194.821 96.5201 201.026 74.1142 196.666 52.3796C189.79 18.0574 158.598 -3.00583 123.632 0.854367Z" fill="url(#paint12_linear_71_13735)"/>
<path d="M144.427 4.54668C169.834 9.32996 188.7 27.9596 193.731 53.0509C197.756 73.1071 192.389 94.8417 178.973 112.632L167.067 128.409L183.082 116.828C190.545 111.457 198.762 107.345 207.399 104.744C211.927 103.401 216.538 102.478 221.066 101.975C228.026 101.219 234.901 101.471 241.526 102.73C266.932 107.513 285.799 126.143 290.83 151.234C298.376 188.745 272.802 228.69 233.979 240.354C229.451 241.697 224.839 242.62 220.312 243.123C213.352 243.879 206.476 243.627 199.852 242.368C186.101 239.767 174.026 233.053 165.054 223.067L155.495 212.41L160.023 226.004C167.737 248.914 177.212 266.452 188.365 278.285C197.253 287.684 207.063 293.474 217.544 295.404C221.737 296.243 226.097 296.411 230.29 295.907C233.979 295.488 236.914 294.733 239.094 293.977L239.513 296.243L174.529 315.712L169.079 317.39L104.598 336.691L104.179 334.426C109.294 333.167 119.356 329.474 128.831 318.733C145.014 300.271 151.722 270.397 148.703 229.865L147.529 213.92L142.918 229.277C135.12 255.291 113.989 276.271 87.9119 284.159C83.384 285.502 78.7723 286.425 74.2444 286.928C67.2848 287.684 60.4091 287.432 53.7849 286.173C28.3783 281.39 9.51195 262.76 4.48093 237.669C-3.06559 200.158 22.5087 160.213 61.3314 148.549C65.8593 147.206 70.3872 146.283 74.9152 145.779C79.0238 145.36 83.2163 145.276 87.325 145.528L104.179 146.619L88.7505 139.821C70.3872 131.681 57.4743 115.653 53.5333 95.6808C45.9868 58.1698 71.5612 18.2252 110.384 6.56069C114.912 5.21802 119.524 4.29492 124.051 3.79142C130.843 3.03617 137.803 3.28792 144.427 4.54668ZM145.014 1.60957C138.222 0.350814 131.011 0.0151437 123.632 0.854316C118.937 1.35782 114.157 2.28091 109.378 3.79142C69.0456 15.8755 42.6328 57.3307 50.4309 96.3522C54.7911 118.087 68.7941 134.451 87.4089 142.591C83.2163 142.339 78.8561 142.423 74.4959 142.842C69.8003 143.346 65.1047 144.269 60.3252 145.696C19.9932 157.864 -6.4196 199.319 1.37847 238.256C6.82874 265.445 27.3721 284.243 53.0302 289.11C59.8221 290.369 67.0332 290.705 74.4121 289.865C79.1077 289.362 83.8871 288.439 88.6666 286.928C116.673 278.537 137.887 256.047 145.685 230.116C152.812 325.446 102.502 331.824 100.657 332.076L102.334 340.551L169.918 320.243L175.368 318.565L242.951 298.257L241.274 289.781C241.023 289.865 236.914 292.047 229.954 292.803C226.516 293.138 222.492 293.138 218.048 292.299C201.529 289.194 179.393 274.509 162.79 224.83C172.181 235.319 184.927 242.368 199.265 245.054C206.057 246.312 213.268 246.648 220.647 245.809C225.343 245.305 230.122 244.382 234.901 242.872C275.233 230.788 301.646 189.333 293.848 150.311C288.398 123.122 267.855 104.324 242.196 99.4571C235.405 98.1984 228.193 97.8627 220.815 98.7019C216.119 99.2054 211.34 100.128 206.56 101.639C197.337 104.408 188.868 108.688 181.405 114.143C194.821 96.3522 201.026 73.9463 196.666 52.2117C191.215 25.2742 170.588 6.47678 145.014 1.60957Z" fill="url(#paint13_linear_71_13735)"/>
</g>
<defs>
<linearGradient id="paint0_linear_71_13735" x1="74.7566" y1="149.148" x2="94.1901" y2="143.163" gradientUnits="userSpaceOnUse">
<stop stop-color="#D03829"/>
<stop offset="1" stop-color="#A40031"/>
</linearGradient>
<linearGradient id="paint1_linear_71_13735" x1="74.7566" y1="149.148" x2="94.1901" y2="143.163" gradientUnits="userSpaceOnUse">
<stop stop-color="#D03829"/>
<stop offset="1" stop-color="#A40031"/>
</linearGradient>
<linearGradient id="paint2_linear_71_13735" x1="204.063" y1="49.8554" x2="171.957" y2="125.127" gradientUnits="userSpaceOnUse">
<stop stop-color="#D03829"/>
<stop offset="1" stop-color="#A40031"/>
</linearGradient>
<linearGradient id="paint3_linear_71_13735" x1="219.355" y1="52.8344" x2="187.351" y2="116.872" gradientUnits="userSpaceOnUse">
<stop stop-color="#F4B997"/>
<stop offset="0.1584" stop-color="#E77F60"/>
<stop offset="0.323" stop-color="#BD1412"/>
<stop offset="0.4877" stop-color="#E77F60"/>
<stop offset="0.6193" stop-color="#F4B997"/>
<stop offset="0.7444" stop-color="#D03829"/>
<stop offset="0.8695" stop-color="#F4B997"/>
<stop offset="1" stop-color="#BD1412"/>
</linearGradient>
<linearGradient id="paint4_linear_71_13735" x1="14.6852" y1="311.171" x2="134.434" y2="256.401" gradientUnits="userSpaceOnUse">
<stop stop-color="#D03829"/>
<stop offset="1" stop-color="#A40031"/>
</linearGradient>
<linearGradient id="paint5_linear_71_13735" x1="160.731" y1="270.865" x2="53.3642" y2="305.927" gradientUnits="userSpaceOnUse">
<stop stop-color="#F4B997"/>
<stop offset="0.1584" stop-color="#E77F60"/>
<stop offset="0.323" stop-color="#BD1412"/>
<stop offset="0.4877" stop-color="#E77F60"/>
<stop offset="0.6193" stop-color="#F4B997"/>
<stop offset="0.7444" stop-color="#D03829"/>
<stop offset="0.8695" stop-color="#F4B997"/>
<stop offset="1" stop-color="#BD1412"/>
</linearGradient>
<linearGradient id="paint6_linear_71_13735" x1="189.785" y1="299.849" x2="182.683" y2="222.793" gradientUnits="userSpaceOnUse">
<stop stop-color="#D03829"/>
<stop offset="1" stop-color="#A40031"/>
</linearGradient>
<linearGradient id="paint7_linear_71_13735" x1="195.786" y1="286.244" x2="196.085" y2="237.264" gradientUnits="userSpaceOnUse">
<stop stop-color="#F4B997"/>
<stop offset="0.1584" stop-color="#E77F60"/>
<stop offset="0.323" stop-color="#BD1412"/>
<stop offset="0.4877" stop-color="#E77F60"/>
<stop offset="0.6193" stop-color="#F4B997"/>
<stop offset="0.7444" stop-color="#D03829"/>
<stop offset="0.8695" stop-color="#F4B997"/>
<stop offset="1" stop-color="#BD1412"/>
</linearGradient>
<linearGradient id="paint8_linear_71_13735" x1="305.278" y1="170.414" x2="220.671" y2="218.422" gradientUnits="userSpaceOnUse">
<stop stop-color="#D03829"/>
<stop offset="1" stop-color="#A40031"/>
</linearGradient>
<linearGradient id="paint9_linear_71_13735" x1="311.568" y1="168.47" x2="225.748" y2="256.339" gradientUnits="userSpaceOnUse">
<stop stop-color="#F4B997"/>
<stop offset="0.1584" stop-color="#E77F60"/>
<stop offset="0.323" stop-color="#BD1412"/>
<stop offset="0.4877" stop-color="#E77F60"/>
<stop offset="0.6193" stop-color="#F4B997"/>
<stop offset="0.7444" stop-color="#D03829"/>
<stop offset="0.8695" stop-color="#F4B997"/>
<stop offset="1" stop-color="#BD1412"/>
</linearGradient>
<linearGradient id="paint10_linear_71_13735" x1="234.04" y1="298.911" x2="106.837" y2="374.759" gradientUnits="userSpaceOnUse">
<stop stop-color="#D03829"/>
<stop offset="1" stop-color="#A40031"/>
</linearGradient>
<linearGradient id="paint11_linear_71_13735" x1="255.298" y1="301.109" x2="242.35" y2="313.658" gradientUnits="userSpaceOnUse">
<stop stop-color="#D03829"/>
<stop offset="1" stop-color="#A40031"/>
</linearGradient>
<linearGradient id="paint12_linear_71_13735" x1="116.091" y1="44.9335" x2="175.221" y2="325.152" gradientUnits="userSpaceOnUse">
<stop offset="3.1e-07" stop-color="#F4B997"/>
<stop offset="0.4481" stop-color="#E77F60"/>
<stop offset="1" stop-color="#BD1412"/>
</linearGradient>
<linearGradient id="paint13_linear_71_13735" x1="187.943" y1="12.5622" x2="107.241" y2="375.765" gradientUnits="userSpaceOnUse">
<stop stop-color="#F4B997"/>
<stop offset="0.1584" stop-color="#E77F60"/>
<stop offset="0.323" stop-color="#BD1412"/>
<stop offset="0.4877" stop-color="#E77F60"/>
<stop offset="0.6193" stop-color="#F4B997"/>
<stop offset="0.7444" stop-color="#D03829"/>
<stop offset="0.8695" stop-color="#F4B997"/>
<stop offset="1" stop-color="#BD1412"/>
</linearGradient>
<clipPath id="clip0_71_13735">
<rect width="316" height="361" fill="white"/>
</clipPath>
</defs>
</svg>
