<svg fill="none" xmlns="http://www.w3.org/2000/svg" viewBox="46.45 44.85 302.54 346.09"> <path d="M201.251 125.932C201.12 125.705 201.12 125.705 200.989 125.478C200.858 125.251 200.858 125.251 200.727 125.024C200.596 124.797 200.596 124.797 200.465 124.57C200.465 124.57 200.465 124.57 200.334 124.343C200.203 124.116 200.072 123.889 199.714 123.793C199.582 123.566 199.451 123.339 199.093 123.242C199.093 123.242 199.093 123.242 198.962 123.015C198.831 122.788 198.7 122.561 198.342 122.465C198.211 122.238 198.08 122.011 197.722 121.915C197.722 121.915 197.722 121.915 197.591 121.688C197.46 121.461 197.102 121.365 196.971 121.138C196.971 121.138 196.971 121.138 196.84 120.911C196.708 120.684 196.35 120.587 196.219 120.36C196.219 120.36 196.219 120.36 196.088 120.133C195.957 119.906 195.468 119.583 195.337 119.356L195.206 119.129C195.075 118.902 194.717 118.806 194.455 118.352C194.455 118.352 194.455 118.352 194.323 118.125C194.192 117.898 193.703 117.574 193.572 117.347L193.441 117.12C193.31 116.893 192.952 116.797 192.821 116.57C192.69 116.343 192.69 116.343 192.332 116.247C192.201 116.02 191.843 115.924 191.712 115.697C191.712 115.697 191.581 115.47 191.354 115.601C190.865 115.278 190.733 115.051 190.244 114.727C189.755 114.404 189.624 114.177 189.135 113.854C189.004 113.627 189.004 113.627 188.646 113.531C188.515 113.304 188.157 113.208 187.895 112.754C187.764 112.527 187.764 112.527 187.406 112.43L187.275 112.203C187.275 112.203 187.143 111.976 186.917 112.107C186.559 112.011 186.296 111.557 185.938 111.461C185.807 111.234 185.449 111.138 185.449 111.138C185.091 111.042 184.829 110.588 184.471 110.492C184.34 110.265 183.982 110.169 183.982 110.169C183.624 110.072 183.362 109.618 183.004 109.522C182.873 109.295 182.646 109.426 182.515 109.199C182.026 108.876 181.537 108.553 181.048 108.23L180.916 108.003L180.558 107.907C180.201 107.81 179.711 107.487 179.58 107.26C179.449 107.033 179.222 107.164 179.091 106.937C178.733 106.841 178.602 106.614 178.113 106.291C177.982 106.064 177.624 105.968 177.624 105.968C177.266 105.872 177.135 105.645 176.777 105.549C176.419 105.452 176.288 105.225 175.93 105.129C175.572 105.033 175.441 104.806 175.214 104.937C175.214 104.937 175.083 104.71 174.856 104.841C174.725 104.614 174.498 104.745 174.367 104.518C174.009 104.422 173.52 104.099 173.162 104.003C173.031 103.776 172.804 103.907 172.673 103.68C172.315 103.583 171.826 103.26 171.468 103.164L171.11 103.068C170.621 102.745 170.036 102.78 169.547 102.457C169.189 102.361 168.699 102.038 168.341 101.942C167.983 101.845 167.984 101.845 167.626 101.749C166.91 101.557 166.42 101.234 165.704 101.042L135.659 91.4437C136.375 91.6358 137.091 91.8279 137.58 92.1511C137.938 92.2472 137.938 92.2472 138.296 92.3432C138.654 92.4393 139.143 92.7624 139.501 92.8585C139.99 93.1816 140.706 93.3738 141.064 93.4699L141.422 93.5659C141.78 93.662 142.269 93.9851 142.627 94.0812C142.758 94.3083 142.985 94.1773 143.116 94.4044C143.474 94.5004 143.963 94.8236 144.321 94.9196C144.452 95.1467 144.679 95.0157 144.81 95.2428C145.168 95.3389 145.526 95.4349 145.657 95.662C146.015 95.7581 146.146 95.9851 146.373 95.8541C146.731 95.9502 146.862 96.1773 147.22 96.2733C147.351 96.5004 147.709 96.5965 147.709 96.5965C148.067 96.6925 148.198 96.9196 148.687 97.2428C148.819 97.4698 149.045 97.3388 149.177 97.5659C149.666 97.889 150.024 97.9851 150.382 98.0812C150.382 98.0812 150.513 98.3082 150.74 98.1772C150.74 98.1772 150.871 98.4043 151.098 98.2733C151.587 98.5965 152.076 98.9196 152.565 99.2427C152.696 99.4698 152.923 99.3388 153.054 99.5659C153.412 99.6619 153.674 100.116 154.032 100.212C154.163 100.439 154.521 100.535 154.521 100.535C154.879 100.631 155.141 101.085 155.499 101.182C155.63 101.409 155.988 101.505 156.12 101.732C156.478 101.828 156.74 102.282 157.098 102.378C157.229 102.605 157.587 102.701 157.718 102.928C157.849 103.155 157.849 103.155 158.207 103.251C158.338 103.478 158.696 103.575 158.958 104.029C159.089 104.256 159.089 104.256 159.447 104.352C159.936 104.675 160.068 104.902 160.557 105.225C161.046 105.548 161.177 105.775 161.666 106.098C161.666 106.098 161.797 106.326 162.024 106.195C162.155 106.422 162.513 106.518 162.644 106.745C162.775 106.972 162.775 106.972 163.133 107.068C163.264 107.295 163.622 107.391 163.753 107.618L163.884 107.845C164.015 108.072 164.505 108.395 164.636 108.622C164.636 108.622 164.636 108.622 164.767 108.85C164.898 109.077 165.256 109.173 165.518 109.627L165.649 109.854C165.78 110.081 166.269 110.404 166.4 110.631C166.4 110.631 166.4 110.631 166.532 110.858C166.663 111.085 167.021 111.181 167.152 111.408C167.152 111.408 167.152 111.408 167.283 111.635C167.414 111.863 167.772 111.959 167.903 112.186L168.034 112.413C168.165 112.64 168.296 112.867 168.654 112.963C168.785 113.19 168.916 113.417 169.274 113.513C169.274 113.513 169.274 113.513 169.406 113.74C169.537 113.967 169.668 114.194 170.026 114.29C170.157 114.517 170.288 114.745 170.646 114.841C170.646 114.841 170.646 114.841 170.777 115.068C170.908 115.295 171.039 115.522 171.039 115.522C171.17 115.749 171.17 115.749 171.301 115.976L171.432 116.203C171.432 116.203 171.432 116.203 171.564 116.43C171.695 116.657 171.695 116.657 171.695 116.657L201.74 126.255C201.382 126.159 201.382 126.159 201.251 125.932Z" fill="url(#paint0_linear_71_14848)"></path> <path d="M201.514 126.386C190.9 115.863 178.637 107.199 165.12 101.077C179.727 103.846 193.718 113.933 201.514 126.386Z" fill="url(#paint1_linear_71_14848)"></path> <path d="M234.573 45.8401C232.723 46.3029 230.645 46.8968 228.926 47.5867C185.312 62.1706 172.965 110.474 171.468 116.788C167.772 111.959 138.583 77.6452 94.9693 92.229C93.25 92.9189 91.1727 93.5128 89.2265 94.3336C38.0398 115.712 -12.3328 286.787 225.488 381.695C396.546 150.327 287.197 32.7148 234.573 45.8401Z" fill="url(#paint2_linear_71_14848)"></path> <path d="M95.0148 94.9276C95.2416 94.7966 95.4685 94.6656 95.8265 94.7617C105.497 91.6004 115.178 90.5526 124.415 91.8802C131.993 92.9545 139.546 95.5571 146.716 99.592C159.589 106.692 167.696 116.544 169.103 118.456L172.668 123.059L173.974 117.461C174.644 114.954 177.926 101.252 186.341 87.0079C191.015 78.8599 196.703 71.9432 203.045 66.1619C210.714 59.0095 219.336 54.0317 228.876 50.6433C229.103 50.5123 229.33 50.3813 229.33 50.3813C231.049 49.6914 232.899 49.2286 234.75 48.7658C243.417 46.4865 253.859 48.3294 263.797 53.4909C274.94 59.1677 285.029 68.7832 293.41 81.202C302.183 94.302 308.269 109.559 311.572 127.331C315.47 147.182 315.51 169.26 311.754 192.621C307.721 219.17 298.626 247.431 285.149 277.01C270.32 309.489 249.714 343.487 224.106 378.254C162.623 353.503 116.578 321.958 86.4966 284.527C73.5484 268.387 63.943 251.226 57.5846 233.402C52.0482 217.524 48.9471 201.15 48.8057 185.185C48.6137 158.653 55.5412 139.213 61.5309 127.581C68.9677 112.691 79.445 101.495 89.761 97.3554C91.803 96.1764 93.5223 95.4865 95.0148 94.9276ZM94.1576 92.3949C92.6651 92.9538 90.9458 93.6437 89.2265 94.3336C38.0398 115.712 -12.3328 286.787 225.488 381.695C396.45 150.685 287.197 32.7148 234.346 45.9711C232.496 46.4339 230.419 47.0278 228.699 47.7177C228.472 47.8487 228.245 47.9797 227.887 47.8836C184.763 62.7906 172.607 110.378 171.241 116.919C167.545 112.09 138.356 77.7761 94.7424 92.36C94.6113 92.133 94.3845 92.2639 94.1576 92.3949Z" fill="url(#paint3_linear_71_14848)"></path> <path d="M339.631 115.673C339.5 115.446 339.464 114.861 339.333 114.634C339.202 114.407 339.167 113.821 339.036 113.594C338.905 113.367 338.642 112.913 338.738 112.555C338.607 112.328 338.345 111.874 338.441 111.516C338.31 111.289 338.047 110.835 338.143 110.477C338.012 110.249 337.75 109.795 337.846 109.437C337.715 109.21 337.452 108.756 337.548 108.398C337.417 108.171 337.155 107.717 337.251 107.359C337.12 107.132 336.857 106.678 336.726 106.451C336.595 106.223 336.333 105.769 336.202 105.542C336.071 105.315 335.94 105.088 335.678 104.634C335.546 104.407 335.284 103.953 335.153 103.726C335.022 103.499 334.891 103.272 334.629 102.817C334.498 102.59 334.235 102.136 334.104 101.909C333.973 101.682 333.842 101.455 333.711 101.228C333.58 101.001 333.318 100.547 333.187 100.32C333.056 100.093 332.924 99.8656 332.793 99.6385C332.531 99.1844 332.4 98.9573 332.138 98.5032C332.007 98.2761 331.876 98.0491 331.745 97.822C331.482 97.3678 331.351 97.1408 331.089 96.6866C330.958 96.4596 330.827 96.2325 330.696 96.0054C330.434 95.5513 330.04 94.8701 329.778 94.416C329.778 94.416 329.778 94.416 329.647 94.1889C329.254 93.5077 328.992 93.0536 328.729 92.5994C328.598 92.3724 328.467 92.1453 328.467 92.1453C328.205 91.6912 328.074 91.4641 327.812 91.01C327.681 90.7829 327.549 90.5558 327.418 90.3288C327.287 90.1017 327.025 89.6476 326.894 89.4205C326.763 89.1934 326.632 88.9664 326.501 88.7393C326.37 88.5122 326.107 88.0581 325.976 87.831C325.845 87.604 325.714 87.3769 325.583 87.1498C325.452 86.9228 325.19 86.4686 325.059 86.2416C324.928 86.0145 324.796 85.7874 324.665 85.5604C324.534 85.3333 324.272 84.8792 324.141 84.6521C324.01 84.425 323.879 84.198 323.748 83.9709C323.617 83.7438 323.354 83.2897 323.223 83.0626C323.092 82.8356 322.961 82.6085 322.83 82.3814C322.699 82.1544 322.568 81.9273 322.079 81.6041C322.079 81.6041 322.079 81.6041 321.948 81.3771L321.817 81.15C321.196 80.5998 320.672 79.6915 320.052 79.1413C320.052 79.1413 320.052 79.1413 319.921 78.9143C319.301 78.3641 318.776 77.4558 318.156 76.9056C318.025 76.6785 318.025 76.6785 317.894 76.4515C317.274 75.9013 316.653 75.351 316.129 74.4428C315.998 74.2157 315.998 74.2157 315.867 73.9887C315.247 73.4384 314.626 72.8882 314.006 72.338L313.875 72.111C313.386 71.7878 313.124 71.3337 312.635 71.0106C312.504 70.7835 312.504 70.7835 312.146 70.6874C311.657 70.3643 311.394 69.9102 310.905 69.587L310.774 69.3599C310.285 69.0368 309.665 68.4866 309.176 68.1635C309.045 67.9364 309.045 67.9364 308.687 67.8403C308.198 67.5172 307.936 67.063 307.578 66.967L307.446 66.7399L307.315 66.5128C306.957 66.4168 306.695 65.9627 306.337 65.8666C306.206 65.6395 305.979 65.7705 305.848 65.5434C305.359 65.2203 304.87 64.8972 304.381 64.574L304.25 64.347C303.761 64.0238 303.403 63.9277 303.14 63.4736C303.009 63.2465 302.782 63.3775 302.651 63.1505C302.293 63.0544 302.031 62.6003 301.673 62.5042C301.673 62.5042 301.542 62.2771 301.315 62.4081L300.957 62.3121C300.826 62.085 300.468 61.9889 300.337 61.7619C300.206 61.5348 299.848 61.4387 299.848 61.4387C299.717 61.2116 299.359 61.1156 299.359 61.1156C299.228 60.8885 298.87 60.7924 298.87 60.7924C298.739 60.5654 298.381 60.4693 298.381 60.4693C298.25 60.2422 297.892 60.1462 297.892 60.1462C297.534 60.0501 297.403 59.823 297.176 59.954C297.176 59.954 297.045 59.7269 296.818 59.8579L296.46 59.7619C296.329 59.5348 296.102 59.6658 295.971 59.4387C295.613 59.3427 295.481 59.1156 295.255 59.2466C295.124 59.0195 294.897 59.1505 294.766 58.9235C294.408 58.8274 294.408 58.8274 294.05 58.7313C293.918 58.5042 293.692 58.6352 293.334 58.5392C292.976 58.4431 292.976 58.4431 292.618 58.347C292.26 58.251 292.26 58.2509 291.902 58.1549C291.902 58.1549 291.771 57.9278 291.544 58.0588C291.544 58.0588 291.413 57.8318 291.186 57.9627C290.828 57.8667 290.47 57.7706 290.112 57.6745L289.754 57.5784C289.265 57.2553 288.68 57.2902 288.322 57.1941L258.276 47.5958C258.634 47.6919 259.35 47.8841 259.708 47.9801L260.066 48.0762C260.424 48.1723 260.782 48.2683 261.14 48.3644C261.271 48.5915 261.498 48.4605 261.629 48.6876C261.987 48.7836 261.987 48.7836 262.345 48.8797C262.703 48.9758 262.703 48.9758 263.061 49.0718C263.419 49.1679 263.419 49.1679 263.777 49.264C264.135 49.3601 264.135 49.3601 264.493 49.4561C264.624 49.6832 264.851 49.5522 264.982 49.7793C265.34 49.8753 265.34 49.8753 265.698 49.9714C265.829 50.1985 266.056 50.0675 266.187 50.2945C266.545 50.3906 266.676 50.6177 266.903 50.4867C267.261 50.5828 267.392 50.8098 267.619 50.6788C267.75 50.9059 268.108 51.002 268.108 51.002C268.239 51.229 268.597 51.3251 268.597 51.3251C268.728 51.5522 269.086 51.6482 269.086 51.6482C269.217 51.8753 269.575 51.9714 269.575 51.9714C269.706 52.1985 270.064 52.2945 270.064 52.2945C270.195 52.5216 270.553 52.6177 270.685 52.8447C270.816 53.0718 271.174 53.1679 271.174 53.1679C271.532 53.2639 271.794 53.7181 272.152 53.8141C272.283 54.0412 272.51 53.9102 272.641 54.1373C273.13 54.4604 273.488 54.5565 273.75 55.0106L273.881 55.2377C274.37 55.5608 274.859 55.884 275.349 56.2071C275.48 56.4342 275.707 56.3032 275.838 56.5302C276.196 56.6263 276.458 57.0804 276.816 57.1765C276.947 57.4036 277.174 57.2726 277.305 57.4997C277.794 57.8228 277.925 58.0498 278.414 58.373C278.545 58.6001 278.545 58.6001 278.903 58.6961C279.392 59.0193 280.012 59.5695 280.502 59.8926L280.633 60.1197C281.122 60.4428 281.384 60.897 281.873 61.2201C282.004 61.4472 282.004 61.4472 282.362 61.5432C282.851 61.8664 283.113 62.3205 283.602 62.6436C283.734 62.8707 283.734 62.8707 283.865 63.0978C284.485 63.648 285.105 64.1982 285.725 64.7484C285.856 64.9755 285.856 64.9755 285.987 65.2025C286.608 65.7527 287.228 66.3029 287.752 67.2112C287.883 67.4383 287.883 67.4383 288.014 67.6653C288.635 68.2155 289.159 69.1238 289.779 69.674C289.779 69.674 289.779 69.674 289.91 69.9011C290.53 70.4513 291.055 71.3596 291.675 71.9098L291.806 72.1368C291.937 72.3639 292.068 72.591 292.557 72.9141C292.688 73.1412 292.819 73.3682 292.951 73.5953C293.082 73.8224 293.213 74.0494 293.475 74.5036C293.606 74.7306 293.737 74.9577 293.868 75.1848C293.999 75.4118 294.262 75.866 294.393 76.093C294.524 76.3201 294.655 76.5472 294.786 76.7742C294.917 77.0013 295.179 77.4554 295.31 77.6825C295.441 77.9096 295.573 78.1366 295.704 78.3637C295.835 78.5908 296.097 79.0449 296.228 79.272C296.359 79.499 296.49 79.7261 296.621 79.9532C296.752 80.1803 297.015 80.6344 297.146 80.8614C297.277 81.0885 297.408 81.3156 297.539 81.5426C297.801 81.9968 297.932 82.2238 298.194 82.678C298.326 82.905 298.457 83.1321 298.457 83.1321C298.719 83.5862 299.112 84.2675 299.374 84.7216C299.637 85.1757 300.03 85.8569 300.292 86.311C300.423 86.5381 300.554 86.7652 300.554 86.7652C300.816 87.2193 300.948 87.4464 301.21 87.9005C301.341 88.1276 301.472 88.3546 301.603 88.5817C301.865 89.0358 301.996 89.2629 302.258 89.7171C302.39 89.9441 302.521 90.1712 302.652 90.3983C302.783 90.6253 303.045 91.0795 303.176 91.3065C303.307 91.5336 303.438 91.7606 303.569 91.9877C303.701 92.2148 303.963 92.6689 304.094 92.896C304.225 93.1231 304.356 93.3501 304.618 93.8043C304.749 94.0313 305.012 94.4855 305.143 94.7125C305.274 94.9396 305.405 95.1667 305.667 95.6208C305.798 95.8479 306.06 96.302 306.191 96.5291C306.322 96.7561 306.454 96.9832 306.716 97.4373C306.847 97.6644 307.109 98.1185 307.013 98.4766C307.144 98.7037 307.407 99.1578 307.311 99.5159C307.442 99.7429 307.704 100.197 307.608 100.555C307.739 100.782 308.002 101.236 307.906 101.594C308.037 101.821 308.299 102.276 308.203 102.634C308.334 102.861 308.597 103.315 308.501 103.673C308.632 103.9 308.667 104.485 308.798 104.712C308.929 104.939 309.192 105.393 309.096 105.751C309.227 105.978 309.262 106.564 309.393 106.791C309.524 107.018 309.56 107.603 309.691 107.83C309.822 108.057 309.857 108.642 309.988 108.869C310.119 109.096 310.155 109.681 310.286 109.908C310.417 110.136 310.452 110.721 310.583 110.948C310.714 111.175 310.75 111.76 310.881 111.987C311.012 112.214 311.047 112.799 311.178 113.026C311.309 113.253 311.345 113.838 311.476 114.066C311.607 114.293 311.642 114.878 311.773 115.105C311.904 115.332 311.94 115.917 312.071 116.144C312.202 116.371 312.237 116.956 312.368 117.183C312.499 117.41 312.535 117.996 312.666 118.223C312.928 118.677 312.832 119.035 313.094 119.489C313.225 119.716 313.261 120.301 313.392 120.528C313.654 120.982 313.558 121.34 313.82 121.795C313.952 122.022 313.987 122.607 314.118 122.834C314.153 123.419 314.284 123.646 314.32 124.231C314.451 124.458 314.486 125.043 314.617 125.27C314.652 125.855 314.784 126.083 314.819 126.668C314.723 127.026 314.985 127.48 314.889 127.838C314.925 128.423 315.056 128.65 315.091 129.235C314.995 129.593 315.258 130.047 315.162 130.406C315.197 130.991 315.328 131.218 315.363 131.803C315.268 132.161 315.53 132.615 315.434 132.973C315.469 133.558 315.6 133.785 315.636 134.37C315.671 134.956 315.802 135.183 315.837 135.768C315.742 136.126 316.004 136.58 315.908 136.938C315.943 137.523 316.075 137.75 316.11 138.335C316.014 138.693 316.276 139.148 316.18 139.506C316.216 140.091 316.347 140.318 316.382 140.903C316.286 141.261 316.548 141.715 316.453 142.073C316.488 142.658 316.392 143.016 316.654 143.47C316.559 143.829 316.821 144.283 316.725 144.641C316.76 145.226 316.665 145.584 316.927 146.038C316.831 146.396 317.093 146.85 316.997 147.208C317.033 147.793 316.937 148.152 316.972 148.737C316.876 149.095 317.007 149.322 317.043 149.907C317.078 150.492 317.113 151.077 317.149 151.662C317.053 152.02 317.184 152.247 317.088 152.606C317.123 153.191 317.063 154.134 317.098 154.719L317.002 155.077C316.942 156.02 317.108 156.832 316.917 157.549C317.048 157.776 316.952 158.134 317.083 158.361C317.119 158.946 317.154 159.531 316.962 160.247C316.866 160.605 316.998 160.832 316.902 161.19C316.937 161.775 316.745 162.492 316.912 163.304C317.043 163.531 316.816 163.662 316.947 163.889C316.887 164.832 317.053 165.644 316.861 166.36C316.993 166.587 316.766 166.718 316.897 166.946C316.932 167.531 316.74 168.247 316.907 169.059C316.811 169.417 316.942 169.644 316.846 170.002C316.882 170.587 316.69 171.303 316.725 171.889C316.63 172.247 316.761 172.474 316.534 172.605C316.473 173.548 316.413 174.491 316.221 175.207L316.125 175.565C315.934 176.281 316.1 177.094 315.909 177.81C315.813 178.168 315.944 178.395 315.717 178.526C315.526 179.242 315.692 180.054 315.5 180.77L315.405 181.128C315.344 182.072 315.284 183.015 315.092 183.731C314.996 184.089 314.996 184.089 314.9 184.447C314.709 185.163 314.744 185.748 314.684 186.691C314.588 187.049 314.719 187.277 314.492 187.408C314.432 188.351 314.371 189.294 314.084 190.368L313.988 190.726C313.927 191.669 313.736 192.385 313.675 193.329C313.58 193.687 313.711 193.914 313.484 194.045C313.423 194.988 313.232 195.704 313.171 196.647L313.075 197.005C313.015 197.949 312.727 199.023 312.667 199.966C312.571 200.324 312.702 200.551 312.475 200.682C312.284 201.398 312.223 202.341 312.032 203.057C311.936 203.416 311.936 203.416 311.84 203.774C311.553 204.848 311.492 205.791 311.074 206.638C310.978 206.996 310.978 206.996 310.882 207.354C310.691 208.07 310.63 209.014 310.439 209.73C310.343 210.088 310.474 210.315 310.247 210.446C309.96 211.52 309.899 212.463 309.612 213.537L309.516 213.895C309.229 214.97 309.037 215.686 308.75 216.76C308.654 217.118 308.558 217.476 308.558 217.476C308.366 218.192 308.079 219.266 307.887 219.982L307.792 220.341C307.504 221.415 307.217 222.489 306.929 223.563C306.834 223.921 306.607 224.052 306.738 224.279C306.546 224.995 306.259 226.07 306.067 226.786C305.972 227.144 305.972 227.144 305.876 227.502C305.588 228.576 305.301 229.65 305.014 230.724L304.918 231.082C304.63 232.157 304.439 232.873 304.152 233.947C304.056 234.305 303.96 234.663 303.864 235.021C303.673 235.737 303.254 236.584 303.194 237.528C303.098 237.886 303.002 238.244 302.775 238.375C302.488 239.449 301.973 240.654 301.686 241.728L301.59 242.086C301.303 243.16 300.884 244.008 300.597 245.082C300.501 245.44 300.405 245.798 300.31 246.156C299.891 247.003 299.7 247.719 299.281 248.566C299.185 248.924 299.089 249.282 298.863 249.413C298.575 250.488 297.93 251.466 297.642 252.54L297.547 252.898C297.032 254.103 296.745 255.177 296.231 256.383C296.135 256.741 296.039 257.099 295.943 257.457C295.525 258.304 295.333 259.02 294.915 259.867C294.819 260.225 294.496 260.714 294.401 261.072C293.982 261.919 293.791 262.636 293.372 263.483C293.276 263.841 292.954 264.33 292.858 264.688C292.439 265.535 292.021 266.382 291.733 267.456C291.638 267.814 291.542 268.172 291.315 268.303C290.801 269.509 290.286 270.714 289.772 271.919C289.676 272.277 289.449 272.408 289.354 272.766C288.935 273.613 288.648 274.687 288.229 275.534C287.907 276.024 287.715 276.74 287.392 277.229C286.974 278.076 286.782 278.792 286.233 279.412C285.91 279.901 285.718 280.617 285.396 281.106C284.977 281.953 284.655 282.442 284.236 283.29C283.913 283.779 283.722 284.495 283.399 284.984C282.981 285.831 282.658 286.32 282.24 287.167C281.917 287.656 281.725 288.372 281.403 288.861C280.984 289.708 280.661 290.197 280.243 291.045C279.92 291.534 279.729 292.25 279.406 292.739C278.988 293.586 278.796 294.302 278.246 294.922C277.924 295.411 277.732 296.127 277.409 296.616C276.991 297.463 276.572 298.311 276.023 298.931C275.7 299.42 275.509 300.136 275.186 300.625C274.767 301.472 274.349 302.319 273.93 303.166C273.608 303.655 273.285 304.144 272.962 304.633C272.64 305.122 272.317 305.612 272.125 306.328C271.707 307.175 271.062 308.153 270.416 309.131C270.094 309.62 269.675 310.467 269.352 310.956C268.934 311.803 268.289 312.781 267.87 313.629C267.547 314.118 267.129 314.965 266.806 315.454C266.388 316.301 265.742 317.279 265.324 318.126C265.001 318.615 264.583 319.462 264.26 319.951C263.842 320.799 263.196 321.777 262.778 322.624C262.228 323.244 262.037 323.96 261.487 324.58C261.069 325.427 260.423 326.405 260.005 327.252C259.455 327.872 259.263 328.589 258.714 329.209C258.295 330.056 257.65 331.034 257.232 331.881C256.682 332.501 256.49 333.217 255.941 333.837C255.295 334.815 254.877 335.662 254.232 336.641C253.682 337.261 253.49 337.977 252.941 338.597C252.296 339.575 251.65 340.553 251.005 341.531C250.682 342.02 250.133 342.64 249.941 343.356C249.522 344.203 248.746 344.955 248.328 345.802C247.778 346.422 247.359 347.269 246.81 347.889C246.391 348.736 245.615 349.487 245.196 350.334C244.647 350.954 244.228 351.801 243.679 352.421C243.26 353.268 242.484 354.02 242.065 354.867C241.516 355.487 241.097 356.334 240.548 356.954C239.902 357.932 239.353 358.552 238.708 359.53C238.158 360.15 237.739 360.997 237.19 361.617C236.544 362.596 235.995 363.216 235.35 364.194C234.8 364.814 234.381 365.661 234.059 366.15C233.413 367.128 232.768 368.106 231.992 368.857C231.442 369.477 231.119 369.966 230.701 370.813C230.056 371.792 229.183 372.901 228.311 374.01C227.988 374.499 227.439 375.119 227.116 375.608C225.921 377.206 224.726 378.804 223.531 380.402L253.577 390.001C254.772 388.403 255.967 386.804 257.162 385.206C257.485 384.717 257.807 384.228 258.357 383.608C259.229 382.499 259.874 381.521 260.747 380.412C261.296 379.792 261.619 379.303 262.037 378.456C262.683 377.477 263.328 376.499 263.974 375.521C264.523 374.901 264.942 374.054 265.264 373.565C265.91 372.587 266.555 371.609 267.105 370.989C267.654 370.369 268.073 369.521 268.622 368.901C269.268 367.923 269.817 367.303 270.462 366.325C271.012 365.705 271.431 364.858 271.98 364.238C272.399 363.391 273.175 362.64 273.594 361.793C274.143 361.173 274.562 360.325 275.111 359.705C275.53 358.858 276.306 358.107 276.725 357.26C277.274 356.64 277.693 355.793 278.242 355.173C278.661 354.326 279.437 353.575 279.856 352.728C279.856 352.728 280.083 352.597 279.951 352.37C280.274 351.88 280.597 351.391 280.919 350.902C281.565 349.924 282.21 348.946 282.856 347.968C283.405 347.348 283.597 346.632 284.146 346.012C284.792 345.034 285.21 344.187 285.856 343.208C286.405 342.588 286.597 341.872 287.146 341.252C287.565 340.405 288.21 339.427 288.629 338.58C289.178 337.96 289.37 337.244 289.919 336.624C290.338 335.777 290.983 334.798 291.402 333.951C291.951 333.331 292.143 332.615 292.692 331.995C293.111 331.148 293.756 330.17 294.175 329.323C294.497 328.834 294.916 327.987 295.239 327.497C295.657 326.65 296.302 325.672 296.721 324.825C297.044 324.336 297.462 323.489 297.785 323C298.203 322.153 298.849 321.175 299.267 320.328C299.59 319.838 300.008 318.991 300.331 318.502C300.976 317.524 301.395 316.677 302.04 315.699C302.363 315.21 302.459 314.852 302.781 314.363C302.781 314.363 303.008 314.232 302.877 314.005C303.2 313.516 303.522 313.027 303.845 312.538C304.264 311.69 304.682 310.843 305.101 309.996C305.423 309.507 305.615 308.791 305.938 308.302C306.356 307.455 306.774 306.608 307.324 305.988C307.647 305.499 307.838 304.782 308.161 304.293C308.579 303.446 308.771 302.73 309.321 302.11C309.643 301.621 309.835 300.905 310.158 300.416C310.576 299.569 310.899 299.08 311.317 298.233C311.64 297.743 311.832 297.027 312.154 296.538C312.573 295.691 312.895 295.202 313.314 294.355C313.637 293.866 313.828 293.15 314.151 292.661C314.569 291.814 314.761 291.098 315.31 290.477C315.633 289.988 315.825 289.272 316.147 288.783C316.566 287.936 316.757 287.22 317.307 286.6C317.63 286.111 317.821 285.395 318.144 284.906C318.371 284.775 318.24 284.548 318.467 284.417C318.885 283.57 319.077 282.853 319.495 282.006C319.591 281.648 319.818 281.517 319.914 281.159C320.428 279.954 320.942 278.749 321.457 277.544C321.552 277.186 321.648 276.827 321.875 276.696C322.293 275.849 322.712 275.002 322.999 273.928C323.095 273.57 323.418 273.081 323.514 272.723C323.932 271.876 324.124 271.16 324.542 270.313C324.638 269.954 324.961 269.465 325.056 269.107C325.475 268.26 325.667 267.544 326.085 266.697C326.181 266.339 326.277 265.981 326.372 265.623C326.887 264.418 327.174 263.343 327.688 262.138L327.784 261.78C328.203 260.933 328.49 259.859 328.682 259.143L328.777 258.785C328.873 258.427 328.969 258.069 329.196 257.938C329.614 257.09 329.806 256.374 330.224 255.527C330.32 255.169 330.416 254.811 330.512 254.453C330.799 253.379 331.218 252.532 331.505 251.458L331.601 251.099C331.888 250.025 332.402 248.82 332.69 247.746C332.786 247.388 332.881 247.03 333.108 246.899C333.3 246.183 333.718 245.336 333.779 244.392C333.875 244.034 333.97 243.676 334.066 243.318C334.354 242.244 334.772 241.397 334.833 240.454L334.928 240.096C335.216 239.021 335.407 238.305 335.695 237.231L335.79 236.873C335.886 236.515 336.113 236.384 335.982 236.157C336.174 235.441 336.461 234.367 336.653 233.65C336.748 233.292 336.975 233.161 336.844 232.934C337.132 231.86 337.419 230.786 337.706 229.712L337.802 229.354C337.994 228.638 338.281 227.563 338.473 226.847C338.569 226.489 338.664 226.131 338.664 226.131C338.952 225.057 339.143 224.341 339.431 223.267C339.431 223.267 339.431 223.267 339.526 222.909C339.814 221.834 339.874 220.891 340.162 219.817C340.257 219.459 340.126 219.232 340.353 219.101C340.449 218.743 340.545 218.385 340.641 218.027C340.736 217.669 340.701 217.084 341.024 216.594C341.12 216.236 341.12 216.236 341.215 215.878C341.503 214.804 341.563 213.861 341.851 212.787C341.946 212.429 341.946 212.429 342.042 212.071C342.234 211.355 342.294 210.411 342.486 209.695C342.582 209.337 342.582 209.337 342.678 208.979C342.738 208.036 343.025 206.962 343.086 206.019L343.182 205.66C343.242 204.717 343.434 204.001 343.494 203.058C343.59 202.7 343.459 202.473 343.686 202.342C343.746 201.399 343.938 200.683 343.998 199.739L344.094 199.381C344.155 198.438 344.346 197.722 344.407 196.779C344.503 196.421 344.371 196.194 344.598 196.063C344.79 195.347 344.755 194.761 344.815 193.818C344.911 193.46 344.911 193.46 345.007 193.102C345.067 192.159 345.128 191.216 345.319 190.5L345.415 190.141C345.607 189.425 345.667 188.482 345.632 187.897C345.728 187.539 345.597 187.312 345.823 187.181C346.015 186.465 345.849 185.653 346.04 184.936L346.136 184.578C346.328 183.862 346.161 183.05 346.353 182.334C346.353 182.334 346.222 182.107 346.449 181.976C346.544 181.618 346.413 181.391 346.509 181.033C346.474 180.448 346.665 179.731 346.63 179.146C346.726 178.788 346.595 178.561 346.691 178.203C346.655 177.618 346.847 176.902 346.68 176.09C346.549 175.863 346.776 175.732 346.645 175.505C346.706 174.561 346.766 173.618 346.731 173.033C346.6 172.806 346.827 172.675 346.695 172.448C346.66 171.863 346.852 171.147 346.685 170.334C346.781 169.976 346.65 169.749 346.746 169.391C346.711 168.806 346.675 168.221 346.867 167.505C346.736 167.278 346.832 166.92 346.832 166.92C346.892 165.977 346.726 165.164 346.917 164.448C346.786 164.221 347.013 164.09 346.882 163.863C346.847 163.278 346.907 162.335 346.872 161.75C346.968 161.392 346.836 161.165 346.932 160.806C346.897 160.221 346.862 159.636 346.826 159.051C346.922 158.693 346.791 158.466 346.756 157.881C346.72 157.296 346.685 156.711 346.781 156.353C346.877 155.994 346.615 155.54 346.71 155.182C346.675 154.597 346.771 154.239 346.509 153.785C346.604 153.427 346.342 152.973 346.438 152.615C346.403 152.03 346.499 151.671 346.236 151.217C346.332 150.859 346.07 150.405 346.166 150.047C346.13 149.462 345.999 149.235 345.964 148.65C346.06 148.292 345.798 147.838 345.893 147.48C345.858 146.894 345.727 146.667 345.692 146.082C345.787 145.724 345.525 145.27 345.621 144.912C345.49 144.685 345.717 144.554 345.586 144.327C345.455 144.1 345.55 143.742 345.55 143.742C345.515 143.157 345.384 142.929 345.349 142.344C345.445 141.986 345.182 141.532 345.278 141.174C345.243 140.589 345.112 140.362 345.076 139.777C345.172 139.419 344.91 138.965 345.006 138.607C344.971 138.021 344.839 137.794 344.804 137.209C344.9 136.851 344.638 136.397 344.734 136.039C344.698 135.454 344.567 135.227 344.532 134.642C344.401 134.415 344.365 133.829 344.234 133.602C344.199 133.017 344.068 132.79 344.033 132.205C343.902 131.978 343.866 131.393 343.735 131.166C343.473 130.712 343.569 130.354 343.307 129.899C343.175 129.672 343.14 129.087 343.009 128.86C342.747 128.406 342.843 128.048 342.58 127.594C342.449 127.367 342.414 126.782 342.283 126.555C342.021 126.1 342.117 125.742 341.985 125.515C341.854 125.288 341.819 124.703 341.688 124.476C341.557 124.249 341.522 123.664 341.39 123.437C341.259 123.21 341.224 122.625 341.093 122.398C340.962 122.17 340.927 121.585 340.795 121.358C340.664 121.131 340.629 120.546 340.498 120.319C340.367 120.092 340.332 119.507 340.2 119.28C340.069 119.053 340.034 118.468 339.903 118.24C339.772 118.013 339.737 117.428 339.605 117.201C339.474 116.974 339.439 116.389 339.308 116.162C339.797 116.485 339.666 116.258 339.631 115.673Z" fill="url(#paint4_linear_71_14848)"></path> <path d="M255.629 390.935C300.084 328.03 342.567 253.851 346.514 175.278C348.051 136.546 337.966 93.927 307.063 68.1722C300.897 63.2552 293.954 59.0894 286.401 56.4867C294.049 58.7313 301.219 62.7662 307.386 67.6831C332.768 87.5429 345.177 120.04 348.253 151.567C355.651 237.214 306.114 324.851 255.629 390.935Z" fill="url(#paint5_linear_71_14848)"></path> <defs> <linearGradient id="paint0_linear_71_14848" x1="162.678" y1="92.0692" x2="172.363" y2="121.22" gradientUnits="userSpaceOnUse"> <stop stop-color="#D08529"></stop> <stop offset="1" stop-color="#A43700"></stop> </linearGradient> <linearGradient id="paint1_linear_71_14848" x1="168.409" y1="92.2855" x2="183.226" y2="113.439" gradientUnits="userSpaceOnUse"> <stop stop-color="#F4DD97"></stop> <stop offset="0.1584" stop-color="#E7B960"></stop> <stop offset="0.323" stop-color="#BD6212"></stop> <stop offset="0.4877" stop-color="#E7B960"></stop> <stop offset="0.6193" stop-color="#F4DD97"></stop> <stop offset="0.7444" stop-color="#D08529"></stop> <stop offset="0.8695" stop-color="#F4DD97"></stop> <stop offset="1" stop-color="#BD6212"></stop> </linearGradient> <linearGradient id="paint2_linear_71_14848" x1="71.2754" y1="86.2916" x2="310.369" y2="280.64" gradientUnits="userSpaceOnUse"> <stop offset="3.1e-07" stop-color="#F4DD97"></stop> <stop offset="0.4481" stop-color="#E7B960"></stop> <stop offset="1" stop-color="#BD6212"></stop> </linearGradient> <linearGradient id="paint3_linear_71_14848" x1="93.4107" y1="78.4948" x2="306.911" y2="306.28" gradientUnits="userSpaceOnUse"> <stop stop-color="#F4DD97"></stop> <stop offset="0.1584" stop-color="#E7B960"></stop> <stop offset="0.323" stop-color="#BD6212"></stop> <stop offset="0.4877" stop-color="#E7B960"></stop> <stop offset="0.6193" stop-color="#F4DD97"></stop> <stop offset="0.7444" stop-color="#D08529"></stop> <stop offset="0.8695" stop-color="#F4DD97"></stop> <stop offset="1" stop-color="#BD6212"></stop> </linearGradient> <linearGradient id="paint4_linear_71_14848" x1="303.186" y1="74.7547" x2="281.698" y2="338.928" gradientUnits="userSpaceOnUse"> <stop stop-color="#D08529"></stop> <stop offset="1" stop-color="#A43700"></stop> </linearGradient> <linearGradient id="paint5_linear_71_14848" x1="304.642" y1="294.189" x2="280.655" y2="81.0106" gradientUnits="userSpaceOnUse"> <stop stop-color="#F4DD97"></stop> <stop offset="0.1584" stop-color="#E7B960"></stop> <stop offset="0.323" stop-color="#BD6212"></stop> <stop offset="0.4877" stop-color="#E7B960"></stop> <stop offset="0.6193" stop-color="#F4DD97"></stop> <stop offset="0.7444" stop-color="#D08529"></stop> <stop offset="0.8695" stop-color="#F4DD97"></stop> <stop offset="1" stop-color="#BD6212"></stop> </linearGradient> </defs> </svg>
