<svg width="183" height="374" viewBox="0 0 183 374" fill="none" xmlns="http://www.w3.org/2000/svg">
<g clip-path="url(#clip0_180_8291)">
<path d="M207.84 374.02C207.84 374.02 108.8 374.02 44.6401 374.02C39.941 349.012 44.4593 326.905 49.3391 311.864C53.4959 299.542 57.8335 292.112 57.8335 292.112L180.008 270.911C185.791 279.971 190.49 288.85 194.105 297.367C213.262 340.314 207.84 374.02 207.84 374.02Z" fill="#FFA500"/>
<path d="M97.9557 292.112C97.9557 292.112 90.5457 328.536 93.4375 374.02C115.306 374.02 148.922 374.02 148.922 374.02C148.922 374.02 151.452 325.817 139.524 270.911" fill="#FFECCA"/>
<path opacity="0.2" d="M194.286 297.186C123.801 366.771 67.9549 328.717 49.3396 311.864C53.4964 299.542 57.834 292.112 57.834 292.112L180.008 270.911C185.972 279.79 190.672 288.669 194.286 297.186Z" fill="#AE2B39"/>
<path d="M76.4493 301.173C76.4493 301.173 81.5098 326.361 118.921 325.817C156.513 325.455 168.08 291.75 168.08 291.75" fill="#CC6200"/>
<path d="M44.6402 375.832H207.841C208.744 375.832 209.467 375.107 209.648 374.382C209.829 372.932 214.889 339.771 195.912 296.643C191.936 287.582 187.057 278.521 181.635 270.005C181.273 269.461 180.55 269.098 179.827 269.28L57.6528 290.481C57.1107 290.481 56.7492 290.844 56.3877 291.387C56.207 291.75 51.8694 299.179 47.7126 311.502C43.0136 325.999 38.1339 348.831 43.0136 374.563C43.1943 375.107 43.9173 375.832 44.6402 375.832ZM206.395 372.208H46.2668C42.11 347.925 46.6282 326.361 51.1465 312.408C54.3997 302.441 58.0143 295.736 59.0987 293.743L179.285 272.904C184.346 281.058 188.864 289.394 192.659 298.092C208.925 334.878 207.118 365.14 206.395 372.208Z" fill="#2D2B39"/>
<path d="M122.014 362.319C135.671 362.319 146.741 351.226 146.741 337.542C146.741 323.858 135.671 312.764 122.014 312.764C108.358 312.764 97.2871 323.858 97.2871 337.542C97.2871 351.226 108.358 362.319 122.014 362.319Z" fill="#FF7B01"/>
<path d="M113.947 346.135C117.091 347.891 121.114 346.753 122.881 343.608L124.002 341.613L125.997 342.727C129.141 344.483 133.164 343.345 134.931 340.201C136.697 337.056 135.569 333.042 132.424 331.286C127.95 328.787 123.476 326.288 118.989 323.783L111.444 337.229C109.677 340.374 110.803 344.379 113.947 346.135Z" fill="#A15108"/>
<path d="M120.342 328.63L114.54 338.958C113.739 340.386 114.258 342.232 115.685 343.029C117.112 343.826 118.963 343.303 119.774 341.873L122.634 336.781L127.737 339.631C129.164 340.428 131.015 339.905 131.826 338.475C132.627 337.048 132.108 335.201 130.681 334.404C127.232 332.47 123.789 330.555 120.342 328.63Z" fill="#C86407"/>
<path d="M124.901 344.835L130.62 348.029L121.687 350.555L124.901 344.835Z" fill="#A15108"/>
<path d="M128.1 348.742L121.688 350.555L124.107 346.25C122.866 348.472 128.1 348.742 128.1 348.742Z" fill="#864406"/>
<path d="M123.995 341.614C116.533 337.447 127.705 328.661 118.985 323.791L111.445 337.228C109.678 340.373 110.807 344.388 113.951 346.144C117.096 347.9 121.12 346.762 122.886 343.617L123.995 341.614Z" fill="#C86407"/>
<path d="M122.41 330.626C122.738 328.091 122.318 325.656 118.98 323.791L118.049 325.449C119.837 326.225 122.618 327.881 122.41 330.626Z" fill="#864406"/>
<path d="M123.997 341.615C122.219 340.623 121.5 339.371 121.32 337.968C118.597 343.549 111.074 343.948 111.288 337.529C109.753 340.628 110.904 344.433 113.951 346.135C117.096 347.891 121.118 346.753 122.885 343.608L123.997 341.615Z" fill="#864406"/>
<path d="M123.991 341.618C118.622 337.214 126.9 331.902 124.194 326.704C122.461 325.728 120.722 324.765 118.979 323.792C127.702 328.663 116.539 337.457 123.991 341.618Z" fill="#6E3601"/>
<path d="M123.993 341.617C116.527 337.449 127.705 328.662 118.98 323.791C120.432 324.602 121.874 326.281 122.192 328.175C122.444 329.651 122.125 331.237 121.804 332.671C121.385 334.519 120.723 336.772 121.222 338.656C121.59 340.038 122.683 340.95 123.993 341.617Z" fill="#6E3601"/>
<path d="M115.454 349.182L115.66 349.551L115.987 349.591L115.729 349.796L115.748 350.228L115.549 349.847L115.222 349.807L115.48 349.602L115.454 349.182Z" fill="#C86407"/>
<path d="M113.154 348.214L113.616 349.06L114.354 349.146L113.773 349.616L113.819 350.579L113.366 349.731L112.616 349.638L113.21 349.175L113.154 348.214Z" fill="#C86407"/>
<path d="M111.268 329.42L111.73 330.266L112.468 330.352L111.884 330.812L111.931 331.776L111.469 330.93L110.731 330.843L111.315 330.383L111.268 329.42Z" fill="#C86407"/>
<path d="M135.697 342.75L136.149 343.599L136.897 343.683L136.306 344.155L136.362 345.116L135.9 344.27L135.15 344.177L135.743 343.714L135.697 342.75Z" fill="#C86407"/>
<path d="M130.452 323.675L131.233 325.112L132.499 325.263L131.498 326.054L131.581 327.69L130.809 326.249L129.543 326.099L130.544 325.307L130.452 323.675Z" fill="#C86407"/>
<path d="M157.236 140.62L182.719 80.2765C182.719 80.2765 161.393 66.142 164.465 56.9003C167.538 47.6585 184.527 63.9675 188.322 57.0815C192.117 50.3767 164.465 44.5779 169.165 32.9804C173.864 21.3829 193.021 44.3967 196.455 39.3228C199.708 34.2489 183.262 19.752 195.371 12.5036C207.48 5.25514 219.227 26.0944 213.444 48.5646C207.66 71.0347 181.816 151.311 181.816 151.311" fill="#B55D47"/>
<path d="M106.631 137.539L93.2567 73.2093C93.2567 73.2093 116.933 63.4239 115.667 53.8197C114.402 44.2155 94.7026 56.7191 92.1723 49.4707C89.8228 42.041 118.017 41.8598 115.667 29.5374C113.318 17.2151 90.0035 36.061 87.654 30.4435C85.3045 24.826 104.462 13.7721 93.9796 4.34911C83.4972 -5.07386 67.9543 13.0472 69.4002 36.2423C70.846 59.4373 80.4248 143.157 80.4248 143.157" fill="#B55D47"/>
<path d="M181.635 152.942C182.358 152.942 183.081 152.399 183.442 151.674C183.623 150.949 209.106 71.216 214.889 48.927C219.227 31.8932 214.166 17.0339 206.937 11.5975C202.961 8.69816 198.443 8.33574 194.286 10.8727C185.249 16.309 189.768 25.1884 192.659 31.1683C193.925 33.8865 195.551 37.1483 194.828 38.2356C193.924 38.4168 189.768 35.6986 187.237 34.0677C181.816 30.4435 176.032 26.6381 171.514 28.0877C169.707 28.6314 168.261 30.0811 167.357 32.2556C164.285 40.2289 172.598 45.484 179.466 49.6519C183.081 51.8264 187.599 54.7258 186.695 56.1755C185.611 57.9876 181.454 56.1755 177.659 54.7258C173.321 52.9137 168.984 51.2828 165.73 52.7324C164.285 53.4573 163.381 54.5446 162.658 56.3567C159.586 65.4172 175.49 77.3771 180.37 80.8202L155.429 139.895C155.067 140.801 155.429 141.888 156.332 142.251C157.236 142.613 158.32 142.251 158.682 141.345L184.526 81.0014C184.888 80.2765 184.526 79.1893 183.804 78.8268C176.032 73.5717 164.465 63.2427 166.273 57.6251C166.634 56.5379 166.996 56.1755 167.357 56.1755C169.164 55.2694 172.96 56.9003 176.394 58.35C181.635 60.5245 187.418 62.8803 189.948 58.1688C192.479 53.6385 187.057 50.3767 181.454 46.7525C174.044 42.2222 168.984 38.598 170.791 33.8865C171.333 32.4368 172.056 32.0744 172.598 31.8932C175.49 30.9871 180.912 34.6113 185.249 37.5107C190.671 41.1349 195.551 44.2155 197.901 40.5913C199.708 37.8731 197.901 34.0677 195.913 29.8998C192.479 22.6514 190.491 17.7587 196.274 14.3157C199.166 12.5036 202.238 12.6848 204.949 14.8593C211.275 19.5708 215.432 33.3429 211.636 48.3834C205.853 70.4911 180.37 150.224 180.008 150.949C179.647 151.855 180.189 152.942 181.093 153.305C181.273 152.942 181.454 152.942 181.635 152.942Z" fill="#2D2B39"/>
<path d="M80.6062 144.969H80.7869C81.6906 144.788 82.4135 143.882 82.4135 142.976C82.2328 142.069 72.654 59.0748 71.3889 36.2422C70.4853 20.8393 77.353 8.15452 84.4016 4.71151C87.474 3.26182 90.3657 3.62424 93.0767 5.97999C97.9564 10.5103 95.2455 15.0405 90.3657 21.3829C87.474 25.1884 85.1245 28.4502 86.3896 31.5307C88.0162 35.5174 93.2574 33.3429 99.4023 30.8059C104.282 28.8126 110.246 26.4568 112.776 27.9065C113.319 28.0877 113.861 28.6314 114.222 30.2623C115.126 35.3362 109.523 37.8731 101.39 40.9537C95.0647 43.3095 89.2813 45.484 90.7272 50.3767C92.3538 55.4506 98.4986 54.1821 104.101 53.0949C107.716 52.37 111.692 51.6452 113.319 52.7324C113.68 52.9136 114.042 53.2761 114.042 54.3633C114.764 60.3433 101.39 68.1354 92.7152 71.7596C91.9923 72.122 91.4501 73.0281 91.6308 73.7529L105.005 138.083C105.186 138.989 106.089 139.714 107.174 139.533C108.077 139.351 108.8 138.445 108.62 137.358L95.4262 74.2965C101.029 71.9408 118.741 63.2427 117.656 53.6385C117.475 51.8264 116.752 50.5579 115.487 49.4706C112.596 47.4773 107.897 48.2022 103.378 49.1082C99.4023 49.8331 94.884 50.7391 94.1611 48.7458C93.6189 47.1149 98.6793 45.3028 102.655 43.6719C110.065 40.7725 119.463 37.3295 117.837 28.9938C117.475 26.638 116.391 25.0071 114.584 24.1011C110.427 21.9266 104.101 24.4635 98.1372 26.8193C95.4262 27.9065 90.7272 29.8998 89.8235 29.3562C89.462 28.2689 91.6308 25.3696 93.4381 23.0138C97.4142 17.7587 103.378 9.78542 95.7877 2.71819C92.173 -0.54361 87.6547 -1.26845 83.1365 0.906078C75.0035 4.71151 67.0514 18.4835 68.1357 36.061C69.4009 59.0748 79.1604 142.251 79.1604 142.976C78.9796 144.244 79.7026 144.969 80.6062 144.969Z" fill="#2D2B39"/>
<path d="M165.73 132.103C165.73 132.103 153.621 94.5922 136.813 90.968C124.343 88.2498 126.692 106.733 126.692 106.733C126.692 106.733 121.993 96.5855 113.499 99.6661C105.005 102.747 111.692 122.68 111.692 122.68" fill="#862D43"/>
<path d="M165.73 133.915C165.911 133.915 166.091 133.915 166.272 133.915C167.176 133.553 167.718 132.646 167.357 131.559C166.814 129.928 154.705 93.1425 137.174 89.1558C133.74 88.431 130.849 88.9746 128.68 90.968C125.969 93.5049 125.065 97.4916 124.885 100.935C121.993 98.2164 118.017 96.0419 112.956 98.0352C103.016 101.659 109.342 121.049 110.065 123.405C110.426 124.311 111.33 124.854 112.414 124.492C113.318 124.13 113.86 123.224 113.499 122.136C111.872 117.425 108.619 103.472 114.221 101.478C121.089 98.9412 125.065 107.277 125.246 107.639C125.608 108.364 126.511 108.908 127.415 108.545C128.319 108.364 128.861 107.458 128.68 106.552C128.319 104.015 128.138 96.5855 131.21 93.6861C132.475 92.5989 134.102 92.2364 136.451 92.7801C151.994 96.0419 163.923 132.284 164.103 132.646C164.284 133.371 165.007 133.915 165.73 133.915Z" fill="#2D2B39"/>
<path d="M80.6064 132.465C80.6064 132.465 74.6423 96.4043 19.5192 93.1425C4.33781 137.177 29.6402 160.372 62.8948 152.036" fill="#FFA500"/>
<path d="M49.7012 155.479C54.0388 155.479 58.5571 154.935 63.2561 153.667C64.1597 153.486 64.8826 152.398 64.5212 151.492C64.3405 150.586 63.2561 149.862 62.3524 150.224C46.9902 154.029 33.4354 151.13 25.1217 141.888C15.7237 131.559 14.0971 114.888 20.6035 94.9546C72.4734 98.76 78.6182 132.465 78.799 132.828C78.9797 133.734 79.8833 134.459 80.787 134.277C81.6907 134.096 82.4136 133.19 82.2329 132.284C82.2329 131.922 75.3651 94.7734 19.3383 91.3304C18.6154 91.3304 17.7118 91.6928 17.531 92.5989C9.94031 114.525 11.7476 132.828 22.23 144.425C29.0978 151.674 38.6766 155.479 49.7012 155.479Z" fill="#2D2B39"/>
<path d="M66.3281 138.264C66.3281 138.264 55.665 112.894 30.724 108.727C25.4828 131.74 48.255 146.056 66.3281 138.264Z" fill="#FFECCA"/>
<path d="M218.143 239.017C211.456 268.011 193.383 295.012 152.357 304.616C86.3897 320.019 40.3032 294.287 17.7118 265.293C5.96425 250.252 0.723022 234.125 2.16887 222.708C7.22935 185.379 43.7371 182.298 43.7371 182.298L55.3039 137.902C125.066 88.7934 213.263 147.868 213.263 147.868C213.263 147.868 228.264 195.527 218.143 239.017Z" fill="#FFA500"/>
<path d="M42.1096 200.963C35.2418 210.024 47.7122 220.715 55.6644 222.346C64.701 224.158 78.9788 215.098 77.5329 207.849C76.0871 200.601 45.3627 196.795 42.1096 200.963Z" fill="#862D43"/>
<path d="M47.7127 204.044C46.4476 206.581 66.6895 210.024 67.7739 207.305C68.6775 204.587 50.6044 198.607 47.7127 204.044Z" fill="white"/>
<path d="M63.2552 157.11C48.4352 161.821 44.4591 193.171 68.135 195.164C91.8108 197.158 88.7383 149.137 63.2552 157.11Z" fill="white"/>
<path d="M74.4622 180.283C74.5917 176.202 71.3673 172.791 67.3009 172.693C66.0927 172.664 65.144 171.613 65.2593 170.386C65.3566 169.351 66.2153 168.531 67.252 168.483C68.0609 168.446 68.7714 168.868 69.1541 169.505C69.5745 170.206 70.307 170.659 71.1226 170.678L71.2173 170.681C73.0753 170.726 74.26 168.71 73.3219 167.102C72.4114 165.542 70.9082 164.365 69.1164 163.891L69.1265 163.474C69.1478 162.587 68.4476 161.851 67.5625 161.83C66.6774 161.808 65.9425 162.51 65.9211 163.397L65.9111 163.814C62.854 164.466 60.521 167.155 60.4424 170.42C60.3505 174.238 63.3751 177.418 67.1848 177.511C68.6453 177.546 69.7909 178.82 69.6438 180.304C69.5211 181.542 68.4976 182.519 67.2574 182.582C66.2216 182.635 65.3179 182.065 64.877 181.219C64.4755 180.448 63.6807 179.965 62.8138 179.944C60.9799 179.899 59.7704 181.848 60.6275 183.473C61.5894 185.298 63.2959 186.674 65.3482 187.186L65.3384 187.593C65.3171 188.479 66.0173 189.216 66.9024 189.237C67.7875 189.259 68.5224 188.557 68.5437 187.67L68.5535 187.263C71.8267 186.609 74.3522 183.751 74.4622 180.283Z" fill="#2D2B39"/>
<path d="M142.416 162.728C161.573 167.983 163.923 204.95 136.813 207.487C109.704 210.024 112.957 154.754 142.416 162.728Z" fill="white"/>
<path d="M144.412 188.942C144.542 184.861 141.317 181.451 137.251 181.352C136.043 181.323 135.094 180.272 135.209 179.046C135.307 178.01 136.165 177.191 137.202 177.143C138.011 177.106 138.722 177.527 139.104 178.165C139.525 178.865 140.257 179.318 141.073 179.338L141.168 179.34C143.026 179.385 144.21 177.37 143.272 175.762C142.362 174.202 140.858 173.025 139.067 172.551L139.077 172.134C139.098 171.247 138.398 170.511 137.513 170.489C136.628 170.468 135.893 171.17 135.871 172.056L135.861 172.473C132.804 173.126 130.471 175.815 130.393 179.08C130.301 182.897 133.325 186.078 137.135 186.17C138.596 186.206 139.741 187.479 139.594 188.963C139.471 190.201 138.448 191.179 137.208 191.242C136.172 191.295 135.268 190.724 134.827 189.878C134.426 189.108 133.631 188.624 132.764 188.603C130.93 188.559 129.721 190.508 130.578 192.133C131.54 193.957 133.246 195.334 135.298 195.846L135.289 196.252C135.267 197.139 135.968 197.876 136.853 197.897C137.738 197.918 138.473 197.217 138.494 196.33L138.504 195.923C141.777 195.268 144.302 192.411 144.412 188.942Z" fill="#2D2B39"/>
<path d="M170.61 167.077C170.972 167.077 171.514 167.077 171.875 166.895C174.225 166.171 175.671 163.634 174.948 161.278C169.887 144.244 154.525 140.076 146.934 140.439C144.404 140.439 142.416 142.613 142.597 145.15C142.597 147.687 144.585 149.499 147.115 149.499C148.199 149.499 161.935 149.862 166.092 163.996C166.996 165.808 168.622 167.077 170.61 167.077Z" fill="#892B34"/>
<path d="M152.175 223.071C152.175 245.179 195.731 245.179 194.466 223.071C193.02 200.963 152.175 192.809 152.175 223.071Z" fill="#FF3F69"/>
<path opacity="0.2" d="M218.143 239.017C211.456 268.011 193.382 295.012 152.356 304.616C86.3894 320.019 40.3029 294.287 17.7115 265.293C41.2066 282.689 89.8233 307.153 155.248 279.246C183.984 266.743 204.046 252.608 218.143 239.017Z" fill="#AE2B39"/>
<path d="M107.173 131.016C101.57 128.479 95.4256 146.056 99.4017 147.506C105.004 149.499 112.776 133.553 107.173 131.016Z" fill="#FF7C00"/>
<path d="M127.415 132.465C121.27 133.009 124.162 151.311 128.499 150.768C134.464 149.862 133.741 132.103 127.415 132.465Z" fill="#FF7C00"/>
<path d="M117.294 127.391C111.149 126.848 110.788 145.513 115.125 145.513C121.27 145.694 123.62 128.116 117.294 127.391Z" fill="#FF7C00"/>
<path d="M113.318 311.139C125.246 311.139 138.259 309.69 152.537 306.428C188.683 297.911 211.274 275.441 219.769 239.38C229.89 195.889 214.889 147.687 214.708 147.143C214.528 146.781 214.347 146.419 213.985 146.237C213.082 145.694 123.981 86.9813 54.0381 136.271C53.6767 136.452 53.4959 136.814 53.3152 137.358L42.1098 180.486C35.4228 181.573 4.87918 188.097 0.180161 222.346C-1.62715 234.849 4.33699 251.34 16.0845 266.38C25.3018 278.159 56.0262 311.139 113.318 311.139ZM211.636 148.955C213.262 154.573 225.733 198.789 216.335 238.655C208.383 273.266 186.695 294.83 151.814 302.985C71.0269 321.831 29.8201 278.159 18.9762 264.206C8.13235 250.252 2.34894 234.306 3.79478 222.89C8.67453 187.553 42.2906 184.11 43.7364 183.929C44.4594 183.929 45.1823 183.386 45.363 182.661L56.7491 138.989C121.812 93.6861 204.226 144.244 211.636 148.955Z" fill="#2D2B39"/>
<path d="M52.954 145.512C54.5806 145.512 56.0264 144.788 56.9301 143.338C61.9906 134.64 69.9427 137.177 70.8464 137.539C73.1959 138.264 75.7261 137.177 76.6298 134.821C77.5335 132.465 76.2683 129.928 73.9188 129.022C68.4969 127.029 56.3879 126.485 49.1586 138.808C47.8935 140.982 48.6164 143.7 50.7852 144.969C51.3274 145.331 52.0503 145.512 52.954 145.512Z" fill="#892B34"/>
<path d="M82.9553 245.179C83.8589 249.165 85.847 252.246 88.5579 253.152C91.8111 254.239 95.245 251.702 97.0523 247.172C97.5945 245.903 97.956 244.273 98.3174 242.642C98.6789 239.923 98.6789 236.662 98.1367 233.762C97.4138 229.232 95.4257 225.427 92.8955 224.521C90.1845 223.614 87.2928 226.333 85.124 230.138C84.0396 232.313 83.136 234.85 82.7745 237.568C82.2323 240.286 82.4131 242.823 82.9553 245.179Z" fill="#2D2B39"/>
<path d="M69.5814 197.882C75.907 197.882 80.9675 194.621 84.0399 188.822C88.7389 179.943 87.4738 167.077 81.3289 159.466C76.6299 153.848 69.9428 152.036 62.3521 154.392C52.4119 157.472 47.5321 169.614 48.6165 179.399C49.7009 189.909 56.9302 196.795 67.7741 197.701C68.497 197.882 69.0392 197.882 69.5814 197.882ZM68.8585 158.922C72.2924 158.922 75.0033 160.372 77.3528 163.09C82.0518 168.708 83.1362 179.399 79.5216 186.285C77.895 189.366 74.6419 192.99 68.497 192.446C56.7494 191.359 54.5807 182.661 54.2192 179.037C53.3156 170.52 57.8338 161.822 64.1594 159.828C65.786 159.103 67.4126 158.922 68.8585 158.922Z" fill="#2D2B39"/>
<path d="M135.187 210.386C135.91 210.386 136.452 210.386 137.175 210.386C152.537 208.936 158.863 197.882 159.767 187.916C160.67 177.043 155.248 163.634 143.32 160.372C134.645 158.016 127.054 160.372 121.813 166.895C114.945 175.593 113.68 190.453 119.102 200.419C122.355 206.762 128.139 210.386 135.187 210.386ZM136.814 164.721C138.259 164.721 139.886 164.902 141.693 165.446C150.911 167.983 154.887 178.493 154.164 187.191C153.802 190.996 151.634 203.319 136.633 204.768C129.404 205.493 125.608 201.325 123.62 197.701C119.283 189.547 120.186 177.224 125.789 170.157C127.958 167.439 131.392 164.721 136.814 164.721Z" fill="#2D2B39"/>
<path d="M160.671 343.757L192.841 316.395C192.841 316.395 196.817 354.268 197.901 376.738C198.263 382.355 198.263 386.886 198.263 389.785C197.54 404.463 177.298 407.725 172.96 403.557C171.695 402.289 169.888 395.403 168.081 386.161C163.562 365.322 160.671 343.757 160.671 343.757Z" fill="#FFA500"/>
<path d="M178.924 407C181.816 407 185.069 406.456 188.141 405.188C195.371 402.289 199.708 396.671 200.07 389.785C200.25 387.067 200.07 382.899 199.708 376.557C198.443 354.268 194.648 316.576 194.648 316.213C194.467 315.307 193.744 314.582 192.66 314.582C191.756 314.764 191.033 315.488 191.033 316.576C191.033 316.938 195.009 354.63 196.094 376.738C196.455 382.899 196.455 387.067 196.455 389.604C196.094 397.033 190.31 400.476 186.876 401.745C181.093 404.101 175.671 403.557 174.225 402.107C173.864 401.745 172.599 399.389 169.888 385.798C165.731 365.14 161.212 332.703 161.212 332.341C161.032 331.435 160.128 330.71 159.224 330.71C158.321 330.891 157.598 331.797 157.598 332.704C157.598 333.066 162.116 365.503 166.454 386.342C169.345 400.476 170.791 403.557 171.876 404.644C172.96 406.275 175.671 407 178.924 407Z" fill="#2D2B39"/>
<path d="M83.1352 344.845L53.3145 327.267C53.3145 327.267 50.4228 353.18 49.8806 375.651C49.6999 381.268 49.6999 385.798 49.8806 388.698C50.965 403.376 71.3876 406.094 75.5445 401.926C76.8096 400.658 78.4362 393.59 80.0627 384.53C83.6774 363.328 83.1352 344.845 83.1352 344.845Z" fill="#FFA500"/>
<path d="M68.8579 405.55C72.2918 405.55 75.1834 404.825 76.6293 403.195C77.3522 402.47 78.7981 401.02 81.6898 384.711C85.4851 363.691 84.943 344.845 84.943 344.663C84.943 343.757 84.0393 342.851 83.1356 342.851C82.0513 342.851 81.3283 343.757 81.3283 344.663C81.3283 344.845 81.8705 363.147 78.2559 383.986C75.9064 397.758 74.6413 400.114 74.2798 400.476C72.8339 401.926 67.412 402.47 61.6286 400.476C58.1947 399.208 52.2306 395.946 51.6884 388.516C51.5076 385.98 51.5076 381.63 51.6884 375.651C52.2306 353.362 55.1223 327.63 55.1223 327.267C55.303 326.361 54.5801 325.455 53.4957 325.274C52.592 325.093 51.6884 325.817 51.5077 326.905C51.5077 327.086 48.6159 353.18 48.0738 375.469C47.893 381.812 47.893 385.98 48.0738 388.698C48.6159 395.584 52.9535 401.02 60.3635 403.738C63.0744 405.007 66.1469 405.55 68.8579 405.55Z" fill="#2D2B39"/>
</g>
<defs>
<clipPath id="clip0_180_8291">
<rect width="257" height="407" fill="white" transform="matrix(-1 0 0 1 257 0)"/>
</clipPath>
</defs>
</svg>
