<svg width="197" height="353" viewBox="0 0 197 353" fill="none" xmlns="http://www.w3.org/2000/svg">
<g clip-path="url(#clip0_180_8216)">
<path d="M190.224 308.28L203.095 268.309C203.095 268.309 236.773 294.382 256.015 310.783C260.727 314.905 264.698 318.289 266.881 320.676C278.362 332.567 265.132 351.603 258.385 351.957C256.338 352.002 249.362 348.056 240.554 342.548C220.233 329.753 190.224 308.28 190.224 308.28Z" fill="#FFA500"/>
<path d="M203.528 266.571C202.831 266.398 202.048 266.572 201.702 267.224C201.138 268.007 201.227 269.136 202.013 269.7C202.318 269.96 235.863 295.816 254.929 312.173C260.121 316.598 263.569 319.853 265.663 321.849C271.556 327.924 269.703 335.397 268.189 339.264C265.637 345.825 260.728 349.956 258.507 349.959C257.942 350.003 255.154 349.31 241.723 340.81C221.534 328.233 191.875 306.847 191.57 306.587C190.785 306.023 189.653 306.111 189.046 307.067C188.482 307.849 188.572 308.979 189.531 309.586C189.837 309.846 219.713 331.101 239.859 343.852C253.638 352.439 257.08 353.478 258.734 353.52C263.044 353.299 268.732 347.516 271.588 340.477C274.876 332.438 273.638 324.751 268.356 319.197C266.304 317.027 262.857 313.772 257.316 309.26C238.25 292.903 204.531 267.004 204.225 266.744C204.051 266.701 203.877 266.657 203.528 266.571Z" fill="#2D2B39"/>
<path d="M76.7326 279.133L107.12 308.117C107.12 308.117 69.0116 327.114 45.8846 337.315C40.1257 339.767 35.3535 341.872 32.256 342.8C16.5622 347.971 5.17598 327.771 7.79028 321.539C8.63882 319.676 15.2232 315.108 24.0101 309.568C44.3601 296.827 76.7326 279.133 76.7326 279.133Z" fill="#FFA500"/>
<path d="M24.0098 309.57L45.8839 337.316C40.1252 339.768 35.353 341.873 32.2555 342.801C16.5619 347.972 5.1758 327.772 7.79007 321.54C8.63861 319.677 15.2229 315.109 24.0098 309.57Z" fill="#862D43"/>
<path d="M108.498 309.261C108.956 308.708 109.14 307.927 108.704 307.331C108.244 306.483 107.189 306.072 106.34 306.534C105.973 306.696 68.1167 325.67 45.1043 335.732C38.8637 338.485 34.4355 340.175 31.7281 341.194C23.6977 343.86 17.7764 338.941 14.9533 335.895C10.1563 330.742 8.57148 324.522 9.53472 322.521C9.74111 321.992 11.5762 319.781 25.0664 311.379C45.164 298.662 77.307 281.245 77.6741 281.083C78.523 280.621 78.9358 279.563 78.339 278.6C77.8798 277.752 76.8242 277.342 75.8606 277.942C75.4935 278.104 43.3735 295.773 23.1382 308.377C9.41866 317.055 6.98702 319.704 6.23016 321.176C4.55608 325.155 7.28854 332.795 12.3839 338.429C18.1909 344.888 25.6489 347.116 32.9452 344.773C35.7902 343.869 40.2184 342.179 46.6884 339.15C69.7008 329.087 107.672 309.976 108.039 309.814C108.154 309.675 108.268 309.537 108.498 309.261Z" fill="#2D2B39"/>
<path d="M216.793 352.22C216.793 352.22 132.288 352.22 77.3146 352.22C73.4006 327.646 77.1367 305.922 81.2285 291.142C84.7867 279.033 88.5227 271.733 88.5227 271.733L192.954 250.899C197.935 259.802 201.849 268.527 205.051 276.897C221.241 319.099 216.793 352.22 216.793 352.22Z" fill="#FFA500"/>
<path d="M108.627 271.733C108.627 271.733 100.977 307.524 104.002 352.22C126.418 352.22 160.932 352.22 160.932 352.22C160.932 352.22 163.6 304.853 151.147 250.899" fill="#FFECCA"/>
<path opacity="0.2" d="M205.23 276.718C145.098 345.097 97.2412 307.702 81.4076 291.142C84.9657 279.033 88.7017 271.733 88.7017 271.733L193.133 250.899C198.114 259.802 202.028 268.527 205.23 276.718Z" fill="#AE2B39"/>
<path d="M93.1498 283.663C93.1498 283.663 99.7323 308.058 136.559 305.209C173.386 302.36 182.637 268.527 182.637 268.527" fill="#CC6200"/>
<path d="M77.3158 354H216.794C217.684 354 218.396 353.288 218.574 352.397C218.574 352.041 223.021 318.386 206.832 276.184C203.451 267.281 199.36 258.377 194.556 250.008C194.2 249.296 193.489 248.94 192.599 249.118L88.1681 269.952C87.6344 270.13 87.1006 270.486 86.9227 270.842C86.7448 271.198 83.0088 278.499 79.4507 290.608C75.3588 304.853 71.267 327.29 75.3588 352.397C75.7146 353.288 76.4263 354 77.3158 354ZM215.193 350.439H78.9169C75.3588 326.577 79.2728 305.387 83.1867 291.676C86.0332 282.06 88.8797 275.472 89.9472 273.335L192.065 252.857C196.513 260.692 200.249 269.061 203.451 277.431C217.328 313.756 215.727 343.494 215.193 350.439Z" fill="#2D2B39"/>
<path d="M132.693 346.267C147.16 346.267 158.888 334.534 158.888 320.061C158.888 305.587 147.16 293.854 132.693 293.854C118.226 293.854 106.498 305.587 106.498 320.061C106.498 334.534 118.226 346.267 132.693 346.267Z" fill="#FF7B01"/>
<path d="M124.153 329.149C127.484 331.008 131.745 329.806 133.615 326.48L134.801 324.369L136.915 325.549C140.246 327.407 144.507 326.205 146.377 322.879C148.247 319.553 147.05 315.306 143.719 313.447C138.979 310.802 134.239 308.157 129.486 305.505L121.498 319.727C119.628 323.053 120.823 327.29 124.153 329.149Z" fill="#A15108"/>
<path d="M130.919 310.632L124.778 321.557C123.929 323.067 124.48 325.021 125.991 325.864C127.503 326.708 129.463 326.155 130.322 324.643L133.35 319.257L138.756 322.274C140.268 323.117 142.228 322.564 143.087 321.052C143.935 319.542 143.385 317.588 141.873 316.745C138.219 314.697 134.571 312.67 130.919 310.632Z" fill="#C86407"/>
<path d="M135.75 327.773L141.81 331.154L132.348 333.824L135.75 327.773Z" fill="#A15108"/>
<path d="M139.14 331.908L132.349 333.824L134.909 329.27C133.596 331.621 139.14 331.908 139.14 331.908Z" fill="#864406"/>
<path d="M134.792 324.371C126.888 319.96 138.716 310.671 129.479 305.516L121.499 319.726C119.629 323.052 120.826 327.3 124.157 329.159C127.488 331.018 131.748 329.815 133.618 326.489L134.792 324.371Z" fill="#C86407"/>
<path d="M133.113 312.746C133.459 310.066 133.014 307.489 129.478 305.516L128.492 307.269C130.387 308.091 133.332 309.843 133.113 312.746Z" fill="#864406"/>
<path d="M134.792 324.372C132.909 323.321 132.147 321.996 131.956 320.511C129.074 326.415 121.105 326.834 121.329 320.044C119.705 323.322 120.926 327.347 124.154 329.149C127.485 331.008 131.746 329.806 133.616 326.479L134.792 324.372Z" fill="#864406"/>
<path d="M134.791 324.372C129.105 319.712 137.867 314.097 135 308.598C133.165 307.566 131.323 306.546 129.478 305.517C138.715 310.671 126.899 319.968 134.791 324.372Z" fill="#6E3601"/>
<path d="M134.792 324.372C126.886 319.961 138.716 310.671 129.478 305.516C131.016 306.374 132.542 308.15 132.88 310.154C133.147 311.715 132.81 313.392 132.47 314.909C132.028 316.863 131.328 319.246 131.857 321.239C132.247 322.7 133.405 323.665 134.792 324.372Z" fill="#6E3601"/>
<path d="M125.744 332.372L125.962 332.762L126.308 332.804L126.035 333.021L126.056 333.478L125.845 333.075L125.498 333.033L125.772 332.816L125.744 332.372Z" fill="#C86407"/>
<path d="M123.307 331.348L123.797 332.243L124.578 332.334L123.962 332.831L124.012 333.85L123.532 332.952L122.738 332.854L123.367 332.364L123.307 331.348Z" fill="#C86407"/>
<path d="M121.309 311.47L121.799 312.365L122.58 312.456L121.962 312.943L122.011 313.962L121.521 313.067L120.74 312.975L121.359 312.489L121.309 311.47Z" fill="#C86407"/>
<path d="M147.188 325.569L147.668 326.467L148.459 326.556L147.834 327.055L147.893 328.072L147.403 327.177L146.609 327.078L147.238 326.588L147.188 325.569Z" fill="#C86407"/>
<path d="M141.632 305.393L142.46 306.914L143.8 307.074L142.741 307.911L142.828 309.641L142.01 308.117L140.67 307.957L141.729 307.12L141.632 305.393Z" fill="#C86407"/>
<path d="M174.809 113.43L228.18 77.4598C228.18 77.4598 218.218 54.3109 225.69 48.4346C233.162 42.5584 238.499 64.995 245.26 61.4336C252.02 57.8723 232.272 38.2847 242.235 31.162C252.198 24.0393 255.934 53.4205 261.271 50.9276C266.786 48.6127 260.737 27.6006 274.792 28.1348C288.669 28.669 287.245 51.996 270.344 67.4879C253.443 82.8018 189.219 134.976 189.219 134.976" fill="#B55D47"/>
<path d="M119.48 112.895L78.9178 62.6801C78.9178 62.6801 95.2852 43.6268 89.948 35.6137C84.6108 27.7787 72.869 47.7224 67.5318 42.3803C62.1946 37.0383 86.7457 24.2173 79.2736 14.4236C71.8015 4.62982 59.7039 31.6962 55.2562 27.7787C50.8086 23.8612 62.5504 5.69823 49.0295 2.13686C35.5086 -1.4245 30.1714 21.3683 41.7353 40.9558C53.2992 60.5433 99.377 129.456 99.377 129.456" fill="#B55D47"/>
<path d="M189.397 136.935C189.752 136.935 190.108 136.757 190.464 136.578C191.176 136.044 254.866 84.2263 271.589 68.9125C284.399 57.338 287.957 42.2022 284.932 33.833C283.331 29.2032 279.595 26.5322 274.792 26.3541C264.473 25.998 263.228 35.7917 262.516 42.2022C262.16 45.0513 261.627 48.7907 260.559 49.3249C259.67 48.9688 257.713 44.5171 256.467 41.8461C253.799 35.9698 251.13 29.7374 246.683 28.4909C244.903 27.9567 242.946 28.3129 240.99 29.7374C234.229 34.5453 238.321 43.4487 241.701 50.5714C243.48 54.3109 245.615 59.1187 244.192 59.831C242.413 60.7213 239.744 56.9819 237.431 53.7766C234.763 50.0372 232.094 46.1197 228.714 45.7636C227.113 45.5855 225.69 45.9416 224.266 47.1881C216.972 53.0644 223.555 71.4054 225.69 76.9255L173.919 111.827C173.029 112.361 172.851 113.43 173.385 114.32C173.919 115.21 174.986 115.388 175.876 114.854L229.248 78.8843C229.959 78.3501 230.315 77.4597 229.959 76.7475C226.401 68.3783 222.309 53.5986 226.935 49.8591C227.647 49.1469 228.18 49.1469 228.536 49.3249C230.493 49.6811 232.806 52.8863 234.763 55.9135C237.965 60.3652 241.523 65.5292 245.971 63.2143C250.419 60.8994 247.75 55.2012 245.081 49.3249C241.523 41.4899 239.21 35.7917 243.302 32.9426C244.548 32.0523 245.437 32.0523 245.971 32.2304C248.817 32.9426 251.308 38.8189 253.443 43.6267C256.112 49.503 258.246 54.667 262.16 53.0644C265.185 51.8179 265.719 47.7223 266.252 43.0925C267.142 35.2575 268.387 30.0935 274.792 30.4497C278.172 30.6278 280.485 32.2304 281.73 35.4356C284.399 42.7364 280.485 56.4477 269.277 66.5976C252.731 81.7334 188.863 133.551 188.329 134.086C187.618 134.62 187.44 135.866 188.151 136.578C188.329 136.757 188.863 136.935 189.397 136.935Z" fill="#2D2B39"/>
<path d="M99.198 131.236C99.5538 131.236 99.9097 131.058 100.265 130.88C101.155 130.346 101.333 129.278 100.799 128.387C100.265 127.675 54.7214 59.4748 43.1575 40.0654C35.5075 27.0664 35.6854 12.8209 40.311 6.58853C42.4459 3.9175 45.1145 2.84909 48.4947 3.73943C54.7214 5.34205 54.3656 10.6841 52.9424 18.341C52.0528 22.9708 51.5191 26.8883 54.0098 29.0251C57.2121 31.6962 60.9481 27.6006 65.04 22.6147C68.4202 18.6972 72.5121 13.8893 75.5365 13.8893C76.0702 13.8893 76.7818 14.0674 77.8493 15.3139C80.8737 19.2314 77.1376 24.0392 71.2667 30.4497C66.8191 35.2575 62.7272 39.8873 66.2853 43.4487C70.0214 47.0101 74.8248 43.2706 79.2725 39.8873C82.119 37.7505 85.3213 35.0795 87.2783 35.4356C87.6341 35.4356 88.1678 35.6137 88.7015 36.504C92.0818 41.3119 83.7202 54.3109 77.8493 61.2555C77.3155 61.9678 77.3155 62.8581 77.8493 63.5704L118.056 114.142C118.59 114.854 119.835 115.032 120.547 114.32C121.258 113.786 121.436 112.539 120.725 111.827L81.0516 62.8581C84.7876 58.2284 96.5294 42.7364 91.1922 34.9014C90.1248 33.4769 88.8795 32.5865 87.4562 32.4084C84.076 31.8742 80.3399 34.7233 76.7818 37.5724C73.5795 40.0654 70.0214 42.9145 68.5981 41.4899C67.3528 40.2435 70.9109 36.504 73.7574 33.2988C79.0946 27.4225 85.4992 20.2998 80.5179 13.7113C79.0946 11.9306 77.4934 10.8622 75.5365 10.8622C70.9109 10.6841 66.6412 15.8481 62.3714 20.834C60.4144 22.9708 57.2121 26.7103 56.1447 26.8883C55.2551 26.1761 55.9668 22.4366 56.5005 19.5875C57.5679 13.1771 59.347 3.56136 49.3842 0.890339C44.7587 -0.35614 40.4889 1.06841 37.4645 4.98591C32.1273 11.9306 31.2378 27.6006 39.9552 42.3803C51.5191 61.7897 97.2411 130.168 97.5969 130.88C98.1306 131.058 98.6643 131.236 99.198 131.236Z" fill="#2D2B39"/>
<path d="M175.163 114.498C175.163 114.498 163.243 77.6379 146.698 74.0766C134.422 71.4055 136.735 89.5685 136.735 89.5685C136.735 89.5685 132.11 79.5967 123.748 82.6239C115.387 85.651 121.969 105.239 121.969 105.239" fill="#862D43"/>
<path d="M175.163 116.279C175.341 116.279 175.519 116.279 175.697 116.279C176.587 115.923 177.12 115.032 176.765 113.964C176.231 112.361 164.311 76.2134 147.054 72.2959C143.674 71.5836 140.827 72.1179 138.693 74.0766C136.024 76.5696 135.134 80.4871 134.957 83.8704C132.11 81.1993 128.196 79.0625 123.215 81.0213C113.43 84.5826 119.657 103.636 120.368 105.951C120.724 106.841 121.614 107.375 122.681 107.019C123.57 106.663 124.104 105.773 123.748 104.704C122.147 100.075 118.945 86.3633 124.46 84.4046C131.22 81.9116 135.134 90.1028 135.312 90.4589C135.668 91.1712 136.558 91.7054 137.447 91.3492C138.337 91.1712 138.87 90.2808 138.693 89.3905C138.337 86.8975 138.159 79.5967 141.183 76.7476C142.429 75.6792 144.03 75.3231 146.343 75.8573C161.642 79.2406 173.384 114.676 173.562 115.032C173.74 115.745 174.452 116.279 175.163 116.279Z" fill="#2D2B39"/>
<path d="M101.155 117.169C101.155 117.169 101.511 81.1992 48.4949 68.7344C26.2566 108.8 47.0716 135.51 80.5181 133.017" fill="#FFA500"/>
<path d="M76.2478 134.976C77.671 134.976 79.0943 134.976 80.6955 134.798C81.7629 134.798 82.4745 133.908 82.2966 132.839C82.2966 131.771 81.4071 131.058 80.3396 131.236C64.8618 132.305 52.2304 127.141 45.6479 116.991C38.1758 105.417 39.4211 89.0343 49.206 70.8713C98.8419 83.158 99.1977 115.923 99.1977 117.347C99.1977 118.416 99.9094 119.128 100.977 119.128C102.044 119.128 102.756 118.416 102.756 117.347C102.756 116.991 102.4 79.9528 48.6723 67.1319C47.9607 66.9538 47.0711 67.3099 46.7153 68.0222C35.6851 87.9659 34.2619 105.951 42.6235 119.128C49.3839 129.278 61.3036 134.976 76.2478 134.976Z" fill="#2D2B39"/>
<path d="M86.3887 120.374C86.3887 120.374 80.3398 94.0203 56.8562 85.8292C47.783 107.197 67.5306 124.826 86.3887 120.374Z" fill="#FFECCA"/>
<path d="M226.758 219.558C220.175 248.049 202.385 274.581 162 284.197C97.0641 299.333 51.6979 274.047 29.4596 245.556C17.8957 230.777 12.7364 214.929 14.1597 203.71C19.141 167.206 55.0782 164.001 55.0782 164.001L66.4642 120.374C134.958 71.7615 221.777 129.99 221.777 129.99C221.777 129.99 236.721 176.822 226.758 219.558Z" fill="#FFA500"/>
<path d="M53.4754 182.164C46.7149 191.068 58.9905 201.574 66.8184 203.176C75.7137 204.957 89.7683 196.053 88.3451 188.931C86.9218 181.808 56.4998 178.247 53.4754 182.164Z" fill="#862D43"/>
<path d="M58.9916 185.369C57.7463 187.862 77.6718 191.246 78.7392 188.575C79.6288 185.725 61.8381 180.027 58.9916 185.369Z" fill="white"/>
<path d="M120.37 224.366C117.345 237.009 106.315 251.077 90.3033 246.981C89.4138 246.803 88.5242 246.447 87.6347 246.091C72.6906 239.68 68.7766 215.107 70.3778 214.038C71.4452 213.326 73.2243 212.614 75.1813 212.08C85.6777 208.874 106.137 207.272 115.21 208.696C117.523 209.052 119.124 209.587 119.48 210.299C121.437 213.682 121.615 218.846 120.37 224.366Z" fill="#2D2B39"/>
<path d="M71.6229 147.084C60.059 150.29 56.8567 171.836 75.359 173.26C94.0391 174.685 91.7264 141.564 71.6229 147.084Z" fill="#2D2B39"/>
<path d="M156.484 153.851C171.251 157.234 173.03 181.808 152.215 183.41C131.4 185.013 133.712 148.687 156.484 153.851Z" fill="#2D2B39"/>
<path d="M72.8678 159.015C70.4114 159.015 68.4201 157.022 68.4201 154.563C68.4201 152.105 70.4114 150.112 72.8678 150.112C75.3241 150.112 77.3154 152.105 77.3154 154.563C77.3154 157.022 75.3241 159.015 72.8678 159.015Z" fill="white"/>
<path d="M148.477 166.316C146.021 166.316 144.029 164.323 144.029 161.864C144.029 159.405 146.021 157.412 148.477 157.412C150.934 157.412 152.925 159.405 152.925 161.864C152.925 164.323 150.934 166.316 148.477 166.316Z" fill="white"/>
<path d="M175.165 154.741C176.055 154.741 177.122 154.385 177.834 153.851C179.791 152.427 180.146 149.577 178.723 147.619C168.049 133.907 152.571 135.51 145.633 138.181C143.32 139.071 142.252 141.742 143.142 144.057C144.031 146.372 146.7 147.441 148.835 146.55C149.369 146.372 162.356 141.386 171.429 153.139C172.496 154.029 173.92 154.741 175.165 154.741Z" fill="#892B34"/>
<path d="M67.7088 142.989C68.7762 142.989 69.8437 142.633 70.7332 141.742C77.8495 134.976 84.7878 139.428 85.4994 139.962C87.4564 141.386 90.3029 140.852 91.7262 138.893C93.1494 136.935 92.6157 134.086 90.6587 132.661C86.0332 129.278 74.6471 125.538 64.5065 135.154C62.7274 136.935 62.7274 139.606 64.3286 141.386C65.396 142.455 66.4635 142.989 67.7088 142.989Z" fill="#892B34"/>
<path d="M171.25 189.465C171.25 201.395 195.979 201.395 195.09 189.465C194.378 177.534 171.25 173.082 171.25 189.465Z" fill="#FF3F69"/>
<path opacity="0.2" d="M226.757 219.558C220.174 248.049 202.384 274.581 161.999 284.197C97.063 299.333 51.6969 274.047 29.4586 245.556C52.5864 262.651 100.443 286.69 164.845 259.268C193.133 246.981 212.88 232.913 226.757 219.558Z" fill="#AE2B39"/>
<path d="M115.387 208.696C115.387 212.97 114.853 218.312 112.54 219.558C108.626 221.695 85.3205 222.942 80.3391 220.805C76.781 219.202 75.7136 214.573 75.5357 212.08C85.8542 208.874 106.313 207.272 115.387 208.696Z" fill="white"/>
<path d="M120.369 224.366C117.345 237.009 106.315 251.076 90.3029 246.981C89.4134 246.803 88.5239 246.447 87.6343 246.091C91.5483 236.475 100.444 224.01 120.369 224.366Z" fill="#FF3F69"/>
<path d="M117.523 113.429C112.008 110.936 105.959 128.209 109.873 129.634C115.388 131.592 123.038 115.922 117.523 113.429Z" fill="#FF7C00"/>
<path d="M137.448 115.032C131.399 115.566 134.246 133.551 138.516 133.017C144.387 131.949 143.675 114.498 137.448 115.032Z" fill="#FF7C00"/>
<path d="M127.486 110.046C121.438 109.512 121.082 127.853 125.351 127.853C131.4 127.853 133.713 110.58 127.486 110.046Z" fill="#FF7C00"/>
<path d="M123.571 290.608C135.313 290.608 148.122 289.183 162.177 285.978C197.758 277.609 219.996 255.528 228.358 220.093C238.321 177.356 223.554 129.99 223.376 129.456C223.198 129.1 223.021 128.744 222.665 128.566C221.775 128.031 134.067 70.3372 65.2175 118.772C64.8617 118.95 64.6838 119.306 64.5059 119.84L53.4757 162.221C46.8931 163.289 16.827 169.699 12.2014 203.354C10.4223 215.641 16.2932 231.845 27.8571 246.625C36.9304 258.199 67.1745 290.608 123.571 290.608ZM220.352 131.059C221.953 136.579 234.229 180.027 224.978 219.202C217.15 253.213 195.801 274.404 161.465 282.417C81.9407 300.936 41.378 258.021 30.7036 244.31C20.0293 230.599 14.3363 214.929 15.7595 203.71C20.563 168.987 53.6536 165.604 55.0768 165.426C55.7885 165.426 56.5001 164.892 56.678 164.179L67.8861 121.265C131.932 76.7477 213.058 126.429 220.352 131.059Z" fill="#2D2B39"/>
<path d="M229.604 152.07C238.855 152.07 247.216 149.043 253.443 143.345C264.829 132.839 268.031 115.032 262.338 92.9517C262.16 92.2395 261.449 91.7053 260.737 91.5272C232.094 90.8149 215.905 100.253 207.365 108.266C198.114 116.991 195.801 126.072 195.623 126.429C195.445 127.319 195.979 128.387 196.869 128.565C197.758 128.743 198.826 128.209 199.004 127.319C199.359 125.894 208.077 94.5544 259.136 95.0886C263.939 115.032 261.093 131.236 250.952 140.674C242.057 148.865 228.536 150.646 213.77 145.66C212.88 145.304 211.813 145.838 211.457 146.728C211.101 147.619 211.635 148.687 212.524 149.043C218.573 151.002 224.266 152.07 229.604 152.07Z" fill="#2D2B39"/>
</g>
<defs>
<clipPath id="clip0_180_8216">
<rect width="286" height="354" fill="white" transform="matrix(-1 0 0 1 286 0)"/>
</clipPath>
</defs>
</svg>
