<svg width="201" height="302" viewBox="0 0 201 302" fill="none" xmlns="http://www.w3.org/2000/svg">
<g clip-path="url(#clip0_180_8153)">
<path d="M228.571 301.275C228.571 301.275 146.693 301.275 93.4288 301.275C89.6365 277.477 93.2564 256.438 97.2211 242.124C100.669 230.397 104.288 223.327 104.288 223.327L205.473 203.15C210.3 211.772 214.092 220.223 217.195 228.328C232.881 269.372 228.571 301.275 228.571 301.275Z" fill="#FFA500"/>
<path d="M123.767 223.327C123.767 223.327 116.355 257.99 119.285 301.275C141.005 301.275 174.445 301.275 174.445 301.275C174.445 301.275 177.031 255.403 164.965 203.15" fill="#FFECCA"/>
<path opacity="0.2" d="M217.194 228.328C158.931 294.55 112.562 258.335 97.2207 242.297C100.668 230.57 104.288 223.499 104.288 223.499L205.473 203.322C210.299 211.772 214.264 220.223 217.194 228.328Z" fill="#AE2B39"/>
<path d="M108.77 234.881C108.77 234.881 115.147 258.507 150.829 255.748C186.511 252.989 195.475 220.223 195.475 220.223" fill="#CC6200"/>
<path d="M228.571 303H93.4285C92.5666 303 91.8771 302.31 91.7047 301.62C87.7401 277.305 91.7047 255.575 95.6693 241.779C99.1169 230.052 102.737 222.809 102.909 222.637C103.082 222.12 103.599 221.775 104.116 221.775L205.3 201.598C205.99 201.425 206.852 201.77 207.196 202.46C211.678 210.565 215.815 219.188 219.09 227.811C234.604 268.854 230.467 301.276 230.467 301.62C230.122 302.483 229.433 303 228.571 303ZM94.8075 299.551H226.847C227.364 292.825 228.916 264.026 215.47 228.845C212.368 220.74 208.748 212.635 204.438 205.047L105.322 224.879C104.288 226.948 101.358 233.329 98.7721 242.641C95.1522 255.92 91.36 276.442 94.8075 299.551Z" fill="#2D2B39"/>
<path d="M144.576 291.164C157.848 291.164 168.607 280.389 168.607 267.098C168.607 253.806 157.848 243.031 144.576 243.031C131.305 243.031 120.546 253.806 120.546 267.098C120.546 280.389 131.305 291.164 144.576 291.164Z" fill="#FF7B01"/>
<path d="M136.739 275.444C139.794 277.15 143.703 276.045 145.42 272.991L146.509 271.052L148.448 272.135C151.503 273.841 155.413 272.736 157.129 269.682C158.845 266.628 157.748 262.728 154.692 261.022C150.344 258.594 145.996 256.167 141.636 253.732L134.305 266.793C132.588 269.847 133.683 273.738 136.739 275.444Z" fill="#A15108"/>
<path d="M142.95 258.441L137.313 268.473C136.534 269.859 137.039 271.653 138.426 272.427C139.812 273.202 141.611 272.693 142.399 271.305L145.178 266.359L150.137 269.128C151.524 269.902 153.323 269.394 154.111 268.005C154.89 266.619 154.385 264.825 152.998 264.051C149.646 262.172 146.3 260.311 142.95 258.441Z" fill="#C86407"/>
<path d="M147.381 274.181L152.939 277.284L144.259 279.737L147.381 274.181Z" fill="#A15108"/>
<path d="M150.49 277.976L144.26 279.737L146.609 275.555C145.404 277.714 150.49 277.976 150.49 277.976Z" fill="#864406"/>
<path d="M146.502 271.054C139.25 267.005 150.105 258.472 141.631 253.741L134.306 266.792C132.589 269.846 133.686 273.747 136.742 275.453C139.798 277.159 143.708 276.054 145.424 272.999L146.502 271.054Z" fill="#C86407"/>
<path d="M144.962 260.38C145.28 257.918 144.872 255.552 141.628 253.741L140.723 255.351C142.461 256.105 145.163 257.714 144.962 260.38Z" fill="#864406"/>
<path d="M146.503 271.055C144.775 270.09 144.077 268.875 143.901 267.511C141.256 272.933 133.945 273.319 134.152 267.084C132.661 270.094 133.78 273.79 136.742 275.444C139.797 277.15 143.706 276.045 145.423 272.991L146.503 271.055Z" fill="#864406"/>
<path d="M146.499 271.057C141.282 266.778 149.324 261.62 146.694 256.57C145.01 255.623 143.32 254.687 141.627 253.742C150.103 258.474 139.257 267.014 146.499 271.057Z" fill="#6E3601"/>
<path d="M146.501 271.056C139.247 267.007 150.106 258.473 141.628 253.741C143.039 254.529 144.44 256.159 144.749 257.999C144.994 259.433 144.684 260.973 144.373 262.366C143.966 264.161 143.323 266.35 143.808 268.18C144.166 269.522 145.228 270.408 146.501 271.056Z" fill="#6E3601"/>
<path d="M138.201 278.403L138.401 278.762L138.719 278.801L138.468 279L138.487 279.42L138.294 279.049L137.976 279.011L138.227 278.811L138.201 278.403Z" fill="#C86407"/>
<path d="M135.965 277.463L136.415 278.285L137.132 278.369L136.567 278.825L136.612 279.761L136.172 278.937L135.443 278.846L136.02 278.396L135.965 277.463Z" fill="#C86407"/>
<path d="M134.133 259.208L134.583 260.03L135.3 260.114L134.732 260.561L134.777 261.497L134.328 260.675L133.611 260.591L134.179 260.144L134.133 259.208Z" fill="#C86407"/>
<path d="M157.874 272.156L158.314 272.981L159.04 273.062L158.466 273.521L158.521 274.454L158.071 273.633L157.342 273.542L157.919 273.092L157.874 272.156Z" fill="#C86407"/>
<path d="M152.776 253.628L153.536 255.024L154.766 255.171L153.793 255.94L153.874 257.528L153.123 256.129L151.893 255.983L152.866 255.214L152.776 253.628Z" fill="#C86407"/>
<path d="M198.404 80.5356L253.047 50.3563C253.047 50.3563 245.463 27.2476 253.047 22.074C260.632 17.0729 263.907 39.1469 270.802 36.3876C277.525 33.4559 260.287 12.934 270.457 7.07062C280.8 1.03476 281.662 29.662 287.178 27.765C292.694 25.868 288.729 5.34609 302.174 7.07062C315.62 8.79515 312.172 31.214 294.59 44.6654C277.008 58.1167 210.643 102.955 210.643 102.955" fill="#B55D47"/>
<path d="M111.183 79.3284L57.7465 47.0797C57.7465 47.0797 66.3652 24.3159 58.7807 18.9698C51.3686 13.6238 47.2315 35.6978 40.5089 32.5936C33.7862 29.4895 52.0581 9.65737 41.8879 3.2766C31.8901 -3.10416 29.8216 25.3506 24.3056 23.4536C18.9619 21.0393 23.7885 0.517355 10.3431 1.72453C-3.10216 2.9317 -0.516519 25.5231 16.5487 39.6642C33.6139 53.8054 98.2547 101.057 98.2547 101.057" fill="#B55D47"/>
<path d="M210.472 104.507C209.954 104.507 209.437 104.162 209.093 103.817C208.575 102.954 208.748 101.92 209.61 101.402C210.299 100.885 276.147 56.3921 293.557 43.1133C305.278 34.1457 310.277 21.3842 308.209 14.1412C307.347 10.8645 305.278 9.14002 302.003 8.62266C295.797 7.76039 294.246 12.5891 292.695 20.177C291.833 24.6608 290.971 28.4548 287.868 29.317C283.904 30.5242 282.18 25.5231 280.284 19.4872C278.732 14.831 276.664 8.96757 274.078 7.93285C273.561 7.76039 272.872 7.58794 271.493 8.45021C267.355 10.8645 269.079 16.5555 271.837 24.3159C274.078 30.3517 276.147 36.0427 271.493 37.9397C266.838 39.8367 263.908 34.6631 261.15 30.0068C259.426 26.9027 257.358 23.4536 255.634 23.1087C255.289 23.1087 254.772 22.9363 253.91 23.4536C249.084 26.5578 251.842 41.2163 254.6 49.6665C254.944 50.5287 254.6 51.391 253.738 51.7359L199.095 81.9152C198.233 82.4326 197.199 82.0877 196.681 81.2254C196.164 80.3631 196.509 79.3284 197.371 78.8111L250.807 49.3216C249.084 43.8031 244.257 25.5231 251.842 20.5219C253.221 19.4872 254.772 19.3147 256.151 19.6597C259.426 20.3495 261.667 24.3159 263.908 28.1098C265.804 31.5589 268.045 35.3529 269.941 34.4906C271.493 33.8008 269.769 29.1446 268.39 25.3506C265.804 18.28 262.529 9.31247 269.596 5.1736C271.492 3.96643 273.389 3.79397 275.112 4.48379C279.249 6.03586 281.318 12.2442 283.386 18.1076C284.248 20.8668 285.8 25.3506 286.834 25.6955C287.868 25.3506 288.558 21.9015 289.247 18.9698C290.626 12.7615 292.522 3.44907 302.52 4.82869C307.174 5.34605 310.449 8.27775 311.656 12.7615C313.897 21.0393 309.07 35.1804 295.797 45.3552C278.388 58.634 212.368 103.299 211.678 103.644C211.161 104.507 210.816 104.507 210.472 104.507Z" fill="#2D2B39"/>
<path d="M98.0821 102.782C97.7374 102.782 97.3926 102.61 97.0479 102.437C96.5307 101.92 32.2346 54.8401 15.3418 40.8714C2.41362 30.3517 -1.89577 15.8657 0.689862 7.7604C2.06887 3.10417 5.51638 0.517372 10.1705 1.24462e-05C20.1683 -0.862253 21.7197 8.45021 22.7539 14.6585C23.2711 17.4178 23.7882 21.0393 24.9948 21.3842C25.8567 21.0393 27.5805 16.5555 28.6147 13.9687C30.8556 8.10531 33.0965 2.06945 37.4059 0.517372C39.1296 1.24276e-05 41.0258 0.172466 42.9219 1.37964C49.8169 5.69096 46.197 14.4861 43.2667 21.5566C41.7153 25.3506 39.8191 30.0068 41.1981 30.6967C42.9219 31.5589 45.3352 27.765 47.4037 24.4883C49.8169 20.6944 52.2302 16.9004 55.5053 16.2106C56.8843 15.8657 58.4357 16.2106 59.8147 17.2453C67.2269 22.5914 61.7108 40.6989 59.8147 46.045L112.045 77.7763C112.906 78.2937 113.079 79.3284 112.562 80.1907C112.045 81.0529 111.01 81.2254 110.321 80.708L56.8843 48.4593C56.1948 48.1144 55.8501 47.0797 56.1948 46.3899C59.2976 38.1121 62.5727 23.6261 57.9186 20.177C57.0567 19.6597 56.5396 19.6597 56.3672 19.6597C54.4711 20.0046 52.4026 23.4536 50.5064 26.3853C47.7484 30.8691 44.4733 36.0427 39.9915 33.9733C35.5098 31.9038 37.7506 26.3853 40.1639 20.3495C43.2667 12.5891 45.1628 7.07059 41.1981 4.48379C39.8191 3.62153 39.1296 3.79398 38.6125 3.96643C35.8545 4.8287 33.786 10.6921 32.0622 15.3483C29.8214 21.2117 27.9252 26.2129 24.133 24.8333C21.2026 23.7985 20.5131 19.8321 19.6512 15.5208C18.0998 7.7604 16.7208 2.93171 10.5153 3.44907C7.24014 3.79398 4.99925 5.51851 4.13738 8.62266C1.72412 15.8657 6.20588 28.9721 17.5827 38.2846C34.4755 52.0808 98.5992 99.1605 99.1164 99.6779C99.8059 100.195 99.9782 101.402 99.4611 102.092C99.1164 102.61 98.5993 102.782 98.0821 102.782Z" fill="#2D2B39"/>
<path d="M188.234 71.0506C188.234 71.0506 176.685 35.3529 160.654 31.9038C148.76 29.317 151.001 46.9072 151.001 46.9072C151.001 46.9072 146.519 37.2498 138.418 40.1815C130.316 43.1132 136.694 62.0831 136.694 62.0831" fill="#862D43"/>
<path d="M188.234 72.7752C187.545 72.7752 186.855 72.2578 186.51 71.568C186.338 71.2231 175.134 36.905 160.137 33.6284C157.896 33.111 156.345 33.4559 155.138 34.4906C152.208 37.2499 152.38 44.3205 152.725 46.7348C152.897 47.5971 152.38 48.4593 151.518 48.6318C150.656 48.8042 149.794 48.4593 149.45 47.7695C149.277 47.4246 145.485 39.6642 138.935 41.9061C133.591 43.8031 136.694 57.082 138.245 61.5658C138.59 62.428 138.073 63.4627 137.211 63.8076C136.349 64.1526 135.315 63.6352 134.97 62.7729C134.281 60.7035 128.248 42.0786 137.728 38.6295C142.555 36.905 146.519 38.802 149.105 41.3888C149.277 38.1121 150.139 34.1457 152.725 31.9038C154.793 30.0069 157.551 29.4895 160.827 30.1793C177.719 33.8008 189.268 68.9812 189.613 70.5333C189.958 71.3956 189.441 72.4303 188.579 72.7752C188.579 72.7752 188.407 72.7752 188.234 72.7752Z" fill="#2D2B39"/>
<path d="M92.3943 76.3967C92.3943 76.3967 57.7468 72.9476 41.0264 123.131C77.7424 147.965 105.323 130.202 105.84 97.6084" fill="#FFA500"/>
<path d="M73.4328 136.583C63.2626 136.583 51.8858 132.444 39.9919 124.511C39.3024 123.994 39.13 123.304 39.3024 122.614C48.2659 96.2288 62.056 84.502 72.2262 79.5009C83.2582 73.9824 92.2217 74.6722 92.5665 74.6722C93.4284 74.8446 94.2903 75.5345 94.1179 76.5692C93.9455 77.4314 93.256 78.2937 92.2217 78.1212C90.8427 78.1212 59.298 75.7069 43.0947 122.442C59.8151 133.479 75.5013 136.065 87.3952 129.857C97.7378 124.511 103.943 112.612 104.116 97.6084C104.116 96.5737 104.978 95.8839 105.839 95.8839C106.874 95.8839 107.563 96.7462 107.563 97.6084C107.391 113.991 100.496 126.753 88.9466 132.789C84.2925 135.376 79.1212 136.583 73.4328 136.583Z" fill="#2D2B39"/>
<path d="M94.1178 90.8828C94.1178 90.8828 68.2615 94.5043 58.2637 116.406C78.0869 126.925 96.8758 109.508 94.1178 90.8828Z" fill="#FFECCA"/>
<path d="M37.0611 181.938C39.4744 187.284 42.7495 192.63 46.8865 197.976C68.4335 225.569 112.389 250.229 175.306 235.398C201.335 229.363 217.538 215.911 227.536 199.528C232.535 191.25 235.983 182.11 238.051 172.798C239.603 166.072 240.464 159.347 240.982 152.621C243.395 117.958 233.225 85.8816 233.225 85.8816C233.225 85.8816 149.278 29.8344 82.7407 76.5692L71.7086 118.82C71.7086 118.82 71.5363 118.82 71.3639 118.82H71.1915C66.5374 119.338 36.7164 124.684 32.2346 157.277C31.2003 164.175 32.9241 172.798 37.0611 181.938Z" fill="#FFA500"/>
<path d="M76.5355 137.273C71.5366 146.93 85.1543 154.863 92.9112 154.863C101.702 155.035 113.596 143.998 111.011 137.618C108.253 131.064 78.7764 132.961 76.5355 137.273Z" fill="#862D43"/>
<path d="M82.3957 139.342C81.5338 141.929 101.185 141.584 101.702 138.825C102.047 136.065 84.1195 133.824 82.3957 139.342Z" fill="white"/>
<path d="M87.9121 102.61C76.7077 105.714 73.6049 126.581 91.532 127.96C109.631 129.34 107.218 97.2636 87.9121 102.61Z" fill="#2D2B39"/>
<path d="M170.135 109.335C184.442 112.612 186.166 136.41 165.998 137.962C145.658 139.342 148.071 104.162 170.135 109.335Z" fill="#2D2B39"/>
<path d="M89.119 114.336C91.499 114.336 93.4284 112.406 93.4284 110.025C93.4284 107.644 91.499 105.714 89.119 105.714C86.739 105.714 84.8096 107.644 84.8096 110.025C84.8096 112.406 86.739 114.336 89.119 114.336Z" fill="white"/>
<path d="M162.378 121.235C164.758 121.235 166.687 119.304 166.687 116.923C166.687 114.542 164.758 112.612 162.378 112.612C159.998 112.612 158.068 114.542 158.068 116.923C158.068 119.304 159.998 121.235 162.378 121.235Z" fill="white"/>
<path d="M165.913 93.8973C183.84 93.8973 191.425 104.417 191.77 105.107C193.149 107.004 192.632 109.763 190.735 111.143C188.839 112.522 186.081 112.005 184.702 110.108C184.358 109.591 175.739 98.3811 153.675 104.417C151.434 105.107 149.021 103.727 148.331 101.313C147.642 99.0709 149.021 96.6565 151.434 95.9667C156.777 94.4147 161.604 93.8973 165.913 93.8973Z" fill="#892B34"/>
<path d="M97.3926 105.714C91.5319 105.714 85.3263 103.472 80.4998 96.7462C79.1208 94.8492 79.6379 92.0899 81.5341 90.7103C83.4302 89.3307 86.1882 89.848 87.5672 91.745C94.4622 101.575 106.011 94.8492 106.529 94.5043C108.597 93.2971 111.183 93.9869 112.389 96.0564C113.596 98.1258 112.906 100.713 110.838 101.92C107.908 103.817 102.909 105.714 97.3926 105.714Z" fill="#892B34"/>
<path d="M169.445 159.347C169.445 170.901 193.406 170.901 192.544 159.347C191.854 147.792 169.445 143.481 169.445 159.347Z" fill="#FF3F69"/>
<path opacity="0.2" d="M238.051 172.798C231.673 200.39 214.436 226.086 175.307 235.226C112.389 249.884 68.4337 225.396 46.8867 197.804C69.2956 214.359 115.665 237.64 178.065 211.083C205.645 199.356 224.778 185.904 238.051 172.798Z" fill="#AE2B39"/>
<path d="M132.213 70.0159C126.869 67.6016 121.008 84.3296 124.801 85.7092C130.317 87.7786 137.729 72.4303 132.213 70.0159Z" fill="#FF7C00"/>
<path d="M151.691 71.568C145.831 72.0854 148.589 89.5032 152.726 88.9858C158.414 88.1235 157.725 71.0507 151.691 71.568Z" fill="#FF7C00"/>
<path d="M142.038 66.7394C136.178 66.222 135.833 83.9847 139.97 83.9847C145.658 84.1571 147.899 67.2567 142.038 66.7394Z" fill="#FF7C00"/>
<path d="M138.246 241.607C83.6027 241.607 54.2988 210.22 45.5077 199.011C34.4756 184.697 28.7872 169.004 30.3386 157.105C34.9928 124.511 63.9519 118.303 70.3298 117.268L81.0171 76.2243C81.1895 75.8794 81.3618 75.5345 81.7066 75.1896C148.416 28.2823 233.397 83.9847 234.259 84.6745C234.604 84.8469 234.776 85.1918 234.949 85.5367C235.121 86.0541 249.428 131.927 239.775 173.315C231.846 207.633 210.299 229.018 175.651 237.123C162.034 240.227 149.623 241.607 138.246 241.607ZM84.2922 77.6039L73.4325 119.165C73.2602 119.855 72.5707 120.372 71.8812 120.372C70.5022 120.545 38.4403 123.821 33.7861 157.45C32.2348 168.314 37.7508 183.318 48.2657 196.769C56.7121 207.633 85.1541 237.985 138.246 237.985C149.45 237.985 161.517 236.606 174.962 233.501C208.058 225.741 228.743 205.219 236.5 172.281C245.291 134.341 233.57 92.4349 232.018 86.9164C224.778 82.605 146.347 34.6631 84.2922 77.6039Z" fill="#2D2B39"/>
<path d="M109.287 170.384C108.942 170.384 108.597 170.211 108.253 170.039C107.391 169.521 107.218 168.487 107.908 167.624C116.182 156.07 132.558 161.761 133.247 162.106C134.109 162.451 134.626 163.485 134.281 164.348C133.937 165.21 132.902 165.727 132.04 165.382C131.868 165.382 117.389 160.209 110.666 169.694C110.321 170.211 109.804 170.384 109.287 170.384Z" fill="#2D2B39"/>
</g>
<defs>
<clipPath id="clip0_180_8153">
<rect width="312" height="303" fill="white"/>
</clipPath>
</defs>
</svg>
