<svg xmlns="http://www.w3.org/2000/svg" fill="none" viewBox="16 15 48.18 48.48">
    <path d="M56.7077 38.0042C54.8067 37.624 53.6661 38.0042 52.5255 38.3844C51.7651 38.7646 51.3849 38.7646 50.2443 38.7646C49.4839 38.7646 49.1037 38.3844 48.3433 38.3844C47.5829 38.0042 46.4423 37.624 44.5413 38.0042C39.2185 38.3844 35.4164 43.7073 35.7966 50.1707C36.1769 57.7747 41.4997 63.0975 48.7235 63.4777C49.1037 63.4777 49.1037 63.4777 49.4839 63.4777C53.2859 63.4777 56.7077 62.3371 58.9889 59.6757C61.6503 57.0143 63.1711 53.5925 63.5513 50.1707C64.3117 43.7073 61.6503 39.1448 56.7077 38.0042ZM57.8483 57.7747C55.5671 60.0559 52.5255 60.8163 49.1037 60.8163C43.0205 60.4361 38.8383 55.8737 38.0779 49.4103C37.6977 44.0875 40.3591 40.2854 44.5413 39.9052C44.9215 39.9052 44.9215 39.9052 45.3017 39.9052C46.0621 39.9052 46.8225 40.2854 47.2027 40.2854C47.9631 40.6656 48.7235 41.0458 49.8641 41.0458C51.3849 41.0458 52.1453 40.6656 52.9057 40.2854C53.6661 39.9052 54.4265 39.9052 55.5671 40.2854C60.8899 41.8063 61.2701 47.5093 61.2701 49.7905C61.6503 52.8321 60.1295 55.4935 57.8483 57.7747ZM44.5413 42.1865C44.9215 42.5667 44.9215 43.3271 44.5413 43.7073C42.6403 45.6083 41.8799 48.2697 43.0205 50.5509C43.0205 50.9311 43.4007 51.3113 43.4007 51.3113C43.7809 51.6915 43.7809 52.4519 43.0205 52.8321C42.6403 52.8321 42.6403 53.2123 42.2601 53.2123C41.8799 53.2123 41.4997 53.2123 41.4997 52.8321C41.1195 52.4519 41.1195 52.0717 40.7393 51.6915C39.2185 48.6499 39.9789 44.8479 43.0205 42.1865C43.4007 41.8063 43.7809 41.8063 44.5413 42.1865ZM38.4581 58.9153C38.8383 59.2955 38.8383 60.0559 38.0779 60.4361C35.7966 62.3371 32.755 63.0975 29.7134 63.0975C29.3332 63.0975 29.3332 63.0975 28.953 63.0975C21.7292 62.7173 16.4064 57.3945 16.0262 49.7905C15.646 43.3271 19.448 38.3844 24.7708 37.624C26.6718 37.624 27.4322 38.0042 28.5728 38.0042C29.3332 38.3844 29.7134 38.3844 30.4738 38.3844C31.6144 38.3844 31.9946 38.0042 32.755 38.0042C33.8956 37.624 34.656 37.2438 36.9373 37.624C37.6977 37.624 37.6977 38.3844 37.6977 39.1448C37.6977 39.9052 36.9373 39.9052 36.1768 39.9052C35.0362 39.525 34.2758 39.9052 33.5154 39.9052C32.755 40.2854 31.9946 40.6656 30.4738 40.6656C29.3332 40.6656 28.5728 40.2854 27.8124 39.9052C27.052 39.525 26.2916 39.525 25.151 39.525C20.9688 39.9052 18.3074 44.0875 18.6876 49.0301C19.0678 55.4935 23.6302 60.0559 29.7134 60.4361C32.3748 60.4361 35.0362 59.6757 37.3175 58.1549C37.3175 58.1549 38.0779 58.5351 38.4581 58.9153ZM24.3906 44.0875C22.4896 45.9885 21.7292 48.6499 22.8698 50.9311C22.8698 51.3113 23.25 51.6915 23.25 51.6915C23.6302 52.0717 23.6302 52.8321 22.8698 53.2123C22.4896 53.2123 22.4896 53.5925 22.1094 53.5925C21.7292 53.5925 21.349 53.5925 21.349 53.2123C20.9688 52.8321 20.9688 52.4519 20.5886 52.0717C19.0678 49.0301 19.8282 45.2281 22.8698 42.5667C23.25 42.1865 24.0104 42.1865 24.3906 42.5667C24.7708 42.9469 24.7708 43.7073 24.3906 44.0875Z" fill="#FF0043"/>
    <path d="M56.7071 38.0042C54.8061 37.624 54.0457 38.0042 52.9051 38.0042C52.1447 38.3844 51.3843 38.3844 50.2437 38.3844C49.4833 38.3844 48.7229 38.0042 47.9625 38.0042C47.2021 37.624 46.0615 37.2438 44.5407 37.624C39.598 38.0042 36.1762 42.9469 36.5564 49.0301C36.9366 56.2539 41.8793 61.5767 49.1031 61.9569C49.4833 61.9569 49.4833 61.9569 49.8635 61.9569C53.2853 61.9569 56.7071 60.8163 58.9883 58.5351C61.6497 56.2539 63.1705 52.8321 63.1705 49.4103C63.5507 43.7073 60.8893 39.1448 56.7071 38.0042ZM58.2279 57.7747C55.9467 60.0559 52.5249 61.1965 49.1031 60.8163C42.6397 60.4361 38.0772 55.8737 37.697 49.0301C37.3168 43.7073 40.3584 39.1448 44.9209 38.7646C45.3011 38.7646 45.3011 38.7646 45.6813 38.7646C46.8219 38.7646 47.2021 39.1448 47.9625 39.1448C48.7229 39.525 49.4833 39.525 50.6239 39.525C52.1447 39.525 52.9051 39.1448 53.6655 39.1448C54.4259 38.7646 55.1863 38.7646 56.7071 39.1448C62.7903 40.6656 62.7903 47.5093 62.7903 49.4103C62.0299 52.4519 60.8893 55.4935 58.2279 57.7747ZM43.7803 42.5667C44.1605 42.9469 44.1605 43.3271 43.7803 43.3271C41.4991 45.6083 40.7386 48.2697 41.8793 50.9311C41.8793 51.3113 42.2595 51.6915 42.6397 52.0717C42.6397 52.4519 42.6397 52.8321 42.6397 52.8321H42.2595C42.2595 52.8321 41.8793 52.8321 41.8793 52.4519C41.4991 52.0717 41.4991 51.6915 41.1189 51.3113C39.9782 48.6499 40.7386 44.8479 43.0199 42.5667C43.4001 42.1865 43.7803 42.1865 43.7803 42.5667ZM37.697 58.9153C37.697 59.2955 37.697 59.6757 37.697 59.6757C35.4158 61.1965 32.7544 61.9569 29.7128 61.9569C29.3326 61.9569 29.3326 61.9569 28.9524 61.9569C22.1088 61.5767 17.1662 56.2539 16.4058 49.0301C16.0256 42.9469 19.4474 38.0042 24.39 37.624C25.9108 37.624 27.0514 38.0042 27.8118 38.0042C28.5722 38.3844 28.9524 38.3844 30.093 38.3844C31.2336 38.3844 31.994 38.0042 32.7544 38.0042C33.895 37.624 34.6554 37.2438 36.5564 38.0042C36.9366 38.0042 36.9366 38.3844 36.9366 38.7646C36.9366 39.1448 36.5564 39.1448 36.1762 39.1448C34.6554 38.7646 34.2752 39.1448 33.1346 39.1448C32.3742 39.525 31.6138 39.525 30.093 39.525C28.9524 39.525 28.192 39.1448 27.4316 39.1448C26.6712 38.7646 25.9108 38.3844 24.39 38.7646C19.8276 39.1448 16.786 43.7073 17.1662 49.0301C17.5464 55.8737 22.1088 60.4361 28.5722 60.8163C31.6138 60.8163 34.2752 60.0559 36.5564 58.5351C37.3168 58.5351 37.697 58.5351 37.697 58.9153ZM24.0098 43.3271C21.7286 45.6083 20.9682 48.2697 22.1088 50.9311C22.1088 51.3113 22.489 51.6915 22.8692 52.0717C22.8692 52.4519 22.8692 52.8321 22.8692 52.8321H22.489C22.489 52.8321 22.1088 52.8321 22.1088 52.4519C21.7286 52.0717 21.7286 51.6915 21.3484 51.3113C20.2078 48.6499 20.9682 44.8479 23.2494 42.5667C23.6296 42.1865 24.0098 42.1865 24.0098 42.5667C24.0098 42.5667 24.0098 42.9469 24.0098 43.3271Z" fill="#FF7888"/>
    <path d="M63.5505 26.6C63.1703 26.6 58.6079 30.402 52.5247 30.402C51.7642 30.402 50.6236 30.402 49.8632 30.0218C44.9206 28.8812 42.6394 24.699 42.2592 24.3188C41.879 23.9386 42.2592 23.5584 42.2592 23.1782C42.2592 23.1782 43.78 21.2772 46.4414 20.5168C48.7226 19.7564 52.5247 19.3762 57.0871 23.1782C57.4673 23.5584 57.4673 24.3188 57.0871 24.699C56.7069 25.0792 55.9465 25.0792 55.5663 24.699C52.5247 22.0376 49.483 21.2772 46.8216 22.4178C45.681 22.798 44.9206 23.5584 44.1602 23.9386C44.9206 25.0792 46.8216 26.9802 49.483 27.7406C54.0455 28.501 58.6079 26.2198 60.5089 25.0792C59.3683 23.1782 56.7069 18.6158 52.1445 17.8553C46.0612 16.7147 40.7384 21.2772 39.2176 22.4178C41.1186 28.501 48.3424 34.204 48.3424 34.204C48.7226 34.5842 48.7226 35.3446 48.3424 35.7248C47.9622 36.105 47.2018 36.105 46.8216 35.7248C46.4414 35.3446 40.7384 30.402 37.6968 24.699C36.5562 28.501 33.8948 32.303 31.6136 35.7248C31.2334 36.105 31.2334 36.105 30.8532 36.105C30.473 36.105 30.473 36.105 30.0928 35.7248C30.473 36.4852 30.473 35.7248 30.8532 35.3446C34.275 30.7822 37.3166 25.4594 37.3166 20.5168C37.3166 20.1366 37.3166 19.7564 37.3166 19.7564C37.3166 18.996 37.6968 18.6158 38.4572 18.6158C39.2176 18.6158 39.5978 18.996 39.5978 19.7564C39.5978 20.1366 39.5978 20.1366 39.5978 20.5168C42.2592 18.2356 47.582 14.8137 53.6653 15.9543C60.5089 17.0949 63.9307 25.0792 63.9307 25.4594C64.3109 25.8396 64.3109 26.2198 63.5505 26.6Z" fill="#55EA11"/>
    <path d="M63.5515 25.0792C63.5515 25.4594 63.5515 25.4594 63.5515 25.8396C63.1713 25.8396 58.6089 29.2614 52.9058 29.2614C52.1454 29.2614 51.385 29.2614 50.2444 28.8812C45.3018 28.1208 43.4008 23.9386 43.0206 23.5584C43.0206 23.1782 43.0206 23.1782 43.0206 22.798C43.0206 22.798 44.5414 20.897 46.8226 20.1366C49.1038 19.3762 52.5256 19.3762 57.0881 22.798C57.4683 23.1782 57.4683 23.1782 57.0881 23.5584C56.7079 23.9386 56.7079 23.9386 56.3277 23.5584C53.286 20.897 49.8642 20.1366 47.2028 21.2772C45.682 21.6574 44.5414 22.798 44.1612 23.1782C44.9216 23.9386 46.8226 26.9802 50.2444 27.3604C55.5673 28.501 60.5099 25.4594 62.0307 24.3188C61.2703 22.798 58.2287 17.0949 52.9058 16.3345C46.4424 15.1939 40.3592 20.1366 39.2186 21.2772C41.1196 27.7406 48.3434 33.8238 48.7236 33.8238C49.1038 34.204 49.1038 34.204 48.7236 34.5842C48.3434 34.9644 48.3434 34.9644 47.9632 34.5842C47.583 34.204 40.7394 28.501 38.4582 22.4178C37.3176 26.6 34.6562 30.7822 31.9948 34.9644L31.6146 35.3446H31.2344C30.8542 35.3446 30.8542 34.9644 31.2344 34.5842C34.6562 29.6416 38.078 24.3188 38.078 19.3762C38.078 18.996 38.078 18.6158 38.078 18.6158C38.078 18.2356 38.4582 18.2355 38.4582 18.2355C38.8384 18.2355 38.8384 18.6158 39.2186 18.6158C39.2186 18.996 39.2186 18.996 39.2186 19.3762C39.2186 19.7564 39.2186 19.7564 39.2186 20.1366C41.1196 18.2355 46.8226 14.0533 53.286 15.1939C60.1297 17.0949 63.5515 24.699 63.5515 25.0792Z" fill="#C6FF7B"/>
</svg>
