<svg xmlns="http://www.w3.org/2000/svg" viewBox="0 0 51 49" fill="none">
    <path d="M26.2439 12.1187C19.1708 8.18919 8.95419 13.2975 3.84587 22.3353C-1.26245 31.766 0.702289 42.7686 8.16829 46.698C9.74008 47.4839 11.7048 47.8769 13.6696 47.8769C19.9567 47.8769 26.6368 43.5545 30.5663 36.0885C36.0676 26.2648 32.531 15.2622 26.2439 12.1187ZM9.34713 44.7333C3.05997 41.5897 1.48818 32.159 5.81061 23.5141C9.34713 17.227 15.6343 12.9046 21.1356 12.9046C22.7073 12.9046 24.2791 13.2975 25.458 14.0834C30.5663 16.834 33.3169 26.6577 28.9945 35.3026C24.2791 43.5545 15.6343 47.8769 9.34713 44.7333ZM43.1406 44.3404C41.1759 45.9121 38.8182 46.698 36.4605 46.698C33.7099 46.698 30.5663 45.9121 28.6016 44.3404C28.2086 43.9474 27.8157 43.1615 28.2086 42.7686C28.6016 42.3756 29.3875 41.9827 29.7804 42.3756C32.924 44.7333 38.4252 45.5192 41.5688 42.7686C45.4983 39.625 44.7124 32.5519 40.39 27.0507C38.8182 25.4789 36.8535 23.9071 34.8887 23.1212C34.4958 22.7282 34.1028 22.3353 34.1028 21.5494C34.4958 21.1565 34.8887 20.7635 35.6746 20.7635C38.0323 21.9423 40.39 23.5141 41.9618 25.4789C47.463 31.766 47.856 40.0179 43.1406 44.3404ZM22.7073 16.4411C22.7073 17.227 21.9215 17.6199 21.5285 17.227C20.3497 17.227 17.992 17.227 15.2413 19.5847C11.7048 21.9423 10.9189 25.0859 10.9189 25.0859C10.9189 25.4789 10.133 25.8718 9.74008 25.8718H9.34713C8.56124 25.8718 8.56124 25.0859 8.56124 24.3C8.56124 24.3 9.74008 20.3706 13.6696 17.227C16.8131 14.8693 19.9567 14.0834 21.9215 14.4763C22.3144 15.2622 22.7073 15.6552 22.7073 16.4411Z" fill="#8800FF"/>
    <path d="M32.5319 21.5491C31.7461 17.2267 29.3884 13.6902 26.2448 12.1184C19.1717 8.58188 9.34805 13.2972 4.63268 22.335C-0.0826941 31.7658 1.88205 42.3754 8.9551 45.9119C10.5269 46.6978 12.4916 47.0907 14.0634 47.0907C19.9576 47.0907 26.6377 42.7683 30.1743 35.6952C32.5319 31.3728 33.3178 26.2645 32.5319 21.5491ZM9.34805 44.733C2.66794 41.1965 1.09615 31.3728 5.81152 22.728C8.9551 16.4408 15.2423 12.1184 21.1365 12.1184C22.7083 12.1184 24.2801 12.5114 25.8518 13.2972C31.3531 16.0479 34.1037 26.2645 29.3884 35.3023C24.673 43.9471 15.6352 48.2696 9.34805 44.733ZM42.7486 43.5542C41.1768 45.126 38.8191 45.5189 36.4614 45.5189C33.7108 45.5189 30.9602 44.733 28.9954 43.1613C28.6025 43.1613 28.6025 42.7683 28.9954 42.3754C28.9954 41.9824 29.3884 41.9824 29.7813 42.3754C32.9249 44.733 38.8191 45.5189 41.9627 42.7683C45.8922 39.2318 45.4992 31.7658 40.7838 26.2645C39.2121 24.2998 37.2473 23.1209 35.2826 21.9421C34.8896 21.9421 34.8896 21.5491 34.8896 21.1562C34.8896 20.7632 35.2826 20.7632 35.6755 20.7632C38.0332 21.9421 39.998 23.1209 41.5697 25.0857C46.6781 31.3728 47.4639 39.6247 42.7486 43.5542ZM22.3153 16.0479C22.3153 16.4408 21.9224 16.4408 21.5294 16.4408C20.3506 16.4408 17.5999 16.4408 14.4564 18.7985C10.9198 21.5491 10.1339 24.6927 10.1339 24.6927C10.1339 25.0857 9.74099 25.0857 9.74099 25.0857C9.34805 25.0857 9.34805 24.6927 9.34805 24.2998C9.34805 24.2998 10.5269 20.7632 14.0634 17.6197C17.207 15.262 20.3506 14.869 21.9224 14.869C21.9224 15.262 22.3153 15.6549 22.3153 16.0479Z" fill="#BC66FF"/>
    <path d="M50.9995 14.8689C50.9995 15.2619 50.9995 16.0478 50.6066 16.0478C50.2136 16.0478 46.2841 18.4054 41.5688 18.4054C39.997 18.4054 38.4252 18.0125 36.8534 17.6196C32.138 16.0478 30.5662 11.3324 30.1733 11.3324C30.1733 10.9394 30.1733 10.5465 30.5662 10.1536C30.5662 10.1536 38.4252 4.25934 45.8912 12.5112C46.2841 12.9042 46.2841 13.6901 45.8912 14.083C45.4982 14.476 44.7123 14.476 44.3194 14.083C39.2111 8.58176 34.4957 10.5465 32.9239 11.7253C33.7098 12.9042 34.8887 14.8689 37.6393 16.0478C41.9617 17.6196 46.6771 16.0478 48.6418 15.2619C47.8559 13.2971 45.4982 8.58176 41.5688 7.00997C35.2816 5.04523 30.5662 8.58176 29.7803 8.97471L28.2086 11.3324C27.8156 11.7253 27.8156 11.7253 27.4227 11.7253C27.0297 11.7253 27.0297 11.7253 26.6368 11.3324C26.2438 10.9394 25.8509 10.1536 26.2438 9.7606L30.9592 2.68755C31.3521 2.2946 32.138 1.90165 32.531 2.2946C32.9239 2.68755 33.3169 3.47344 32.9239 3.86639L32.531 4.65228C34.8887 3.86639 38.4252 3.47344 42.3547 4.65228C48.6418 6.61702 50.9995 14.8689 50.9995 14.8689Z" fill="#55EA11"/>
    <path d="M50.6069 14.869C50.6069 15.262 50.6069 15.262 50.214 15.6549C49.821 15.6549 46.2845 18.0126 41.5691 18.0126C39.9973 18.0126 38.4255 17.6197 37.2467 17.2267C32.5313 15.6549 30.9595 11.3325 30.9595 11.3325C30.9595 10.9396 30.9595 10.9396 30.9595 10.5466C30.9595 10.5466 38.4255 4.6524 45.4986 12.5113C45.8915 12.9043 45.8915 13.2972 45.4986 13.2972C45.1056 13.6902 44.7127 13.6902 44.7127 13.2972C38.8185 7.01008 33.3172 10.1537 32.1384 10.9396C32.5313 12.1184 34.1031 14.869 37.2467 16.0479C42.355 17.6197 47.4633 15.6549 49.0351 14.869C48.6422 13.2972 46.2845 7.40303 41.5691 5.83124C34.889 3.47355 29.3877 7.40303 29.3877 7.79598L27.816 10.1537L27.423 10.5466H27.0301C26.6371 10.5466 26.6371 10.1537 27.0301 9.76071L31.3525 2.29471C31.3525 1.90176 31.7454 1.90176 32.1384 2.29471C32.5313 2.29471 32.5313 2.68766 32.1384 3.0806L30.5666 5.43829C32.9243 4.25945 36.8538 3.08061 41.5691 4.6524C48.2492 6.61713 50.6069 14.4761 50.6069 14.869Z" fill="#C6FF7B"/>
</svg>
