<svg xmlns="http://www.w3.org/2000/svg" fill="none" viewBox="15 16 50 49.47">
    <path d="M62.9319 40.8106C63.7437 40.0022 64.9614 38.3852 64.9614 36.3639C64.9614 33.13 62.9319 29.4917 58.4669 28.6832C56.4373 28.279 52.3782 30.3002 49.1309 32.7257C51.1604 29.0875 52.7841 25.045 52.7841 22.6195C52.3782 20.5983 51.5664 18.9813 49.9427 17.3643C48.3191 16.1516 46.6954 15.7473 45.0718 16.1516C43.0422 16.5558 41.8245 17.7686 41.0127 18.5771C39.7949 17.7686 38.1713 16.5558 36.1417 16.1516C32.8944 15.7473 28.4294 17.3643 28.0235 22.2153C27.6176 24.6408 29.2412 28.279 31.2708 31.513C28.4294 29.4917 24.7762 27.8747 21.9348 28.279C17.8757 28.6832 14.6284 32.7257 15.0343 35.9597C15.0343 37.9809 16.2521 39.5979 17.0639 40.4064C16.2521 41.2149 15.0343 42.8319 15.0343 44.8531C15.0343 47.6828 16.658 51.3211 21.5289 52.5338C23.5585 52.938 25.9939 52.938 28.4294 52.1296C29.2412 51.7253 29.6471 51.7253 30.459 50.9168C28.8353 53.3423 28.0235 56.172 28.4294 58.5975C28.8353 62.64 31.6767 65.4697 34.924 65.4697H35.3299C37.3595 65.4697 38.9831 64.257 39.7949 63.4485C41.0127 64.257 42.6363 65.4697 44.6659 65.4697C47.9132 65.4697 50.3486 63.4485 51.1604 59.8102C51.9723 56.9805 50.3486 52.938 48.3191 49.7041C50.3486 50.9168 52.3782 52.1296 54.4077 52.938C55.6255 53.3423 57.655 53.3423 58.4669 53.3423C62.526 52.938 65.3673 48.8956 64.9614 45.6616C64.5555 43.2361 63.7437 41.6191 62.9319 40.8106ZM58.0609 50.5126C57.655 50.5126 56.0314 50.5126 55.2196 50.1083C50.7545 48.8956 43.4481 42.0234 43.4481 42.0234C43.0422 41.6191 42.2304 41.6191 41.8245 42.0234C41.4186 42.4276 41.4186 43.2361 41.8245 43.6404C44.6659 46.8743 50.3486 54.9593 49.1309 58.5975C48.3191 61.023 46.6954 62.64 44.6659 62.64C43.0422 62.64 41.8245 61.4272 41.0127 61.023L40.6068 60.6187C40.2008 60.2145 39.7949 60.2145 39.389 60.6187C39.389 60.6187 39.389 60.6187 38.9831 61.023C38.1713 61.4272 36.9536 62.64 35.3299 62.64C32.8944 63.0442 31.2708 60.6187 30.8649 58.1933C30.459 54.555 34.924 48.0871 37.7654 45.2574C38.1713 44.8531 38.5772 44.4489 38.5772 44.0446C38.9831 43.6404 38.9831 42.8319 38.5772 42.4276C38.1713 42.0234 37.3595 42.0234 36.9535 42.4276C36.9535 42.4276 36.5476 42.8319 36.1417 43.2361C34.1122 45.2574 30.0531 48.4913 27.6176 49.2998C25.588 50.1083 23.5585 50.1083 22.3407 49.7041C19.4994 48.8956 17.4698 46.8743 17.8757 44.4489C17.8757 42.8319 19.0934 41.6191 19.4994 40.8106L19.9053 40.4064C20.3112 40.0022 20.3112 39.5979 19.9053 39.1937C19.9053 39.1937 19.9053 39.1937 19.4994 38.7894C19.0934 37.9809 17.8757 36.3639 17.4698 35.1512C17.4698 33.13 19.4994 30.3002 22.3407 29.896C26.8058 29.4917 33.7063 34.7469 36.5476 38.3852L36.9535 38.7894C37.3595 39.1937 38.1713 39.1937 38.5772 38.7894C38.9831 38.3852 38.9831 37.5767 38.5772 37.1724L38.1713 36.7682C34.924 33.13 29.6471 24.6408 30.0531 22.2153C30.459 18.9813 33.7063 18.1728 35.3299 18.1728C36.9536 18.1728 38.5772 19.7898 39.389 20.1941L39.7949 20.5983C40.2008 21.0026 40.6068 21.0026 41.0127 20.5983L41.4186 20.1941C42.2304 19.3856 43.4481 18.5771 45.0718 18.1728C45.8836 18.1728 47.1013 18.5771 47.9132 18.9813C49.1309 19.7898 49.9427 21.0026 49.9427 22.6195C50.3486 25.8535 45.4777 34.3427 42.2304 37.5767L41.8245 37.9809C41.4186 38.3852 41.4186 39.1937 41.8245 39.5979C42.2304 40.0022 43.0422 40.0022 43.4481 39.5979L43.854 39.1937C47.9132 35.5554 55.6255 30.3002 58.0609 30.7045C61.3082 31.1087 62.526 33.9384 62.526 35.9597C62.526 37.5767 61.3082 38.7894 60.9023 39.5979L60.4964 40.0021C60.0905 40.4064 60.0905 40.8106 60.4964 41.2149C60.4964 41.2149 60.4964 41.2149 60.9023 41.6191C61.3082 42.4276 62.526 43.6404 62.9319 45.2574C62.526 47.2786 60.9023 50.1083 58.0609 50.5126Z" fill="#55ea11"/>
    <path d="M62.1193 40.4065C62.9311 39.598 64.1488 37.981 64.1488 35.9598C64.1488 33.13 62.1193 29.4918 58.0602 29.0876C55.6247 28.6833 50.7538 31.9173 46.6946 34.747C49.536 30.7046 51.9715 25.0451 51.5656 22.6196C51.1597 20.5984 50.3478 18.9814 48.7242 17.7687C47.5065 16.9602 45.8828 16.1517 44.2592 16.5559C42.2296 16.9602 41.0119 18.1729 40.2001 18.9814C39.3882 18.1729 37.3587 16.5559 35.3291 16.5559C32.8937 15.7474 28.8345 17.7687 28.4286 22.2154C28.0227 24.6409 30.8641 29.4918 33.2996 33.5343C30.0523 30.7046 25.5872 28.2791 21.934 28.2791C18.2808 28.6833 15.4395 32.3215 15.4395 35.1513C15.4395 37.1725 17.0631 38.7895 17.469 40.0022C16.6572 40.8107 15.4395 42.4277 15.4395 44.4489C15.4395 46.8744 16.6572 50.1084 21.5281 51.3211C23.1518 51.7254 25.5872 51.7254 28.0227 50.9169C29.2404 50.5126 30.8641 49.7042 32.4877 48.4914C30.4582 51.3211 28.4286 55.3636 28.8345 58.1933C29.2404 61.8316 31.6759 64.257 34.5173 64.257H34.9232C36.9528 64.257 38.5764 62.64 39.3882 62.2358C40.2001 63.0443 42.2296 64.257 44.2592 64.257C47.1006 64.257 49.536 62.2358 50.3478 59.0018C51.1597 55.7679 48.7242 50.5126 45.8828 46.4702C48.3183 48.4914 51.5656 50.5126 54.001 51.3211C55.2188 51.7254 56.8424 51.7254 57.6543 51.7254C61.3075 51.3211 63.7429 47.6829 63.7429 44.8532C64.1488 42.832 62.9311 41.215 62.1193 40.4065ZM58.0602 50.9169C57.6543 50.9169 56.0306 50.9169 54.8129 50.5126C49.9419 48.8957 42.6355 42.4277 42.6355 42.4277C42.2296 42.0235 42.2296 42.0235 41.8237 42.4277C41.4178 42.832 41.4178 42.832 41.8237 43.2362C45.071 46.4702 50.7538 54.5551 49.536 58.5976C48.7242 61.4273 47.1005 63.0443 44.6651 63.0443C43.0414 63.0443 41.4178 61.8316 40.606 61.0231C40.606 61.0231 40.2001 61.0231 40.2001 60.6188C39.7941 60.6188 39.7941 60.6188 39.3882 60.6188C39.3882 60.6188 39.3882 60.6188 38.9823 61.0231C38.1705 61.4273 36.9528 62.64 34.9232 63.0443C32.0818 63.4485 30.4582 60.6188 30.0523 57.7891C29.6464 53.3424 34.9232 46.4702 37.3587 44.0447C37.7646 43.6404 38.1705 43.2362 38.1705 43.2362C38.5764 42.832 38.1705 42.4277 38.1705 42.4277C37.7646 42.0235 37.7646 42.4277 37.3587 42.4277C37.3587 42.4277 36.9528 42.832 36.5469 43.6404C34.5173 45.6617 30.4582 48.8957 28.0227 49.7042C25.9932 50.5126 23.9636 50.5126 22.3399 50.1084C18.2808 49.2999 17.0631 46.4702 17.469 44.4489C17.469 42.832 18.6867 41.215 19.4986 40.8107L19.9045 40.4065C19.9045 40.0022 19.9045 40.0022 19.9045 39.598C19.9045 39.598 19.9045 39.598 19.4986 39.1937C19.0927 38.3852 17.469 36.7683 17.469 35.1513C17.469 32.7258 19.4986 29.4918 22.7459 29.4918C27.6168 29.0876 34.5173 34.747 37.3587 37.981L37.7646 38.3852C38.1705 38.7895 38.1705 38.7895 38.5764 38.3852C38.9823 37.981 38.9823 37.981 38.5764 37.5767L38.1705 37.1725C34.9232 33.5343 29.6464 24.6409 30.0523 21.8111C30.4582 17.7687 34.1114 16.5559 35.735 16.9602C37.7646 16.9602 39.3882 18.5771 40.2001 18.9814L40.606 19.3856C41.0119 19.3856 41.0119 19.3856 41.4178 19.3856L41.8237 18.9814C42.6355 18.1729 43.8533 16.9602 45.4769 16.9602C46.6946 16.9602 47.9124 17.3644 49.1301 18.1729C50.3478 18.9814 51.1597 20.5984 51.5656 22.2154C51.9715 25.8536 46.6946 34.747 43.4473 37.5767L43.0414 37.981C42.6355 38.3852 42.6355 38.3852 43.0414 38.7895C43.4473 39.1937 43.4473 39.1937 43.8533 38.7895L44.2592 38.3852C47.9124 35.1513 56.0306 29.4918 58.872 29.8961C62.1193 30.3003 64.1488 33.13 63.7429 35.5555C63.7429 37.1725 62.5252 38.7895 61.7134 39.598L61.3075 40.0022C61.3075 40.4065 61.3075 40.4065 61.3075 40.8107C61.3075 40.8107 61.3075 40.8107 61.7134 41.215C62.1193 42.0235 63.7429 43.6404 63.7429 45.2574C63.337 47.2787 61.3075 50.5126 58.0602 50.9169Z" fill="#c6ff7b"/>
</svg>
