<svg xmlns="http://www.w3.org/2000/svg" viewBox="0 0 48 51" fill="none">
    <path d="M20.4648 42.3386C20.8577 42.7323 20.8577 43.5197 20.4648 43.9134L18.8932 45.4882C18.5004 45.8819 18.5004 45.8819 18.1075 45.8819C17.7146 45.8819 17.3217 45.8819 17.3217 45.4882C16.9288 45.0945 16.9288 44.3071 17.3217 43.9134L18.8932 42.3386C19.2861 41.9449 20.0719 41.9449 20.4648 42.3386ZM27.5367 14.3858L25.9651 16.3543C25.5722 16.748 25.5723 17.5354 26.358 17.9291C26.7509 17.9291 26.7509 18.3228 27.1438 18.3228C27.5367 18.3228 27.9295 18.3228 27.9295 17.9291L29.1082 16.3543C29.5011 15.9606 29.5011 15.1732 28.7153 14.7795C28.3224 13.9921 27.9295 13.9921 27.5367 14.3858ZM21.6434 20.685L20.4648 22.2598C20.0719 22.6535 20.4648 23.4409 20.8577 23.8346C20.8577 23.8346 21.2505 23.8346 21.6434 23.8346C22.0363 23.8346 22.4292 23.8346 22.8221 23.4409L24.0007 21.8661C24.3936 21.4724 24.0007 20.685 23.6078 20.2913C22.8221 19.8976 22.0363 20.2913 21.6434 20.685ZM10.6427 24.622C11.0356 24.622 11.4285 24.2283 11.4285 23.8346L12.2142 21.8661C12.6071 21.4724 12.2142 20.685 11.8214 20.2913C11.4285 20.2913 10.6427 20.2913 10.6427 21.0787L9.85695 23.0472C9.46406 23.4409 9.85695 24.2283 10.2498 24.622C10.2498 24.2283 10.2498 24.622 10.6427 24.622ZM17.7146 16.3543C18.1075 16.3543 18.5004 16.3543 18.5004 15.9606L19.679 14.3858C20.0719 13.9921 20.0719 13.2047 19.679 12.811C19.2861 12.4173 18.5004 12.4173 18.1075 12.811L16.9288 14.7795C16.5359 15.1732 16.5359 15.9606 16.9288 16.3543C17.3217 16.3543 17.7146 16.3543 17.7146 16.3543ZM16.9288 26.9842C16.5359 26.5905 15.7502 26.9842 15.3573 27.3779L14.1787 29.3465C13.7858 29.7402 14.1787 30.5276 14.5715 30.9213H14.9644C15.3573 30.9213 15.7502 30.5276 16.1431 30.1339L17.3217 28.1653C17.7146 28.1653 17.3217 27.3779 16.9288 26.9842ZM9.85695 31.7087C9.46406 31.315 8.6783 31.7087 8.28542 32.1024L7.49965 34.0709C7.10677 34.4646 7.49965 35.252 7.89253 35.6457H8.28542C8.6783 35.6457 9.07118 35.252 9.46406 34.8583L10.2498 32.8898C10.6427 32.8898 10.2498 32.1024 9.85695 31.7087ZM33.4299 34.0709L31.8584 35.6457C31.4655 36.0394 31.4655 36.8268 31.8584 37.2205C32.2513 37.6142 32.2513 37.6142 32.6441 37.6142C33.037 37.6142 33.037 37.6142 33.4299 37.2205L35.0014 35.6457C35.3943 35.252 35.3943 34.4646 35.0014 34.0709C34.6085 33.2835 33.8228 33.2835 33.4299 34.0709ZM32.2513 22.6535C32.6441 22.6535 33.037 22.6535 33.037 22.2598L34.2157 20.685C34.6085 20.2913 34.6085 19.5039 34.2157 19.1102C33.8228 18.7165 33.037 18.7165 32.6441 19.1102L31.4655 20.685C31.0726 21.0787 31.0726 21.8661 31.4655 22.2598C31.8584 22.6535 32.2513 22.6535 32.2513 22.6535ZM26.7509 39.5827L25.1794 40.7638C24.7865 41.1575 24.7865 41.9449 25.1794 42.3386C25.5723 42.7323 25.5722 42.7323 25.9651 42.7323C26.358 42.7323 26.358 42.7323 26.7509 42.3386L28.3224 41.1575C28.7153 40.7638 28.7153 39.9764 28.3224 39.5827C27.9295 39.189 27.1438 39.189 26.7509 39.5827ZM38.5374 26.1968C38.1445 25.8031 37.3587 25.8031 36.9658 26.1968L35.3943 27.7716C35.0014 28.1653 35.0014 28.9528 35.3943 29.3465C35.7872 29.7402 35.7872 29.7402 36.1801 29.7402C36.573 29.7402 36.9658 29.7402 36.9658 29.3465L38.5374 27.7716C38.9303 27.3779 38.9303 26.5905 38.5374 26.1968ZM27.1438 27.7716L25.9651 29.3465C25.5722 29.7402 25.5722 30.5276 25.9651 30.9213C26.358 30.9213 26.358 31.315 26.7509 31.315C27.1438 31.315 27.5367 31.315 27.5367 30.9213L28.7153 29.3465C29.1082 28.9528 29.1082 28.1653 28.7153 27.7716C28.3224 26.9842 27.5367 26.9842 27.1438 27.7716ZM11.0356 40.7638L9.85695 42.3386C9.46406 42.7323 9.46406 43.5197 10.2498 43.9134C10.6427 43.9134 10.6427 44.3071 11.0356 44.3071C11.4285 44.3071 11.8214 44.3071 11.8214 43.9134L13 42.3386C13.3929 41.9449 13.3929 41.1575 12.6071 40.7638C12.2142 39.9764 11.4285 39.9764 11.0356 40.7638ZM19.679 34.0709L18.5004 35.6457C18.1075 36.0394 18.1075 36.8268 18.5004 37.2205C18.8932 37.2205 18.8932 37.6142 19.2861 37.6142C19.679 37.6142 20.0719 37.6142 20.0719 37.2205L21.2505 35.6457C21.6434 35.252 21.6434 34.4646 21.2505 34.0709C20.8577 33.6772 20.0719 33.6772 19.679 34.0709Z" fill="#FF7C17"/>
    <path d="M20.071 42.3386C20.4638 42.7323 20.4638 43.126 20.071 43.126L18.4994 44.7008H18.1065H17.7137C17.3208 44.3071 17.3208 43.9134 17.7137 43.9134L19.2852 42.3386C19.6781 42.3386 20.071 42.3386 20.071 42.3386ZM27.9286 14.3859L26.75 16.3544C26.3571 16.7481 26.75 17.1418 26.75 17.1418H27.1428C27.1428 17.1418 27.5357 17.1418 27.5357 16.7481L28.7144 15.1733C29.1073 14.7796 28.7144 14.3859 28.7144 14.3859C28.3215 14.3859 27.9286 14.3859 27.9286 14.3859ZM22.0354 20.6851L20.8567 22.2599C20.8567 22.6536 20.8567 23.0473 20.8567 23.0473H21.2496C21.2496 23.0473 21.6425 23.0473 21.6425 22.6536L22.8211 21.0788C22.8211 20.6851 22.8211 20.2914 22.8211 20.2914C22.8211 20.2914 22.4283 20.2914 22.0354 20.6851ZM11.0347 23.0473L11.8204 21.0788C11.8204 20.6851 11.8204 20.2914 11.4275 20.2914C11.0347 20.2914 10.6418 20.2914 10.6418 20.6851L9.85601 22.6536C9.85601 23.0473 9.85601 23.441 10.2489 23.441C10.2489 23.441 10.2489 23.441 10.6418 23.441C10.6418 23.441 11.0347 23.441 11.0347 23.0473ZM18.1065 15.1733L19.2852 13.5985C19.6781 13.2048 19.2852 12.8111 19.2852 12.8111C18.8923 12.4174 18.4994 12.8111 18.4994 12.8111L17.3208 14.7796C16.9279 15.1733 17.3208 15.567 17.3208 15.567H17.7137C18.1065 15.567 18.1065 15.567 18.1065 15.1733ZM15.7493 27.378L14.5706 29.3465C14.5706 29.7402 14.5706 30.1339 14.9635 30.1339C14.9635 30.1339 14.9635 30.1339 15.3564 30.1339C15.7493 30.1339 15.7493 30.1339 15.7493 29.7402L16.535 28.1654C16.535 27.7717 16.535 27.378 16.1421 27.378C16.1421 26.9843 15.7493 27.378 15.7493 27.378ZM8.67737 32.1024L7.8916 34.0709C7.8916 34.4646 7.8916 34.8583 8.28448 34.8583C8.28448 34.8583 8.28449 34.8583 8.67737 34.8583C9.07025 34.8583 9.07025 34.8583 9.07025 34.4646L9.85601 32.4961C9.85601 32.1024 9.85601 31.7087 9.46313 31.7087C9.07025 31.7087 8.67737 31.7087 8.67737 32.1024ZM33.8218 34.0709L32.2503 35.6457C31.8574 36.0394 31.8574 36.4331 32.2503 36.4331H32.6432H33.0361L34.6076 34.8583C35.0005 34.4646 35.0005 34.0709 34.6076 34.0709C34.2147 33.6772 33.8218 33.6772 33.8218 34.0709ZM33.0361 21.4725L34.2147 19.8977C34.6076 19.504 34.2147 19.1103 34.2147 19.1103C33.8218 18.7166 33.429 19.1103 33.429 19.1103L32.2503 20.6851C31.8574 21.0788 32.2503 21.4725 32.2503 21.4725H32.6432C32.6432 21.8662 32.6432 21.8662 33.0361 21.4725ZM27.1428 39.5827L25.5713 40.7638C25.1784 41.1575 25.1784 41.1575 25.5713 41.5512H25.9642H26.3571L27.9286 40.3701C28.3215 39.9764 28.3215 39.9764 27.9286 39.5827C27.9286 39.5827 27.5357 39.189 27.1428 39.5827ZM38.1436 26.1969C37.7507 25.8032 37.3578 25.8032 37.3578 26.1969L35.7863 27.7717C35.3934 28.1654 35.3934 28.5591 35.7863 28.5591H36.1791H36.572L38.1436 26.9843C38.5364 26.5906 38.5364 26.1969 38.1436 26.1969ZM27.5357 27.7717L26.3571 29.3465C25.9642 29.7402 26.3571 30.1339 26.3571 30.1339H26.75C26.75 30.1339 27.1428 30.1339 27.1428 29.7402L28.3215 28.1654C28.7144 27.7717 28.3215 27.378 28.3215 27.378C28.3215 27.378 27.9286 27.378 27.5357 27.7717ZM11.4275 40.7638L10.2489 42.3386C10.2489 42.7323 10.2489 43.126 10.2489 43.126H10.6418C10.6418 43.126 11.0347 43.126 11.0347 42.7323L12.2133 41.1575C12.2133 40.7638 12.2133 40.3701 12.2133 40.3701C12.2133 40.3701 11.8204 40.3701 11.4275 40.7638ZM20.071 34.0709L18.8923 35.6457C18.4994 36.0394 18.8923 36.4331 18.8923 36.4331H19.2852C19.2852 36.4331 19.6781 36.4331 19.6781 36.0394L20.8567 34.4646C21.2496 34.0709 20.8567 33.6772 20.8567 33.6772C20.4638 33.6772 20.4638 33.6772 20.071 34.0709Z" fill="#FFD05C"/>
    <path d="M14.5722 50.9999C11.8221 50.9999 9.46477 50.6062 7.50036 49.4251C4.3573 47.4565 2.39288 41.551 2 34.8581C2 26.9841 3.57153 19.8975 6.71459 15.1731C10.2505 10.055 14.5722 7.29907 19.6797 6.90537C24.0014 6.51167 29.1089 8.08647 33.8235 11.6298C38.5381 15.1731 41.6811 19.1101 42.8598 23.0471C44.4313 27.7715 43.2527 32.8896 39.7167 38.0077C34.2164 46.2754 22.8228 50.9999 14.5722 50.9999ZM20.8584 9.26757C20.4655 9.26757 20.0726 9.26757 20.0726 9.26757C15.7509 9.66127 11.8221 12.0235 8.679 16.3542C5.53594 20.6849 3.96441 27.3778 4.35729 34.0707C4.75018 39.9762 6.32171 45.488 9.07189 47.0628C11.8221 49.0313 16.9295 49.0313 22.8228 47.0628C29.1089 45.0943 34.6092 41.1573 37.7523 36.8266C40.8954 32.4959 41.6811 27.7715 40.5025 23.8345C39.3238 19.8975 36.5737 16.3542 32.252 13.5983C28.716 10.8424 24.7872 9.26757 20.8584 9.26757Z" fill="#FF0043"/>
    <path d="M14.571 49.8189C11.8208 49.8189 9.46352 49.4252 7.89199 48.2441C5.14181 46.2756 2.78452 40.7638 2.78452 34.0709C2.39164 26.5905 3.96317 19.8976 7.49911 15.1732C11.0351 10.0551 15.3568 7.6929 20.0713 7.2992C24.3931 6.9055 29.1076 8.4803 33.8222 11.6299C38.5368 14.7795 41.6799 18.7165 42.8585 23.0472C44.0372 27.7716 43.2514 32.496 39.7155 37.6142C36.5724 42.3386 30.6792 46.2756 24.0002 48.6378C20.4642 49.4252 17.3212 49.8189 14.571 49.8189ZM20.8571 8.4803C20.4642 8.4803 20.0714 8.4803 19.6785 8.4803C15.3568 8.874 11.4279 11.2362 8.28487 15.9606C1.60587 25.8031 3.57028 43.9134 8.67776 47.4567C11.4279 49.4252 16.9283 49.4252 23.2144 47.4567C29.8934 45.4882 35.3938 41.5512 38.5368 36.8268C41.6799 32.1023 42.8585 27.7716 41.6799 23.0472C40.5012 19.1102 37.7511 15.5669 33.0365 12.4173C28.7148 9.66141 24.7859 8.4803 20.8571 8.4803Z" fill="#FF5F72"/>
    <path d="M43.2537 18.7164C42.8608 18.7164 42.8608 19.1101 42.4679 19.1101C42.075 19.1101 41.6822 19.1101 41.6822 18.7164C41.2893 18.3227 41.2893 17.5353 42.075 17.1416C42.4679 16.7479 42.8608 15.9605 42.8608 15.5668C39.7177 15.9605 38.5391 14.7794 38.1462 13.5983C38.1462 13.2046 38.1462 12.4172 38.5391 12.4172C38.932 12.0235 39.3249 11.6298 39.7177 11.2361C36.5747 12.4172 35.0032 11.2361 34.6103 10.8424C34.2174 10.4487 34.2174 10.055 34.2174 9.26759C34.2174 9.26759 36.9676 4.93689 42.8608 2.96838C43.6466 2.96838 44.0395 2.96838 44.4323 3.75578C44.4323 4.54319 44.4323 4.93689 43.6466 5.33059C40.5035 6.11799 38.5391 8.08649 37.3605 9.26759C38.1462 9.26759 39.7177 8.87389 42.4679 7.69279C42.8608 7.29909 43.2537 7.29909 43.6466 7.69279C44.0395 8.08649 44.0395 8.48019 44.0395 8.87389C44.0395 8.87389 42.8608 11.2361 41.2893 13.2046C41.6822 13.5983 42.8608 13.5983 44.4323 12.8109C44.8252 12.8109 45.2181 12.8109 45.611 12.8109C46.0039 12.8109 46.0039 13.2046 46.0039 13.5983C45.611 13.992 46.0039 17.1416 43.2537 18.7164ZM32.6459 2.57468C32.6459 2.18098 32.6459 1.78728 32.253 1.39358C31.8601 0.999878 31.4672 0.999878 31.0743 0.999878C31.0743 0.999878 27.9313 1.78728 27.1455 6.11799C27.1455 6.90539 27.5384 7.29909 27.9313 7.29909C28.717 7.29909 29.1099 6.90539 29.1099 6.51169C29.1099 5.72429 29.5028 5.33059 29.8957 4.93689C29.8957 7.69279 31.0743 8.87389 31.4672 8.87389C31.8601 9.26759 31.8601 9.26759 32.253 9.26759C32.6459 9.26759 33.0387 9.26759 33.0387 8.87389C33.4316 8.48019 33.4316 7.69279 33.0387 7.29909C33.0387 7.29909 31.8601 6.11799 32.6459 2.57468Z" fill="#55EA11"/>
    <path d="M42.8602 17.9292C42.4673 17.9292 42.0744 17.9292 42.0744 17.9292C42.0744 17.5355 42.0744 17.1418 42.0744 17.1418C43.2531 16.3544 43.646 15.1733 43.646 14.7796C39.7171 15.9607 38.5385 13.5985 38.5385 13.5985C38.5385 13.2048 38.5385 13.2048 38.5385 12.8111C39.7171 12.0237 40.5029 10.8426 40.8958 10.0552C36.1812 12.0237 34.2168 10.4489 34.2168 10.4489C34.2168 10.4489 34.2168 10.4489 34.2168 10.0552C34.2168 10.0552 36.967 5.72448 42.4673 4.14968C42.8602 4.14968 43.2531 4.14968 43.2531 4.54338C43.2531 4.93708 43.2531 5.33078 42.8602 5.33078C38.9314 6.51188 36.1812 9.26779 35.3954 10.4489C36.1812 10.8426 38.1456 10.8426 41.6816 8.87409C42.0744 8.87409 42.0744 8.87409 42.4673 8.87409C42.4673 8.87409 42.8602 9.26779 42.4673 9.66149C42.4673 9.66149 41.2887 12.4174 39.3243 14.3859C39.7171 14.7796 40.8958 15.567 43.646 14.3859H44.0388L44.4317 14.7796C44.8246 13.5985 45.2175 16.3544 42.8602 17.9292ZM31.8595 2.18118C31.8595 1.78748 31.8595 1.78748 31.8595 1.78748H31.4666C31.4666 1.78748 28.7164 2.57488 27.9307 6.51188C27.9307 6.90558 27.9307 7.29928 28.3235 7.29928C28.7164 7.29928 29.1093 7.29929 29.1093 6.90558C29.5022 4.93708 30.288 4.14968 31.0737 3.75598C30.6808 7.29929 32.2524 8.87409 32.2524 8.87409H32.6453H33.0381C33.431 8.48039 33.431 8.08669 33.0381 8.08669C32.6453 7.29929 31.0737 5.72448 31.8595 2.18118Z" fill="#C6FF7B"/>
</svg>
