<svg width="44" height="44" viewBox="0 0 44 44" fill="none" xmlns="http://www.w3.org/2000/svg">
<g id="fi_2933116" clip-path="url(#clip0_95_8036)">
<path id="Vector" d="M22 44C34.1503 44 44 34.1503 44 22C44 9.84974 34.1503 0 22 0C9.84974 0 0 9.84974 0 22C0 34.1503 9.84974 44 22 44Z" fill="#08A8F6"/>
<path id="Vector_2" d="M22 38.7578C12.76 38.7578 5.24219 31.24 5.24219 22C5.24219 12.76 12.76 5.24219 22 5.24219C31.24 5.24219 38.7578 12.76 38.7578 22C38.7578 31.24 31.24 38.7578 22 38.7578Z" fill="#0A8EF2"/>
<path id="Vector_3" d="M23.2891 20.8027V15.7061C24.7717 16.0699 25.8672 17.0238 25.8672 18.1202C25.8672 18.8327 26.4437 19.4093 27.1562 19.4093C27.8688 19.4093 28.4453 18.8327 28.4453 18.1202C28.4453 15.6296 26.228 13.5472 23.2891 13.0683V11.6749C23.2891 10.9624 22.7125 10.3859 22 10.3859C21.2875 10.3859 20.7109 10.9624 20.7109 11.6749V13.0683C17.772 13.5472 15.5547 15.6296 15.5547 18.1202C15.5547 20.6109 17.772 22.6933 20.7109 23.1722V28.2688C19.2283 27.905 18.1328 26.9511 18.1328 25.8546C18.1328 25.1421 17.5563 24.5656 16.8438 24.5656C16.1312 24.5656 15.5547 25.1421 15.5547 25.8546C15.5547 28.3453 17.772 30.4277 20.7109 30.9065V32.3125C20.7109 33.025 21.2875 33.6015 22 33.6015C22.7125 33.6015 23.2891 33.025 23.2891 32.3125V30.9065C26.228 30.4277 28.4453 28.3453 28.4453 25.8546C28.4453 23.364 26.228 21.2815 23.2891 20.8027ZM18.1328 18.1202C18.1328 17.0238 19.2283 16.0699 20.7109 15.7061V20.5344C19.2283 20.1705 18.1328 19.2166 18.1328 18.1202ZM23.2891 28.2688V23.4405C24.7717 23.8042 25.8672 24.7581 25.8672 25.8546C25.8672 26.9511 24.7717 27.9049 23.2891 28.2688Z" fill="white"/>
</g>
<defs>
<clipPath id="clip0_95_8036">
<rect width="44" height="44" fill="white"/>
</clipPath>
</defs>
</svg>
