<svg width="44" height="44" viewBox="0 0 44 44" fill="none" xmlns="http://www.w3.org/2000/svg">
<g id="fi_2169862">
<path id="Vector" d="M40.3348 28.7991L10.6834 33.848C8.81194 34.1667 7.03637 32.9078 6.7177 31.0363L3.57702 12.5917C3.25835 10.7202 4.51722 8.9446 6.38872 8.62592L36.0401 3.57701C37.9116 3.25834 39.6871 4.51721 40.0058 6.38872L43.1465 24.8334C43.4652 26.7049 42.2063 28.4804 40.3348 28.7991Z" fill="#E6E6E6"/>
<path id="Vector_2" d="M3.98145 14.968L40.4102 8.76507L42.7876 22.7266L6.35876 28.9296L3.98145 14.968Z" fill="#CDCDCD"/>
<path id="Vector_3" d="M33.5156 40.6577H3.4375C1.53905 40.6577 0 39.1187 0 37.2202V18.5101C0 16.6116 1.53905 15.0726 3.4375 15.0726H33.5156C35.4141 15.0726 36.9531 16.6116 36.9531 18.5101V37.2202C36.9531 39.1187 35.4141 40.6577 33.5156 40.6577Z" fill="#08A8F6"/>
<path id="Vector_4" d="M0 20.9207H36.9531V26.7687H0V20.9207Z" fill="#0A8EF2"/>
<path id="Vector_5" d="M10.2343 34.9826H4.38623C3.67432 34.9826 3.09717 35.5597 3.09717 36.2716C3.09717 36.9835 3.67432 37.5607 4.38623 37.5607H10.2343C10.9462 37.5607 11.5233 36.9835 11.5233 36.2716C11.5233 35.5597 10.9462 34.9826 10.2343 34.9826Z" fill="white"/>
</g>
</svg>
