<svg width="44" height="44" viewBox="0 0 44 44" fill="none" xmlns="http://www.w3.org/2000/svg">
<path d="M35.797 24.75H34.375L33 17.875L34.375 12.375H35.797C36.5304 12.375 37.125 12.9695 37.125 13.703V23.4221C37.125 24.1555 36.5305 24.75 35.797 24.75Z" fill="#E6E6E6"/>
<path d="M35.797 27.5H34.375L33 30.25L34.375 34.375H35.797C36.5304 34.375 37.125 33.7805 37.125 33.047V28.8279C37.125 28.0945 36.5305 27.5 35.797 27.5Z" fill="#E6E6E6"/>
<path d="M31.3672 44H9.88281C8.22164 44 6.875 42.6534 6.875 40.9922V3.00781C6.875 1.34664 8.22164 0 9.88281 0H31.3672C33.0284 0 34.375 1.34664 34.375 3.00781V40.9922C34.375 42.6534 33.0284 44 31.3672 44Z" fill="#08A8F6"/>
<path d="M30.297 2.75H26.5834C26.2899 2.75 26.0084 2.86662 25.8008 3.07416L25.0741 3.80093C24.8665 4.00847 24.5851 4.12509 24.2916 4.12509H16.9584C16.6649 4.12509 16.3834 4.00847 16.1759 3.80093L15.4492 3.07416C15.2416 2.86662 14.9602 2.75 14.6666 2.75H10.953C10.2195 2.75 9.625 3.34452 9.625 4.07799V39.9221C9.625 40.6555 10.2195 41.2501 10.953 41.2501H30.2971C31.0305 41.2501 31.6251 40.6556 31.6251 39.9221V4.07799C31.625 3.34452 31.0305 2.75 30.297 2.75Z" fill="#0A8EF2"/>
<path d="M28.1313 9.375H12.4937C12.014 9.375 11.625 9.06717 11.625 8.6875C11.625 8.30783 12.014 8 12.4937 8H28.1313C28.611 8 29 8.30783 29 8.6875C29 9.06717 28.611 9.375 28.1313 9.375Z" fill="white"/>
<path d="M28.1313 11.75H12.4937C12.014 11.75 11.625 11.4422 11.625 11.0625C11.625 10.6828 12.014 10.375 12.4937 10.375H28.1313C28.611 10.375 29 10.6828 29 11.0625C29 11.4422 28.611 11.75 28.1313 11.75Z" fill="white"/>
<path d="M28.1313 14.125H12.4937C12.014 14.125 11.625 13.8172 11.625 13.4375C11.625 13.0578 12.014 12.75 12.4937 12.75H28.1313C28.611 12.75 29 13.0578 29 13.4375C29 13.8172 28.611 14.125 28.1313 14.125Z" fill="white"/>
<path d="M28.1313 16.5H12.4937C12.014 16.5 11.625 16.1922 11.625 15.8125C11.625 15.4328 12.014 15.125 12.4937 15.125H28.1313C28.611 15.125 29 15.4328 29 15.8125C29 16.1922 28.611 16.5 28.1313 16.5Z" fill="white"/>
<path d="M28.1312 18.875H17.7062C17.2264 18.875 16.8374 18.5672 16.8374 18.1875C16.8374 17.8078 17.2264 17.5 17.7062 17.5H28.1312C28.6109 17.5 28.9999 17.8078 28.9999 18.1875C28.9999 18.5672 28.6109 18.875 28.1312 18.875Z" fill="white"/>
<path d="M24.7903 38.5H16.4597C15.7225 38.5 15.125 37.9024 15.125 37.1653V37.0847C15.125 36.3475 15.7226 35.75 16.4597 35.75H24.7903C25.5275 35.75 26.125 36.3476 26.125 37.0847V37.1653C26.125 37.9024 25.5274 38.5 24.7903 38.5Z" fill="white"/>
</svg>
