<svg width="44" height="44" viewBox="0 0 44 44" fill="none" xmlns="http://www.w3.org/2000/svg">
<g id="fi_1420337" clip-path="url(#clip0_95_8128)">
<path id="Vector" d="M12.0812 16.3093C9.36978 15.9407 6.20689 17.1129 4.02354 19.2966L0.377586 22.9425C-0.0346446 23.3548 -0.119239 23.9929 0.172813 24.4985C0.457816 24.9973 1.05468 25.2514 1.62267 25.0994C3.93626 24.479 6.99845 24.2725 7.75141 24.8476L12.0812 16.3093Z" fill="#0A8EF2"/>
<path id="Vector_2" d="M27.6121 31.9375L19.0613 36.0625C19.5377 36.7114 19.5001 38.7638 18.9448 42.5222C18.8619 43.0781 19.1493 43.6162 19.6401 43.8616C20.1365 44.1127 20.7374 44.0157 21.1309 43.6223L24.7768 39.9763C26.8366 37.9165 27.9501 34.761 27.6121 31.9375Z" fill="#0A8EF2"/>
<path id="Vector_3" d="M20.3467 36.5022C17.3389 38.1246 16.9563 38.2159 16.5004 38.5257C15.9898 38.8537 15.3335 38.7809 14.8961 38.3435L5.78105 29.2284C5.36177 28.8091 5.2708 28.1344 5.59877 27.6241C5.90861 27.1683 5.9452 26.8765 7.58573 23.7412L11.1954 23.7046L20.3105 32.8196L20.3467 36.5022Z" fill="#E6E6E6"/>
<path id="Vector_4" d="M20.347 36.5022L7.58594 23.7412C13.9117 11.8006 21.5138 4.34423 30.3372 1.42773L36.5354 7.58937L42.5876 13.6419C39.6711 22.4287 32.2331 30.0851 20.347 36.5022Z" fill="#08A8F6"/>
<path id="Vector_5" d="M32.5609 11.5637L32.5062 11.509C29.9905 8.99328 25.9068 8.99294 23.3912 11.509C20.8755 14.0246 20.8755 18.1083 23.3912 20.6237L23.4459 20.6784C25.9616 23.1212 30.0087 23.1212 32.5062 20.6237C35.0038 18.1265 35.0038 14.079 32.5609 11.5637Z" fill="white"/>
<path id="Vector_6" d="M42.5873 13.6416C39.7984 13.4412 36.8087 12.1286 34.384 9.7405L34.3293 9.68578C31.8865 7.24295 30.5192 4.23481 30.3369 1.42741C31.1755 1.13569 32.0322 0.898696 32.8892 0.698287C36.0064 -0.0127094 39.2697 -0.176863 42.6605 0.188035C42.9885 0.22429 43.2983 0.388443 43.4806 0.643569C43.6629 0.82585 43.7908 1.06285 43.8089 1.33644C44.1919 4.70881 43.9912 7.97207 43.2802 11.0893C43.0798 11.9463 42.8609 12.7849 42.5873 13.6416Z" fill="#0A8EF2"/>
<path id="Vector_7" d="M20.1279 25.1632C20.1097 24.853 19.9822 24.5798 19.7633 24.3609C19.5444 24.0692 19.1983 23.8688 18.8338 23.8688C14.0938 23.8322 13.0364 25.5093 12.7631 25.7829C4.86963 33.6763 4.77832 37.5596 4.77832 37.9605C4.79645 38.3069 4.92401 38.6171 5.16101 38.8537C5.17914 38.8719 5.1976 38.8903 5.23419 38.8903C5.41647 39.0726 5.6716 39.182 5.94485 39.2002C6.60113 39.273 10.3018 39.182 18.2319 31.252C20.0188 29.4654 20.1463 27.8064 20.1279 25.1632Z" fill="#0A8EF2"/>
</g>
<defs>
<clipPath id="clip0_95_8128">
<rect width="44" height="44" fill="white"/>
</clipPath>
</defs>
</svg>
