<svg width="44" height="44" viewBox="0 0 44 44" fill="none" xmlns="http://www.w3.org/2000/svg">
<g id="fi_888878">
<g id="Group 19">
<path id="Vector" d="M37.8335 8.66663H22.0002C21.9107 8.66663 21.8219 8.68069 21.7368 8.70827L21.5368 8.77491C21.1001 8.92022 20.8638 9.39202 21.0092 9.82866C21.01 9.83131 21.011 9.83389 21.0118 9.83655L29.3885 34.3149L23.8718 40.6183C23.569 40.9648 23.6044 41.4913 23.951 41.7941C24.103 41.927 24.2981 42.0001 24.5001 41.9999H37.8335C40.1347 42 42.0002 40.1345 42.0002 37.8333V12.8333C42.0002 10.5321 40.1347 8.66663 37.8335 8.66663Z" fill="#E6E6E6"/>
<path id="Vector_2" d="M31.0915 34.155C30.9563 33.8576 30.6598 33.6667 30.3331 33.6666H21.9999C21.5396 33.6666 21.1665 34.0398 21.1665 34.5C21.1665 34.6001 21.1846 34.6995 21.2199 34.7933L23.7199 41.46C23.8231 41.7344 24.063 41.9344 24.3515 41.9866C24.4005 41.9951 24.4501 41.9995 24.4999 42C24.7401 41.9998 24.9685 41.8958 25.1265 41.715L30.9599 35.0483C31.1753 34.8022 31.2267 34.4528 31.0915 34.155Z" fill="#0A8EF2"/>
<g id="Group">
<path id="Vector_3" d="M37.8336 20.3333H26.1669C25.7066 20.3333 25.3335 19.9602 25.3335 19.5C25.3335 19.0398 25.7066 18.6666 26.1669 18.6666H37.8335C38.2937 18.6666 38.6669 19.0398 38.6669 19.5C38.6669 19.9602 38.2938 20.3333 37.8336 20.3333Z" fill="#CDCDCD"/>
<path id="Vector_4" d="M31.1669 20.3334C30.7066 20.3334 30.3335 19.9602 30.3335 19.5V17.8334C30.3335 17.3731 30.7066 17 31.1669 17C31.6271 17 32.0002 17.3731 32.0002 17.8334V19.5C32.0002 19.9602 31.6271 20.3334 31.1669 20.3334Z" fill="#CDCDCD"/>
<path id="Vector_5" d="M28.6671 30.3333C28.2068 30.333 27.834 29.9595 27.8345 29.4993C27.8347 29.2303 27.9648 28.978 28.1838 28.8217C31.8338 26.2283 34.5004 20.9416 34.5004 19.5C34.5004 19.0398 34.8735 18.6666 35.3338 18.6666C35.794 18.6666 36.1671 19.0398 36.1671 19.5C36.1671 21.6966 32.9555 27.4766 29.1505 30.1783C29.0093 30.279 28.8404 30.3332 28.6671 30.3333Z" fill="#CDCDCD"/>
<path id="Vector_6" d="M35.3335 32C35.125 32.0002 34.9241 31.9223 34.7702 31.7816C34.1668 31.2282 28.8402 26.3082 27.8952 23.98C27.7216 23.5533 27.9269 23.0668 28.3535 22.8933C28.7802 22.7198 29.2666 22.925 29.4402 23.3517C30.1218 25.0317 34.3335 29.1183 35.8985 30.55C36.2391 30.8596 36.2642 31.3866 35.9547 31.7272C35.7957 31.9021 35.5698 32.0012 35.3335 32Z" fill="#CDCDCD"/>
</g>
<path id="Vector_7" d="M31.1216 34.23L20.2884 2.56336C20.173 2.22641 19.8562 2 19.5 2H6.16664C3.86547 2 2 3.86547 2 6.16664V31.1666C2 33.4678 3.86547 35.3333 6.16664 35.3333H30.3333C30.7935 35.3333 31.1666 34.9602 31.1666 34.4999C31.1666 34.4081 31.1514 34.3169 31.1216 34.23Z" fill="#08A8F6"/>
<g id="Group_2">
<path id="Vector_8" d="M17.8334 25.3334C17.4811 25.3334 17.1668 25.1119 17.0484 24.78L13.6668 15.31L10.2851 24.78C10.113 25.2069 9.62747 25.4134 9.20059 25.2413C8.79786 25.0789 8.58731 24.6345 8.71677 24.22L12.8834 12.5534C13.0872 12.1203 13.6036 11.9345 14.0366 12.1382C14.219 12.2241 14.3658 12.3709 14.4518 12.5534L18.6184 24.22C18.7736 24.6521 18.55 25.1284 18.1184 25.285C18.0268 25.3174 17.9304 25.3338 17.8334 25.3334Z" fill="#FAFAFA"/>
<path id="Vector_9" d="M15.3332 20.3333H11.9999C11.5396 20.3333 11.1665 19.9602 11.1665 19.5C11.1665 19.0398 11.5396 18.6666 11.9999 18.6666H15.3332C15.7935 18.6666 16.1666 19.0398 16.1666 19.5C16.1665 19.9602 15.7935 20.3333 15.3332 20.3333Z" fill="#FAFAFA"/>
</g>
</g>
</g>
</svg>
