<svg width="44" height="44" viewBox="0 0 44 44" fill="none" xmlns="http://www.w3.org/2000/svg">
<path d="M35.75 1.375H8.25C6.73123 1.375 5.5 2.60623 5.5 4.125V35.75C8.18486 38.4349 9.69014 39.9401 12.375 42.625H35.75C37.2688 42.625 38.5 41.3938 38.5 39.875V4.125C38.5 2.60623 37.2688 1.375 35.75 1.375Z" fill="#08A8F6"/>
<path d="M12.375 42.625V38.5C12.375 36.9812 11.1438 35.75 9.625 35.75H5.5L12.375 42.625Z" fill="#0A8EF2"/>
<path d="M30 31.0625H24.5C24.1203 31.0625 23.8125 31.3703 23.8125 31.75V37.9375C23.8125 38.1979 23.9596 38.4359 24.1925 38.5525C24.4256 38.6689 24.7042 38.6438 24.9125 38.4875L27.25 36.7344L29.5875 38.4875C29.7088 38.5785 29.854 38.625 30.0001 38.625C30.1049 38.625 30.2101 38.601 30.3075 38.5525C30.5404 38.4359 30.6875 38.1979 30.6875 37.9375V31.75C30.6875 31.3703 30.3797 31.0625 30 31.0625Z" fill="#0A8EF2"/>
<path d="M27.25 33.125C30.2876 33.125 32.75 30.6626 32.75 27.625C32.75 24.5874 30.2876 22.125 27.25 22.125C24.2124 22.125 21.75 24.5874 21.75 27.625C21.75 30.6626 24.2124 33.125 27.25 33.125Z" fill="#E6E6E6"/>
<path d="M32.7812 7.625H10.8438C10.1707 7.625 9.625 7.31717 9.625 6.9375C9.625 6.55783 10.1707 6.25 10.8438 6.25H32.7812C33.4543 6.25 34 6.55783 34 6.9375C34 7.31717 33.4543 7.625 32.7812 7.625Z" fill="white"/>
<path d="M32.7812 10H10.8438C10.1707 10 9.625 9.69217 9.625 9.3125C9.625 8.93283 10.1707 8.625 10.8438 8.625H32.7812C33.4543 8.625 34 8.93283 34 9.3125C34 9.69217 33.4543 10 32.7812 10Z" fill="white"/>
<path d="M32.7812 12.375H10.8438C10.1707 12.375 9.625 12.0672 9.625 11.6875C9.625 11.3078 10.1707 11 10.8438 11H32.7812C33.4543 11 34 11.3078 34 11.6875C34 12.0672 33.4543 12.375 32.7812 12.375Z" fill="white"/>
<path d="M32.7812 14.75H10.8438C10.1707 14.75 9.625 14.4422 9.625 14.0625C9.625 13.6828 10.1707 13.375 10.8438 13.375H32.7812C33.4543 13.375 34 13.6828 34 14.0625C34 14.4422 33.4543 14.75 32.7812 14.75Z" fill="white"/>
<path d="M32.7812 17.125H18.1562C17.4832 17.125 16.9375 16.8172 16.9375 16.4375C16.9375 16.0578 17.4832 15.75 18.1562 15.75H32.7812C33.4543 15.75 34 16.0578 34 16.4375C34 16.8172 33.4543 17.125 32.7812 17.125Z" fill="white"/>
</svg>
