<svg width="44" height="44" viewBox="0 0 44 44" fill="none" xmlns="http://www.w3.org/2000/svg">
<g id="fi_8208489">
<g id="Layer 2">
<path id="Vector" d="M39.9335 16.5971L26.2807 9.76979C26.071 9.66513 25.8381 9.61578 25.6041 9.62642C25.37 9.63705 25.1426 9.70733 24.9433 9.83056C24.744 9.9538 24.5795 10.1259 24.4655 10.3306C24.3514 10.5352 24.2915 10.7657 24.2915 11V38.5C24.2915 38.8646 24.4364 39.2144 24.6942 39.4722C24.9521 39.7301 25.3018 39.875 25.6665 39.875H36.6665C38.0033 39.874 39.2851 39.3425 40.2304 38.3972C41.1757 37.4519 41.7072 36.1701 41.7082 34.8333V19.4663C41.7103 18.8699 41.5452 18.2849 41.2314 17.7777C40.9177 17.2705 40.4681 16.8615 39.9335 16.5971Z" fill="#0A8EF2"/>
<path id="Vector_2" d="M34.8332 23.375H31.1665C30.8018 23.375 30.4521 23.2301 30.1942 22.9723C29.9364 22.7144 29.7915 22.3647 29.7915 22C29.7915 21.6353 29.9364 21.2856 30.1942 21.0277C30.4521 20.7699 30.8018 20.625 31.1665 20.625H34.8332C35.1978 20.625 35.5476 20.7699 35.8054 21.0277C36.0633 21.2856 36.2082 21.6353 36.2082 22C36.2082 22.3647 36.0633 22.7144 35.8054 22.9723C35.5476 23.2301 35.1978 23.375 34.8332 23.375Z" fill="white"/>
<path id="Vector_3" d="M34.8332 28.875H31.1665C30.8018 28.875 30.4521 28.7301 30.1942 28.4723C29.9364 28.2144 29.7915 27.8647 29.7915 27.5C29.7915 27.1353 29.9364 26.7856 30.1942 26.5277C30.4521 26.2699 30.8018 26.125 31.1665 26.125H34.8332C35.1978 26.125 35.5476 26.2699 35.8054 26.5277C36.0633 26.7856 36.2082 27.1353 36.2082 27.5C36.2082 27.8647 36.0633 28.2144 35.8054 28.4723C35.5476 28.7301 35.1978 28.875 34.8332 28.875Z" fill="white"/>
<path id="Vector_4" d="M34.8332 34.375H31.1665C30.8018 34.375 30.4521 34.2301 30.1942 33.9723C29.9364 33.7144 29.7915 33.3647 29.7915 33C29.7915 32.6353 29.9364 32.2856 30.1942 32.0277C30.4521 31.7699 30.8018 31.625 31.1665 31.625H34.8332C35.1978 31.625 35.5476 31.7699 35.8054 32.0277C36.0633 32.2856 36.2082 32.6353 36.2082 33C36.2082 33.3647 36.0633 33.7144 35.8054 33.9723C35.5476 34.2301 35.1978 34.375 34.8332 34.375Z" fill="white"/>
<path id="Vector_5" d="M27.0415 7.33333V38.5C27.0391 38.8639 26.8935 39.2123 26.6361 39.4696C26.3788 39.727 26.0304 39.8726 25.6665 39.875H5.49984C4.65012 39.8711 3.83631 39.5319 3.23547 38.931C2.63462 38.3302 2.29536 37.5164 2.2915 36.6667V7.33333C2.29536 6.48362 2.63462 5.66981 3.23547 5.06896C3.83631 4.46812 4.65012 4.12886 5.49984 4.125H23.8332C24.6829 4.12886 25.4967 4.46812 26.0975 5.06896C26.6984 5.66981 27.0376 6.48362 27.0415 7.33333Z" fill="#08A8F6"/>
<g id="Group">
<path id="Vector_6" d="M20.6247 32.0833V39.875H8.70801V32.0833C8.70801 31.4755 8.94945 30.8926 9.37922 30.4628C9.80899 30.0331 10.3919 29.7916 10.9997 29.7916H18.333C18.9408 29.7916 19.5237 30.0331 19.9535 30.4628C20.3832 30.8926 20.6247 31.4755 20.6247 32.0833Z" fill="white"/>
<path id="Vector_7" d="M19.2498 24.2916H17.4165C17.0518 24.2916 16.7021 24.1468 16.4442 23.8889C16.1864 23.631 16.0415 23.2813 16.0415 22.9166C16.0415 22.552 16.1864 22.2022 16.4442 21.9444C16.7021 21.6865 17.0518 21.5416 17.4165 21.5416H19.2498C19.6145 21.5416 19.9642 21.6865 20.2221 21.9444C20.48 22.2022 20.6248 22.552 20.6248 22.9166C20.6248 23.2813 20.48 23.631 20.2221 23.8889C19.9642 24.1468 19.6145 24.2916 19.2498 24.2916Z" fill="white"/>
<path id="Vector_8" d="M19.2498 13.2916H17.4165C17.0518 13.2916 16.7021 13.1468 16.4442 12.8889C16.1864 12.631 16.0415 12.2813 16.0415 11.9166C16.0415 11.552 16.1864 11.2022 16.4442 10.9444C16.7021 10.6865 17.0518 10.5416 17.4165 10.5416H19.2498C19.6145 10.5416 19.9642 10.6865 20.2221 10.9444C20.48 11.2022 20.6248 11.552 20.6248 11.9166C20.6248 12.2813 20.48 12.631 20.2221 12.8889C19.9642 13.1468 19.6145 13.2916 19.2498 13.2916Z" fill="white"/>
<path id="Vector_9" d="M19.2498 18.7916H17.4165C17.0518 18.7916 16.7021 18.6468 16.4442 18.3889C16.1864 18.131 16.0415 17.7813 16.0415 17.4166C16.0415 17.052 16.1864 16.7022 16.4442 16.4444C16.7021 16.1865 17.0518 16.0416 17.4165 16.0416H19.2498C19.6145 16.0416 19.9642 16.1865 20.2221 16.4444C20.48 16.7022 20.6248 17.052 20.6248 17.4166C20.6248 17.7813 20.48 18.131 20.2221 18.3889C19.9642 18.6468 19.6145 18.7916 19.2498 18.7916Z" fill="white"/>
<path id="Vector_10" d="M11.9163 24.2916H10.083C9.71834 24.2916 9.3686 24.1468 9.11074 23.8889C8.85287 23.631 8.70801 23.2813 8.70801 22.9166C8.70801 22.552 8.85287 22.2022 9.11074 21.9444C9.3686 21.6865 9.71834 21.5416 10.083 21.5416H11.9163C12.281 21.5416 12.6308 21.6865 12.8886 21.9444C13.1465 22.2022 13.2913 22.552 13.2913 22.9166C13.2913 23.2813 13.1465 23.631 12.8886 23.8889C12.6308 24.1468 12.281 24.2916 11.9163 24.2916Z" fill="white"/>
<path id="Vector_11" d="M11.9163 13.2916H10.083C9.71834 13.2916 9.3686 13.1468 9.11074 12.8889C8.85287 12.631 8.70801 12.2813 8.70801 11.9166C8.70801 11.552 8.85287 11.2022 9.11074 10.9444C9.3686 10.6865 9.71834 10.5416 10.083 10.5416H11.9163C12.281 10.5416 12.6308 10.6865 12.8886 10.9444C13.1465 11.2022 13.2913 11.552 13.2913 11.9166C13.2913 12.2813 13.1465 12.631 12.8886 12.8889C12.6308 13.1468 12.281 13.2916 11.9163 13.2916Z" fill="white"/>
<path id="Vector_12" d="M11.9163 18.7916H10.083C9.71834 18.7916 9.3686 18.6468 9.11074 18.3889C8.85287 18.131 8.70801 17.7813 8.70801 17.4166C8.70801 17.052 8.85287 16.7022 9.11074 16.4444C9.3686 16.1865 9.71834 16.0416 10.083 16.0416H11.9163C12.281 16.0416 12.6308 16.1865 12.8886 16.4444C13.1465 16.7022 13.2913 17.052 13.2913 17.4166C13.2913 17.7813 13.1465 18.131 12.8886 18.3889C12.6308 18.6468 12.281 18.7916 11.9163 18.7916Z" fill="white"/>
</g>
</g>
</g>
</svg>
