<svg width="44" height="44" viewBox="0 0 44 44" fill="none" xmlns="http://www.w3.org/2000/svg">
<g id="fi_2374826" clip-path="url(#clip0_95_7959)">
<g id="Group">
<path id="Vector" d="M9.31627 44H8.72528C7.59443 44 6.67773 43.0833 6.67773 41.9525V2.04755C6.67782 0.916695 7.59452 0 8.72528 0H9.31627C10.4471 0 11.3638 0.916695 11.3638 2.04755V41.9525C11.3637 43.0833 10.447 44 9.31627 44Z" fill="#E6E6E6"/>
<path id="Vector_2" d="M10.0914 43.8477C9.85235 43.946 9.59033 44 9.31593 44H8.72545C7.594 44 6.67773 43.0837 6.67773 41.9523V2.04772C6.67773 0.916265 7.594 0 8.72545 0H9.31593C9.59041 0 9.85244 0.0539687 10.0914 0.152281C9.3442 0.456844 8.81835 1.19075 8.81835 2.04772V41.9523C8.81835 42.8092 9.34429 43.5432 10.0914 43.8477Z" fill="#CDCDCD"/>
<path id="Vector_3" d="M26.4754 24.2802C25.6218 27.2291 26.9835 30.4386 29.4738 32.9289L33.1011 28.1542L32.8513 22.7158L25.3677 16.5587L26.4754 24.2802Z" fill="#0A8EF2"/>
<path id="Vector_4" d="M31.0761 6.00237V26.4265C25.7739 22.8942 18.8411 22.4904 9.0203 25.6307C8.25718 25.8741 7.47635 26.1398 6.67773 26.4265V6.00237C7.47627 5.71551 8.25709 5.44997 9.0203 5.20651C13.4903 3.77668 17.3617 3.08179 20.7542 3.08179C24.8143 3.08179 28.1873 4.07772 31.0761 6.00237Z" fill="#08A8F6"/>
<path id="Vector_5" d="M9.0203 5.20654V25.6307C8.25718 25.8742 7.47635 26.1398 6.67773 26.4266V6.00241C7.47635 5.71564 8.25718 5.45 9.0203 5.20654Z" fill="#0A8EF2"/>
<path id="Vector_6" d="M37.3223 13.7135V34.1376C35.0381 34.3333 33.0966 34.2332 31.4491 33.9428C28.0841 33.3479 27.2403 28.8717 30.161 27.0976C30.7621 26.732 31.0764 26.4265 31.0764 26.4265L28.6561 22.4849L31.0764 13.4337C31.1968 13.4673 31.3207 13.4956 31.4491 13.5178C33.0967 13.8091 35.0382 13.9091 37.3223 13.7135Z" fill="#08A8F6"/>
</g>
</g>
<defs>
<clipPath id="clip0_95_7959">
<rect width="44" height="44" fill="white"/>
</clipPath>
</defs>
</svg>
