<svg width="44" height="44" viewBox="0 0 44 44" fill="none" xmlns="http://www.w3.org/2000/svg">
<g clip-path="url(#clip0_49_5354)">
<path d="M15.519 3.32004L13.5133 3.71019C12.1001 3.98511 11.3357 5.38039 11.9478 6.56779L16.0412 12.8699L22.0001 8.0509L15.519 3.32004Z" fill="#0A8EF2"/>
<path d="M28.4811 3.32004L30.4868 3.71019C31.9 3.98511 32.6644 5.38039 32.0524 6.56779L27.959 12.8699L22 8.0509L28.4811 3.32004Z" fill="#0A8EF2"/>
<path d="M25.5218 12.8699H18.478L15.215 2.92712C14.7414 1.48423 15.8164 0 17.3351 0H26.6648C28.1835 0 29.2585 1.48423 28.7849 2.92712L25.5218 12.8699Z" fill="#08A8F6"/>
<path d="M38.6328 39.8796L38.2486 39.4954C37.9371 39.1839 37.8675 38.7092 38.0646 38.3151C38.6184 37.2077 38.9263 35.8927 38.9263 34.332C38.9263 26.0502 30.2819 10.3597 22 10.3597C13.7181 10.3597 5.07375 26.0501 5.07375 34.332C5.07375 35.8926 5.38149 37.2076 5.93536 38.3151C6.13242 38.7092 6.06281 39.1839 5.75128 39.4954L5.36714 39.8796C4.42449 40.8222 4.42449 42.3504 5.36714 43.2931C6.30979 44.2357 7.83802 44.2357 8.78067 43.2931L9.6739 42.3998C9.86752 42.2062 10.1592 42.1525 10.4104 42.2616C13.6092 43.6512 17.8497 44 22 44C26.1503 44 30.3909 43.6512 33.5896 42.2616C33.8407 42.1524 34.1325 42.2062 34.3261 42.3998L35.2193 43.2931C36.162 44.2357 37.6902 44.2357 38.6329 43.2931C39.5754 42.3504 39.5754 40.8221 38.6328 39.8796Z" fill="#08A8F6"/>
<path d="M29.8862 13.7924H13.6283C12.5826 13.7924 11.7349 12.9448 11.7349 11.899C11.7349 10.8533 12.5825 10.0055 13.6283 10.0055H29.8862C30.9318 10.0055 31.7796 10.8532 31.7796 11.899C31.7795 12.9448 30.9318 13.7924 29.8862 13.7924Z" fill="#0A8EF2"/>
<path d="M22.0002 36.3916C26.5988 36.3916 30.3266 32.6637 30.3266 28.0652C30.3266 23.4667 26.5988 19.7388 22.0002 19.7388C17.4017 19.7388 13.6738 23.4667 13.6738 28.0652C13.6738 32.6637 17.4017 36.3916 22.0002 36.3916Z" fill="#0A8EF2"/>
<path d="M23.111 27.3896C22.9461 27.3313 22.7776 27.2704 22.6094 27.2071V24.4357C23.0068 24.5457 23.2427 24.7446 23.2657 24.7645C23.5356 25.0083 23.9521 24.99 24.199 24.7221C24.4476 24.4525 24.4307 24.0324 24.1611 23.7839C24.1264 23.7518 23.5513 23.2344 22.6094 23.0787V22.5367C22.6094 22.1699 22.3121 21.8727 21.9454 21.8727C21.5786 21.8727 21.2815 22.17 21.2815 22.5367V23.1279C21.2036 23.146 21.125 23.1659 21.0446 23.1901C20.1536 23.4585 19.488 24.2204 19.3074 25.1785C19.1424 26.0539 19.424 26.899 20.0423 27.384C20.3585 27.632 20.7496 27.8592 21.2815 28.098V31.655C20.8326 31.6149 20.534 31.4955 20.0358 31.1697C19.7288 30.9691 19.3175 31.055 19.1167 31.3619C18.916 31.6687 19.002 32.0802 19.3089 32.281C20.0787 32.7846 20.6102 32.9428 21.2815 32.9864V33.5937C21.2815 33.9605 21.5787 34.2576 21.9454 34.2576C22.3122 34.2576 22.6094 33.9604 22.6094 33.5937V32.9311C23.9742 32.6429 24.7721 31.5086 24.9503 30.4481C25.1825 29.0673 24.4605 27.8667 23.111 27.3896ZM20.8619 26.3391C20.6386 26.1639 20.5407 25.805 20.6124 25.4245C20.6745 25.0951 20.8827 24.7036 21.2815 24.5182V26.614C21.1252 26.5255 20.9828 26.434 20.8619 26.3391ZM23.6407 30.228C23.5534 30.7477 23.2032 31.2985 22.6094 31.5432V28.6206C22.6293 28.6277 22.6481 28.6346 22.6683 28.6418C23.7536 29.0253 23.687 29.9528 23.6407 30.228Z" fill="#F9F6F9"/>
</g>
<defs>
<clipPath id="clip0_49_5354">
<rect width="44" height="44" fill="white"/>
</clipPath>
</defs>
</svg>
