<svg width="44" height="44" viewBox="0 0 44 44" fill="none" xmlns="http://www.w3.org/2000/svg">
<g id="fi_583985">
<g id="Group 18">
<path id="Vector" d="M38.4061 6H3.92272C3.07143 6 2.38135 6.69008 2.38135 7.54138V11.6818H39.9476V7.54138C39.9475 6.69016 39.2574 6 38.4061 6Z" fill="#08A8F6"/>
<path id="Vector_2" d="M38.94 36.9373H2.93104C1.70334 36.9373 0.708008 35.9421 0.708008 34.7143V12.7149C0.708008 11.4872 1.70325 10.4919 2.93104 10.4919H38.94C40.1677 10.4919 41.163 11.4871 41.163 12.7149V34.7143C41.163 35.9421 40.1678 36.9373 38.94 36.9373Z" fill="#08A8F6"/>
<path id="Vector_3" d="M42.4863 19.4652H34.3817C32.0348 19.4652 30.1323 21.3677 30.1323 23.7145C30.1323 26.0614 32.0348 27.9639 34.3817 27.9639H42.4863C42.9311 27.9639 43.2917 27.6033 43.2917 27.1585V20.2706C43.2917 19.8259 42.9311 19.4652 42.4863 19.4652Z" fill="#0A8EF2"/>
<path id="Vector_4" d="M38.94 8.49185H2.93104C1.70334 8.49185 0.708008 9.48718 0.708008 10.7149V13.151H41.163V10.7149C41.163 9.48718 40.1678 8.49185 38.94 8.49185Z" fill="#0A8EF2"/>
<path id="Vector_5" d="M2.93104 38.9373H38.94C40.1677 38.9373 41.163 37.942 41.163 36.7143V34.2781H0.708008V36.7143C0.708008 37.942 1.70325 38.9373 2.93104 38.9373Z" fill="#0A8EF2"/>
<path id="Vector_6" d="M34.5331 25.688C35.6228 25.688 36.5061 24.8047 36.5061 23.715C36.5061 22.6253 35.6228 21.7419 34.5331 21.7419C33.4434 21.7419 32.5601 22.6253 32.5601 23.715C32.5601 24.8047 33.4434 25.688 34.5331 25.688Z" fill="white"/>
</g>
</g>
</svg>
