<svg width="486" height="215" viewBox="0 0 486 215" fill="none" xmlns="http://www.w3.org/2000/svg">
<g clip-path="url(#clip0_639_13203)">
<path d="M85.2042 183.938V151.005H0V116.014L80.1592 1.30981H128.554V113.394H149.294V151.005H128.554V183.938H85.2042ZM88.1938 113.394V50.5222L48.2076 113.394H88.1938Z" fill="#9197AF"/>
<path d="M208.341 6.92341C217.684 2.43255 228.895 0 241.6 0C254.493 0 265.517 2.24543 274.86 6.92341C284.203 11.4143 291.677 17.9634 297.095 26.3838C302.514 34.8042 306.438 44.5344 309.054 55.2002C311.67 65.866 312.791 78.0287 312.791 91.6884C312.791 105.161 311.483 117.324 309.054 128.177C306.438 138.842 302.514 148.573 297.095 156.993C291.677 165.413 284.389 171.963 274.86 176.453C265.517 180.944 254.306 183.377 241.6 183.377C228.708 183.377 217.684 181.131 208.341 176.453C198.998 171.963 191.524 165.413 186.106 156.993C180.687 148.573 176.763 138.842 174.147 128.177C171.531 117.511 170.41 105.348 170.41 91.6884C170.41 78.2158 171.718 66.0531 174.147 55.2002C176.763 44.5344 180.687 34.8042 186.106 26.3838C191.711 17.9634 198.998 11.4143 208.341 6.92341ZM254.493 43.5988C250.943 41.7276 246.645 40.6049 241.787 40.6049C236.929 40.6049 232.632 41.5405 229.081 43.5988C225.531 45.47 222.728 47.9025 220.673 50.8964C218.805 53.7032 217.123 57.6327 216.002 62.3107C214.881 66.9887 214.133 71.6667 213.76 75.9704C213.386 80.4613 213.199 85.7006 213.199 91.6884C213.199 97.8634 213.386 103.103 213.76 107.406C214.133 111.71 214.881 116.388 216.002 121.066C217.123 125.744 218.805 129.674 220.673 132.48C222.542 135.287 225.344 137.72 229.081 139.778C232.632 141.649 236.929 142.772 241.787 142.772C246.645 142.772 250.943 141.836 254.493 139.778C258.043 137.907 260.846 135.474 262.902 132.48C264.77 129.674 266.452 125.744 267.573 121.066C268.694 116.388 269.441 111.71 269.815 107.406C270.189 102.916 270.376 97.6762 270.376 91.6884C270.376 85.5135 270.189 80.2742 269.815 75.9704C269.441 71.6667 268.694 66.9887 267.573 62.3107C266.452 57.6327 264.77 53.7032 262.902 50.8964C261.033 47.9025 258.23 45.47 254.493 43.5988Z" fill="#9197AF"/>
<path d="M421.907 183.938V151.005H336.703V116.014L416.862 1.30981H465.257V113.394H485.997V151.005H465.257V183.938H421.907ZM424.897 113.394V50.5222L384.911 113.394H424.897Z" fill="#9197AF"/>
<path d="M12.5189 182.254C9.34248 182.254 6.72656 179.634 6.72656 176.453V136.784C6.72656 133.603 9.34248 130.983 12.5189 130.983C15.6954 130.983 18.3113 133.603 18.3113 136.784V176.453C18.3113 179.634 15.6954 182.254 12.5189 182.254Z" fill="#9197AF"/>
<path d="M30.0854 171.027C26.9089 171.027 24.293 168.407 24.293 165.226V125.557C24.293 122.376 26.9089 119.756 30.0854 119.756C33.2618 119.756 35.8777 122.376 35.8777 125.557V165.226C35.8777 168.407 33.2618 171.027 30.0854 171.027Z" fill="#9197AF"/>
<path d="M56.6166 190.861C53.4401 190.861 50.8242 188.242 50.8242 185.061V145.392C50.8242 142.21 53.4401 139.591 56.6166 139.591C59.7931 139.591 62.409 142.21 62.409 145.392V185.061C62.409 188.242 59.7931 190.861 56.6166 190.861Z" fill="#9197AF"/>
<path d="M90.9955 205.831C87.819 205.831 85.2031 203.211 85.2031 200.03V160.361C85.2031 157.18 87.819 154.56 90.9955 154.56C94.172 154.56 96.7879 157.18 96.7879 160.361V200.03C96.7879 203.211 94.172 205.831 90.9955 205.831Z" fill="#9197AF"/>
<path d="M117.531 191.984C114.354 191.984 111.738 189.364 111.738 186.183V146.514C111.738 143.333 114.354 140.713 117.531 140.713C120.707 140.713 123.323 143.333 123.323 146.514V186.183C123.323 189.364 120.707 191.984 117.531 191.984Z" fill="#9197AF"/>
<path d="M194.511 193.481C191.335 193.481 188.719 190.861 188.719 187.68V147.824C188.719 144.643 191.335 142.023 194.511 142.023C197.688 142.023 200.304 144.643 200.304 147.824V187.493C200.304 190.861 197.688 193.481 194.511 193.481Z" fill="#9197AF"/>
<path d="M220.484 215C217.307 215 214.691 212.38 214.691 209.199V169.53C214.691 166.349 217.307 163.729 220.484 163.729C223.66 163.729 226.276 166.349 226.276 169.53V209.199C226.463 212.38 223.66 215 220.484 215Z" fill="#9197AF"/>
<path d="M247.578 198.907C244.401 198.907 241.785 196.288 241.785 193.107V153.25C241.785 150.069 244.401 147.45 247.578 147.45C250.754 147.45 253.37 150.069 253.37 153.25V192.92C253.37 196.101 250.754 198.907 247.578 198.907Z" fill="#9197AF"/>
<path d="M286.632 188.99C283.456 188.99 280.84 186.371 280.84 183.19V143.333C280.84 140.152 283.456 137.532 286.632 137.532C289.809 137.532 292.425 140.152 292.425 143.333V183.002C292.425 186.183 289.809 188.99 286.632 188.99Z" fill="#9197AF"/>
<path d="M342.687 169.904C339.51 169.904 336.895 167.284 336.895 164.103V124.434C336.895 121.253 339.51 118.633 342.687 118.633C345.863 118.633 348.479 121.253 348.479 124.434V164.103C348.479 167.284 345.863 169.904 342.687 169.904Z" fill="#9197AF"/>
<path d="M366.601 187.493C363.424 187.493 360.809 184.873 360.809 181.692V142.023C360.809 138.842 363.424 136.222 366.601 136.222C369.777 136.222 372.393 138.842 372.393 142.023V181.692C372.393 184.873 369.777 187.493 366.601 187.493Z" fill="#9197AF"/>
<path d="M394.441 169.156C391.264 169.156 388.648 166.536 388.648 163.355V123.498C388.648 120.317 391.264 117.698 394.441 117.698C397.617 117.698 400.233 120.317 400.233 123.498V163.168C400.233 166.536 397.617 169.156 394.441 169.156Z" fill="#9197AF"/>
<path d="M433.496 201.901C430.319 201.901 427.703 199.282 427.703 196.101V156.431C427.703 153.25 430.319 150.631 433.496 150.631C436.672 150.631 439.288 153.25 439.288 156.431V196.101C439.475 199.282 436.859 201.901 433.496 201.901Z" fill="#9197AF"/>
<path d="M454.234 195.165C451.057 195.165 448.441 192.546 448.441 189.364V149.695C448.441 146.514 451.057 143.895 454.234 143.895C457.41 143.895 460.026 146.514 460.026 149.695V189.364C460.026 192.546 457.41 195.165 454.234 195.165Z" fill="#9197AF"/>
<path d="M480.206 169.904C477.03 169.904 474.414 167.284 474.414 164.103V124.434C474.414 121.253 477.03 118.633 480.206 118.633C483.383 118.633 485.999 121.253 485.999 124.434V164.103C485.999 167.284 483.383 169.904 480.206 169.904Z" fill="#9197AF"/>
</g>
<defs>
<clipPath id="clip0_639_13203">
<rect width="486" height="215" fill="white"/>
</clipPath>
</defs>
</svg>
