<svg width="480" height="615" viewBox="0 0 480 615" fill="none" xmlns="http://www.w3.org/2000/svg">
<path d="M359.309 570.398C359.309 570.398 443.436 555.803 449.227 457.595C418.746 464.284 401.677 453.338 401.677 453.338C401.677 453.338 457.457 407.123 462.029 345.705C430.024 361.211 392.228 315.908 443.131 239.895C494.034 163.883 430.024 132.566 430.024 132.566C430.024 132.566 398.019 217.092 306.577 158.714C215.134 100.337 170.632 76.3166 92.6003 87.2624C121.862 88.1746 138.627 155.674 107.231 175.437C75.8358 195.2 2.37674 255.402 45.6597 351.786C89.2474 447.561 359.309 570.398 359.309 570.398Z" fill="#FFCF01"/>
<path d="M343.459 541.209C343.459 541.209 383.084 548.81 405.944 486.176C380.34 490.432 366.624 468.237 366.624 468.237C366.624 468.237 410.212 445.433 415.394 392.528C388.875 404.994 336.753 349.353 397.715 272.429C442.217 216.179 405.03 192.768 405.03 192.768C405.03 192.768 366.319 248.409 290.422 207.666C214.524 166.923 222.144 127.093 157.525 107.938C157.525 246.28 32.248 259.963 59.0713 336.279C93.8196 434.791 343.459 541.209 343.459 541.209Z" fill="#FF3F69"/>
<path d="M336.379 472.842L359.424 543.492C359.424 543.492 418.86 497.148 452.809 468.009C461.123 460.687 468.129 454.674 471.977 450.437C492.219 429.326 468.677 395.723 456.732 395.138C453.11 395.071 440.789 402.096 425.234 411.897C389.351 434.662 336.379 472.842 336.379 472.842Z" fill="#FFA500"/>
<path d="M425.234 411.897L452.809 468.01C461.123 460.687 468.129 454.674 471.977 450.437C492.219 429.326 468.677 395.723 456.732 395.139C453.11 395.071 440.789 402.096 425.234 411.897Z" fill="#862D43"/>
<path d="M360.198 546.564C358.966 546.875 357.578 546.571 356.961 545.42C355.957 544.039 356.109 542.04 357.495 541.037C358.034 540.575 417.239 494.616 450.88 465.555C460.041 457.692 466.122 451.912 469.817 448.367C480.207 437.581 476.878 424.37 474.173 417.536C469.613 405.942 460.897 398.663 456.967 398.673C455.965 398.599 451.035 399.841 427.318 414.966C391.666 437.346 339.31 475.371 338.771 475.833C337.385 476.836 335.381 476.687 334.301 474.999C333.297 473.618 333.449 471.619 335.143 470.539C335.682 470.077 388.424 432.282 423.999 409.595C448.332 394.315 454.417 392.454 457.345 392.37C464.974 392.735 475.081 402.931 480.181 415.369C486.054 429.573 483.912 443.182 474.6 453.043C470.982 456.896 464.901 462.675 455.124 470.694C421.483 499.755 361.97 545.791 361.431 546.254C361.123 546.331 360.815 546.409 360.198 546.564Z" fill="#2D2B39"/>
<path d="M148.685 519.013L153.257 590.161C153.257 590.161 83.7608 569.79 43.2211 555.803C33.1624 552.459 24.9325 549.114 20.0556 546.986C-5.54843 535.128 3.59584 497.122 13.9594 492.257C17.0075 490.737 30.7239 492.561 48.0981 495.905C88.0281 503.811 148.685 519.013 148.685 519.013Z" fill="#FFA500"/>
<path d="M47.7935 496.209L42.9165 556.107C32.8578 552.763 24.6279 549.418 19.751 547.29C-5.853 535.432 3.29128 497.426 13.6548 492.561C17.0077 491.041 30.4193 492.865 47.7935 496.209Z" fill="#862D43"/>
<path d="M152.953 593.505C154.172 593.505 155.391 592.593 156.001 591.377C156.611 589.857 155.696 588.032 153.867 587.728C153.258 587.424 84.0658 567.357 44.1358 553.371C33.1627 549.418 25.5424 546.682 21.2751 544.553C8.4731 538.472 6.33943 525.702 6.64424 518.405C6.64424 506.547 11.826 497.122 15.4837 495.297C16.3981 494.993 21.2751 494.081 47.7935 499.25C87.4187 506.851 147.771 522.054 148.381 522.054C149.905 522.358 151.734 521.446 152.038 519.925C152.343 518.405 151.429 516.581 149.905 516.277C149.295 516.277 88.9428 500.77 49.0127 493.169C21.8847 488 15.7885 488.608 13.0453 489.52C6.33945 492.561 0.852875 505.027 0.852875 518.101C0.852875 532.695 7.25388 544.249 19.1414 549.722C23.7136 551.851 31.3338 554.891 42.6118 558.844C82.8466 572.83 152.038 592.897 152.648 593.201C152.343 593.201 152.648 593.505 152.953 593.505Z" fill="#2D2B39"/>
<path d="M373.33 611.14C373.33 611.14 228.546 611.14 134.36 611.14C127.654 569.181 134.055 532.087 141.066 506.851C147.162 486.176 153.563 473.71 153.563 473.71L332.486 438.136C341.021 453.338 347.726 468.237 353.213 482.527C380.951 554.891 373.33 611.14 373.33 611.14Z" fill="#FFA500"/>
<path d="M188.006 473.71C188.006 473.71 174.899 534.824 180.081 611.14C218.487 611.14 277.62 611.14 277.62 611.14C277.62 611.14 282.192 530.263 260.855 438.136" fill="#FFECCA"/>
<path opacity="0.2" d="M353.518 482.527C250.492 599.282 168.498 535.432 141.37 507.155C147.466 486.48 153.867 474.014 153.867 474.014L332.791 438.44C341.02 453.338 348.031 468.237 353.518 482.527Z" fill="#AE2B39"/>
<path d="M161.487 494.081C161.487 494.081 172.765 535.736 235.861 530.871C298.652 525.702 314.807 468.237 314.807 468.237" fill="#E6BA01"/>
<path d="M134.359 614.181H373.33C374.854 614.181 376.073 612.964 376.378 611.444C376.378 610.836 383.998 553.371 356.261 481.311C350.469 466.108 343.459 450.906 335.229 436.616C334.619 435.399 333.4 434.791 331.876 435.095L152.953 470.669C152.038 470.973 151.124 471.581 150.819 472.189C150.514 472.797 144.113 485.263 138.017 505.939C131.007 530.263 123.996 568.573 131.007 611.444C131.616 613.268 132.835 614.181 134.359 614.181ZM370.587 608.1H137.103C131.007 567.357 137.712 531.175 144.418 507.763C149.295 491.345 154.172 480.095 156.001 476.446L331.266 441.48C338.887 454.859 345.288 469.149 350.774 483.439C374.245 545.465 371.501 596.242 370.587 608.1Z" fill="#2D2B39"/>
<path d="M236.001 600.498C261.609 600.498 282.368 579.738 282.368 554.13C282.368 528.522 261.609 507.763 236.001 507.763C210.393 507.763 189.633 528.522 189.633 554.13C189.633 579.738 210.393 600.498 236.001 600.498Z" fill="#FFCF01"/>
<path d="M220.887 570.211C226.783 573.5 234.324 571.374 237.634 565.489L239.734 561.754L243.475 563.842C249.371 567.131 256.912 565.005 260.222 559.12C263.531 553.235 261.412 545.719 255.516 542.43C247.125 537.749 238.735 533.068 230.322 528.374L216.186 553.538C212.877 559.423 214.991 566.921 220.887 570.211Z" fill="#EE9B03"/>
<path d="M232.861 537.448L221.992 556.777C220.49 559.448 221.465 562.906 224.141 564.399C226.817 565.892 230.286 564.914 231.806 562.238L237.164 552.709L246.734 558.048C249.41 559.541 252.879 558.562 254.399 555.887C255.901 553.216 254.926 549.758 252.25 548.265C245.782 544.642 239.324 541.053 232.861 537.448Z" fill="#FFA500"/>
<path d="M241.412 567.776L252.138 573.76L235.392 578.482L241.412 567.776Z" fill="#EE9B03"/>
<path d="M247.412 575.093L235.392 578.482L239.923 570.424C237.599 574.584 247.412 575.093 247.412 575.093Z" fill="#D78E08"/>
<path d="M239.716 561.759C225.724 553.953 246.659 537.518 230.309 528.396L216.186 553.538C212.877 559.423 214.996 566.939 220.892 570.228C226.788 573.517 234.329 571.391 237.638 565.506L239.716 561.759Z" fill="#FFA500"/>
<path d="M236.745 541.19C237.357 536.446 236.568 531.888 230.309 528.396L228.566 531.497C231.919 532.951 237.131 536.053 236.745 541.19Z" fill="#D78E08"/>
<path d="M239.716 561.759C236.383 559.899 235.034 557.556 234.694 554.928C229.595 565.375 215.49 566.114 215.886 554.099C213.012 559.899 215.173 567.022 220.888 570.211C226.783 573.5 234.325 571.374 237.634 565.489L239.716 561.759Z" fill="#D78E08"/>
<path d="M239.716 561.759C229.651 553.512 245.157 543.579 240.083 533.849C236.835 532.022 233.574 530.218 230.309 528.396C246.659 537.518 225.747 553.966 239.716 561.759Z" fill="#C4830D"/>
<path d="M239.717 561.759C225.725 553.953 246.66 537.518 230.31 528.396C233.031 529.914 235.733 533.057 236.331 536.602C236.804 539.364 236.207 542.332 235.607 545.015C234.824 548.473 233.586 552.689 234.523 556.215C235.214 558.801 237.262 560.508 239.717 561.759Z" fill="#D78E08"/>
<path d="M223.699 575.912L224.085 576.603L224.699 576.678L224.215 577.062L224.251 577.871L223.878 577.157L223.265 577.082L223.749 576.698L223.699 575.912Z" fill="#FFA500"/>
<path d="M219.385 574.101L220.252 575.685L221.636 575.847L220.546 576.725L220.634 578.529L219.785 576.94L218.379 576.765L219.491 575.899L219.385 574.101Z" fill="#FFA500"/>
<path d="M215.85 538.93L216.717 540.514L218.101 540.676L217.006 541.537L217.094 543.34L216.227 541.757L214.844 541.594L215.938 540.733L215.85 538.93Z" fill="#FFA500"/>
<path d="M261.658 563.876L262.507 565.465L263.908 565.623L262.801 566.506L262.907 568.305L262.04 566.721L260.634 566.546L261.746 565.68L261.658 563.876Z" fill="#FFA500"/>
<path d="M251.822 528.178L253.288 530.869L255.661 531.152L253.785 532.634L253.941 535.694L252.493 532.998L250.12 532.715L251.996 531.234L251.822 528.178Z" fill="#FFA500"/>
<path d="M295.604 191.855L374.244 114.627C374.244 114.627 350.164 79.0529 360.833 66.8909C371.501 54.729 387.656 90.6068 397.715 82.7015C408.078 74.4922 368.453 48.0399 383.084 32.8374C397.715 17.6349 412.955 65.6747 421.49 60.2019C430.025 54.729 413.26 21.2835 437.035 17.9389C460.81 13.9863 465.687 53.8168 442.217 84.8299C418.747 115.843 326.999 223.781 326.999 223.781" fill="#B55D47"/>
<path d="M209.647 220.132L253.235 118.883C253.235 118.883 217.572 94.8636 222.754 79.6611C227.936 64.4586 256.588 91.8231 262.989 80.2692C269.39 69.0193 222.754 58.9857 230.679 39.5265C238.604 20.0673 270.914 58.9857 276.401 50.4723C282.192 41.9589 254.454 17.6349 274.877 5.4729C295.299 -6.68909 314.807 28.2766 304.748 65.9788C294.689 103.681 250.492 238.071 250.492 238.071" fill="#B55D47"/>
<path d="M326.999 226.821C327.914 226.821 328.828 226.517 329.438 225.605C330.352 224.693 421.185 117.667 444.656 86.6542C462.335 63.2423 463.859 36.4859 456.238 23.7158C451.971 16.4187 444.96 13.3782 436.731 14.5944C419.356 17.3308 420.271 34.0535 421.185 44.9993C421.49 50.1682 421.795 56.2492 420.271 57.4654C418.747 57.1613 413.87 50.1682 411.127 46.2155C404.726 37.094 398.325 27.6685 390.4 26.7563C387.047 26.4523 383.999 27.6685 381.255 30.709C371.197 41.0467 380.95 54.4249 388.875 65.3707C393.143 71.1476 398.325 78.4448 396.191 80.2691C393.448 82.3975 387.961 76.9246 383.084 72.0598C377.598 66.5869 371.806 60.8099 365.71 61.114C362.967 61.114 360.833 62.3302 358.699 64.7626C348.031 76.9246 365.1 105.505 370.587 114.323L293.775 190.031C292.556 191.247 292.556 193.072 293.775 194.288C294.994 195.504 296.823 195.504 298.042 194.288L376.378 116.755C377.293 115.843 377.598 114.019 376.683 112.802C367.844 99.7283 356.261 76.3165 362.967 68.7152C364.186 67.499 365.1 67.195 365.405 67.195C368.758 67.195 373.635 72.0598 378.207 76.3165C384.913 83.0056 392.533 90.3028 399.544 84.8299C406.25 79.357 400.153 70.8436 393.448 61.7221C384.913 49.8641 379.426 41.0467 385.218 34.9657C387.047 33.1414 388.571 32.8373 389.485 32.8373C394.362 33.1414 400.458 42.2629 405.64 49.5601C411.736 58.6816 417.223 66.5869 423.319 62.6342C427.891 59.5937 427.586 52.6006 426.977 44.6953C426.062 31.3171 426.367 22.1956 437.34 20.6754C443.132 19.7632 447.704 21.8915 450.447 27.0604C457.153 38.3102 455.019 62.6342 439.169 83.3096C416.613 113.715 325.475 220.74 324.561 221.956C323.341 223.173 323.646 225.301 324.866 226.213C325.475 226.517 326.39 226.821 326.999 226.821Z" fill="#2D2B39"/>
<path d="M250.492 241.112C251.711 241.112 252.93 240.199 253.235 238.983C253.845 237.463 297.737 104.289 307.796 66.891C315.416 38.3103 306.882 13.3782 294.689 4.25675C287.984 -0.912096 280.363 -1.21615 273.353 3.04055C258.112 11.858 265.428 27.0605 270.305 37.0941C272.438 41.6549 275.182 47.4318 273.962 48.9521C272.438 49.2561 265.428 44.6954 261.16 41.9589C252.016 35.8779 242.262 29.4929 234.947 31.6212C231.899 32.5334 229.46 34.9658 227.936 38.6144C222.449 51.9926 236.776 60.81 248.053 67.8032C254.15 71.7558 261.77 76.3166 260.246 78.749C258.417 81.7895 251.406 78.749 245.005 76.3166C237.69 73.2761 230.375 70.2356 224.888 72.668C222.449 73.8842 220.925 75.7085 219.706 78.749C214.524 93.9515 241.043 114.323 249.273 120.1L206.599 218.916C205.99 220.436 206.599 222.26 208.123 222.869C209.647 223.477 211.476 222.869 212.086 221.348L255.979 120.1C256.588 118.884 255.979 117.059 254.759 116.451C241.652 107.634 222.145 90.3029 225.498 80.5733C226.107 79.053 226.717 78.4449 227.326 78.1409C230.375 76.6206 236.776 79.3571 242.567 81.7895C251.406 85.4381 261.16 89.3907 265.428 81.7895C269.695 74.1882 260.551 68.7153 251.102 62.6343C238.604 54.729 230.07 48.648 233.423 40.7427C234.337 38.3103 235.556 37.7022 236.471 37.3982C241.348 35.8779 250.187 41.9589 257.503 46.8237C266.647 52.9047 274.572 58.3776 278.839 52.2966C281.887 47.7359 279.144 41.3508 275.486 34.3577C269.695 22.1957 266.647 13.9863 276.096 8.2094C281.278 5.1689 286.155 5.47295 290.727 9.12155C301.395 17.0268 308.101 40.4387 301.395 65.3708C291.336 102.465 247.444 235.639 247.139 237.159C246.529 238.679 247.444 240.503 248.968 241.112C249.882 241.112 250.187 241.112 250.492 241.112Z" fill="#2D2B39"/>
<path d="M263.599 191.247C263.599 191.247 231.898 133.174 202.942 132.262C181.605 131.654 191.359 161.45 191.359 161.45C191.359 161.45 180.386 146.248 167.279 154.153C154.172 162.059 171.546 192.768 171.546 192.768" fill="#862D43"/>
<path d="M171.242 195.808C171.851 195.808 172.156 195.808 172.766 195.504C174.29 194.592 174.899 192.768 173.985 191.247C169.718 183.95 159.964 162.059 168.498 156.89C179.167 150.505 188.311 162.971 188.616 163.579C189.53 164.795 191.054 165.099 192.578 164.491C193.798 163.883 194.407 162.363 194.102 160.842C192.883 156.586 190.14 144.424 194.407 138.951C196.236 136.518 198.979 135.606 202.942 135.606C230.07 136.518 260.856 192.16 261.16 192.768C262.075 194.288 263.904 194.896 265.428 193.984C266.952 193.072 267.561 191.247 266.647 189.727C265.428 187.295 233.728 130.133 203.247 129.221C197.15 129.221 192.578 131.045 189.835 134.998C186.177 139.863 185.873 146.856 186.482 152.633C180.996 148.984 173.375 146.856 165.755 151.417C150.515 160.538 166.974 190.639 168.803 193.984C169.108 195.2 170.022 195.808 171.242 195.808Z" fill="#2D2B39"/>
<path d="M141.675 254.49C141.675 254.49 172.766 201.585 105.098 137.735C37.735 178.173 45.66 235.335 97.4776 260.267" fill="#FFA500"/>
<path d="M97.7822 263.307C99.0015 263.307 99.9159 262.699 100.526 261.483C101.135 259.963 100.526 258.138 99.0015 257.53C74.9215 245.976 60.9003 227.429 59.681 206.754C58.4618 183.342 74.6167 160.234 104.488 141.383C167.279 201.889 140.151 250.841 138.932 252.666C138.017 254.186 138.627 256.01 140.151 256.922C141.675 257.834 143.504 257.226 144.418 255.706C144.723 255.098 176.118 200.065 107.231 135.302C106.317 134.39 104.793 134.086 103.574 134.998C70.3494 155.066 52.6704 180.606 53.5849 207.058C54.4993 230.166 70.0446 250.537 96.2582 263.003C96.8678 263.003 97.1726 263.307 97.7822 263.307Z" fill="#2D2B39"/>
<path d="M117.29 246.281C117.29 246.281 130.701 202.193 103.269 169.964C71.5685 193.984 85.2849 236.855 117.29 246.281Z" fill="#FFECCA"/>
<path d="M383.389 351.482C381.255 401.346 359.919 451.514 294.689 480.095C190.14 526.006 105.707 497.73 59.3765 456.987C35.2965 435.703 21.5801 411.075 20.3608 391.312C17.3127 328.374 76.7506 311.651 76.7506 311.651L82.2372 235.031C182.52 132.262 347.117 202.497 347.117 202.497C347.117 202.497 386.742 276.685 383.389 351.482Z" fill="#FFA500"/>
<path d="M80.1033 343.272C71.2638 360.299 95.6485 373.981 109.06 374.285C124.605 374.589 145.637 355.13 140.76 343.576C135.883 332.326 83.761 335.671 80.1033 343.272Z" fill="#862D43"/>
<path d="M90.1624 346.921C88.6384 351.482 123.387 350.874 124.301 346.009C125.216 341.144 93.2105 336.887 90.1624 346.921Z" fill="white"/>
<path d="M167.889 415.636C169.413 415.636 170.937 415.636 172.461 415.636C193.188 414.42 205.99 402.258 211.781 389.488C213.61 385.231 214.829 380.974 215.134 377.022C215.744 370.029 213.915 364.252 209.952 360.907C209.343 360.299 207.819 360.299 205.38 360.299C204.466 360.299 203.551 360.299 202.332 360.603C187.092 362.731 153.867 372.765 137.713 380.67C134.36 382.191 131.921 383.711 130.397 384.927C128.263 387.055 141.37 414.116 167.889 415.636Z" fill="white"/>
<path d="M99.3067 278.51C80.7133 287.631 82.2373 324.725 113.938 321.381C145.943 318.036 131.312 263.003 99.3067 278.51Z" fill="#2D2B39"/>
<path d="M103.269 282.766C91.6862 288.543 92.6007 311.651 112.413 309.523C132.531 307.699 123.386 273.341 103.269 282.766Z" fill="#FF3F69"/>
<path d="M112.736 300.664C114.482 297.686 113.462 293.848 110.476 292.128C109.589 291.617 109.308 290.452 109.89 289.588C110.381 288.859 111.351 288.598 112.142 288.983C112.758 289.283 113.117 289.884 113.144 290.512C113.173 291.202 113.535 291.835 114.134 292.18L114.203 292.221C115.567 293.006 117.264 291.99 117.216 290.416C117.169 288.889 116.526 287.406 115.385 286.329L115.561 286.023C115.935 285.373 115.712 284.543 115.062 284.169C114.412 283.794 113.582 284.017 113.208 284.667L113.032 284.973C110.493 284.219 107.671 285.27 106.293 287.663C104.681 290.46 105.645 294.046 108.442 295.658C109.515 296.276 109.852 297.685 109.143 298.728C108.551 299.597 107.394 299.908 106.446 299.453C105.654 299.072 105.212 298.283 105.226 297.476C105.239 296.742 104.843 296.06 104.207 295.694C102.861 294.918 101.173 295.875 101.154 297.429C101.132 299.173 101.845 300.886 103.165 302.098L102.993 302.395C102.619 303.045 102.842 303.875 103.492 304.25C104.142 304.624 104.972 304.401 105.346 303.751L105.518 303.453C108.218 304.293 111.252 303.194 112.736 300.664Z" fill="white"/>
<path d="M245.615 267.26C273.962 268.476 285.545 312.563 247.749 322.597C210.257 332.935 202.332 265.436 245.615 267.26Z" fill="#2D2B39"/>
<path d="M240.433 272.429C260.246 273.341 268.476 304.05 241.957 311.043C215.439 318.036 209.952 271.213 240.433 272.429Z" fill="#FF3F69"/>
<path d="M245.607 295.858C244.508 292.586 240.944 290.834 237.686 291.956C236.718 292.289 235.655 291.737 235.386 290.73C235.158 289.881 235.599 288.978 236.408 288.635C237.039 288.367 237.727 288.491 238.219 288.883C238.759 289.315 239.474 289.458 240.128 289.233L240.203 289.206C241.692 288.694 242.039 286.747 240.821 285.75C239.639 284.782 238.099 284.293 236.536 284.446L236.422 284.112C236.178 283.403 235.405 283.026 234.696 283.271C233.986 283.515 233.61 284.287 233.854 284.997L233.968 285.33C231.733 286.749 230.672 289.568 231.571 292.179C232.622 295.231 235.96 296.859 239.012 295.808C240.182 295.405 241.467 296.077 241.787 297.296C242.054 298.314 241.529 299.39 240.563 299.806C239.756 300.153 238.87 299.968 238.271 299.427C237.726 298.935 236.952 298.787 236.257 299.026C234.788 299.531 234.402 301.433 235.561 302.468C236.861 303.63 238.622 304.217 240.402 304.017L240.514 304.342C240.758 305.051 241.531 305.428 242.24 305.184C242.949 304.94 243.326 304.167 243.082 303.458L242.97 303.133C245.376 301.649 246.541 298.639 245.607 295.858Z" fill="white"/>
<path d="M202.027 292.496C203.247 292.496 231.594 291.584 268.781 256.922C271.829 254.186 271.829 249.321 269.086 246.28C266.342 243.24 261.465 242.936 258.417 245.976C225.803 276.077 202.027 277.293 201.723 277.293C197.455 277.597 194.102 280.942 194.407 285.199C194.407 289.151 197.76 292.496 202.027 292.496Z" fill="#892B34"/>
<path d="M138.627 294.624C140.456 294.624 141.675 294.624 141.675 294.624C145.942 294.32 148.99 290.672 148.686 286.415C148.381 282.158 144.723 279.118 140.456 279.422C140.151 279.422 113.023 280.942 98.392 262.699C95.9535 259.355 91.0766 258.746 87.7237 261.483C84.3708 263.915 83.7611 268.78 86.5044 272.125C102.964 292.8 129.483 294.624 138.627 294.624Z" fill="#892B34"/>
<path d="M265.428 338.712C273.657 353.002 316.636 328.374 306.882 314.692C297.128 301.009 254.15 318.948 265.428 338.712Z" fill="#FF3F69"/>
<path opacity="0.2" d="M383.389 351.482C381.255 401.346 359.919 451.514 294.69 480.095C190.14 526.006 105.708 497.73 59.3767 456.987C103.879 478.575 191.969 503.811 291.642 437.224C335.534 408.035 364.491 378.542 383.389 351.482Z" fill="#AE2B39"/>
<path d="M166.06 207.666C156.001 205.234 151.124 236.247 158.44 237.463C168.194 238.983 176.119 210.099 166.06 207.666Z" fill="#FF7C00"/>
<path d="M200.199 204.017C190.14 206.754 200.808 236.247 207.514 233.814C217.268 230.47 210.257 201.281 200.199 204.017Z" fill="#FF7C00"/>
<path d="M181.91 198.849C171.547 199.761 176.728 230.774 184.044 229.558C193.798 227.733 192.274 197.936 181.91 198.849Z" fill="#FF7C00"/>
<path d="M189.225 507.155C220.316 507.155 255.978 500.77 295.908 483.135C353.213 457.899 383.694 413.812 386.437 351.786C389.79 276.989 349.86 202.193 349.555 201.281C349.25 200.673 348.64 200.065 348.031 200.065C346.507 199.457 180.386 130.437 79.7985 233.206C79.1889 233.814 78.8841 234.422 78.8841 235.031L73.7023 309.827C63.034 313.475 14.5693 334.151 17.3126 391.92C18.227 413.204 33.1627 438.44 57.2426 459.723C73.0927 473.406 118.814 507.155 189.225 507.155ZM344.678 204.93C349.25 213.747 383.389 282.766 380.341 351.178C377.902 410.771 348.64 453.034 293.47 477.358C165.45 533.608 83.4562 474.318 61.2051 454.555C38.6492 434.791 24.3232 410.467 23.4088 391.008C20.3607 331.11 75.2263 314.996 77.36 314.388C78.5793 314.084 79.4937 312.867 79.4937 311.651L84.6755 235.943C178.862 141.687 330.962 199.457 344.678 204.93Z" fill="#2D2B39"/>
<path d="M299.566 233.206C299.566 233.206 265.428 182.43 329.438 114.627C398.934 151.113 394.362 208.578 344.069 236.551" fill="#FFA500"/>
<path d="M323.647 223.781C323.647 223.781 307.492 180.606 333.401 146.856C366.32 168.748 355.042 212.531 323.647 223.781Z" fill="#FFECCA"/>
<path d="M344.069 239.591C344.678 239.591 344.983 239.591 345.593 239.287C370.892 224.997 385.218 203.714 384.913 180.606C384.608 154.153 365.405 129.829 330.962 111.586C329.743 110.978 328.219 111.282 327.304 112.194C293.47 148.072 287.069 179.085 287.679 199.153C288.289 221.044 296.823 234.118 297.433 234.727C298.347 236.247 300.176 236.551 301.7 235.639C303.224 234.727 303.529 232.902 302.615 231.382C301.395 229.254 271.219 182.43 330.657 118.275C361.748 134.998 379.122 157.194 379.427 180.91C379.731 201.585 366.625 221.044 343.154 233.814C341.63 234.727 341.021 236.551 341.935 238.071C341.935 238.983 342.85 239.591 344.069 239.591Z" fill="#2D2B39"/>
<path d="M195.931 380.975C204.466 381.279 209.038 384.927 211.781 389.184C213.61 384.927 214.829 380.671 215.134 376.718C215.744 369.725 213.915 363.948 209.952 360.603C209.343 359.995 207.819 359.995 205.38 359.995C205.685 366.988 203.856 374.894 195.931 380.975Z" fill="#2D2B39"/>
<path d="M447.094 326.246C447.094 326.246 483.061 341.448 488.243 287.023C451.666 300.705 436.121 311.043 447.094 326.246Z" fill="#FFCF01"/>
<path d="M35.9061 227.429C35.9061 227.429 60.2908 197.024 9.08282 177.261C12.4357 216.18 18.2271 233.815 35.9061 227.429Z" fill="#FFCF01"/>
</svg>
