<svg width="409" height="536" viewBox="0 0 409 536" fill="none" xmlns="http://www.w3.org/2000/svg">
<circle cx="206" cy="326" r="190" fill="#E3F666"/>
<mask id="mask0_1_13951" style="mask-type:luminance" maskUnits="userSpaceOnUse" x="0" y="0" width="81" height="82">
<path d="M60.5226 65.581C44.9442 70.8003 28.1519 62.1919 23.0265 46.3986C17.9011 30.6053 26.3984 13.5919 41.9769 8.44042C53.4415 4.6446 65.5131 8.23707 73.2011 16.7099C63.0853 2.81447 44.9442 -3.62486 27.8821 2.06887C6.57139 9.11824 -4.96068 32.2998 2.05297 53.7869C9.06663 75.2739 31.9284 87.0003 53.1717 79.9509C71.1779 73.9183 82.2379 56.3626 80.8892 38.0613C80.4845 50.2622 72.6616 61.5141 60.5226 65.581Z" fill="white"/>
</mask>
<g mask="url(#mask0_1_13951)">
<path d="M60.5226 65.581C44.9442 70.8003 28.1519 62.1919 23.0265 46.3986C17.9011 30.6053 26.3984 13.5919 41.9769 8.44042C53.4415 4.6446 65.5131 8.23707 73.2011 16.7099C63.0853 2.81447 44.9442 -3.62486 27.8821 2.06887C6.57139 9.11824 -4.96068 32.2998 2.05297 53.7869C9.06663 75.2739 31.9284 87.0003 53.1717 79.9509C71.1779 73.9183 82.2379 56.3626 80.8892 38.0613C80.4845 50.2622 72.6616 61.5141 60.5226 65.581Z" fill="white"/>
</g>
<mask id="mask1_1_13951" style="mask-type:luminance" maskUnits="userSpaceOnUse" x="0" y="0" width="81" height="82">
<path d="M60.5226 65.581C44.9442 70.8003 28.1519 62.1919 23.0265 46.3986C17.9011 30.6053 26.3984 13.5919 41.9769 8.44042C53.4415 4.6446 65.5131 8.23707 73.2011 16.7099C63.0853 2.81447 44.9442 -3.62486 27.8821 2.06887C6.57139 9.11824 -4.96068 32.2998 2.05297 53.7869C9.06663 75.2739 31.9284 87.0003 53.1717 79.9509C71.1779 73.9183 82.2379 56.3626 80.8892 38.0613C80.4845 50.2622 72.6616 61.5141 60.5226 65.581Z" fill="white"/>
</mask>
<g mask="url(#mask1_1_13951)">
<path d="M35.2351 8.37275C36.3898 8.37275 37.3258 7.40163 37.3258 6.20371C37.3258 5.00578 36.3898 4.03467 35.2351 4.03467C34.0805 4.03467 33.1445 5.00578 33.1445 6.20371C33.1445 7.40163 34.0805 8.37275 35.2351 8.37275Z" fill="#9197AF"/>
</g>
<mask id="mask2_1_13951" style="mask-type:luminance" maskUnits="userSpaceOnUse" x="0" y="0" width="81" height="82">
<path d="M60.5226 65.581C44.9442 70.8003 28.1519 62.1919 23.0265 46.3986C17.9011 30.6053 26.3984 13.5919 41.9769 8.44042C53.4415 4.6446 65.5131 8.23707 73.2011 16.7099C63.0853 2.81447 44.9442 -3.62486 27.8821 2.06887C6.57139 9.11824 -4.96068 32.2998 2.05297 53.7869C9.06663 75.2739 31.9284 87.0003 53.1717 79.9509C71.1779 73.9183 82.2379 56.3626 80.8892 38.0613C80.4845 50.2622 72.6616 61.5141 60.5226 65.581Z" fill="white"/>
</mask>
<g mask="url(#mask2_1_13951)">
<path d="M24.2385 15.2865C25.6538 15.2865 26.8011 14.103 26.8011 12.643C26.8011 11.1831 25.6538 9.99951 24.2385 9.99951C22.8231 9.99951 21.6758 11.1831 21.6758 12.643C21.6758 14.103 22.8231 15.2865 24.2385 15.2865Z" fill="#9197AF"/>
</g>
<mask id="mask3_1_13951" style="mask-type:luminance" maskUnits="userSpaceOnUse" x="0" y="0" width="81" height="82">
<path d="M60.5226 65.581C44.9442 70.8003 28.1519 62.1919 23.0265 46.3986C17.9011 30.6053 26.3984 13.5919 41.9769 8.44042C53.4415 4.6446 65.5131 8.23707 73.2011 16.7099C63.0853 2.81447 44.9442 -3.62486 27.8821 2.06887C6.57139 9.11824 -4.96068 32.2998 2.05297 53.7869C9.06663 75.2739 31.9284 87.0003 53.1717 79.9509C71.1779 73.9183 82.2379 56.3626 80.8892 38.0613C80.4845 50.2622 72.6616 61.5141 60.5226 65.581Z" fill="white"/>
</mask>
<g mask="url(#mask3_1_13951)">
<path d="M15.7438 28.8429C16.7866 28.8429 17.6321 27.9932 17.6321 26.945C17.6321 25.8968 16.7866 25.0471 15.7438 25.0471C14.7009 25.0471 13.8555 25.8968 13.8555 26.945C13.8555 27.9932 14.7009 28.8429 15.7438 28.8429Z" fill="#9197AF"/>
</g>
<mask id="mask4_1_13951" style="mask-type:luminance" maskUnits="userSpaceOnUse" x="0" y="0" width="81" height="82">
<path d="M60.5226 65.581C44.9442 70.8003 28.1519 62.1919 23.0265 46.3986C17.9011 30.6053 26.3984 13.5919 41.9769 8.44042C53.4415 4.6446 65.5131 8.23707 73.2011 16.7099C63.0853 2.81447 44.9442 -3.62486 27.8821 2.06887C6.57139 9.11824 -4.96068 32.2998 2.05297 53.7869C9.06663 75.2739 31.9284 87.0003 53.1717 79.9509C71.1779 73.9183 82.2379 56.3626 80.8892 38.0613C80.4845 50.2622 72.6616 61.5141 60.5226 65.581Z" fill="white"/>
</mask>
<g mask="url(#mask4_1_13951)">
<path d="M3.26756 30.5373C3.90073 30.5373 4.41402 29.9911 4.41402 29.3173C4.41402 28.6434 3.90073 28.0972 3.26756 28.0972C2.63438 28.0972 2.12109 28.6434 2.12109 29.3173C2.12109 29.9911 2.63438 30.5373 3.26756 30.5373Z" fill="#9197AF"/>
</g>
<mask id="mask5_1_13951" style="mask-type:luminance" maskUnits="userSpaceOnUse" x="0" y="0" width="81" height="82">
<path d="M60.5226 65.581C44.9442 70.8003 28.1519 62.1919 23.0265 46.3986C17.9011 30.6053 26.3984 13.5919 41.9769 8.44042C53.4415 4.6446 65.5131 8.23707 73.2011 16.7099C63.0853 2.81447 44.9442 -3.62486 27.8821 2.06887C6.57139 9.11824 -4.96068 32.2998 2.05297 53.7869C9.06663 75.2739 31.9284 87.0003 53.1717 79.9509C71.1779 73.9183 82.2379 56.3626 80.8892 38.0613C80.4845 50.2622 72.6616 61.5141 60.5226 65.581Z" fill="white"/>
</mask>
<g mask="url(#mask5_1_13951)">
<path d="M7.64858 51.9567C10.3303 51.9567 12.5042 49.7717 12.5042 47.0764C12.5042 44.381 10.3303 42.196 7.64858 42.196C4.9669 42.196 2.79297 44.381 2.79297 47.0764C2.79297 49.7717 4.9669 51.9567 7.64858 51.9567Z" fill="#9197AF"/>
</g>
<mask id="mask6_1_13951" style="mask-type:luminance" maskUnits="userSpaceOnUse" x="0" y="0" width="81" height="82">
<path d="M60.5226 65.581C44.9442 70.8003 28.1519 62.1919 23.0265 46.3986C17.9011 30.6053 26.3984 13.5919 41.9769 8.44042C53.4415 4.6446 65.5131 8.23707 73.2011 16.7099C63.0853 2.81447 44.9442 -3.62486 27.8821 2.06887C6.57139 9.11824 -4.96068 32.2998 2.05297 53.7869C9.06663 75.2739 31.9284 87.0003 53.1717 79.9509C71.1779 73.9183 82.2379 56.3626 80.8892 38.0613C80.4845 50.2622 72.6616 61.5141 60.5226 65.581Z" fill="white"/>
</mask>
<g mask="url(#mask6_1_13951)">
<path d="M10.6831 65.9878C11.6515 65.9878 12.4365 65.1988 12.4365 64.2255C12.4365 63.2522 11.6515 62.4631 10.6831 62.4631C9.71472 62.4631 8.92969 63.2522 8.92969 64.2255C8.92969 65.1988 9.71472 65.9878 10.6831 65.9878Z" fill="#9197AF"/>
</g>
<mask id="mask7_1_13951" style="mask-type:luminance" maskUnits="userSpaceOnUse" x="0" y="0" width="81" height="82">
<path d="M60.5226 65.581C44.9442 70.8003 28.1519 62.1919 23.0265 46.3986C17.9011 30.6053 26.3984 13.5919 41.9769 8.44042C53.4415 4.6446 65.5131 8.23707 73.2011 16.7099C63.0853 2.81447 44.9442 -3.62486 27.8821 2.06887C6.57139 9.11824 -4.96068 32.2998 2.05297 53.7869C9.06663 75.2739 31.9284 87.0003 53.1717 79.9509C71.1779 73.9183 82.2379 56.3626 80.8892 38.0613C80.4845 50.2622 72.6616 61.5141 60.5226 65.581Z" fill="white"/>
</mask>
<g mask="url(#mask7_1_13951)">
<path d="M28.0849 69.7835C29.314 69.7835 30.3103 68.782 30.3103 67.5466C30.3103 66.3113 29.314 65.3098 28.0849 65.3098C26.8558 65.3098 25.8594 66.3113 25.8594 67.5466C25.8594 68.782 26.8558 69.7835 28.0849 69.7835Z" fill="#9197AF"/>
</g>
<mask id="mask8_1_13951" style="mask-type:luminance" maskUnits="userSpaceOnUse" x="0" y="0" width="81" height="82">
<path d="M60.5226 65.581C44.9442 70.8003 28.1519 62.1919 23.0265 46.3986C17.9011 30.6053 26.3984 13.5919 41.9769 8.44042C53.4415 4.6446 65.5131 8.23707 73.2011 16.7099C63.0853 2.81447 44.9442 -3.62486 27.8821 2.06887C6.57139 9.11824 -4.96068 32.2998 2.05297 53.7869C9.06663 75.2739 31.9284 87.0003 53.1717 79.9509C71.1779 73.9183 82.2379 56.3626 80.8892 38.0613C80.4845 50.2622 72.6616 61.5141 60.5226 65.581Z" fill="white"/>
</mask>
<g mask="url(#mask8_1_13951)">
<path d="M21.2743 55.2782C21.8703 55.2782 22.3534 54.7926 22.3534 54.1936C22.3534 53.5947 21.8703 53.1091 21.2743 53.1091C20.6784 53.1091 20.1953 53.5947 20.1953 54.1936C20.1953 54.7926 20.6784 55.2782 21.2743 55.2782Z" fill="#9197AF"/>
</g>
<mask id="mask9_1_13951" style="mask-type:luminance" maskUnits="userSpaceOnUse" x="0" y="0" width="81" height="82">
<path d="M60.5226 65.581C44.9442 70.8003 28.1519 62.1919 23.0265 46.3986C17.9011 30.6053 26.3984 13.5919 41.9769 8.44042C53.4415 4.6446 65.5131 8.23707 73.2011 16.7099C63.0853 2.81447 44.9442 -3.62486 27.8821 2.06887C6.57139 9.11824 -4.96068 32.2998 2.05297 53.7869C9.06663 75.2739 31.9284 87.0003 53.1717 79.9509C71.1779 73.9183 82.2379 56.3626 80.8892 38.0613C80.4845 50.2622 72.6616 61.5141 60.5226 65.581Z" fill="white"/>
</mask>
<g mask="url(#mask9_1_13951)">
<path d="M43.2592 76.9685C44.1531 76.9685 44.8777 76.2098 44.8777 75.2739C44.8777 74.338 44.1531 73.5793 43.2592 73.5793C42.3653 73.5793 41.6406 74.338 41.6406 75.2739C41.6406 76.2098 42.3653 76.9685 43.2592 76.9685Z" fill="#9197AF"/>
</g>
<mask id="mask10_1_13951" style="mask-type:luminance" maskUnits="userSpaceOnUse" x="0" y="0" width="81" height="82">
<path d="M60.5226 65.581C44.9442 70.8003 28.1519 62.1919 23.0265 46.3986C17.9011 30.6053 26.3984 13.5919 41.9769 8.44042C53.4415 4.6446 65.5131 8.23707 73.2011 16.7099C63.0853 2.81447 44.9442 -3.62486 27.8821 2.06887C6.57139 9.11824 -4.96068 32.2998 2.05297 53.7869C9.06663 75.2739 31.9284 87.0003 53.1717 79.9509C71.1779 73.9183 82.2379 56.3626 80.8892 38.0613C80.4845 50.2622 72.6616 61.5141 60.5226 65.581Z" fill="white"/>
</mask>
<g mask="url(#mask10_1_13951)">
<path d="M25.9919 80.2898C27.1093 80.2898 28.0151 79.3794 28.0151 78.2564C28.0151 77.1333 27.1093 76.2229 25.9919 76.2229C24.8746 76.2229 23.9688 77.1333 23.9688 78.2564C23.9688 79.3794 24.8746 80.2898 25.9919 80.2898Z" fill="#9197AF"/>
</g>
<mask id="mask11_1_13951" style="mask-type:luminance" maskUnits="userSpaceOnUse" x="0" y="0" width="81" height="82">
<path d="M60.5226 65.581C44.9442 70.8003 28.1519 62.1919 23.0265 46.3986C17.9011 30.6053 26.3984 13.5919 41.9769 8.44042C53.4415 4.6446 65.5131 8.23707 73.2011 16.7099C63.0853 2.81447 44.9442 -3.62486 27.8821 2.06887C6.57139 9.11824 -4.96068 32.2998 2.05297 53.7869C9.06663 75.2739 31.9284 87.0003 53.1717 79.9509C71.1779 73.9183 82.2379 56.3626 80.8892 38.0613C80.4845 50.2622 72.6616 61.5141 60.5226 65.581Z" fill="white"/>
</mask>
<g mask="url(#mask11_1_13951)">
<path d="M57.2868 79.8154C59.0374 79.8154 60.4565 78.3891 60.4565 76.6296C60.4565 74.8702 59.0374 73.4438 57.2868 73.4438C55.5363 73.4438 54.1172 74.8702 54.1172 76.6296C54.1172 78.3891 55.5363 79.8154 57.2868 79.8154Z" fill="#9197AF"/>
</g>
<mask id="mask12_1_13951" style="mask-type:luminance" maskUnits="userSpaceOnUse" x="0" y="0" width="81" height="82">
<path d="M60.5226 65.581C44.9442 70.8003 28.1519 62.1919 23.0265 46.3986C17.9011 30.6053 26.3984 13.5919 41.9769 8.44042C53.4415 4.6446 65.5131 8.23707 73.2011 16.7099C63.0853 2.81447 44.9442 -3.62486 27.8821 2.06887C6.57139 9.11824 -4.96068 32.2998 2.05297 53.7869C9.06663 75.2739 31.9284 87.0003 53.1717 79.9509C71.1779 73.9183 82.2379 56.3626 80.8892 38.0613C80.4845 50.2622 72.6616 61.5141 60.5226 65.581Z" fill="white"/>
</mask>
<g mask="url(#mask12_1_13951)">
<path d="M70.3004 65.581C71.9764 65.581 73.3351 64.185 73.3351 62.463C73.3351 60.7409 71.9764 59.345 70.3004 59.345C68.6243 59.345 67.2656 60.7409 67.2656 62.463C67.2656 64.185 68.6243 65.581 70.3004 65.581Z" fill="#9197AF"/>
</g>
<mask id="mask13_1_13951" style="mask-type:luminance" maskUnits="userSpaceOnUse" x="0" y="0" width="81" height="82">
<path d="M60.5226 65.581C44.9442 70.8003 28.1519 62.1919 23.0265 46.3986C17.9011 30.6053 26.3984 13.5919 41.9769 8.44042C53.4415 4.6446 65.5131 8.23707 73.2011 16.7099C63.0853 2.81447 44.9442 -3.62486 27.8821 2.06887C6.57139 9.11824 -4.96068 32.2998 2.05297 53.7869C9.06663 75.2739 31.9284 87.0003 53.1717 79.9509C71.1779 73.9183 82.2379 56.3626 80.8892 38.0613C80.4845 50.2622 72.6616 61.5141 60.5226 65.581Z" fill="white"/>
</mask>
<g mask="url(#mask13_1_13951)">
<path d="M49.1248 67.2076C50.9499 67.2076 52.4293 65.7206 52.4293 63.8863C52.4293 62.052 50.9499 60.5649 49.1248 60.5649C47.2998 60.5649 45.8203 62.052 45.8203 63.8863C45.8203 65.7206 47.2998 67.2076 49.1248 67.2076Z" fill="#9197AF"/>
</g>
<mask id="mask14_1_13951" style="mask-type:luminance" maskUnits="userSpaceOnUse" x="0" y="0" width="81" height="82">
<path d="M60.5226 65.581C44.9442 70.8003 28.1519 62.1919 23.0265 46.3986C17.9011 30.6053 26.3984 13.5919 41.9769 8.44042C53.4415 4.6446 65.5131 8.23707 73.2011 16.7099C63.0853 2.81447 44.9442 -3.62486 27.8821 2.06887C6.57139 9.11824 -4.96068 32.2998 2.05297 53.7869C9.06663 75.2739 31.9284 87.0003 53.1717 79.9509C71.1779 73.9183 82.2379 56.3626 80.8892 38.0613C80.4845 50.2622 72.6616 61.5141 60.5226 65.581Z" fill="white"/>
</mask>
<g mask="url(#mask14_1_13951)">
<path d="M22.0824 44.5685C23.6467 44.5685 24.9149 43.2939 24.9149 41.7216C24.9149 40.1493 23.6467 38.8748 22.0824 38.8748C20.5181 38.8748 19.25 40.1493 19.25 41.7216C19.25 43.2939 20.5181 44.5685 22.0824 44.5685Z" fill="#9197AF"/>
</g>
<mask id="mask15_1_13951" style="mask-type:luminance" maskUnits="userSpaceOnUse" x="0" y="0" width="81" height="82">
<path d="M60.5226 65.581C44.9442 70.8003 28.1519 62.1919 23.0265 46.3986C17.9011 30.6053 26.3984 13.5919 41.9769 8.44042C53.4415 4.6446 65.5131 8.23707 73.2011 16.7099C63.0853 2.81447 44.9442 -3.62486 27.8821 2.06887C6.57139 9.11824 -4.96068 32.2998 2.05297 53.7869C9.06663 75.2739 31.9284 87.0003 53.1717 79.9509C71.1779 73.9183 82.2379 56.3626 80.8892 38.0613C80.4845 50.2622 72.6616 61.5141 60.5226 65.581Z" fill="white"/>
</mask>
<g mask="url(#mask15_1_13951)">
<path d="M11.8333 14.812C13.9936 14.812 15.7448 13.0518 15.7448 10.8806C15.7448 8.70936 13.9936 6.94922 11.8333 6.94922C9.6731 6.94922 7.92188 8.70936 7.92188 10.8806C7.92188 13.0518 9.6731 14.812 11.8333 14.812Z" fill="#9197AF"/>
</g>
<mask id="mask16_1_13951" style="mask-type:luminance" maskUnits="userSpaceOnUse" x="0" y="0" width="81" height="82">
<path d="M60.5226 65.581C44.9442 70.8003 28.1519 62.1919 23.0265 46.3986C17.9011 30.6053 26.3984 13.5919 41.9769 8.44042C53.4415 4.6446 65.5131 8.23707 73.2011 16.7099C63.0853 2.81447 44.9442 -3.62486 27.8821 2.06887C6.57139 9.11824 -4.96068 32.2998 2.05297 53.7869C9.06663 75.2739 31.9284 87.0003 53.1717 79.9509C71.1779 73.9183 82.2379 56.3626 80.8892 38.0613C80.4845 50.2622 72.6616 61.5141 60.5226 65.581Z" fill="white"/>
</mask>
<g mask="url(#mask16_1_13951)">
<path d="M29.9739 0.984465C30.1601 0.984465 30.3111 0.832729 30.3111 0.645553C30.3111 0.458377 30.1601 0.306641 29.9739 0.306641C29.7877 0.306641 29.6367 0.458377 29.6367 0.645553C29.6367 0.832729 29.7877 0.984465 29.9739 0.984465Z" fill="#9197AF"/>
</g>
<mask id="mask17_1_13951" style="mask-type:luminance" maskUnits="userSpaceOnUse" x="0" y="0" width="81" height="82">
<path d="M60.5226 65.581C44.9442 70.8003 28.1519 62.1919 23.0265 46.3986C17.9011 30.6053 26.3984 13.5919 41.9769 8.44042C53.4415 4.6446 65.5131 8.23707 73.2011 16.7099C63.0853 2.81447 44.9442 -3.62486 27.8821 2.06887C6.57139 9.11824 -4.96068 32.2998 2.05297 53.7869C9.06663 75.2739 31.9284 87.0003 53.1717 79.9509C71.1779 73.9183 82.2379 56.3626 80.8892 38.0613C80.4845 50.2622 72.6616 61.5141 60.5226 65.581Z" fill="white"/>
</mask>
<g mask="url(#mask17_1_13951)">
<path d="M51.1479 2.40774C52.1163 2.40774 52.9014 1.61871 52.9014 0.645399C52.9014 -0.327916 52.1163 -1.11694 51.1479 -1.11694C50.1796 -1.11694 49.3945 -0.327916 49.3945 0.645399C49.3945 1.61871 50.1796 2.40774 51.1479 2.40774Z" fill="#9197AF"/>
</g>
<mask id="mask18_1_13951" style="mask-type:luminance" maskUnits="userSpaceOnUse" x="0" y="0" width="81" height="82">
<path d="M60.5226 65.581C44.9442 70.8003 28.1519 62.1919 23.0265 46.3986C17.9011 30.6053 26.3984 13.5919 41.9769 8.44042C53.4415 4.6446 65.5131 8.23707 73.2011 16.7099C63.0853 2.81447 44.9442 -3.62486 27.8821 2.06887C6.57139 9.11824 -4.96068 32.2998 2.05297 53.7869C9.06663 75.2739 31.9284 87.0003 53.1717 79.9509C71.1779 73.9183 82.2379 56.3626 80.8892 38.0613C80.4845 50.2622 72.6616 61.5141 60.5226 65.581Z" fill="white"/>
</mask>
<g mask="url(#mask18_1_13951)">
<path d="M60.9952 11.6941C62.3733 11.6941 63.4905 10.5713 63.4905 9.18617C63.4905 7.80107 62.3733 6.67822 60.9952 6.67822C59.6172 6.67822 58.5 7.80107 58.5 9.18617C58.5 10.5713 59.6172 11.6941 60.9952 11.6941Z" fill="#9197AF"/>
</g>
<mask id="mask19_1_13951" style="mask-type:luminance" maskUnits="userSpaceOnUse" x="0" y="0" width="81" height="82">
<path d="M60.5226 65.581C44.9442 70.8003 28.1519 62.1919 23.0265 46.3986C17.9011 30.6053 26.3984 13.5919 41.9769 8.44042C53.4415 4.6446 65.5131 8.23707 73.2011 16.7099C63.0853 2.81447 44.9442 -3.62486 27.8821 2.06887C6.57139 9.11824 -4.96068 32.2998 2.05297 53.7869C9.06663 75.2739 31.9284 87.0003 53.1717 79.9509C71.1779 73.9183 82.2379 56.3626 80.8892 38.0613C80.4845 50.2622 72.6616 61.5141 60.5226 65.581Z" fill="white"/>
</mask>
<g mask="url(#mask19_1_13951)">
<path d="M79.6077 55.4814C81.0975 55.4814 82.3053 54.2675 82.3053 52.7701C82.3053 51.2727 81.0975 50.0588 79.6077 50.0588C78.1179 50.0588 76.9102 51.2727 76.9102 52.7701C76.9102 54.2675 78.1179 55.4814 79.6077 55.4814Z" fill="#9197AF"/>
</g>
<path d="M131.104 281.865C130.757 281.865 121.024 281.517 118.417 290.379C118.417 290.379 115.288 287.425 112.855 287.946C125.716 312.098 135.449 353.278 115.984 352.93C102.775 352.757 96.5179 348.239 93.5633 343.721C91.4777 341.463 86.9589 335.207 93.0419 329.126C100.515 321.481 81.9187 297.155 72.5335 302.542C72.5335 302.542 69.9265 316.094 53.5893 312.619C37.2521 309.144 34.1237 274.393 60.5413 264.315C72.7073 259.798 83.8305 264.142 92.5205 270.397C93.9109 270.571 95.4751 270.744 97.3869 270.918C101.384 271.266 106.251 276.478 110.77 284.297C111.291 283.95 111.986 283.776 113.029 283.602C117.374 283.255 117.895 285.861 117.895 285.861C117.895 285.861 123.109 279.085 131.104 281.865Z" fill="#9197AF"/>
<path d="M154.916 509.484C154.916 509.484 79.4867 434.943 82.7889 280.648C86.0911 126.354 165.692 101.507 201.321 94.9044C236.95 88.3017 300.039 90.7342 321.59 241.727C343.141 392.72 373.035 423.301 373.035 423.301C373.035 423.301 375.468 418.262 380.161 422.085C384.68 425.734 383.811 429.904 383.811 429.904C383.811 429.904 384.68 420 400.843 423.301C417.006 426.603 411.271 470.91 364.345 461.527C364.345 461.527 353.743 455.793 350.615 464.829C347.66 473.864 367.995 480.814 356.176 491.413C344.358 501.839 312.726 486.722 312.726 486.722C312.726 486.722 302.472 482.552 299.17 489.502C295.868 496.452 319.157 511.916 301.951 519.562C284.745 527.381 265.974 490.544 254.156 498.885C242.337 507.225 265.279 524.6 255.199 533.983C245.292 543.366 208.446 517.65 199.061 505.314C189.676 492.803 176.467 502.534 186.374 521.82C196.28 541.107 167.256 523.558 154.916 509.484Z" fill="white"/>
<path d="M87.307 229.391C87.307 229.391 69.5794 317.658 94.2591 386.986C94.2591 386.986 82.7882 337.64 87.307 229.391Z" fill="#9197AF"/>
<path d="M233.3 311.577C233.3 311.577 229.998 301.499 239.383 298.893C248.769 296.46 245.466 269.007 235.734 268.833C235.734 268.833 227.391 278.216 216.442 267.964C205.492 257.887 218.875 229.391 244.076 233.735C269.103 238.079 271.015 273.698 271.015 273.698C271.015 273.698 272.232 270.918 275.708 272.656C279.184 274.393 278.488 276.652 278.488 276.652C278.488 276.652 285.788 273.872 290.654 279.78C290.654 279.78 283.007 274.741 276.924 280.648C276.924 280.648 274.143 271.961 269.798 278.216C269.798 278.216 265.28 236.688 243.381 235.993C221.656 235.125 211.054 251.458 218.701 264.663C226.348 277.868 236.603 265.011 236.603 265.011C236.603 265.011 256.068 272.134 244.25 297.85C244.25 297.85 243.207 300.109 239.557 301.847C235.734 303.41 232.779 305.322 233.3 311.577Z" fill="#404556"/>
<path opacity="0.58" d="M254.154 498.711C264.582 491.413 280.572 519.214 295.866 520.43C285.786 512.611 275.184 505.835 264.408 497.495C259.368 494.193 253.633 495.062 248.592 496.626C241.119 499.927 241.119 510.7 243.552 518.172C246.159 524.079 251.199 528.249 256.587 532.072C262.67 522.515 242.857 506.53 254.154 498.711Z" fill="#9197AF"/>
<path opacity="0.58" d="M364.346 461.354C385.55 465.698 398.411 458.921 404.494 450.06C401.713 452.666 398.411 454.751 394.587 455.967C378.076 461.006 359.827 450.233 344.881 455.967C333.236 460.137 342.447 475.949 349.921 481.683C352.702 484.289 355.656 486.374 358.958 488.112C364.346 479.25 348.009 472.821 350.79 464.655C353.571 455.62 364.346 461.354 364.346 461.354Z" fill="#9197AF"/>
<path opacity="0.58" d="M303.341 358.143C309.251 386.465 336.19 405.404 363.65 408.185C353.743 388.376 337.58 345.111 324.024 257.886C310.989 290.9 295.346 322.002 303.341 358.143Z" fill="#9197AF"/>
<path opacity="0.58" d="M293.434 485.853C285.091 494.193 295.346 507.572 305.6 517.129C315.159 508.962 296.215 495.583 299.169 489.328C302.471 482.378 312.726 486.548 312.726 486.548C312.726 486.548 329.932 494.714 343.662 494.888C325.761 481.162 307.686 470.563 293.434 485.853Z" fill="#9197AF"/>
<path opacity="0.58" d="M177.335 502.534C175.423 512.264 178.03 524.774 185.851 530.334C188.805 530.334 189.674 527.902 186.546 521.82C176.639 502.534 189.848 492.803 199.233 505.314C201.319 507.92 204.447 511.221 208.445 514.697C204.621 509.484 200.798 504.271 196.453 499.406C190.543 493.325 178.899 493.325 177.335 502.534Z" fill="#9197AF"/>
<path d="M377.554 420.347C377.554 420.347 370.95 421.39 370.429 438.418C370.602 438.418 367.126 419.131 377.554 420.347Z" fill="#9197AF"/>
<path d="M395.627 422.606C395.627 422.606 380.507 417.915 382.245 443.283C382.071 443.283 383.461 421.216 395.627 422.606Z" fill="#9197AF"/>
<path d="M145.461 319.487C149.376 319.082 151.805 311.557 150.886 302.68C149.968 293.803 146.05 286.935 142.135 287.339C138.22 287.744 135.792 295.269 136.71 304.146C137.629 313.023 141.547 319.891 145.461 319.487Z" fill="#262C3A"/>
<path d="M145.007 319.222C147.887 319.222 150.221 315.644 150.221 311.229C150.221 306.815 147.887 303.237 145.007 303.237C142.127 303.237 139.793 306.815 139.793 311.229C139.793 315.644 142.127 319.222 145.007 319.222Z" fill="#DC3181"/>
<path d="M142.227 321.655C142.227 321.655 148.657 325.13 152.133 319.917C155.609 314.705 154.914 308.797 154.914 308.797C154.914 308.797 158.564 330.169 142.227 321.655Z" fill="#9197AF"/>
<path d="M110.249 265.358C110.249 265.358 109.032 290.205 90.2617 286.209C90.4355 286.209 110.249 298.024 110.249 265.358Z" fill="#9197AF"/>
<path d="M172.468 264.489C172.468 264.489 172.121 281.865 187.415 279.606C187.415 279.606 166.907 284.124 172.468 264.489Z" fill="#9197AF"/>
<path d="M103.643 274.741C107.291 274.741 110.248 267.506 110.248 258.582C110.248 249.657 107.291 242.422 103.643 242.422C99.9959 242.422 97.0391 249.657 97.0391 258.582C97.0391 267.506 99.9959 274.741 103.643 274.741Z" fill="#1B1F28"/>
<path d="M178.726 271.44C182.373 271.44 185.33 264.205 185.33 255.28C185.33 246.356 182.373 239.121 178.726 239.121C175.078 239.121 172.121 246.356 172.121 255.28C172.121 264.205 175.078 271.44 178.726 271.44Z" fill="#1B1F28"/>
<path d="M101.732 251.11C103.172 251.11 104.339 249.943 104.339 248.504C104.339 247.064 103.172 245.897 101.732 245.897C100.292 245.897 99.125 247.064 99.125 248.504C99.125 249.943 100.292 251.11 101.732 251.11Z" fill="white"/>
<path d="M177.16 248.504C178.504 248.504 179.593 247.415 179.593 246.071C179.593 244.728 178.504 243.639 177.16 243.639C175.816 243.639 174.727 244.728 174.727 246.071C174.727 247.415 175.816 248.504 177.16 248.504Z" fill="white"/>
<path d="M218.7 365.615C218.7 365.615 224.783 411.486 241.294 425.908C257.805 440.329 305.426 414.787 303.166 405.405C300.907 396.022 282.137 352.409 275.011 349.629C267.885 346.849 217.657 359.533 218.7 365.615Z" fill="#802BCC"/>
<path d="M229.476 384.206L215.919 390.983C214.529 391.678 212.965 391.157 212.269 389.767L212.096 389.419C211.4 388.029 211.922 386.465 213.312 385.77L226.869 378.994C228.259 378.299 229.823 378.82 230.518 380.21L230.692 380.558C231.387 381.774 230.866 383.511 229.476 384.206Z" fill="#9197AF"/>
<path d="M235.905 401.061L222.349 407.837C220.959 408.532 219.394 408.011 218.699 406.621L218.525 406.273C217.83 404.883 218.352 403.32 219.742 402.624L233.298 395.848C234.689 395.153 236.253 395.674 236.948 397.064L237.122 397.412C237.643 398.802 237.122 400.366 235.905 401.061Z" fill="#9197AF"/>
<path d="M243.03 416.177L229.474 422.954C228.084 423.649 226.519 423.128 225.824 421.738L225.65 421.39C224.955 420 225.477 418.436 226.867 417.741L240.423 410.965C241.814 410.27 243.378 410.791 244.073 412.181L244.247 412.528C244.942 413.919 244.421 415.482 243.03 416.177Z" fill="#9197AF"/>
<path d="M292.043 360.228L281.615 365.441C280.398 365.962 278.834 365.615 278.313 364.398L277.965 363.703C277.444 362.487 277.791 360.923 279.008 360.402L289.436 355.189C290.652 354.668 292.217 355.016 292.738 356.232L293.086 356.927C293.781 358.143 293.259 359.707 292.043 360.228Z" fill="#9197AF"/>
<path d="M298.648 377.083L288.22 382.295C287.004 382.816 285.44 382.469 284.918 381.253L284.571 380.558C284.049 379.341 284.397 377.778 285.613 377.256L296.041 372.044C297.258 371.522 298.822 371.87 299.344 373.086L299.691 373.781C300.386 374.997 299.865 376.388 298.648 377.083Z" fill="#9197AF"/>
<path d="M306.121 392.199L295.693 397.412C294.476 397.933 292.912 397.586 292.391 396.369L292.043 395.674C291.522 394.458 291.869 392.894 293.086 392.373L303.514 387.16C304.731 386.639 306.295 386.987 306.816 388.203L307.164 388.898C307.685 390.114 307.338 391.504 306.121 392.199Z" fill="#9197AF"/>
</svg>
