<svg xmlns="http://www.w3.org/2000/svg" fill="none" viewBox="49 157 301.73 86"><path d="M350.726 193.441v6.12h-22.48v-28h21.96v6.12h-14.12v4.72h12.44v5.92h-12.44v5.12h14.64ZM305.024 184.96h7v11.6c-1.6 1.147-3.44 2.027-5.52 2.64-2.08.613-4.16.92-6.24.92-2.933 0-5.573-.613-7.92-1.84-2.346-1.253-4.186-2.987-5.52-5.2-1.333-2.213-2-4.72-2-7.52s.667-5.307 2-7.52c1.334-2.213 3.187-3.933 5.56-5.16 2.374-1.253 5.054-1.88 8.04-1.88 2.614 0 4.96.44 7.04 1.32 2.08.88 3.814 2.147 5.2 3.8l-5.04 4.56c-1.893-2.08-4.16-3.12-6.8-3.12-2.4 0-4.333.733-5.8 2.2-1.466 1.44-2.2 3.373-2.2 5.8 0 1.547.334 2.933 1 4.16a7.346 7.346 0 0 0 2.8 2.84c1.2.667 2.574 1 4.12 1 1.52 0 2.947-.307 4.28-.92v-7.68ZM257.695 192.121h-4.32v7.44h-7.92v-28h12.8c2.533 0 4.733.426 6.6 1.28 1.867.826 3.307 2.026 4.32 3.6 1.013 1.546 1.52 3.373 1.52 5.48 0 2.026-.48 3.8-1.44 5.32-.933 1.493-2.28 2.666-4.04 3.52l6.04 8.8h-8.48l-5.08-7.44Zm5-10.2c0-1.307-.413-2.32-1.24-3.04-.827-.72-2.053-1.08-3.68-1.08h-4.4v8.2h4.4c1.627 0 2.853-.347 3.68-1.04.827-.72 1.24-1.734 1.24-3.04ZM214.546 200.12c-2.96 0-5.626-.627-8-1.88-2.346-1.253-4.2-2.987-5.56-5.2-1.333-2.213-2-4.707-2-7.48 0-2.773.667-5.267 2-7.48 1.36-2.213 3.214-3.947 5.56-5.2 2.374-1.253 5.04-1.88 8-1.88s5.614.627 7.96 1.88c2.374 1.253 4.227 2.987 5.56 5.2 1.36 2.213 2.04 4.707 2.04 7.48 0 2.773-.68 5.267-2.04 7.48-1.333 2.213-3.186 3.947-5.56 5.2-2.346 1.253-5 1.88-7.96 1.88Zm0-6.56c1.414 0 2.694-.333 3.84-1 1.147-.667 2.054-1.6 2.72-2.8.667-1.227 1-2.627 1-4.2 0-1.573-.333-2.96-1-4.16-.666-1.227-1.573-2.173-2.72-2.84-1.146-.667-2.426-1-3.84-1-1.413 0-2.693.333-3.84 1-1.146.667-2.053 1.613-2.72 2.84-.666 1.2-1 2.587-1 4.16s.334 2.973 1 4.2c.667 1.2 1.574 2.133 2.72 2.8 1.147.667 2.427 1 3.84 1ZM183.64 171.561v28h-6.52l-12.36-14.92v14.92H157v-28h6.52l12.36 14.92v-14.92h7.76Z" fill="#E3F666"/><path d="M345.63 224.401c.976.272 1.744.768 2.304 1.488.56.704.84 1.6.84 2.688 0 1.456-.552 2.576-1.656 3.36-1.088.784-2.68 1.176-4.776 1.176h-8.016v-16.801h7.536c1.92 0 3.4.385 4.44 1.153 1.056.768 1.584 1.832 1.584 3.191 0 .881-.208 1.641-.624 2.281-.4.64-.944 1.128-1.632 1.464Zm-8.904-6.144v5.376h4.92c1.232 0 2.176-.224 2.832-.672.672-.464 1.008-1.136 1.008-2.017 0-.88-.336-1.543-1.008-1.991-.656-.464-1.6-.696-2.832-.696h-4.92Zm5.52 12.912c1.36 0 2.384-.224 3.072-.672.688-.448 1.032-1.152 1.032-2.112 0-1.872-1.368-2.808-4.104-2.808h-5.52v5.592h5.52ZM318.462 233.305c-2.24 0-3.984-.64-5.232-1.92-1.248-1.28-1.872-3.12-1.872-5.52v-9.553h2.4v9.457c0 3.6 1.576 5.4 4.728 5.4 1.536 0 2.712-.44 3.528-1.32.816-.896 1.224-2.256 1.224-4.08v-9.457h2.328v9.553c0 2.416-.624 4.264-1.872 5.544-1.248 1.264-2.992 1.896-5.232 1.896ZM302.634 216.312v16.801h-2.4v-7.488h-9.648v7.488h-2.4v-16.801h2.4v7.225h9.648v-7.225h2.4ZM261.488 233.304c-1.696 0-3.224-.368-4.584-1.104a8.424 8.424 0 0 1-3.216-3.096c-.768-1.312-1.152-2.776-1.152-4.392 0-1.616.384-3.08 1.152-4.392a8.249 8.249 0 0 1 3.216-3.072c1.36-.752 2.888-1.128 4.584-1.128 1.68 0 3.2.376 4.56 1.128a8.08 8.08 0 0 1 3.192 3.072c.768 1.296 1.152 2.76 1.152 4.392 0 1.632-.384 3.104-1.152 4.416-.768 1.296-1.832 2.32-3.192 3.072-1.36.736-2.88 1.104-4.56 1.104Zm0-2.136c1.232 0 2.336-.28 3.312-.84a6.077 6.077 0 0 0 2.328-2.304c.576-.992.864-2.096.864-3.312 0-1.216-.288-2.312-.864-3.288a6.028 6.028 0 0 0-2.328-2.328c-.976-.56-2.08-.84-3.312-.84-1.232 0-2.352.28-3.36.84a6.2 6.2 0 0 0-2.352 2.328c-.56.976-.84 2.072-.84 3.288 0 1.216.28 2.32.84 3.312a6.253 6.253 0 0 0 2.352 2.304c1.008.56 2.128.84 3.36.84ZM245.036 216.312v16.801h-1.968l-10.08-12.528v12.528h-2.4v-16.801h1.968l10.08 12.529v-12.529h2.4ZM219.318 216.312h2.4v16.801h-2.4v-16.801ZM205.467 233.304c-1.264 0-2.488-.192-3.672-.576-1.168-.4-2.088-.912-2.76-1.536l.888-1.872c.64.576 1.456 1.048 2.448 1.416a9.327 9.327 0 0 0 3.096.528c1.392 0 2.432-.232 3.12-.696.688-.48 1.032-1.112 1.032-1.896 0-.576-.192-1.04-.576-1.392-.368-.368-.832-.648-1.392-.84-.544-.192-1.32-.408-2.328-.648-1.264-.304-2.288-.608-3.072-.912a5.232 5.232 0 0 1-1.992-1.392c-.544-.64-.816-1.496-.816-2.568 0-.896.232-1.704.696-2.424.48-.72 1.2-1.296 2.16-1.728.96-.432 2.152-.648 3.576-.648.992 0 1.968.128 2.928.384s1.784.624 2.472 1.104l-.792 1.92a8.398 8.398 0 0 0-2.256-1.008 8.16 8.16 0 0 0-2.352-.36c-1.36 0-2.384.248-3.072.744-.672.496-1.008 1.136-1.008 1.92 0 .576.192 1.048.576 1.416.384.352.856.632 1.416.84.576.192 1.352.4 2.328.624 1.264.304 2.28.608 3.048.912a5.032 5.032 0 0 1 1.968 1.392c.56.624.84 1.464.84 2.52 0 .88-.24 1.688-.72 2.424-.48.72-1.208 1.296-2.184 1.728-.976.416-2.176.624-3.6.624ZM189.857 228.913h-8.928l-1.848 4.2h-2.472l7.608-16.801h2.376l7.632 16.801h-2.52l-1.848-4.2Zm-.84-1.92-3.624-8.233-3.624 8.233h7.248ZM165.88 233.304c-1.68 0-3.2-.368-4.56-1.104a8.349 8.349 0 0 1-3.168-3.072c-.768-1.312-1.152-2.784-1.152-4.416 0-1.632.384-3.096 1.152-4.392a8.08 8.08 0 0 1 3.192-3.072c1.36-.752 2.88-1.128 4.56-1.128 1.312 0 2.512.224 3.6.672a7.252 7.252 0 0 1 2.784 1.944l-1.56 1.512c-1.264-1.328-2.84-1.992-4.728-1.992-1.248 0-2.376.28-3.384.84a6.152 6.152 0 0 0-2.376 2.328c-.56.976-.84 2.072-.84 3.288 0 1.216.28 2.32.84 3.312a6.204 6.204 0 0 0 2.376 2.304c1.008.56 2.136.84 3.384.84 1.872 0 3.448-.672 4.728-2.016l1.56 1.512a7.446 7.446 0 0 1-2.808 1.968c-1.088.448-2.288.672-3.6.672Z" fill="#fff"/><g clip-path="url(#a)"><path d="M118.133 191.649c-4.873-6.12-11.652-10.774-17.744-15.938-6.091-5.196-11.777-11.316-13.433-18.711-1.187 5.355-4.498 10.041-8.528 14.153l8.528.51-9.653.605a76.44 76.44 0 0 1-3.78 3.411c-.218.191-.468.383-.687.574l14.12.86-16.4 1.02c-1.313 1.084-2.656 2.136-3.968 3.22l20.368 1.243-23.617 1.434c-.906.797-1.812 1.594-2.687 2.391l26.304 1.594-29.678 1.817c-.5.573-1 1.147-1.468 1.753l31.146 1.912-33.895 2.072c-.25.415-.5.829-.718 1.275l34.613 2.104-36.519 2.231c-.125.319-.219.638-.344.957l36.863 2.263-37.862 2.327c-.032.287-.063.542-.094.828l37.956 2.327L49 212.176c.031.287.063.542.125.829l37.831 2.327-36.675 2.231c.125.351.281.67.406.989l36.238 2.199-33.77 2.072c2.718 3.697 6.56 6.63 11.184 8.032 7.622 2.327 17.4-.223 21.836-6.247.5 3.857-1.03 7.937-3.717 10.774-3.187 3.315-4.624 4.462-9.153 4.781-4.53.319-5.499.191-14.34-.127V243h55.92v-2.964c-8.841.318-9.81.446-14.339.127-4.53-.319-5.967-1.466-9.154-4.781-2.686-2.805-4.217-6.917-3.717-10.774 4.405 6.024 14.214 8.574 21.836 6.247 8.123-2.486 13.902-9.658 15.183-17.34 1.281-7.65-1.562-15.587-6.561-21.866Z" fill="#E3F666"/></g><defs><clipPath id="a"><path fill="#fff" transform="translate(49 157)" d="M0 0h76v86H0z"/></clipPath></defs></svg>