<svg width="20" height="20" viewBox="0 0 20 20" fill="none" xmlns="http://www.w3.org/2000/svg">
<g id="Icons" clip-path="url(#clip0_69_6551)">
<path id="Vector" fill-rule="evenodd" clip-rule="evenodd" d="M19.1668 9.99992C19.1668 15.0625 15.0627 19.1666 10.0002 19.1666C4.93755 19.1666 0.833496 15.0625 0.833496 9.99992C0.833496 4.93731 4.93755 0.833252 10.0002 0.833252C15.0627 0.833252 19.1668 4.93731 19.1668 9.99992ZM10.0002 4.99992C10.4604 4.99992 10.8335 5.37302 10.8335 5.83325V10.8333C10.8335 11.2935 10.4604 11.6666 10.0002 11.6666C9.53991 11.6666 9.16683 11.2935 9.16683 10.8333V5.83325C9.16683 5.37302 9.53991 4.99992 10.0002 4.99992ZM10.0002 14.9999C10.4604 14.9999 10.8335 14.6268 10.8335 14.1666C10.8335 13.7063 10.4604 13.3333 10.0002 13.3333C9.53991 13.3333 9.16683 13.7063 9.16683 14.1666C9.16683 14.6268 9.53991 14.9999 10.0002 14.9999Z" fill="white"/>
</g>
<defs>
<clipPath id="clip0_69_6551">
<rect width="20" height="20" fill="white"/>
</clipPath>
</defs>
</svg>
