<svg width="20" height="20" viewBox="0 0 20 20" fill="none" xmlns="http://www.w3.org/2000/svg">
<path d="M17.4998 5.83341H6.6665C6.44549 5.83341 6.23353 5.74562 6.07725 5.58934C5.92097 5.43306 5.83317 5.2211 5.83317 5.00008C5.83317 4.77907 5.92097 4.56711 6.07725 4.41083C6.23353 4.25455 6.44549 4.16675 6.6665 4.16675H17.4998C17.7209 4.16675 17.9328 4.25455 18.0891 4.41083C18.2454 4.56711 18.3332 4.77907 18.3332 5.00008C18.3332 5.2211 18.2454 5.43306 18.0891 5.58934C17.9328 5.74562 17.7209 5.83341 17.4998 5.83341ZM18.3332 10.0001C18.3332 9.77907 18.2454 9.56711 18.0891 9.41083C17.9328 9.25455 17.7209 9.16675 17.4998 9.16675H2.49984C2.27882 9.16675 2.06686 9.25455 1.91058 9.41083C1.7543 9.56711 1.6665 9.77907 1.6665 10.0001C1.6665 10.2211 1.7543 10.4331 1.91058 10.5893C2.06686 10.7456 2.27882 10.8334 2.49984 10.8334H17.4998C17.7209 10.8334 17.9328 10.7456 18.0891 10.5893C18.2454 10.4331 18.3332 10.2211 18.3332 10.0001ZM18.3332 15.0001C18.3332 14.7791 18.2454 14.5671 18.0891 14.4108C17.9328 14.2545 17.7209 14.1667 17.4998 14.1667H9.99984C9.77882 14.1667 9.56686 14.2545 9.41058 14.4108C9.2543 14.5671 9.1665 14.7791 9.1665 15.0001C9.1665 15.2211 9.2543 15.4331 9.41058 15.5893C9.56686 15.7456 9.77882 15.8334 9.99984 15.8334H17.4998C17.7209 15.8334 17.9328 15.7456 18.0891 15.5893C18.2454 15.4331 18.3332 15.2211 18.3332 15.0001Z" fill="white"/>
</svg>
