<svg width="32" height="32" viewBox="0 0 32 32" fill="none" xmlns="http://www.w3.org/2000/svg">
<circle cx="16" cy="16" r="14" fill="white"/>
<path fill-rule="evenodd" clip-rule="evenodd" d="M16 2C23.732 2 30 8.26801 30 16C30 23.732 23.732 30 16 30C8.26801 30 2 23.732 2 16C2 8.26801 8.26801 2 16 2ZM22.969 12.5714C23.3664 12.159 23.3542 11.5025 22.9418 11.1051C22.5294 10.7077 21.8728 10.7199 21.4755 11.1323L13.7284 19.1721L10.5245 15.8472C10.1272 15.4348 9.47061 15.4226 9.05823 15.82C8.6458 16.2174 8.63361 16.8739 9.03101 17.2863L12.9817 21.3862C13.1771 21.5891 13.4467 21.7037 13.7284 21.7037C14.0101 21.7037 14.2797 21.5891 14.4751 21.3862L22.969 12.5714Z" fill="#429837"/>
</svg>
