<svg width="32" height="32" viewBox="0 0 32 32" fill="none" xmlns="http://www.w3.org/2000/svg">
<circle cx="16" cy="16" r="14" fill="white"/>
<path d="M16 2C8.28027 2 2 8.28027 2 16C2 23.7197 8.28027 30 16 30C23.7197 30 30 23.7197 30 16C30 8.28027 23.7197 2 16 2ZM21.7349 21.5781C21.5391 21.7793 21.2783 21.8809 21.0181 21.8809C20.7666 21.8809 20.5151 21.7871 20.3208 21.5977L16.0142 17.4088L11.792 21.6826C11.5962 21.8799 11.3384 21.9795 11.0806 21.9795C10.8267 21.9795 10.5728 21.8838 10.3779 21.6904C9.98486 21.3027 9.98096 20.6699 10.3691 20.2764L14.5801 16.014L10.2847 11.8359C9.88867 11.4512 9.87988 10.8174 10.2651 10.4219C10.6499 10.0254 11.2837 10.0166 11.6792 10.4023L15.9858 14.5912L20.208 10.3174C20.5967 9.92578 21.2295 9.91992 21.6221 10.3096C22.0151 10.6973 22.019 11.3301 21.6309 11.7236L17.4199 15.986L21.7153 20.1641C22.1113 20.5488 22.1201 21.1826 21.7349 21.5781Z" fill="#C41D1D"/>
</svg>
