<svg width="20" height="20" viewBox="0 0 20 20" fill="none" xmlns="http://www.w3.org/2000/svg">
<g id="Icons">
<path id="Vector" d="M16.2747 4.60844C16.5187 4.36437 16.5187 3.96864 16.2747 3.72456C16.0306 3.48049 15.6348 3.48049 15.3908 3.72456L9.99935 9.116L4.60796 3.72456C4.36388 3.48049 3.96815 3.48049 3.72407 3.72456C3.48 3.96864 3.48 4.36437 3.72407 4.60844L9.11551 9.99984L3.7241 15.3913C3.48001 15.6353 3.48001 16.031 3.7241 16.2751C3.96817 16.5192 4.3639 16.5192 4.60798 16.2751L9.99935 10.8838L15.3908 16.2751C15.6348 16.5192 16.0305 16.5192 16.2746 16.2751C16.5187 16.031 16.5187 15.6353 16.2746 15.3913L10.8833 9.99984L16.2747 4.60844Z" fill="white"/>
</g>
</svg>
