<svg xmlns="http://www.w3.org/2000/svg" width="14" height="15" viewBox="0 0 14 15" fill="none">
    <g clip-path="url(#clip0_9_1657)">
        <path d="M13.65 7.5C13.65 11.1727 10.6727 14.15 7 14.15C3.32731 14.15 0.35 11.1727 0.35 7.5C0.35 3.82731 3.32731 0.85 7 0.85C10.6727 0.85 13.65 3.82731 13.65 7.5Z" stroke="white" stroke-width="0.7"/>
        <path d="M7.00785 4.99166C6.81752 4.99589 6.63239 4.92935 6.48832 4.8049C6.34413 4.68021 6.27203 4.50394 6.27203 4.27607C6.2694 4.18002 6.2879 4.08456 6.32622 3.99644C6.36454 3.90832 6.42174 3.8297 6.49379 3.76611C6.63347 3.63577 6.8179 3.56411 7.00894 3.56596C7.19268 3.56411 7.37092 3.62858 7.51097 3.74752C7.65681 3.86838 7.72972 4.04456 7.72972 4.27607C7.72972 4.50029 7.65854 4.67566 7.51617 4.80217C7.37684 4.92743 7.19517 4.99516 7.00785 4.99166ZM7.7289 6.49775V10.7114C7.7289 11.0031 7.65945 11.2238 7.52054 11.3737C7.45373 11.4469 7.37194 11.5048 7.28074 11.5435C7.18953 11.5823 7.09105 11.6009 6.99199 11.5982C6.77816 11.5982 6.60453 11.5216 6.47109 11.3685C6.33765 11.2154 6.27094 10.9966 6.27094 10.7122V6.54041C6.27094 6.25221 6.33765 6.0351 6.47109 5.88908C6.60453 5.74307 6.77816 5.67015 6.99199 5.67033C7.20545 5.67033 7.38164 5.74325 7.52054 5.88908C7.65945 6.03491 7.7289 6.2378 7.7289 6.49775Z" fill="white"/>
    </g>
    <defs>
        <clipPath id="clip0_9_1657">
            <rect width="14" height="14" fill="white" transform="translate(0 0.5)"/>
        </clipPath>
    </defs>
</svg>
