<svg width="20" height="20" viewBox="0 0 20 20" fill="none" xmlns="http://www.w3.org/2000/svg">
<g clip-path="url(#clip0_402_1525)">
<path d="M19.8107 18.9119L14.647 13.8308C15.9992 12.3616 16.8301 10.4187 16.8301 8.28068C16.8294 3.7071 13.0623 0 8.41496 0C3.76762 0 0.000488281 3.7071 0.000488281 8.28068C0.000488281 12.8543 3.76762 16.5614 8.41496 16.5614C10.4229 16.5614 12.2646 15.8668 13.7112 14.7122L18.8949 19.8134C19.1475 20.0622 19.5576 20.0622 19.8101 19.8134C20.0633 19.5646 20.0633 19.1607 19.8107 18.9119ZM8.41496 15.2873C4.4828 15.2873 1.29517 12.1504 1.29517 8.28068C1.29517 4.41101 4.4828 1.27403 8.41496 1.27403C12.3471 1.27403 15.5347 4.41101 15.5347 8.28068C15.5347 12.1504 12.3471 15.2873 8.41496 15.2873Z" fill="white"/>
</g>
<defs>
<clipPath id="clip0_402_1525">
<rect width="20" height="20" fill="white"/>
</clipPath>
</defs>
</svg>
