<svg width="26" height="26" viewBox="0 0 26 26" fill="none" xmlns="http://www.w3.org/2000/svg">
<g id="Icons" clip-path="url(#clip0_69_6536)">
<path id="Vector" d="M25.9322 9.97346C25.762 9.44699 25.2951 9.07306 24.7426 9.02327L17.2383 8.34188L14.2709 1.39637C14.0521 0.887353 13.5538 0.557861 13.0001 0.557861C12.4465 0.557861 11.9482 0.887353 11.7294 1.39756L8.76197 8.34188L1.25647 9.02327C0.705001 9.07425 0.23923 9.44699 0.0680374 9.97346C-0.103155 10.4999 0.054945 11.0774 0.472116 11.4414L6.14449 16.4161L4.47184 23.7841C4.34944 24.3259 4.55971 24.8859 5.00922 25.2108C5.25083 25.3854 5.53351 25.4742 5.81857 25.4742C6.06435 25.4742 6.30814 25.408 6.52694 25.2771L13.0001 21.4083L19.4709 25.2771C19.9444 25.5619 20.5413 25.5359 20.9899 25.2108C21.4396 24.8849 21.6496 24.3247 21.5272 23.7841L19.8546 16.4161L25.527 11.4424C25.9441 11.0774 26.1034 10.5009 25.9322 9.97346Z" fill="#E3F666"/>
</g>
<defs>
<clipPath id="clip0_69_6536">
<rect width="26" height="26" fill="white"/>
</clipPath>
</defs>
</svg>
