<svg xmlns="http://www.w3.org/2000/svg" width="24" height="24" viewBox="0 0 24 24" fill="none">
    <path d="M12 1.5C6.21007 1.5 1.5 6.21007 1.5 12C1.5 17.7899 6.21007 22.5 12 22.5C17.7899 22.5 22.5 17.7899 22.5 12C22.5 6.21007 17.7899 1.5 12 1.5ZM16.9937 17.431C16.823 17.6017 16.599 17.6876 16.3751 17.6876C16.1511 17.6876 15.9269 17.6017 15.7565 17.431L11.3814 13.0562C11.2169 12.8926 11.1251 12.6702 11.1251 12.4376V6.75C11.1251 6.26614 11.5169 5.87505 12 5.87505C12.4831 5.87505 12.8749 6.26614 12.8749 6.75V12.0753L16.9937 16.1938C17.3357 16.5361 17.3357 17.089 16.9937 17.431Z" fill="#fff"/>
</svg>
