<svg width="480" height="480" viewBox="0 0 480 480" fill="none" xmlns="http://www.w3.org/2000/svg">
<g clip-path="url(#clip0_242_6974)">
<circle cx="240" cy="240" r="240" fill="#E3F666"/>
<g clip-path="url(#clip1_242_6974)">
<path d="M335.109 482.814C335.109 482.814 231.186 482.814 163.581 482.814C158.768 452.654 163.363 425.99 168.395 407.85C172.77 392.989 177.365 384.028 177.365 384.028L305.791 358.457C311.917 369.385 316.731 380.094 320.669 390.366C340.578 442.382 335.109 482.814 335.109 482.814Z" fill="#FFA500"/>
<path d="M202.087 384.028C202.087 384.028 192.68 427.957 196.399 482.814C223.966 482.814 266.41 482.814 266.41 482.814C266.41 482.814 269.692 424.679 254.377 358.457" fill="#FFECCA"/>
<path opacity="0.2" d="M320.669 390.366C246.719 474.291 187.866 428.395 168.395 408.069C172.77 393.207 177.365 384.247 177.365 384.247L305.791 358.676C311.917 369.385 316.949 380.094 320.669 390.366Z" fill="#AE2B39"/>
<path d="M183.053 398.671C183.053 398.671 191.148 428.613 236.437 425.116C281.725 421.619 293.102 380.094 293.102 380.094" fill="#CC6200"/>
<path d="M335.108 485H163.581C162.487 485 161.612 484.126 161.393 483.252C156.361 452.436 161.393 424.898 166.425 407.413C170.801 392.552 175.396 383.372 175.614 383.154C175.833 382.498 176.49 382.061 177.146 382.061L305.572 356.49C306.448 356.272 307.542 356.709 307.979 357.583C313.667 367.855 318.918 378.783 323.075 389.711C342.766 441.726 337.515 482.815 337.515 483.252C337.077 484.345 336.202 485 335.108 485ZM165.332 480.629H332.921C333.577 472.106 335.546 435.607 318.481 391.022C314.543 380.75 309.948 370.478 304.479 360.861L178.677 385.995C177.365 388.618 173.645 396.704 170.364 408.506C165.769 425.335 160.956 451.343 165.332 480.629Z" fill="#2D2B39"/>
<path d="M228.5 470C245.345 470 259 456.345 259 439.5C259 422.655 245.345 409 228.5 409C211.655 409 198 422.655 198 439.5C198 456.345 211.655 470 228.5 470Z" fill="#FF7B01"/>
<path d="M218.559 450.077C222.437 452.241 227.397 450.843 229.574 446.972L230.956 444.515L233.417 445.888C237.295 448.052 242.256 446.653 244.432 442.782C246.609 438.911 245.215 433.967 241.337 431.804C235.818 428.724 230.299 425.645 224.765 422.558L215.466 439.111C213.29 442.982 214.68 447.914 218.559 450.077Z" fill="#A15108"/>
<path d="M226.435 428.527L219.285 441.241C218.297 442.998 218.938 445.273 220.699 446.255C222.459 447.237 224.741 446.593 225.741 444.833L229.265 438.565L235.56 442.077C237.32 443.059 239.602 442.416 240.602 440.655C241.59 438.899 240.948 436.624 239.188 435.642C234.934 433.259 230.686 430.898 226.435 428.527Z" fill="#C86407"/>
<path d="M232.059 448.476L239.115 452.413L228.1 455.519L232.059 448.476Z" fill="#A15108"/>
<path d="M236.006 453.289L228.099 455.518L231.08 450.218C229.551 452.954 236.006 453.289 236.006 453.289Z" fill="#864406"/>
<path d="M230.944 444.518C221.74 439.384 235.511 428.573 224.756 422.573L215.466 439.111C213.289 442.982 214.683 447.925 218.562 450.089C222.44 452.253 227.4 450.854 229.577 446.983L230.944 444.518Z" fill="#C86407"/>
<path d="M228.99 430.988C229.392 427.868 228.873 424.87 224.756 422.573L223.609 424.612C225.815 425.569 229.244 427.609 228.99 430.988Z" fill="#864406"/>
<path d="M230.944 444.518C228.751 443.294 227.864 441.753 227.641 440.025C224.286 446.896 215.008 447.382 215.269 439.479C213.378 443.294 214.8 447.98 218.559 450.077C222.437 452.241 227.398 450.842 229.574 446.971L230.944 444.518Z" fill="#864406"/>
<path d="M230.944 444.518C224.324 439.094 234.523 432.56 231.185 426.159C229.049 424.958 226.904 423.771 224.756 422.573C235.511 428.573 221.755 439.392 230.944 444.518Z" fill="#6E3601"/>
<path d="M230.944 444.518C221.741 439.383 235.511 428.573 224.756 422.572C226.546 423.571 228.323 425.638 228.717 427.97C229.028 429.787 228.636 431.739 228.241 433.504C227.726 435.779 226.911 438.552 227.527 440.871C227.982 442.572 229.329 443.695 230.944 444.518Z" fill="#6E3601"/>
<path d="M220.408 453.828L220.662 454.282L221.066 454.331L220.747 454.584L220.771 455.116L220.526 454.646L220.122 454.597L220.441 454.345L220.408 453.828Z" fill="#C86407"/>
<path d="M217.571 452.636L218.141 453.678L219.051 453.785L218.334 454.363L218.392 455.549L217.833 454.504L216.909 454.389L217.64 453.819L217.571 452.636Z" fill="#C86407"/>
<path d="M215.245 429.502L215.815 430.544L216.725 430.65L216.005 431.217L216.063 432.403L215.493 431.361L214.583 431.254L215.303 430.688L215.245 429.502Z" fill="#C86407"/>
<path d="M245.377 445.91L245.936 446.956L246.858 447.059L246.129 447.64L246.199 448.823L245.628 447.782L244.703 447.666L245.435 447.097L245.377 445.91Z" fill="#C86407"/>
<path d="M238.907 422.429L239.872 424.199L241.432 424.386L240.199 425.36L240.301 427.373L239.349 425.6L237.788 425.413L239.022 424.439L238.907 422.429Z" fill="#C86407"/>
<path d="M296.821 203.065L366.176 164.818C366.176 164.818 356.549 135.532 366.176 128.975C375.803 122.637 379.959 150.612 388.711 147.115C397.243 143.4 375.365 117.392 388.273 109.961C401.4 102.312 402.494 138.592 409.495 136.188C416.496 133.783 411.464 107.775 428.53 109.961C445.595 112.147 441.219 140.559 418.903 157.606C396.587 174.653 312.355 231.477 312.355 231.477" fill="#B55D47"/>
<path d="M186.116 201.535L118.293 160.666C118.293 160.666 129.233 131.817 119.606 125.041C110.198 118.266 104.947 146.241 96.4148 142.307C87.8822 138.373 111.073 113.239 98.1651 105.153C85.4756 97.0664 82.8502 133.128 75.8491 130.724C69.0668 127.664 75.1927 101.656 58.1275 103.186C41.0623 104.716 44.3441 133.346 66.0038 151.268C87.6635 169.189 169.708 229.073 169.708 229.073" fill="#B55D47"/>
<path d="M312.136 233.444C311.48 233.444 310.824 233.007 310.386 232.57C309.73 231.477 309.948 230.165 311.042 229.51C311.918 228.854 395.493 172.467 417.591 155.638C432.468 144.274 438.813 128.101 436.187 118.921C435.093 114.769 432.468 112.583 428.311 111.928C420.435 110.835 418.466 116.954 416.497 126.571C415.403 132.253 414.309 137.061 410.371 138.154C405.339 139.684 403.151 133.346 400.744 125.696C398.775 119.795 396.15 112.365 392.868 111.053C392.211 110.835 391.336 110.616 389.586 111.709C384.335 114.769 386.523 121.981 390.024 131.816C392.868 139.465 395.493 146.678 389.586 149.082C383.679 151.486 379.96 144.929 376.459 139.028C374.271 135.094 371.646 130.723 369.458 130.286C369.02 130.286 368.364 130.068 367.27 130.723C361.144 134.657 364.645 153.234 368.145 163.943C368.583 165.036 368.145 166.129 367.051 166.566L297.697 204.813C296.603 205.469 295.29 205.032 294.634 203.939C293.977 202.846 294.415 201.535 295.509 200.879L363.332 163.506C361.144 156.513 355.018 133.346 364.645 127.008C366.395 125.696 368.364 125.478 370.114 125.915C374.271 126.789 377.115 131.816 379.96 136.624C382.366 140.995 385.21 145.803 387.617 144.711C389.586 143.836 387.398 137.935 385.648 133.127C382.366 124.167 378.209 112.802 387.179 107.556C389.586 106.027 391.993 105.808 394.181 106.682C399.431 108.649 402.057 116.517 404.682 123.948C405.776 127.445 407.745 133.127 409.058 133.564C410.371 133.127 411.246 128.756 412.121 125.041C413.871 117.173 416.278 105.371 428.967 107.119C434.874 107.775 439.031 111.49 440.563 117.173C443.407 127.663 437.281 145.585 420.435 158.48C398.337 175.308 314.543 231.914 313.668 232.351C313.011 233.444 312.574 233.444 312.136 233.444Z" fill="#2D2B39"/>
<path d="M169.489 231.258C169.051 231.258 168.613 231.04 168.176 230.821C167.52 230.166 85.9129 170.5 64.4721 152.797C48.0632 139.466 42.5936 121.107 45.8754 110.835C47.6256 104.934 52.0013 101.656 57.9085 101C70.598 99.9072 72.5671 111.709 73.8798 119.577C74.5361 123.074 75.1925 127.664 76.724 128.101C77.8179 127.664 80.0058 121.981 81.3185 118.703C84.1627 111.272 87.0069 103.623 92.4765 101.656C94.6643 101 97.0709 101.219 99.4776 102.748C108.229 108.212 103.634 119.359 99.9151 128.319C97.9461 133.127 95.5395 139.028 97.2897 139.903C99.4776 140.995 102.541 136.187 105.166 132.035C108.229 127.227 111.292 122.418 115.449 121.544C117.199 121.107 119.168 121.544 120.918 122.855C130.326 129.631 123.325 152.579 120.918 159.354L187.21 199.568C188.304 200.224 188.523 201.535 187.867 202.628C187.21 203.721 185.897 203.939 185.022 203.283L117.199 162.414C116.324 161.977 115.886 160.665 116.324 159.791C120.262 149.301 124.419 130.942 118.512 126.571C117.418 125.915 116.762 125.915 116.543 125.915C114.136 126.352 111.511 130.723 109.104 134.439C105.604 140.121 101.447 146.678 95.7582 144.055C90.0698 141.433 92.914 134.439 95.977 126.789C99.9151 116.954 102.322 109.961 97.2897 106.682C95.5395 105.59 94.6643 105.808 94.008 106.027C90.5074 107.12 87.882 114.55 85.6942 120.451C82.85 127.882 80.4433 134.22 75.6301 132.472C71.9107 131.16 71.0356 126.134 69.9417 120.67C67.9726 110.835 66.2223 104.715 58.3461 105.371C54.1892 105.808 51.345 107.994 50.2511 111.928C47.1881 121.107 52.8765 137.717 67.3163 149.519C88.7571 167.003 170.145 226.669 170.801 227.324C171.676 227.98 171.895 229.51 171.239 230.384C170.801 231.04 170.145 231.258 169.489 231.258Z" fill="#2D2B39"/>
<path d="M283.913 191.044C283.913 191.044 269.254 145.804 248.907 141.433C233.811 138.154 236.656 160.447 236.656 160.447C236.656 160.447 230.967 148.208 220.684 151.923C210.401 155.639 218.496 179.68 218.496 179.68" fill="#862D43"/>
<path d="M283.913 193.23C283.038 193.23 282.163 192.574 281.725 191.7C281.506 191.263 267.285 147.77 248.251 143.618C245.407 142.962 243.438 143.399 241.906 144.711C238.187 148.207 238.406 157.168 238.843 160.228C239.062 161.321 238.406 162.413 237.312 162.632C236.218 162.851 235.124 162.413 234.687 161.539C234.468 161.102 229.654 151.267 221.341 154.108C214.558 156.512 218.496 173.341 220.466 179.024C220.903 180.116 220.247 181.428 219.153 181.865C218.059 182.302 216.746 181.646 216.309 180.553C215.433 177.931 207.776 154.327 219.809 149.956C225.935 147.77 230.967 150.174 234.249 153.453C234.468 149.3 235.562 144.273 238.843 141.432C241.469 139.028 244.969 138.372 249.126 139.247C270.567 143.836 285.226 188.421 285.663 190.388C286.101 191.481 285.445 192.792 284.351 193.23C284.351 193.23 284.132 193.23 283.913 193.23Z" fill="#2D2B39"/>
<path d="M162.269 197.819C162.269 197.819 118.293 193.448 97.0708 257.047C143.672 288.519 178.677 266.008 179.334 224.701" fill="#FFA500"/>
<path d="M138.202 274.095C125.294 274.095 110.854 268.849 95.7583 258.796C94.8831 258.14 94.6643 257.266 94.8831 256.392C106.26 222.953 123.763 208.091 136.671 201.753C150.673 194.759 162.05 195.634 162.488 195.634C163.581 195.852 164.675 196.726 164.457 198.038C164.238 199.13 163.363 200.223 162.05 200.005C160.3 200.005 120.262 196.945 99.6964 256.173C120.918 270.161 140.828 273.439 155.924 265.571C169.051 258.796 176.927 243.716 177.146 224.701C177.146 223.39 178.24 222.516 179.334 222.516C180.647 222.516 181.522 223.609 181.522 224.701C181.303 245.464 172.552 261.637 157.893 269.286C151.986 272.565 145.422 274.095 138.202 274.095Z" fill="#2D2B39"/>
<path d="M164.456 216.178C164.456 216.178 131.639 220.767 118.949 248.524C144.109 261.856 167.957 239.782 164.456 216.178Z" fill="#FFECCA"/>
<path d="M92.0391 331.575C95.1021 338.35 99.259 345.125 104.51 351.901C131.858 386.869 187.648 418.123 267.504 399.327C300.541 391.678 321.107 374.63 333.796 353.868C340.141 343.377 344.516 331.794 347.142 319.992C349.111 311.468 350.205 302.944 350.861 294.421C353.924 250.491 341.016 209.84 341.016 209.84C341.016 209.84 234.468 138.81 150.017 198.038L136.015 251.584C136.015 251.584 135.796 251.584 135.577 251.584H135.358C129.451 252.24 91.6015 259.015 85.9132 300.322C84.6004 309.064 86.7883 319.992 92.0391 331.575Z" fill="#FFA500"/>
<path d="M142.141 274.969C135.796 287.208 153.08 297.261 162.925 297.261C174.083 297.48 189.179 283.492 185.897 275.406C182.397 267.101 144.985 269.505 142.141 274.969Z" fill="#862D43"/>
<path d="M149.579 277.592C148.485 280.871 173.427 280.434 174.083 276.937C174.521 273.44 151.767 270.599 149.579 277.592Z" fill="white"/>
<path d="M156.581 231.04C142.36 234.974 138.421 261.419 161.175 263.167C184.147 264.916 181.084 224.265 156.581 231.04Z" fill="#2D2B39"/>
<path d="M260.941 239.563C279.1 243.716 281.288 273.876 255.69 275.843C229.873 277.592 232.936 233.006 260.941 239.563Z" fill="#2D2B39"/>
<path d="M158.112 245.901C161.132 245.901 163.581 243.455 163.581 240.437C163.581 237.42 161.132 234.974 158.112 234.974C155.091 234.974 152.642 237.42 152.642 240.437C152.642 243.455 155.091 245.901 158.112 245.901Z" fill="white"/>
<path d="M251.095 254.644C254.116 254.644 256.565 252.197 256.565 249.18C256.565 246.162 254.116 243.716 251.095 243.716C248.074 243.716 245.625 246.162 245.625 249.18C245.625 252.197 248.074 254.644 251.095 254.644Z" fill="white"/>
<path d="M255.582 219.999C278.336 219.999 287.962 233.33 288.4 234.205C290.15 236.609 289.494 240.106 287.087 241.854C284.68 243.602 281.18 242.947 279.43 240.543C278.992 239.887 268.053 225.681 240.048 233.33C237.204 234.205 234.141 232.456 233.266 229.396C232.391 226.555 234.141 223.495 237.204 222.621C243.987 220.654 250.113 219.999 255.582 219.999Z" fill="#892B34"/>
<path d="M168.613 234.974C161.175 234.974 153.298 232.133 147.172 223.609C145.422 221.205 146.079 217.708 148.485 215.96C150.892 214.211 154.392 214.867 156.143 217.271C164.894 229.728 179.553 221.205 180.209 220.768C182.834 219.238 186.116 220.112 187.648 222.735C189.179 225.357 188.304 228.636 185.679 230.166C181.959 232.57 175.614 234.974 168.613 234.974Z" fill="#892B34"/>
<path d="M260.065 302.944C260.065 317.587 290.476 317.587 289.383 302.944C288.507 288.301 260.065 282.837 260.065 302.944Z" fill="#FF3F69"/>
<path opacity="0.2" d="M347.142 319.991C339.047 354.96 317.168 387.524 267.504 399.108C187.648 417.685 131.858 386.65 104.51 351.682C132.952 372.663 191.805 402.168 271.005 368.51C306.01 353.649 330.295 336.601 347.142 319.991Z" fill="#AE2B39"/>
<path d="M212.808 189.733C206.026 186.673 198.587 207.873 203.4 209.622C210.401 212.244 219.809 192.793 212.808 189.733Z" fill="#FF7C00"/>
<path d="M237.53 191.7C230.092 192.356 233.592 214.43 238.843 213.774C246.063 212.681 245.188 191.044 237.53 191.7Z" fill="#FF7C00"/>
<path d="M225.279 185.58C217.84 184.925 217.402 207.436 222.653 207.436C229.873 207.654 232.717 186.236 225.279 185.58Z" fill="#FF7C00"/>
<path d="M220.466 407.195C151.111 407.195 113.918 367.418 102.76 353.212C88.7573 335.072 81.5374 315.183 83.5065 300.103C89.4137 258.796 126.169 250.928 134.264 249.617L147.829 197.601C148.048 197.164 148.267 196.727 148.704 196.29C233.374 136.843 341.235 207.436 342.329 208.31C342.766 208.529 342.985 208.966 343.204 209.403C343.423 210.059 361.582 268.194 349.33 320.647C339.266 364.139 311.918 391.24 267.942 401.512C250.658 405.446 234.905 407.195 220.466 407.195ZM151.986 199.349L138.203 252.021C137.984 252.895 137.109 253.551 136.234 253.551C134.483 253.769 93.7894 257.922 87.8822 300.54C85.9131 314.309 92.9142 333.323 106.26 350.37C116.981 364.139 153.08 402.605 220.466 402.605C234.687 402.605 250.002 400.857 267.067 396.923C309.073 387.088 335.327 361.08 345.173 319.336C356.331 271.254 341.453 218.145 339.484 211.151C330.295 205.687 230.748 144.929 151.986 199.349Z" fill="#2D2B39"/>
<path d="M327.233 205.688C327.233 205.688 370.114 195.197 400.088 254.862C358.519 292.891 320.669 275.625 314.105 234.755" fill="#FFA500"/>
<path d="M327.67 224.046C327.67 224.046 360.925 223.827 377.334 249.398C354.361 266.446 327.451 247.868 327.67 224.046Z" fill="#FFECCA"/>
<path d="M355.237 278.029C350.642 278.029 346.048 277.374 341.891 275.844C326.357 270.38 315.418 255.518 312.136 234.974C311.918 233.881 312.793 232.57 313.887 232.57C314.98 232.351 316.293 233.226 316.293 234.318C319.356 253.114 329.201 266.664 343.204 271.691C359.175 277.155 378.428 271.035 397.462 254.207C368.583 198.475 329.42 207.218 327.67 207.655C326.576 207.873 325.263 207.218 325.045 206.125C324.826 205.032 325.482 203.721 326.576 203.502C327.014 203.502 371.427 193.23 402.057 253.77C402.494 254.644 402.276 255.737 401.619 256.392C385.867 270.598 369.895 278.029 355.237 278.029Z" fill="#2D2B39"/>
<path d="M183.71 316.931C183.272 316.931 182.835 316.713 182.397 316.494C181.303 315.839 181.084 314.527 181.959 313.434C192.461 298.791 213.246 306.004 214.121 306.441C215.215 306.878 215.871 308.189 215.433 309.282C214.996 310.375 213.683 311.03 212.589 310.593C212.37 310.593 193.993 304.037 185.46 316.057C185.022 316.713 184.366 316.931 183.71 316.931Z" fill="#2D2B39"/>
</g>
</g>
<defs>
<clipPath id="clip0_242_6974">
<rect width="480" height="480" rx="240" fill="white"/>
</clipPath>
<clipPath id="clip1_242_6974">
<rect width="396" height="384" fill="white" transform="translate(45 101)"/>
</clipPath>
</defs>
</svg>
