<?xml version="1.0" encoding="utf-8"?>
<svg viewBox="0 0 561.366 537.429" xmlns="http://www.w3.org/2000/svg">
  <path d="M 324.657 80.198 C 313.215 94.747 300.736 98.537 288.394 91.599 C 277.286 85.356 272.415 71.823 277.003 60.012 C 281.958 47.338 294.087 41.574 309.784 45.009 C 305.338 38.578 303.379 31.887 304.714 24.64 C 306.034 17.43 309.828 11.694 315.983 7.597 C 325.671 1.179 338.491 2.289 347.064 10.302 C 356.848 19.466 358.094 31.035 350.485 44.961 C 359.413 42.933 367.516 43.952 374.598 49.676 C 379.303 53.499 382.322 58.39 383.569 64.355 C 386.049 76.32 379.824 88.285 368.6 93.118 C 356.234 98.442 344.578 94.089 334.98 80.588 C 334.698 88.154 337.689 95.114 346.656 107.201 C 334.962 103.638 323.855 103.595 311.744 107.116 C 319.282 99.063 323.769 90.692 324.657 80.198 Z" fill="#262C3A" transform="matrix(1, 0, 0, 1, -5.684341886080802e-14, 0)"/>
  <path d="M 479.548 104.543 C 469.736 96.047 459.375 87.445 449.473 78.359 C 444.124 73.455 438.921 68.105 434.754 62.217 C 427.801 52.386 427.024 41.313 431.229 30.104 C 435.105 19.775 443.139 14.352 453.914 13.576 C 464.428 12.816 473.069 16.569 478.451 26.199 C 478.766 26.757 479.214 27.202 479.771 27.991 C 480.501 27.07 481.161 26.416 481.657 25.649 C 488.074 15.931 498.187 11.816 509.533 14.297 C 520.489 16.697 528.376 25.225 530.191 36.357 C 532.089 47.991 529.58 58.603 521.387 67.1 C 514.315 74.459 506.366 80.979 498.732 87.76 C 492.193 93.562 485.576 99.246 479.548 104.543 Z" fill="#262C3A" transform="matrix(1, 0, 0, 1, -5.684341886080802e-14, 0)"/>
  <path d="M 67.351 103.252 C 57.574 103.178 47.324 103.116 37.197 103.064 C 43.104 96.951 46.915 88.972 48.082 79.021 C 40.501 84.976 32.643 87.882 23.536 85.928 C 12.919 83.629 5.651 77.444 2.551 67.041 C -0.591 56.535 3.033 47.797 11.021 40.784 C 19.689 33.168 28.805 25.997 37.174 18.085 C 42.914 12.665 47.753 6.269 52.676 0.673 C 60.558 9.114 68.225 17.761 76.419 25.868 C 81.59 30.993 87.538 35.386 93.205 40.042 C 107.623 51.895 105.429 67.567 97.875 76.76 C 88.369 88.351 71.991 90.02 59.334 80.825 C 58.69 80.34 58.016 79.926 57.085 79.319 C 57.848 89.027 61.607 97.077 67.351 103.252 Z" fill="#262C3A" transform="matrix(1, 0, 0, 1, -5.684341886080802e-14, 0)"/>
  <path d="M 190.219 -1.838 C 201.046 18.172 214.255 36.773 230.628 53.32 C 213.937 69.633 200.662 88.202 189.211 108.777 C 178.037 87.983 164.946 69.305 149.185 53.315 C 156.796 44.188 164.45 35.76 171.204 26.652 C 177.993 17.559 183.847 7.772 190.219 -1.838 Z" fill="#262C3A" transform="matrix(1, 0, 0, 1, -5.684341886080802e-14, 0)"/>
  <path d="M 466.784 214.297 C 455.342 228.846 442.863 232.636 430.521 225.698 C 419.413 219.455 414.542 205.922 419.13 194.111 C 424.085 181.437 436.214 175.673 451.911 179.108 C 447.465 172.677 445.506 165.986 446.841 158.739 C 448.161 151.529 451.955 145.793 458.11 141.696 C 467.798 135.278 480.618 136.388 489.191 144.401 C 498.975 153.565 500.221 165.134 492.612 179.06 C 501.54 177.032 509.643 178.051 516.725 183.775 C 521.43 187.598 524.449 192.489 525.696 198.454 C 528.176 210.419 521.951 222.384 510.727 227.217 C 498.361 232.541 486.705 228.188 477.107 214.687 C 476.825 222.253 479.816 229.213 488.783 241.3 C 477.089 237.737 465.982 237.694 453.871 241.215 C 461.409 233.162 465.896 224.791 466.784 214.297 Z" fill="#262C3A" transform="matrix(1, 0, 0, 1, -5.684341886080802e-14, 0)"/>
  <path d="M 209.478 237.351 C 199.701 237.277 189.451 237.215 179.324 237.163 C 185.231 231.05 189.042 223.071 190.209 213.12 C 182.628 219.075 174.77 221.981 165.663 220.027 C 155.046 217.728 147.778 211.543 144.678 201.14 C 141.536 190.634 145.16 181.896 153.148 174.883 C 161.816 167.267 170.932 160.096 179.301 152.184 C 185.041 146.764 189.88 140.368 194.803 134.772 C 202.685 143.213 210.352 151.86 218.546 159.967 C 223.717 165.092 229.665 169.485 235.332 174.141 C 249.75 185.994 247.556 201.666 240.002 210.859 C 230.496 222.45 214.118 224.119 201.461 214.924 C 200.817 214.439 200.143 214.025 199.212 213.418 C 199.975 223.126 203.734 231.176 209.478 237.351 Z" fill="#262C3A" transform="matrix(1, 0, 0, 1, -5.684341886080802e-14, 0)"/>
  <path d="M 332.346 132.261 C 343.173 152.271 356.382 170.872 372.755 187.419 C 356.064 203.732 342.789 222.301 331.338 242.876 C 320.164 222.082 307.073 203.404 291.312 187.414 C 298.923 178.287 306.577 169.859 313.331 160.751 C 320.12 151.658 325.974 141.871 332.346 132.261 Z" fill="#262C3A" transform="matrix(1, 0, 0, 1, -5.684341886080802e-14, 0)"/>
  <path d="M 345.494 375.72 C 335.717 375.646 325.467 375.584 315.34 375.532 C 321.247 369.419 325.058 361.44 326.225 351.489 C 318.644 357.444 310.786 360.35 301.679 358.396 C 291.062 356.097 283.794 349.912 280.694 339.509 C 277.552 329.003 281.176 320.265 289.164 313.252 C 297.832 305.636 306.948 298.465 315.317 290.553 C 321.057 285.133 325.896 278.737 330.819 273.141 C 338.701 281.582 346.368 290.229 354.562 298.336 C 359.733 303.461 365.681 307.854 371.348 312.51 C 385.766 324.363 383.572 340.035 376.018 349.228 C 366.512 360.819 350.134 362.488 337.477 353.293 C 336.833 352.808 336.159 352.394 335.228 351.787 C 335.991 361.495 339.75 369.545 345.494 375.72 Z" fill="#262C3A" transform="matrix(1, 0, 0, 1, -5.684341886080802e-14, 0)"/>
  <path d="M 468.362 270.63 C 479.189 290.64 492.398 309.241 508.771 325.788 C 492.08 342.101 478.805 360.67 467.354 381.245 C 456.18 360.451 443.089 341.773 427.328 325.783 C 434.939 316.656 442.593 308.228 449.347 299.12 C 456.136 290.027 461.99 280.24 468.362 270.63 Z" fill="#262C3A" transform="matrix(1, 0, 0, 1, -5.684341886080802e-14, 0)"/>
  <path d="M 483.278 504.874 C 473.501 504.8 463.251 504.738 453.124 504.686 C 459.031 498.573 462.842 490.594 464.009 480.643 C 456.428 486.598 448.57 489.504 439.463 487.55 C 428.846 485.251 421.578 479.066 418.478 468.663 C 415.336 458.157 418.96 449.419 426.948 442.406 C 435.616 434.79 444.732 427.619 453.101 419.707 C 458.841 414.287 463.68 407.891 468.603 402.295 C 476.485 410.736 484.152 419.383 492.346 427.49 C 497.517 432.615 503.465 437.008 509.132 441.664 C 523.55 453.517 521.356 469.189 513.802 478.382 C 504.296 489.973 487.918 491.642 475.261 482.447 C 474.617 481.962 473.943 481.548 473.012 480.941 C 473.775 490.649 477.534 498.699 483.278 504.874 Z" fill="#262C3A" transform="matrix(1, 0, 0, 1, -5.684341886080802e-14, 0)"/>
  <path d="M 51.463 234.219 C 41.651 225.723 31.29 217.121 21.388 208.035 C 16.039 203.131 10.836 197.781 6.669 191.893 C -0.284 182.062 -1.061 170.989 3.144 159.78 C 7.02 149.451 15.054 144.028 25.829 143.252 C 36.343 142.492 44.984 146.245 50.366 155.875 C 50.681 156.433 51.129 156.878 51.686 157.667 C 52.416 156.746 53.076 156.092 53.572 155.325 C 59.989 145.607 70.102 141.492 81.448 143.973 C 92.404 146.373 100.291 154.901 102.106 166.033 C 104.004 177.667 101.495 188.279 93.302 196.776 C 86.23 204.135 78.281 210.655 70.647 217.436 C 64.108 223.238 57.491 228.922 51.463 234.219 Z" fill="#262C3A" transform="matrix(1, 0, 0, 1, -5.684341886080802e-14, 0)"/>
  <path d="M 50.541 345.199 C 39.099 359.748 26.62 363.538 14.278 356.6 C 3.17 350.357 -1.701 336.824 2.887 325.013 C 7.842 312.339 19.971 306.575 35.668 310.01 C 31.222 303.579 29.263 296.888 30.598 289.641 C 31.918 282.431 35.712 276.695 41.867 272.598 C 51.555 266.18 64.375 267.29 72.948 275.303 C 82.732 284.467 83.978 296.036 76.369 309.962 C 85.297 307.934 93.4 308.953 100.482 314.677 C 105.187 318.5 108.206 323.391 109.453 329.356 C 111.933 341.321 105.708 353.286 94.484 358.119 C 82.118 363.443 70.462 359.09 60.864 345.589 C 60.582 353.155 63.573 360.115 72.54 372.202 C 60.846 368.639 49.739 368.596 37.628 372.117 C 45.166 364.064 49.653 355.693 50.541 345.199 Z" fill="#262C3A" transform="matrix(1, 0, 0, 1, -5.684341886080802e-14, 0)"/>
  <path d="M 205.432 369.544 C 195.62 361.048 185.259 352.446 175.357 343.36 C 170.008 338.456 164.805 333.106 160.638 327.218 C 153.685 317.387 152.908 306.314 157.113 295.105 C 160.989 284.776 169.023 279.353 179.798 278.577 C 190.312 277.817 198.953 281.57 204.335 291.2 C 204.65 291.758 205.098 292.203 205.655 292.992 C 206.385 292.071 207.045 291.417 207.541 290.65 C 213.958 280.932 224.071 276.817 235.417 279.298 C 246.373 281.698 254.26 290.226 256.075 301.358 C 257.973 312.992 255.464 323.604 247.271 332.101 C 240.199 339.46 232.25 345.98 224.616 352.761 C 218.077 358.563 211.46 364.247 205.432 369.544 Z" fill="#262C3A" transform="matrix(1, 0, 0, 1, -5.684341886080802e-14, 0)"/>
  <path d="M 176.615 478.631 C 165.173 493.18 152.694 496.97 140.352 490.032 C 129.244 483.789 124.373 470.256 128.961 458.445 C 133.916 445.771 146.045 440.007 161.742 443.442 C 157.296 437.011 155.337 430.32 156.672 423.073 C 157.992 415.863 161.786 410.127 167.941 406.03 C 177.629 399.612 190.449 400.722 199.022 408.735 C 208.806 417.899 210.052 429.468 202.443 443.394 C 211.371 441.366 219.474 442.385 226.556 448.109 C 231.261 451.932 234.28 456.823 235.527 462.788 C 238.007 474.753 231.782 486.718 220.558 491.551 C 208.192 496.875 196.536 492.522 186.938 479.021 C 186.656 486.587 189.647 493.547 198.614 505.634 C 186.92 502.071 175.813 502.028 163.702 505.549 C 171.24 497.496 175.727 489.125 176.615 478.631 Z" fill="#262C3A" transform="matrix(1, 0, 0, 1, -5.684341886080802e-14, 0)"/>
  <path d="M 331.506 502.976 C 321.694 494.48 311.333 485.878 301.431 476.792 C 296.082 471.888 290.879 466.538 286.712 460.65 C 279.759 450.819 278.982 439.746 283.187 428.537 C 287.063 418.208 295.097 412.785 305.872 412.009 C 316.386 411.249 325.027 415.002 330.409 424.632 C 330.724 425.19 331.172 425.635 331.729 426.424 C 332.459 425.503 333.119 424.849 333.615 424.082 C 340.032 414.364 350.145 410.249 361.491 412.73 C 372.447 415.13 380.334 423.658 382.149 434.79 C 384.047 446.424 381.538 457.036 373.345 465.533 C 366.273 472.892 358.324 479.412 350.69 486.193 C 344.151 491.995 337.534 497.679 331.506 502.976 Z" fill="#262C3A" transform="matrix(1, 0, 0, 1, -5.684341886080802e-14, 0)"/>
  <path d="M 42.177 396.595 C 53.004 416.605 66.213 435.206 82.586 451.753 C 65.895 468.066 52.62 486.635 41.169 507.21 C 29.995 486.416 16.904 467.738 1.143 451.748 C 8.754 442.621 16.408 434.193 23.162 425.085 C 29.951 415.992 35.805 406.205 42.177 396.595 Z" fill="#262C3A" transform="matrix(1, 0, 0, 1, -5.684341886080802e-14, 0)"/>
</svg>