<svg xmlns="http://www.w3.org/2000/svg" fill="none" viewBox="12.28 161.63 529.37 110.62">
<path d="M335.511 243.667C324.069 258.216 311.59 262.006 299.248 255.068C288.14 248.825 283.269 235.292 287.857 223.481C292.812 210.807 304.941 205.043 320.638 208.478C316.192 202.047 314.233 195.356 315.568 188.109C316.888 180.899 320.682 175.163 326.837 171.066C336.525 164.648 349.345 165.758 357.918 173.771C367.702 182.935 368.948 194.504 361.339 208.43C370.267 206.402 378.37 207.421 385.452 213.145C390.157 216.968 393.176 221.859 394.423 227.824C396.903 239.789 390.678 251.754 379.454 256.587C367.088 261.911 355.432 257.558 345.834 244.057C345.552 251.623 348.543 258.583 357.51 270.67C345.816 267.107 334.709 267.064 322.598 270.585C330.136 262.532 334.623 254.161 335.511 243.667Z" fill="#262C3A"/>
<path d="M490.402 268.012C480.59 259.516 470.229 250.914 460.327 241.828C454.978 236.924 449.775 231.574 445.608 225.686C438.655 215.855 437.878 204.782 442.083 193.573C445.959 183.244 453.993 177.821 464.768 177.045C475.282 176.285 483.923 180.038 489.305 189.668C489.62 190.226 490.068 190.671 490.625 191.46C491.355 190.539 492.015 189.885 492.511 189.118C498.928 179.4 509.041 175.285 520.387 177.766C531.343 180.166 539.23 188.694 541.045 199.826C542.943 211.46 540.434 222.072 532.241 230.569C525.169 237.928 517.22 244.448 509.586 251.229C503.047 257.031 496.43 262.715 490.402 268.012Z" fill="#262C3A"/>
<path d="M78.2051 266.721C68.4274 266.647 58.1774 266.585 48.0508 266.533C53.9577 260.42 57.7692 252.441 58.9357 242.49C51.3551 248.445 43.497 251.351 34.3902 249.397C23.7733 247.098 16.5048 240.913 13.4047 230.51C10.2631 220.004 13.887 211.266 21.8746 204.253C30.5427 196.637 39.6589 189.466 48.0283 181.554C53.7682 176.134 58.6065 169.738 63.5298 164.142C71.4118 172.583 79.079 181.23 87.273 189.337C92.4438 194.462 98.3923 198.855 104.059 203.511C118.477 215.364 116.283 231.036 108.729 240.229C99.2225 251.82 82.8453 253.489 70.1874 244.294C69.5442 243.809 68.8703 243.395 67.9392 242.788C68.7017 252.496 72.4609 260.546 78.2051 266.721Z" fill="#262C3A"/>
<path d="M201.073 161.631C211.9 181.641 225.109 200.242 241.482 216.789C224.791 233.102 211.516 251.671 200.065 272.246C188.891 251.452 175.8 232.774 160.039 216.784C167.65 207.657 175.304 199.229 182.058 190.121C188.847 181.028 194.701 171.241 201.073 161.631Z" fill="#262C3A"/>
</svg>