<?xml version="1.0" encoding="utf-8"?>
<svg viewBox="0 0 565.65 139.398" xmlns="http://www.w3.org/2000/svg">
  <path d="M 324.657 80.198 C 313.215 94.747 300.736 98.537 288.394 91.599 C 277.286 85.356 272.415 71.823 277.003 60.012 C 281.958 47.338 294.087 41.574 309.784 45.009 C 305.338 38.578 303.379 31.887 304.714 24.64 C 306.034 17.43 309.828 11.694 315.983 7.597 C 325.671 1.179 338.491 2.289 347.064 10.302 C 356.848 19.466 358.094 31.035 350.485 44.961 C 359.413 42.933 367.516 43.952 374.598 49.676 C 379.303 53.499 382.322 58.39 383.569 64.355 C 386.049 76.32 379.824 88.285 368.6 93.118 C 356.234 98.442 344.578 94.089 334.98 80.588 C 334.698 88.154 337.689 95.114 346.656 107.201 C 334.962 103.638 323.855 103.595 311.744 107.116 C 319.282 99.063 323.769 90.692 324.657 80.198 Z" fill="#262C3A" transform="matrix(0.9999999999999999, 0, 0, 0.9999999999999999, -1.4210854715202004e-14, -2.842170943040401e-14)"/>
  <path d="M 479.548 104.543 C 469.736 96.047 459.375 87.445 449.473 78.359 C 444.124 73.455 438.921 68.105 434.754 62.217 C 427.801 52.386 427.024 41.313 431.229 30.104 C 435.105 19.775 443.139 14.352 453.914 13.576 C 464.428 12.816 473.069 16.569 478.451 26.199 C 478.766 26.757 479.214 27.202 479.771 27.991 C 480.501 27.07 481.161 26.416 481.657 25.649 C 488.074 15.931 498.187 11.816 509.533 14.297 C 520.489 16.697 528.376 25.225 530.191 36.357 C 532.089 47.991 529.58 58.603 521.387 67.1 C 514.315 74.459 506.366 80.979 498.732 87.76 C 492.193 93.562 485.576 99.246 479.548 104.543 Z" fill="#262C3A" transform="matrix(0.9999999999999999, 0, 0, 0.9999999999999999, -1.4210854715202004e-14, -2.842170943040401e-14)"/>
  <path d="M 67.351 103.252 C 57.574 103.178 47.324 103.116 37.197 103.064 C 43.104 96.951 46.915 88.972 48.082 79.021 C 40.501 84.976 32.643 87.882 23.536 85.928 C 12.919 83.629 5.651 77.444 2.551 67.041 C -0.591 56.535 3.033 47.797 11.021 40.784 C 19.689 33.168 28.805 25.997 37.174 18.085 C 42.914 12.665 47.753 6.269 52.676 0.673 C 60.558 9.114 68.225 17.761 76.419 25.868 C 81.59 30.993 87.538 35.386 93.205 40.042 C 107.623 51.895 105.429 67.567 97.875 76.76 C 88.369 88.351 71.991 90.02 59.334 80.825 C 58.69 80.34 58.016 79.926 57.085 79.319 C 57.848 89.027 61.607 97.077 67.351 103.252 Z" fill="#262C3A" transform="matrix(0.9999999999999999, 0, 0, 0.9999999999999999, -1.4210854715202004e-14, -2.842170943040401e-14)"/>
  <path d="M 190.219 -1.838 C 201.046 18.172 214.255 36.773 230.628 53.32 C 213.937 69.633 200.662 88.202 189.211 108.777 C 178.037 87.983 164.946 69.305 149.185 53.315 C 156.796 44.188 164.45 35.76 171.204 26.652 C 177.993 17.559 183.847 7.772 190.219 -1.838 Z" fill="#262C3A" transform="matrix(0.9999999999999999, 0, 0, 0.9999999999999999, -1.4210854715202004e-14, -2.842170943040401e-14)"/>
</svg>