<svg width="333" height="412" viewBox="0 0 333 412" fill="none" xmlns="http://www.w3.org/2000/svg">
<g clip-path="url(#clip0_180_7553)">
<path d="M221.487 358.796L236.479 312.269C236.479 312.269 275.684 342.612 298.084 361.699C303.57 366.496 308.193 370.434 310.734 373.212C324.099 387.051 308.693 409.21 300.837 409.623C298.455 409.676 290.333 405.084 280.079 398.674C256.422 383.785 221.487 358.796 221.487 358.796Z" fill="#FFA500"/>
<path d="M280.079 398.674L298.085 361.699C303.571 366.496 308.193 370.434 310.735 373.212C324.099 387.051 308.694 409.21 300.838 409.623C298.456 409.676 290.334 405.084 280.079 398.674Z" fill="#862D43"/>
<path d="M236.981 310.246C236.17 310.045 235.258 310.248 234.854 311.007C234.197 311.917 234.302 313.232 235.216 313.888C235.572 314.191 274.624 344.281 296.822 363.318C302.866 368.468 306.88 372.256 309.319 374.579C316.179 381.649 314.021 390.347 312.257 394.849C309.285 402.486 303.569 407.294 300.984 407.297C300.325 407.348 297.079 406.543 281.443 396.65C257.939 382.013 223.41 357.125 223.054 356.823C222.14 356.166 220.823 356.269 220.116 357.382C219.459 358.292 219.563 359.607 220.68 360.313C221.036 360.616 255.818 385.352 279.272 400.191C295.314 410.185 299.321 411.394 301.248 411.442C306.265 411.184 312.889 404.454 316.215 396.26C320.044 386.903 318.603 377.956 312.454 371.492C310.065 368.966 306.052 365.179 299.601 359.928C277.404 340.891 238.148 310.75 237.793 310.448C237.59 310.397 237.387 310.347 236.981 310.246Z" fill="#2D2B39"/>
<path d="M89.3446 324.866L124.725 358.597C124.725 358.597 80.3528 380.709 53.4249 392.582C46.7196 395.436 41.163 397.886 37.5565 398.967C19.2836 404.985 6.02721 381.476 9.07139 374.222C10.0594 372.054 17.726 366.737 27.9571 360.29C51.6517 345.46 89.3446 324.866 89.3446 324.866Z" fill="#FFA500"/>
<path d="M27.9572 360.29L53.4249 392.582C46.7196 395.436 41.1631 397.886 37.5566 398.966C19.2836 404.985 6.02726 381.476 9.07144 374.222C10.0595 372.054 17.7261 366.737 27.9572 360.29Z" fill="#862D43"/>
<path d="M126.328 359.929C126.862 359.285 127.076 358.376 126.568 357.682C126.033 356.695 124.804 356.218 123.816 356.755C123.388 356.944 79.3106 379.028 52.5163 390.74C45.25 393.944 40.0941 395.911 36.9418 397.097C27.5916 400.201 20.6975 394.475 17.4106 390.93C11.8256 384.933 9.98064 377.695 11.1023 375.365C11.3426 374.75 13.4794 372.177 29.1867 362.398C52.5874 347.596 90.0132 327.323 90.4406 327.135C91.429 326.597 91.9097 325.366 91.2148 324.246C90.6803 323.258 89.4512 322.781 88.3293 323.479C87.9018 323.668 50.5028 344.234 26.9418 358.903C10.9674 369.004 8.13603 372.087 7.25473 373.8C5.30538 378.431 8.48651 387.322 14.419 393.88C21.1799 401.397 29.8633 403.989 38.3587 401.263C41.6713 400.21 46.8272 398.242 54.3606 394.717C81.1549 383.005 125.366 360.76 125.794 360.572C125.927 360.411 126.061 360.25 126.328 359.929Z" fill="#2D2B39"/>
<path d="M252.421 409.928C252.421 409.928 154.028 409.928 90.0211 409.928C85.4639 381.328 89.8139 356.045 94.5782 338.843C98.7211 324.751 103.071 316.254 103.071 316.254L224.664 292.006C230.464 302.369 235.021 312.523 238.75 322.264C257.6 371.381 252.421 409.928 252.421 409.928Z" fill="#FFA500"/>
<path d="M126.479 316.254C126.479 316.254 117.571 357.91 121.093 409.928C147.193 409.928 187.379 409.928 187.379 409.928C187.379 409.928 190.486 354.801 175.986 292.006" fill="#FFECCA"/>
<path opacity="0.2" d="M238.957 322.057C168.943 401.638 113.221 358.117 94.7856 338.843C98.9285 324.751 103.278 316.254 103.278 316.254L224.871 292.006C230.671 302.369 235.228 312.523 238.957 322.057Z" fill="#AE2B39"/>
<path d="M108.458 330.139C108.458 330.139 116.122 358.531 159 355.215C201.879 351.899 212.65 312.523 212.65 312.523" fill="#E6BB01"/>
<path d="M90.0219 412H252.422C253.458 412 254.286 411.171 254.493 410.135C254.493 409.72 259.672 370.551 240.822 321.435C236.886 311.073 232.122 300.71 226.529 290.97C226.115 290.141 225.286 289.726 224.25 289.934L102.658 314.181C102.036 314.388 101.415 314.803 101.208 315.217C101 315.632 96.6505 324.129 92.5076 338.221C87.7433 354.801 82.979 380.914 87.7433 410.135C88.1576 411.171 88.9862 412 90.0219 412ZM250.558 407.855H91.8862C87.7433 380.085 92.3005 355.423 96.8576 339.465C100.172 328.274 103.486 320.606 104.729 318.119L223.629 294.286C228.808 303.405 233.158 313.145 236.886 322.885C253.043 365.163 251.179 399.773 250.558 407.855Z" fill="#2D2B39"/>
<path d="M157.5 404C174.345 404 188 390.345 188 373.5C188 356.655 174.345 343 157.5 343C140.655 343 127 356.655 127 373.5C127 390.345 140.655 404 157.5 404Z" fill="#FFCF01"/>
<path d="M147.558 384.077C151.437 386.241 156.397 384.843 158.574 380.972L159.955 378.515L162.416 379.888C166.295 382.052 171.255 380.653 173.432 376.782C175.609 372.911 174.215 367.967 170.336 365.804C164.817 362.724 159.298 359.645 153.764 356.558L144.466 373.111C142.289 376.982 143.68 381.914 147.558 384.077Z" fill="#EE9B03"/>
<path d="M155.434 362.527L148.284 375.241C147.296 376.998 147.937 379.273 149.698 380.255C151.458 381.237 153.74 380.593 154.74 378.833L158.264 372.565L164.559 376.077C166.319 377.059 168.601 376.416 169.601 374.655C170.589 372.899 169.947 370.624 168.187 369.642C163.933 367.259 159.685 364.898 155.434 362.527Z" fill="#FFA500"/>
<path d="M161.059 382.476L168.114 386.412L157.099 389.518L161.059 382.476Z" fill="#EE9B03"/>
<path d="M165.005 387.289L157.099 389.518L160.079 384.218C158.55 386.954 165.005 387.289 165.005 387.289Z" fill="#D78E08"/>
<path d="M159.942 378.518C150.739 373.383 164.509 362.573 153.754 356.572L144.465 373.11C142.288 376.981 143.682 381.925 147.56 384.089C151.439 386.252 156.399 384.854 158.576 380.983L159.942 378.518Z" fill="#FFA500"/>
<path d="M157.989 364.988C158.391 361.868 157.872 358.87 153.755 356.573L152.608 358.612C154.814 359.569 158.243 361.609 157.989 364.988Z" fill="#D78E08"/>
<path d="M159.944 378.518C157.751 377.295 156.864 375.754 156.641 374.025C153.286 380.897 144.008 381.383 144.269 373.479C142.378 377.295 143.8 381.98 147.559 384.077C151.437 386.241 156.398 384.843 158.574 380.972L159.944 378.518Z" fill="#D78E08"/>
<path d="M159.943 378.518C153.323 373.094 163.522 366.56 160.184 360.159C158.048 358.958 155.903 357.771 153.755 356.573C164.51 362.573 150.754 373.392 159.943 378.518Z" fill="#C4830D"/>
<path d="M159.944 378.518C150.74 373.383 164.511 362.573 153.756 356.572C155.546 357.571 157.323 359.638 157.716 361.97C158.027 363.787 157.635 365.739 157.24 367.504C156.725 369.779 155.911 372.552 156.527 374.871C156.981 376.572 158.329 377.695 159.944 378.518Z" fill="#D78E08"/>
<path d="M149.407 387.828L149.661 388.283L150.065 388.332L149.746 388.584L149.77 389.116L149.525 388.647L149.121 388.598L149.44 388.345L149.407 387.828Z" fill="#FFA500"/>
<path d="M146.569 386.636L147.14 387.678L148.05 387.785L147.333 388.363L147.391 389.549L146.832 388.504L145.907 388.389L146.639 387.819L146.569 386.636Z" fill="#FFA500"/>
<path d="M144.245 363.501L144.815 364.543L145.725 364.65L145.005 365.216L145.063 366.402L144.493 365.361L143.583 365.254L144.303 364.688L144.245 363.501Z" fill="#FFA500"/>
<path d="M174.376 379.911L174.935 380.956L175.856 381.06L175.128 381.641L175.197 382.824L174.627 381.782L173.702 381.667L174.434 381.097L174.376 379.911Z" fill="#FFA500"/>
<path d="M167.906 356.429L168.871 358.199L170.431 358.386L169.198 359.36L169.3 361.373L168.348 359.6L166.787 359.413L168.021 358.439L167.906 356.429Z" fill="#FFA500"/>
<path d="M203.536 132.014L265.679 90.151C265.679 90.151 254.079 63.2094 262.779 56.3703C271.479 49.5313 277.693 75.644 285.565 71.4991C293.436 67.3542 270.443 44.5574 282.043 36.2677C293.643 27.978 297.993 62.1731 304.208 59.2717C310.629 56.5776 303.586 32.1228 319.951 32.7446C336.108 33.3663 334.451 60.5152 314.772 78.5454C295.093 96.3683 220.315 157.091 220.315 157.091" fill="#B55D47"/>
<path d="M139.115 131.392L91.8867 72.9498C91.8867 72.9498 110.944 50.7747 104.73 41.4488C98.5152 32.3301 84.8438 55.5413 78.6295 49.324C72.4152 43.1067 101.001 28.1852 92.301 16.7868C83.601 5.38843 69.5152 36.8894 64.3367 32.3301C59.1581 27.7707 72.8295 6.63189 57.0867 2.48702C41.3438 -1.65785 35.1295 24.8693 48.5938 47.6661C62.0581 70.4629 115.708 150.666 115.708 150.666" fill="#B55D47"/>
<path d="M220.522 159.37C220.936 159.37 221.35 159.163 221.764 158.956C222.593 158.334 296.75 98.0263 316.222 80.2033C331.136 66.7325 335.279 49.1168 331.757 39.3764C329.893 33.988 325.543 30.8794 319.95 30.6721C307.936 30.2576 306.486 41.656 305.657 49.1168C305.243 52.4327 304.622 56.7848 303.379 57.4065C302.343 56.992 300.064 51.811 298.614 48.7023C295.507 41.8633 292.4 34.6098 287.222 33.159C285.15 32.5373 282.872 32.9518 280.593 34.6098C272.722 40.2053 277.486 50.5675 281.422 58.8572C283.493 63.2094 285.979 68.8049 284.322 69.6339C282.25 70.6701 279.143 66.318 276.45 62.5876C273.343 58.2355 270.236 53.6762 266.3 53.2617C264.436 53.0544 262.779 53.4689 261.122 54.9196C252.629 61.7586 260.293 83.1047 262.779 89.5293L202.5 130.149C201.464 130.771 201.257 132.014 201.879 133.05C202.5 134.087 203.743 134.294 204.779 133.672L266.922 91.8089C267.75 91.1872 268.164 90.151 267.75 89.322C263.607 79.5816 258.843 62.3804 264.229 58.0283C265.057 57.1993 265.679 57.1993 266.093 57.4065C268.372 57.821 271.064 61.5514 273.343 65.0745C277.072 70.2556 281.214 76.2657 286.393 73.5715C291.572 70.8774 288.464 64.2456 285.357 57.4065C281.214 48.2878 278.522 41.656 283.286 38.3401C284.736 37.3039 285.772 37.3039 286.393 37.5112C289.707 38.3401 292.607 45.1792 295.093 50.7747C298.2 57.6138 300.686 63.6238 305.243 61.7586C308.764 60.3079 309.386 55.5413 310.007 50.153C311.043 41.0343 312.493 35.0242 319.95 35.4387C323.886 35.646 326.579 37.5112 328.029 41.2415C331.136 49.7385 326.579 65.6963 313.529 77.5092C294.264 95.1248 219.9 155.433 219.279 156.054C218.45 156.676 218.243 158.127 219.072 158.956C219.279 159.163 219.9 159.37 220.522 159.37Z" fill="#2D2B39"/>
<path d="M115.5 152.738C115.914 152.738 116.329 152.531 116.743 152.324C117.779 151.702 117.986 150.459 117.364 149.423C116.743 148.594 63.7143 69.2194 50.2501 46.6298C41.3429 31.5011 41.55 14.9216 46.9358 7.66808C49.4215 4.55943 52.5286 3.31597 56.4643 4.35218C63.7143 6.21738 63.3 12.4347 61.6429 21.3461C60.6072 26.7345 59.9858 31.2938 62.8858 33.7808C66.6143 36.8894 70.9643 32.1228 75.7286 26.32C79.6643 21.7606 84.4286 16.1651 87.95 16.1651C88.5715 16.1651 89.4 16.3723 90.6429 17.823C94.1643 22.3824 89.8143 27.9779 82.9786 35.4387C77.8001 41.0343 73.0358 46.4226 77.1786 50.5675C81.5286 54.7123 87.1215 50.3602 92.3001 46.4226C95.6143 43.9357 99.3429 40.827 101.621 41.2415C102.036 41.2415 102.657 41.4488 103.279 42.485C107.214 48.0806 97.4786 63.2093 90.6429 71.2918C90.0215 72.1208 90.0215 73.157 90.6429 73.986L137.457 132.843C138.079 133.672 139.529 133.879 140.357 133.05C141.186 132.429 141.393 130.978 140.564 130.149L94.3715 73.157C98.7215 67.7687 112.393 49.7385 106.179 40.6198C104.936 38.9618 103.486 37.9256 101.829 37.7184C97.8929 37.0967 93.5429 40.4125 89.4 43.7284C85.6715 46.6299 81.5286 49.9457 79.8715 48.2878C78.4215 46.8371 82.5643 42.485 85.8786 38.7546C92.0929 31.9156 99.55 23.6258 93.75 15.9578C92.0929 13.8854 90.2286 12.6419 87.95 12.6419C82.5643 12.4347 77.5929 18.4447 72.6215 24.2476C70.3429 26.7345 66.6143 31.0866 65.3715 31.2938C64.3358 30.4649 65.1643 26.1127 65.7858 22.7969C67.0286 15.3361 69.1001 4.14494 57.5001 1.03629C52.1143 -0.414415 47.1429 1.24353 43.6215 5.80289C37.4072 13.8854 36.3715 32.1228 46.5215 49.324C59.9858 71.9136 113.221 151.495 113.636 152.324C114.257 152.531 114.879 152.738 115.5 152.738Z" fill="#2D2B39"/>
<path d="M203.949 133.258C203.949 133.258 190.071 90.3583 170.806 86.2135C156.513 83.1048 159.206 104.244 159.206 104.244C159.206 104.244 153.821 92.638 144.085 96.1611C134.349 99.6843 142.014 122.481 142.014 122.481" fill="#862D43"/>
<path d="M203.949 135.33C204.156 135.33 204.364 135.33 204.571 135.33C205.606 134.916 206.228 133.88 205.814 132.636C205.192 130.771 191.314 88.7005 171.221 84.1411C167.285 83.3121 163.971 83.9339 161.485 86.2135C158.378 89.115 157.342 93.6743 157.135 97.6119C153.821 94.5033 149.264 92.0164 143.464 94.296C132.071 98.4409 139.321 120.616 140.149 123.31C140.564 124.346 141.599 124.968 142.842 124.554C143.878 124.139 144.499 123.103 144.085 121.859C142.221 116.471 138.492 100.513 144.914 98.2337C152.785 95.3323 157.342 104.865 157.549 105.28C157.964 106.109 158.999 106.731 160.035 106.316C161.071 106.109 161.692 105.073 161.485 104.036C161.071 101.135 160.864 92.6381 164.385 89.3222C165.835 88.0787 167.699 87.6642 170.392 88.286C188.206 92.2236 201.878 133.465 202.085 133.88C202.292 134.709 203.121 135.33 203.949 135.33Z" fill="#2D2B39"/>
<path d="M117.779 136.366C117.779 136.366 118.194 94.5031 56.4649 79.9961C30.5721 126.626 54.8078 157.712 93.7507 154.811" fill="#FFA500"/>
<path d="M88.7783 157.091C90.4354 157.091 92.0926 157.091 93.9569 156.883C95.1997 156.883 96.0283 155.847 95.8211 154.604C95.8211 153.36 94.7854 152.531 93.5426 152.739C75.5212 153.982 60.814 147.972 53.1497 136.159C44.4497 122.688 45.8997 103.622 57.2926 82.483C115.085 96.7828 115.5 134.916 115.5 136.574C115.5 137.817 116.328 138.646 117.571 138.646C118.814 138.646 119.643 137.817 119.643 136.574C119.643 136.159 119.228 93.0525 56.6712 78.1309C55.8426 77.9237 54.8069 78.3382 54.3926 79.1672C41.5497 102.378 39.8926 123.31 49.6283 138.646C57.4997 150.459 71.3783 157.091 88.7783 157.091Z" fill="#2D2B39"/>
<path d="M100.586 140.097C100.586 140.097 93.5431 109.425 66.2002 99.8916C55.6359 124.761 78.6288 145.278 100.586 140.097Z" fill="#FFECCA"/>
<path d="M264.022 255.531C256.358 288.69 235.644 319.569 188.622 330.761C113.015 348.376 60.1937 318.948 34.3008 285.789C20.8366 268.588 14.8294 250.143 16.4865 237.087C22.2865 194.602 64.1294 190.871 64.1294 190.871L77.3866 140.097C157.137 83.5192 258.222 151.288 258.222 151.288C258.222 151.288 275.622 205.793 264.022 255.531Z" fill="#FFA500"/>
<path d="M62.2637 212.01C54.3923 222.373 68.6852 234.6 77.7994 236.465C88.1566 238.537 104.521 228.175 102.864 219.886C101.207 211.596 65.7852 207.451 62.2637 212.01Z" fill="#862D43"/>
<path d="M68.6864 215.741C67.2364 218.642 90.4364 222.58 91.6793 219.471C92.715 216.155 72.0007 209.523 68.6864 215.741Z" fill="white"/>
<path d="M140.151 261.127C136.629 275.841 123.787 292.213 105.144 287.447C104.108 287.24 103.072 286.825 102.037 286.411C84.6366 278.95 80.0794 250.35 81.9437 249.107C83.1866 248.278 85.258 247.449 87.5366 246.827C99.758 243.097 123.579 241.232 134.144 242.89C136.837 243.304 138.701 243.926 139.115 244.755C141.394 248.692 141.601 254.702 140.151 261.127Z" fill="#2D2B39"/>
<path d="M83.3938 171.183C69.9295 174.913 66.2009 199.99 87.7438 201.648C109.494 203.306 106.801 164.758 83.3938 171.183Z" fill="#2D2B39"/>
<path d="M182.2 179.058C199.393 182.996 201.465 211.595 177.229 213.461C152.993 215.326 155.686 173.048 182.2 179.058Z" fill="#2D2B39"/>
<path d="M84.8429 185.068C81.9829 185.068 79.6643 182.749 79.6643 179.887C79.6643 177.026 81.9829 174.706 84.8429 174.706C87.703 174.706 90.0215 177.026 90.0215 179.887C90.0215 182.749 87.703 185.068 84.8429 185.068Z" fill="white"/>
<path d="M172.878 193.565C170.018 193.565 167.699 191.246 167.699 188.384C167.699 185.523 170.018 183.203 172.878 183.203C175.738 183.203 178.057 185.523 178.057 188.384C178.057 191.246 175.738 193.565 172.878 193.565Z" fill="white"/>
<path d="M203.951 180.095C204.986 180.095 206.229 179.68 207.058 179.058C209.336 177.4 209.751 174.085 208.094 171.805C195.665 155.847 177.644 157.712 169.565 160.821C166.872 161.857 165.629 164.966 166.665 167.66C167.701 170.354 170.808 171.598 173.294 170.561C173.915 170.354 189.036 164.551 199.601 178.229C200.844 179.266 202.501 180.095 203.951 180.095Z" fill="#892B34"/>
<path d="M78.8358 166.417C80.0787 166.417 81.3215 166.002 82.3572 164.966C90.6429 157.091 98.7215 162.272 99.5501 162.894C101.829 164.551 105.143 163.93 106.8 161.65C108.457 159.37 107.836 156.054 105.557 154.397C100.172 150.459 86.9144 146.107 75.1072 157.298C73.0358 159.37 73.0358 162.479 74.9001 164.551C76.1429 165.795 77.3858 166.417 78.8358 166.417Z" fill="#892B34"/>
<path d="M199.393 220.507C199.393 234.392 228.186 234.392 227.15 220.507C226.322 206.622 199.393 201.441 199.393 220.507Z" fill="#FF3F69"/>
<path opacity="0.2" d="M264.021 255.531C256.357 288.69 235.643 319.569 188.621 330.761C113.014 348.376 60.1929 318.948 34.3001 285.789C61.2286 305.684 116.95 333.662 191.936 301.747C224.871 287.447 247.864 271.075 264.021 255.531Z" fill="#AE2B39"/>
<path d="M134.35 242.89C134.35 247.863 133.728 254.081 131.035 255.531C126.478 258.018 99.3425 259.469 93.5425 256.982C89.3996 255.117 88.1567 249.729 87.9496 246.827C99.9639 243.097 123.785 241.232 134.35 242.89Z" fill="white"/>
<path d="M140.15 261.127C136.629 275.841 123.786 292.213 105.143 287.447C104.108 287.24 103.072 286.825 102.036 286.411C106.593 275.219 116.95 260.712 140.15 261.127Z" fill="#FF3F69"/>
<path d="M136.837 132.014C130.416 129.112 123.373 149.215 127.93 150.873C134.351 153.153 143.259 134.915 136.837 132.014Z" fill="#FF7C00"/>
<path d="M160.037 133.879C152.994 134.501 156.308 155.433 161.28 154.811C168.115 153.567 167.287 133.257 160.037 133.879Z" fill="#FF7C00"/>
<path d="M148.438 128.076C141.395 127.455 140.98 148.801 145.952 148.801C152.995 148.801 155.688 128.698 148.438 128.076Z" fill="#FF7C00"/>
<path d="M143.878 338.222C157.55 338.222 172.464 336.564 188.828 332.833C230.257 323.093 256.15 297.395 265.886 256.153C277.486 206.415 260.293 151.288 260.086 150.666C259.878 150.252 259.671 149.837 259.257 149.63C258.221 149.008 156.1 81.8614 75.9355 138.232C75.5213 138.439 75.3141 138.853 75.107 139.475L62.2641 188.799C54.5998 190.043 19.5927 197.503 14.207 236.672C12.1356 250.972 18.9713 269.831 32.4355 287.032C42.9998 300.503 78.2141 338.222 143.878 338.222ZM256.564 152.531C258.428 158.956 272.721 209.523 261.95 255.117C252.836 294.701 227.978 319.362 188 328.688C95.407 350.242 48.1784 300.296 35.7498 284.338C23.3213 268.381 16.6927 250.143 18.3498 237.087C23.9427 196.674 62.4713 192.737 64.1284 192.529C64.957 192.529 65.7856 191.908 65.9927 191.079L79.0427 141.133C153.614 89.3222 248.071 147.143 256.564 152.531Z" fill="#2D2B39"/>
<path d="M229.843 147.558C229.843 147.558 239.993 107.145 303.379 108.596C316.636 160.407 285.357 184.24 248.279 171.598" fill="#FFA500"/>
<path d="M245.38 155.433C245.38 155.433 260.087 127.662 288.88 125.175C292.609 151.91 265.266 166.209 245.38 155.433Z" fill="#FFECCA"/>
<path d="M267.336 176.986C278.108 176.986 287.844 173.463 295.094 166.831C308.351 154.604 312.079 133.879 305.451 108.181C305.244 107.352 304.415 106.73 303.586 106.523C270.236 105.694 251.386 116.678 241.444 126.004C230.672 136.159 227.979 146.728 227.772 147.143C227.565 148.179 228.186 149.423 229.222 149.63C230.258 149.837 231.501 149.215 231.708 148.179C232.122 146.521 242.272 110.046 301.722 110.668C307.315 133.879 304.001 152.739 292.194 163.722C281.836 173.256 266.094 175.328 248.901 169.525C247.865 169.111 246.622 169.732 246.208 170.769C245.794 171.805 246.415 173.048 247.451 173.463C254.494 175.743 261.122 176.986 267.336 176.986Z" fill="#2D2B39"/>
</g>
<defs>
<clipPath id="clip0_180_7553">
<rect width="333" height="412" fill="white" transform="matrix(-1 0 0 1 333 0)"/>
</clipPath>
</defs>
</svg>
