<svg width="415" height="424" viewBox="0 0 415 424" fill="none" xmlns="http://www.w3.org/2000/svg">
<g clip-path="url(#clip0_698_9681)">
<path d="M256.046 391.285L259.182 342.503C259.182 342.503 304.626 362.316 331.02 375.333C337.514 378.64 342.961 381.326 346.105 383.397C362.453 393.539 352.946 418.798 345.43 421.122C343.134 421.757 334.135 419.295 322.622 415.593C296.038 406.953 256.046 391.285 256.046 391.285Z" fill="#FFA500"/>
<path d="M322.624 415.593L331.022 375.333C337.516 378.64 342.962 381.326 346.107 383.397C362.455 393.539 352.947 418.798 345.432 421.122C343.135 421.757 334.137 419.295 322.624 415.593Z" fill="#862D43"/>
<path d="M259.174 340.419C258.338 340.423 257.504 340.843 257.298 341.678C256.885 342.721 257.308 343.97 258.355 344.382C258.774 344.589 304.009 364.195 330.194 377.212C337.316 380.725 342.135 383.414 345.068 385.068C353.452 390.243 353.49 399.204 352.884 404.001C351.873 412.133 347.51 418.196 345.004 418.832C344.378 419.043 341.033 419.057 323.45 413.297C297.076 404.865 257.502 389.195 257.083 388.988C256.036 388.576 254.783 388.998 254.371 390.25C253.957 391.294 254.381 392.543 255.636 392.954C256.055 393.161 295.838 408.621 322.213 417.262C340.214 423.02 344.396 423.211 346.275 422.786C351.076 421.307 355.849 413.158 357.066 404.399C358.486 394.39 354.897 386.068 347.352 381.307C344.417 379.444 339.598 376.755 332.058 373.245C305.873 360.227 260.429 340.622 260.01 340.415C259.801 340.416 259.592 340.417 259.174 340.419Z" fill="#2D2B39"/>
<g clip-path="url(#clip1_698_9681)">
<path d="M242.549 185.971L241.986 187.361L242.549 185.971C220.995 177.239 202.992 165.794 191.299 154.406C185.449 148.709 181.236 143.081 178.917 137.87C176.602 132.665 176.226 128.001 177.817 124.073C179.408 120.146 182.923 117.059 188.209 114.934C193.5 112.807 200.443 111.699 208.608 111.68C224.929 111.643 245.82 115.958 267.37 124.688L267.933 123.298L267.37 124.688C288.924 133.42 306.927 144.865 318.62 156.253C324.47 161.951 328.684 167.579 331.002 172.789C333.318 177.995 333.694 182.658 332.103 186.586C330.512 190.511 326.997 193.597 321.712 195.722C316.421 197.848 309.478 198.956 301.313 198.975C284.99 199.014 264.099 194.702 242.549 185.971Z" fill="#4F321D" stroke="#2D2B39" stroke-width="3" stroke-miterlimit="10" stroke-linecap="round" stroke-linejoin="round"/>
<path d="M213.324 115.012C213.324 115.012 254.917 59.2501 274.136 83.2206C293.349 107.179 309.881 111.213 315.519 115.11C321.158 119.007 326.321 140.013 318.553 161.207L213.324 115.012Z" fill="#563621"/>
<path d="M318.552 161.207L213.323 115.012C213.323 115.012 216.845 110.293 222.313 104.184C238.206 106.393 256.052 111.175 274.254 118.547C292.778 126.045 309.149 135.224 322.214 144.882C321.734 150.11 320.585 155.653 318.552 161.207Z" fill="#944600"/>
<path d="M213.324 115.012C213.324 115.012 254.917 59.2501 274.136 83.2206C293.349 107.179 309.881 111.213 315.519 115.11C321.158 119.007 326.321 140.013 318.553 161.207L213.324 115.012Z" stroke="#2D2B39" stroke-width="3" stroke-miterlimit="10" stroke-linecap="round" stroke-linejoin="round"/>
<path d="M333.506 187.143C340.672 169.45 311.324 140.865 267.947 123.292C224.567 105.728 183.594 105.818 176.428 123.51C175.194 126.566 175.042 129.94 175.863 133.527C190.667 123.91 224.923 126.347 260.814 140.894C296.709 155.432 322.997 177.515 326.939 194.729C330.03 192.726 332.272 190.198 333.506 187.143Z" fill="#4F321D"/>
<mask id="path-9-inside-1_698_9681" fill="white">
<path d="M326.951 194.722C330.033 192.716 332.274 190.188 333.506 187.143C340.672 169.45 311.324 140.865 267.947 123.292C224.567 105.728 183.594 105.818 176.428 123.51C175.194 126.566 175.042 129.94 175.863 133.527"/>
</mask>
<path d="M325.314 192.208C323.926 193.112 323.533 194.97 324.436 196.359C325.34 197.747 327.199 198.14 328.587 197.236L325.314 192.208ZM333.506 187.143L330.726 186.016L330.725 186.018L333.506 187.143ZM267.947 123.292L269.073 120.511L269.073 120.511L267.947 123.292ZM176.428 123.51L173.648 122.384L173.647 122.386L176.428 123.51ZM172.939 134.196C173.308 135.811 174.918 136.821 176.533 136.451C178.148 136.081 179.157 134.472 178.787 132.857L172.939 134.196ZM328.587 197.236C332.085 194.96 334.784 191.984 336.287 188.267L330.725 186.018C329.764 188.393 327.981 190.472 325.314 192.208L328.587 197.236ZM336.287 188.269C338.479 182.855 337.759 176.871 335.127 170.954C332.499 165.047 327.87 158.961 321.774 153.023C309.569 141.136 291.031 129.407 269.073 120.511L266.82 126.072C288.24 134.75 306.065 146.099 317.587 157.321C323.354 162.938 327.43 168.414 329.645 173.393C331.855 178.36 332.116 182.584 330.726 186.016L336.287 188.269ZM269.073 120.511C247.114 111.62 225.637 107.14 208.6 107.18C200.09 107.2 192.53 108.347 186.532 110.759C180.523 113.175 175.84 116.97 173.648 122.384L179.209 124.637C180.599 121.204 183.725 118.354 188.77 116.326C193.826 114.293 200.563 113.199 208.614 113.18C224.7 113.142 245.399 117.399 266.821 126.072L269.073 120.511ZM173.647 122.386C172.143 126.107 172.006 130.122 172.939 134.196L178.787 132.857C178.078 129.759 178.244 127.024 179.21 124.634L173.647 122.386Z" fill="#2D2B39" mask="url(#path-9-inside-1_698_9681)"/>
</g>
<path d="M106.746 422.964C106.746 422.964 203.395 422.964 266.267 422.964C270.743 394.861 266.47 370.017 261.791 353.115C257.721 339.267 253.448 330.918 253.448 330.918L133.808 306.888C128.111 317.07 123.634 327.048 119.972 336.62C101.456 385.086 106.746 422.964 106.746 422.964Z" fill="#FFA500"/>
<path d="M230.454 330.714C230.454 330.714 239.203 371.646 235.744 422.76C210.107 422.76 170.634 422.76 170.634 422.76C170.634 422.76 167.582 368.591 181.825 306.888" fill="#FFECCA"/>
<path opacity="0.2" d="M119.969 336.62C188.742 414.818 243.475 372.053 261.584 353.115C257.515 339.267 253.242 330.918 253.242 330.918L133.805 306.888C128.108 317.07 123.631 327.048 119.969 336.62Z" fill="#AE2B39"/>
<path d="M248.158 344.358C248.158 344.358 240.63 372.257 198.511 368.998C156.393 365.74 145.812 327.048 145.812 327.048" fill="#E6BB01"/>
<path d="M199.504 413C216.349 413 230.004 399.344 230.004 382.5C230.004 365.655 216.349 352 199.504 352C182.659 352 169.004 365.655 169.004 382.5C169.004 399.344 182.659 413 199.504 413Z" fill="#FFCF01"/>
<path d="M189.56 393.077C193.439 395.241 198.399 393.842 200.576 389.971L201.957 387.514L204.418 388.888C208.297 391.051 213.257 389.653 215.434 385.782C217.61 381.911 216.217 376.967 212.338 374.803C206.819 371.724 201.3 368.645 195.766 365.557L186.468 382.11C184.291 385.981 185.682 390.913 189.56 393.077Z" fill="#EE9B03"/>
<path d="M197.436 371.526L190.286 384.241C189.298 385.998 189.939 388.272 191.7 389.254C193.46 390.236 195.742 389.593 196.742 387.833L200.266 381.564L206.561 385.076C208.321 386.058 210.603 385.415 211.603 383.655C212.591 381.898 211.949 379.623 210.189 378.641C205.935 376.258 201.687 373.898 197.436 371.526Z" fill="#FFA500"/>
<path d="M203.062 391.475L210.118 395.412L199.102 398.518L203.062 391.475Z" fill="#EE9B03"/>
<path d="M207.009 396.289L199.102 398.518L202.083 393.218C200.554 395.954 207.009 396.289 207.009 396.289Z" fill="#D78E08"/>
<path d="M201.946 387.517C192.743 382.383 206.513 371.572 195.758 365.572L186.469 382.11C184.292 385.981 185.686 390.925 189.564 393.088C193.442 395.252 198.403 393.853 200.58 389.982L201.946 387.517Z" fill="#FFA500"/>
<path d="M199.992 373.987C200.395 370.867 199.876 367.869 195.759 365.572L194.612 367.612C196.818 368.568 200.246 370.608 199.992 373.987Z" fill="#D78E08"/>
<path d="M201.946 387.518C199.753 386.294 198.866 384.753 198.643 383.025C195.288 389.896 186.01 390.382 186.271 382.479C184.38 386.294 185.802 390.98 189.561 393.077C193.439 395.241 198.399 393.842 200.576 389.971L201.946 387.518Z" fill="#D78E08"/>
<path d="M201.945 387.518C195.325 382.093 205.524 375.559 202.186 369.159C200.05 367.957 197.905 366.771 195.757 365.572C206.512 371.572 192.756 382.391 201.945 387.518Z" fill="#C4830D"/>
<path d="M201.947 387.517C192.744 382.383 206.514 371.572 195.76 365.572C197.55 366.571 199.327 368.638 199.72 370.97C200.031 372.786 199.639 374.738 199.244 376.503C198.729 378.778 197.915 381.551 198.531 383.87C198.985 385.571 200.333 386.695 201.947 387.517Z" fill="#D78E08"/>
<path d="M191.411 396.828L191.665 397.282L192.068 397.331L191.75 397.584L191.774 398.116L191.529 397.646L191.125 397.597L191.444 397.345L191.411 396.828Z" fill="#FFA500"/>
<path d="M188.575 395.636L189.145 396.678L190.055 396.784L189.339 397.362L189.397 398.549L188.838 397.503L187.913 397.388L188.645 396.819L188.575 395.636Z" fill="#FFA500"/>
<path d="M186.247 372.501L186.817 373.543L187.727 373.649L187.007 374.216L187.065 375.402L186.495 374.36L185.585 374.253L186.305 373.687L186.247 372.501Z" fill="#FFA500"/>
<path d="M216.38 388.91L216.938 389.956L217.86 390.059L217.132 390.64L217.201 391.823L216.631 390.782L215.706 390.666L216.438 390.097L216.38 388.91Z" fill="#FFA500"/>
<path d="M209.91 365.429L210.874 367.199L212.435 367.385L211.202 368.359L211.304 370.373L210.352 368.599L208.791 368.413L210.024 367.439L209.91 365.429Z" fill="#FFA500"/>
<path d="M266.265 425H106.745C105.727 425 104.913 424.185 104.71 423.167C104.71 422.76 99.6232 384.272 118.139 336.009C122.005 325.827 126.685 315.644 132.178 306.073C132.585 305.259 133.399 304.851 134.417 305.055L253.854 328.881C254.464 329.085 255.074 329.492 255.278 329.899C255.481 330.307 259.754 338.656 263.824 352.504C268.503 368.795 273.183 394.454 268.503 423.167C268.096 424.185 267.283 425 266.265 425ZM108.576 420.927H264.434C268.503 393.639 264.027 369.406 259.551 353.725C256.295 342.729 253.04 335.194 251.819 332.75L134.824 309.332C129.737 318.292 125.464 327.863 121.801 337.434C106.134 378.977 107.762 412.781 108.576 420.927Z" fill="#2D2B39"/>
<path d="M275.012 157.822L342.36 127.683C342.36 127.683 335.646 99.7844 345.209 94.4897C354.772 89.195 356.4 115.668 364.742 113.021C373.084 110.374 354.569 84.5112 367.387 78.402C380.206 72.2927 378.374 106.097 385.089 104.468C391.804 102.839 389.158 78.1983 404.622 81.4566C420.086 84.7149 413.982 110.781 392.007 124.832C370.032 138.884 287.423 185.11 287.423 185.11" fill="#B55D47"/>
<path d="M216.616 153.342L226.79 80.2347C226.79 80.2347 255.479 78.8092 257.921 68.2199C260.363 57.6305 234.522 63.3325 234.725 54.7795C234.929 46.0229 265.042 56.6123 267.28 42.561C269.519 28.7134 237.574 39.71 237.37 32.9899C237.167 26.2697 261.38 21.7896 253.851 7.73831C246.323 -6.31296 223.127 6.92375 215.803 32.1753C208.478 57.2232 187.113 149.473 187.113 149.473" fill="#B55D47"/>
<path d="M287.223 187.147C286.409 187.147 285.799 186.739 285.392 186.128C284.781 185.11 285.188 183.888 286.206 183.277C287.02 182.87 369.018 136.847 390.586 123.203C405.236 113.836 412.357 99.377 410.729 90.6204C410.119 86.7512 407.677 84.3075 404.015 83.4929C396.69 81.8638 394.452 87.5658 391.807 96.1187C390.179 101.21 388.958 105.69 385.296 106.504C380.616 107.726 378.988 101.413 377.36 94.2859C375.936 88.584 374.308 81.4565 371.256 80.031C370.646 79.8274 369.832 79.6238 368.204 80.2347C363.117 82.6784 364.542 89.6022 366.983 98.9697C369.018 106.301 370.849 113.021 365.356 114.854C359.658 116.687 356.81 110.17 353.961 104.468C352.13 100.802 350.299 96.526 348.061 95.7114C347.654 95.5078 347.043 95.5078 346.026 96.1187C340.125 99.377 341.753 116.89 344.195 127.072C344.398 128.09 343.991 128.905 342.974 129.312L275.625 159.451C274.608 159.859 273.387 159.451 272.98 158.433C272.573 157.415 272.98 156.193 273.998 155.786L339.718 126.258C338.294 119.537 334.428 97.7479 343.788 92.4532C345.619 91.435 347.247 91.2313 349.078 91.8422C352.944 93.0641 355.182 97.9515 357.42 102.635C359.455 106.708 361.49 111.595 363.728 110.781C365.559 110.17 363.931 104.468 362.71 99.7843C360.269 91.0277 357.42 80.4383 365.966 76.1618C368.408 74.94 370.646 74.94 372.477 75.9582C377.157 78.1983 378.988 85.733 380.819 92.8604C381.633 96.1187 382.854 101.617 384.075 102.228C385.296 101.821 386.516 97.9515 387.534 94.6932C389.772 87.5658 393.027 76.7728 404.422 79.2165C409.915 80.4383 413.374 84.1039 414.392 89.6022C416.223 99.5806 409.102 115.872 392.417 126.461C370.646 140.309 288.647 186.332 287.833 186.739C287.833 187.146 287.427 187.147 287.223 187.147Z" fill="#2D2B39"/>
<path d="M216.617 155.379H216.414C215.396 155.175 214.582 154.157 214.582 153.138L224.756 80.0312C224.959 79.0129 225.773 78.402 226.587 78.1984C237.168 77.7911 254.259 74.5328 255.683 67.8127C255.887 66.5908 255.683 66.1835 255.48 65.7762C254.259 63.9435 249.579 63.3325 245.51 62.518C239.202 61.4998 232.284 60.4816 232.488 54.576C232.691 48.874 239.813 48.6703 247.341 48.4667C257.108 48.2631 264.229 47.6521 265.043 42.1538C265.247 40.321 264.84 39.5065 264.433 39.0992C262.194 36.6555 254.87 36.8591 249.172 37.2664C241.847 37.6737 235.336 37.8773 235.133 32.9899C234.929 29.3244 238.795 26.6771 243.272 23.8261C250.8 18.9387 255.48 15.2731 252.021 8.55295C250.19 5.09104 247.341 3.66555 243.272 4.07283C234.523 5.09104 222.518 15.884 217.635 32.5827C210.513 57.2233 189.352 148.862 189.149 149.677C188.945 150.695 187.724 151.509 186.707 151.102C185.69 150.898 184.876 149.677 185.283 148.658C185.486 147.64 206.647 56.0014 213.972 31.1572C219.466 12.2185 233.098 0.814569 243.068 -0.203639C248.562 -0.814564 253.038 1.62914 255.683 6.51653C261.177 16.9023 251.817 23.0115 245.713 27.0843C242.865 28.9171 239.406 31.1572 239.406 32.5827C240.22 33.3972 245.917 32.9899 249.172 32.9899C256.497 32.5827 264.229 32.379 267.688 36.2482C269.112 37.8773 269.723 40.1174 269.316 42.5611C267.892 51.9286 256.701 52.1323 247.748 52.3359C242.865 52.3359 236.964 52.5395 236.964 54.3723C236.964 56.6124 242.051 57.4269 246.527 58.2415C251.614 59.0561 256.904 59.8706 259.142 63.1289C260.16 64.5544 260.363 66.3872 259.956 68.2199C257.515 78.8093 235.54 81.253 228.622 81.6603L218.652 153.138C218.448 154.564 217.635 155.379 216.617 155.379Z" fill="#2D2B39"/>
<path d="M263.212 169.226C263.212 169.226 264.636 125.036 248.155 114.65C235.947 107.115 231.471 127.683 231.471 127.683C231.471 127.683 230.25 115.057 220.077 115.261C209.903 115.261 209.496 138.883 209.496 138.883" fill="#862D43"/>
<path d="M263.211 171.263C261.99 171.263 261.176 170.244 261.176 169.226C261.176 168.819 262.397 126.054 247.137 116.483C244.899 115.058 242.864 114.854 241.236 115.465C236.963 117.298 234.318 125.24 233.708 128.091C233.504 129.109 232.487 129.72 231.673 129.72C230.656 129.72 229.842 128.905 229.842 127.887C229.842 127.48 228.621 117.094 220.482 117.298C213.768 117.298 211.937 133.385 211.937 138.884C211.937 139.902 210.919 140.92 209.902 140.92C208.681 140.92 207.867 139.902 207.867 138.884C207.867 136.236 208.681 113.225 220.482 113.225C226.586 113.225 230.045 116.89 232.08 120.963C233.708 117.501 236.15 113.428 240.015 111.799C243.067 110.578 246.323 110.985 249.782 113.021C267.077 123.814 265.856 167.393 265.856 169.226C265.246 170.448 264.432 171.263 263.211 171.263Z" fill="#2D2B39"/>
<path d="M191.183 147.64C191.183 147.64 198.508 107.319 141.333 82.6787C108.574 123.611 126.683 157.619 164.935 161.488" fill="#FFA500"/>
<path d="M164.935 163.524C145.605 161.692 131.159 152.324 125.054 138.069C118.136 121.778 123.427 101.617 139.704 81.4568C140.315 80.8458 141.332 80.4385 142.146 80.8458C172.463 93.8789 184.671 111.392 189.758 123.611C195.252 137.255 193.42 147.64 193.42 148.048C193.217 149.066 192.2 149.88 190.979 149.677C189.961 149.473 189.148 148.455 189.351 147.233C189.554 145.604 195.455 108.745 142.146 85.1223C127.7 103.654 123.02 121.981 129.124 136.44C134.414 149.269 147.64 157.619 165.342 159.248C166.359 159.451 167.376 160.266 167.173 161.488C166.766 162.71 165.952 163.524 164.935 163.524Z" fill="#2D2B39"/>
<path d="M174.092 148.251C174.092 148.251 172.261 117.501 147.641 103.45C133.195 125.851 151.914 149.677 174.092 148.251Z" fill="#FFECCA"/>
<path d="M312.655 287.746C299.633 318.495 274.402 344.969 226.994 347.82C150.896 352.3 104.708 314.83 85.1753 278.174C75.0018 259.236 72.1532 240.501 76.2226 227.875C89.0412 187.554 130.142 191.016 130.142 191.016L151.507 144.178C238.388 103.246 324.863 185.721 324.863 185.721C324.863 185.721 332.391 241.519 312.655 287.746Z" fill="#FFA500"/>
<path d="M125.055 211.584C115.695 220.34 127.497 234.595 135.839 237.853C145.402 241.519 163.104 234.391 162.901 226.042C162.697 217.693 129.124 207.714 125.055 211.584Z" fill="#862D43"/>
<path d="M130.551 216.064C128.516 218.711 150.491 226.246 152.119 223.395C153.746 220.748 134.824 210.769 130.551 216.064Z" fill="white"/>
<path d="M240.016 235.817C234.523 266.974 298.819 278.174 302.278 246.61C305.737 215.045 247.545 193.256 240.016 235.817Z" fill="#FF3F69"/>
<path opacity="0.2" d="M312.655 287.745C299.633 318.495 274.403 344.969 226.994 347.82C150.897 352.3 104.709 314.83 85.1758 278.174C107.964 302 157.204 338.452 234.93 320.124C269.52 311.979 294.546 300.168 312.655 287.745Z" fill="#AE2B39"/>
<path d="M210.512 146.622C204.611 142.753 194.438 161.08 198.711 163.524C204.611 166.782 216.413 150.491 210.512 146.622Z" fill="#FF7C00"/>
<path d="M232.69 152.324C225.772 151.713 225.568 172.688 230.452 172.688C237.166 172.892 239.811 152.935 232.69 152.324Z" fill="#FF7C00"/>
<path d="M222.518 144.789C215.803 142.956 211.938 163.524 216.617 164.542C223.332 165.764 229.233 146.622 222.518 144.789Z" fill="#FF7C00"/>
<path d="M214.786 350.06C128.311 350.06 92.7037 296.095 83.5475 278.989C73.5775 260.05 70.1185 240.704 74.3914 227.264C86.1926 190.405 121.189 188.776 128.921 188.979L149.675 143.364C149.879 142.956 150.286 142.549 150.693 142.345C237.778 101.21 325.27 183.481 326.287 184.296C326.694 184.703 326.898 185.11 326.898 185.517C326.898 186.128 334.223 242.333 314.689 288.56C298.412 326.845 269.112 347.413 227.197 349.856C222.925 349.856 218.652 350.06 214.786 350.06ZM127.497 193.052C118.544 193.052 88.8378 195.7 78.4608 228.486C74.5948 240.908 77.8504 259.439 87.21 277.156C95.9592 293.855 130.549 345.987 214.786 345.987C218.855 345.987 222.925 345.783 226.994 345.58C267.078 343.34 295.36 323.586 310.824 286.727C328.729 244.37 323.642 193.256 322.828 186.536C315.503 179.815 233.912 107.93 153.134 145.604L131.973 191.83C131.566 192.645 130.753 193.052 129.939 193.052C129.735 193.052 128.921 193.052 127.497 193.052Z" fill="#2D2B39"/>
<path d="M297.801 177.372C297.801 177.372 314.485 139.902 375.73 151.917C379.799 204.252 345.616 222.173 311.84 203.641" fill="#FFA500"/>
<path d="M311.637 187.554C311.637 187.554 330.559 163.117 358.638 165.561C358.028 192.238 329.135 201.402 311.637 187.554Z" fill="#FFECCA"/>
<path d="M337.069 212.805C328.727 212.805 319.571 210.362 310.618 205.474C309.601 204.863 309.194 203.642 309.804 202.623C310.415 201.605 311.636 201.198 312.653 201.809C328.32 210.362 343.784 210.973 355.585 203.438C368.811 194.885 375.322 177.168 373.694 153.749C316.315 142.956 300.241 176.761 299.631 178.186C299.224 179.205 298.003 179.612 296.986 179.205C295.968 178.797 295.562 177.575 295.968 176.557C296.172 176.15 314.077 137.662 376.136 150.084C376.95 150.287 377.763 151.102 377.763 151.917C379.798 177.779 372.677 197.329 357.823 206.9C351.719 210.769 344.598 212.805 337.069 212.805Z" fill="#2D2B39"/>
<path d="M150.569 174.068C136.348 178.002 132.41 204.447 155.164 206.196C178.136 207.944 175.073 167.293 150.569 174.068Z" fill="#2D2B39"/>
<path d="M254.928 182.592C273.088 186.744 275.275 216.905 249.678 218.872C223.861 220.62 226.924 176.035 254.928 182.592Z" fill="#2D2B39"/>
<path d="M152.102 188.93C155.123 188.93 157.572 186.483 157.572 183.466C157.572 180.448 155.123 178.002 152.102 178.002C149.082 178.002 146.633 180.448 146.633 183.466C146.633 186.483 149.082 188.93 152.102 188.93Z" fill="white"/>
<path d="M245.083 197.672C248.104 197.672 250.553 195.226 250.553 192.208C250.553 189.19 248.104 186.744 245.083 186.744C242.062 186.744 239.613 189.19 239.613 192.208C239.613 195.226 242.062 197.672 245.083 197.672Z" fill="white"/>
<path d="M277.842 198.274C275.808 198.274 273.773 197.052 272.959 194.812C267.262 178.724 251.391 179.539 250.781 179.539C247.932 179.743 245.491 177.503 245.491 174.855C245.287 172.004 247.322 169.561 250.17 169.357C258.513 168.746 276.011 172.615 282.726 191.35C283.743 193.998 282.319 196.849 279.674 197.867C278.86 198.274 278.249 198.274 277.842 198.274Z" fill="#892B34"/>
<path d="M162.602 178.002C155.163 178.002 147.287 175.161 141.161 166.637C139.41 164.233 140.067 160.736 142.473 158.988C144.88 157.239 148.381 157.895 150.131 160.299C158.882 172.757 173.541 164.233 174.197 163.796C176.823 162.266 180.104 163.14 181.636 165.763C183.167 168.386 182.292 171.664 179.667 173.194C175.947 175.598 169.603 178.002 162.602 178.002Z" fill="#892B34"/>
<path d="M358.638 241.926C358.638 255.163 348.058 265.752 334.832 265.752C348.058 265.752 358.638 276.342 358.638 289.578C358.638 276.342 369.218 265.752 382.444 265.752C369.422 265.752 358.638 254.959 358.638 241.926Z" fill="#FFCF01"/>
<path d="M347.652 221.562C347.652 226.449 343.582 230.522 338.699 230.522C343.582 230.522 347.652 234.391 347.652 239.482C347.652 234.595 351.721 230.522 356.605 230.522C351.518 230.319 347.652 226.449 347.652 221.562Z" fill="#FFCF01"/>
<path d="M165.548 274.713C162.699 274.713 160.257 273.898 158.63 271.454C157.409 269.622 157.205 267.789 157.612 265.956C158.223 263.512 160.257 261.679 161.682 260.458C160.257 258.828 158.63 256.588 158.63 254.145C158.63 252.312 159.24 250.886 160.461 249.461C165.751 244.37 174.704 249.868 175.111 250.072C176.128 250.683 176.332 251.905 175.721 252.923C175.111 253.941 173.89 254.145 172.873 253.534C172.873 253.534 166.158 249.461 163.31 252.312C162.903 252.719 162.699 253.33 162.699 253.941C162.699 255.978 165.344 258.625 166.362 259.236C166.972 259.643 167.175 260.458 167.175 261.069C167.175 261.679 166.768 262.29 165.955 262.698C164.937 263.105 162.089 264.938 161.478 266.974C161.275 267.381 161.275 268.196 161.885 269.214C163.92 272.269 170.838 269.621 173.076 268.603C174.093 267.992 175.314 268.4 175.721 269.418C176.332 270.436 175.925 271.658 174.907 272.065C172.669 273.287 168.803 274.713 165.548 274.713Z" fill="#2D2B39"/>
<path d="M126.48 350.467L123.225 398.119C123.225 398.119 79.0719 378.57 53.4347 365.74C47.1271 362.482 41.8369 359.835 38.7848 357.798C22.9141 347.82 32.2738 323.179 39.5987 320.939C41.8369 320.328 50.5861 322.772 61.7769 326.438C87.6176 334.991 126.48 350.467 126.48 350.467Z" fill="#FFA500"/>
<path d="M61.7769 326.438L53.4347 365.74C47.1271 362.482 41.8369 359.835 38.7848 357.798C22.9141 347.82 32.2738 323.179 39.5987 320.939C41.8369 320.328 50.5861 322.772 61.7769 326.438Z" fill="#862D43"/>
<path d="M123.224 400.156C123.021 400.156 122.614 400.156 122.411 399.952C122.004 399.749 77.8506 380.403 52.4168 367.573C45.2954 364.111 40.4121 361.464 37.5635 359.631C30.2386 354.947 26.9831 346.802 28.2039 337.027C29.4247 328.474 34.1045 320.532 38.7843 319.107C40.6156 318.496 44.6849 318.699 62.1834 324.605C87.8206 333.158 126.48 348.431 126.887 348.635C127.904 349.042 128.515 350.264 128.108 351.282C127.701 352.3 126.48 352.911 125.463 352.504C125.056 352.3 86.3963 337.027 60.9626 328.474C43.8711 322.772 40.6156 322.976 40.0051 322.976C37.5635 323.79 33.2906 329.696 32.2733 337.434C31.6629 342.118 31.6629 350.875 39.8017 355.966C42.6503 357.798 47.3301 360.242 54.248 363.704C79.4783 376.33 123.631 395.879 124.038 396.083C125.056 396.49 125.463 397.712 125.056 398.73C124.649 399.749 124.038 400.156 123.224 400.156Z" fill="#2D2B39"/>
<g clip-path="url(#clip2_698_9681)">
<path opacity="0.4" d="M36.4935 300.661C54.3076 300.661 68.7488 286.065 68.7488 268.06C68.7488 250.055 54.3076 235.46 36.4935 235.46C18.6794 235.46 4.23828 250.055 4.23828 268.06C4.23828 286.065 18.6794 300.661 36.4935 300.661Z" fill="#F7F7F7"/>
<path opacity="0.7" d="M45.5057 234.706L5.86719 285.673L13.9341 293.588L56.1207 240.699L45.5057 234.706Z" fill="#F7F7F7"/>
<path opacity="0.7" d="M60.5694 244.681L19.2031 297.91L21.975 300.661L64.4226 246.427L60.5694 244.681Z" fill="#F7F7F7"/>
<path d="M29.7682 231.98C41.216 229.857 52.4401 233.5 60.5319 240.874L56.0572 245.95C49.4694 239.945 40.3335 236.98 31.0112 238.701C15.0762 241.653 4.59796 257.194 7.63082 273.412C8.88622 280.146 12.2795 285.925 16.9531 290.184L12.466 295.259C6.72345 290.02 2.55947 282.91 1.01818 274.643C-2.71074 254.706 10.1541 235.611 29.7682 231.98Z" fill="#424141"/>
<path d="M65.3666 262.709C64.1112 255.988 60.7179 250.196 56.0567 245.937L60.5314 240.875C66.2616 246.113 70.4255 253.224 71.9793 261.49C75.3974 279.756 64.857 297.332 47.9774 302.922L53.8691 334.467L44.2733 336.251L38.3692 304.706C28.6491 305.158 19.3889 301.591 12.4531 295.259L16.9403 290.184C23.5156 296.189 32.6515 299.141 41.9862 297.42C57.9212 294.467 68.3871 278.927 65.3666 262.709Z" fill="#2D2C2C"/>
<path d="M70.5051 261.765L70.5053 261.766C73.7871 279.303 63.6649 296.147 47.5062 301.498C46.7937 301.734 46.3653 302.461 46.5035 303.198L52.1312 333.255L45.485 334.49L39.8565 304.418C39.7188 303.682 39.0599 303.16 38.3123 303.195C29.0066 303.628 20.1313 300.213 13.4773 294.139L13.4756 294.137C7.96818 289.125 3.97251 282.292 2.49277 274.356L2.49259 274.355C-1.0881 255.222 11.2659 236.93 30.0412 233.455L30.0418 233.455C41.0011 231.422 51.7562 234.906 59.5215 241.983C65.0306 247.009 69.0256 253.83 70.5051 261.765ZM42.259 298.895L42.2599 298.895C59.0345 295.787 70.0094 279.443 66.8417 262.446L66.8417 262.446C65.5244 255.381 61.9619 249.313 57.069 244.842L57.0677 244.841C50.1533 238.539 40.5488 235.415 30.7389 237.226L30.738 237.226C13.9639 240.334 2.97604 256.677 6.14374 273.687L6.1438 273.687C7.46111 280.753 11.0238 286.821 15.9302 291.292C22.8457 297.596 32.4506 300.706 42.259 298.895Z" stroke="#2D2B39" stroke-width="3" stroke-miterlimit="10" stroke-linecap="round" stroke-linejoin="round"/>
<path d="M58.9473 350.949L58.9479 350.952C59.6568 354.701 57.2732 358.241 53.683 358.978C53.6374 358.987 53.5973 358.996 53.5711 359.002L53.5675 359.003C53.5458 359.007 53.533 359.01 53.5225 359.013C49.8631 359.678 46.2723 357.202 45.5635 353.413C45.5635 353.413 45.5635 353.413 45.5635 353.413L38.9639 318.115C38.9638 318.114 38.9637 318.114 38.9636 318.113C38.5976 316.128 39.0901 314.204 40.1706 312.712L44.1123 311.985L44.1133 311.985L49.2636 311.032C50.819 312.04 51.981 313.665 52.3465 315.644L52.3471 315.648L58.9473 350.949Z" fill="#FF3F69" stroke="#862D43" stroke-width="3" stroke-miterlimit="10" stroke-linecap="round" stroke-linejoin="round"/>
</g>
</g>
<defs>
<clipPath id="clip0_698_9681">
<rect width="415" height="425" fill="white"/>
</clipPath>
<clipPath id="clip1_698_9681">
<rect width="168.979" height="114.259" fill="white" transform="translate(193.574 58) rotate(15)"/>
</clipPath>
<clipPath id="clip2_698_9681">
<rect width="73" height="130" fill="white" transform="translate(0 231)"/>
</clipPath>
</defs>
</svg>
