<svg width="375" height="427" viewBox="0 0 375 427" fill="none" xmlns="http://www.w3.org/2000/svg">
<g clip-path="url(#clip0_180_7407)">
<path d="M208.611 354.714L211.956 403.482C211.956 403.482 257.315 383.475 283.653 370.345C290.133 367.01 295.568 364.301 298.703 362.217C315.008 352.005 305.392 326.787 297.867 324.495C295.568 323.869 286.58 326.37 275.083 330.122C248.536 338.875 208.611 354.714 208.611 354.714Z" fill="#FFA500"/>
<path d="M275.082 330.122L283.652 370.345C290.132 367.01 295.567 364.301 298.702 362.217C315.007 352.005 305.391 326.787 297.866 324.495C295.567 323.869 286.579 326.37 275.082 330.122Z" fill="#862D43"/>
<path d="M211.957 405.566C211.121 405.566 210.284 405.15 210.075 404.316C209.657 403.274 210.075 402.023 211.121 401.607C211.539 401.398 256.689 381.599 282.818 368.469C289.925 364.926 294.733 362.217 297.659 360.55C306.02 355.339 306.02 346.378 305.393 341.584C304.348 333.456 299.958 327.413 297.45 326.787C296.823 326.579 293.478 326.579 275.92 332.414C249.582 340.959 210.075 356.798 209.657 357.007C208.612 357.424 207.358 357.007 206.94 355.756C206.522 354.714 206.94 353.464 208.194 353.047C208.612 352.839 248.328 337.208 274.666 328.455C292.642 322.619 296.823 322.411 298.704 322.827C303.512 324.286 308.32 332.414 309.574 341.168C311.037 351.171 307.483 359.508 299.958 364.301C297.032 366.177 292.224 368.886 284.699 372.429C258.57 385.559 213.211 405.358 212.793 405.566C212.584 405.566 212.375 405.566 211.957 405.566Z" fill="#2D2B39"/>
<path d="M100.126 341.793L93.0194 390.144C93.0194 390.144 49.3321 366.802 24.0394 351.588C17.7685 347.837 12.7518 344.502 9.61636 342.21C-5.85187 330.747 5.64478 306.363 13.3789 304.696C15.6782 304.279 24.4575 307.405 35.7451 311.99C61.6649 323.036 100.126 341.793 100.126 341.793Z" fill="#FFA500"/>
<path d="M35.7451 312.199L24.0394 351.588C17.7685 347.837 12.7518 344.502 9.61636 342.21C-5.85187 330.747 5.64478 306.363 13.3789 304.696C15.8873 304.279 24.6665 307.405 35.7451 312.199Z" fill="#862D43"/>
<path d="M93.0187 392.228C92.6006 392.228 92.3916 392.228 91.9735 392.02C91.5555 391.811 47.8682 368.469 22.9936 353.255C15.8866 349.087 11.2879 345.961 8.3615 343.877C1.25447 338.667 -1.46292 329.913 0.627383 320.118C2.50865 311.365 7.94344 303.862 12.9602 302.82C14.8414 302.403 19.022 303.029 36.5806 310.323C62.0822 320.952 100.544 339.917 100.962 340.126C102.007 340.542 102.425 341.793 102.007 342.835C101.589 343.877 100.335 344.294 99.2896 343.877C98.8715 343.669 60.619 324.912 35.1173 314.283C18.1859 307.197 14.6324 306.988 14.0053 306.988C11.2879 307.614 6.68926 313.241 4.80798 321.16C3.76283 325.954 3.13574 334.915 10.8699 340.751C13.5872 342.835 18.1859 345.753 25.0839 349.921C49.9585 364.926 93.4368 388.268 93.8548 388.477C94.9 389.102 95.318 390.352 94.6909 391.395C94.4819 391.811 93.6458 392.228 93.0187 392.228Z" fill="#2D2B39"/>
<path d="M70.2341 425.365C70.2341 425.365 169.523 425.365 234.114 425.365C238.712 396.605 234.323 371.179 229.515 353.881C225.334 339.709 220.945 331.164 220.945 331.164L98.2441 306.78C92.3913 317.2 87.7926 327.412 84.0301 337.208C64.7993 386.601 70.2341 425.365 70.2341 425.365Z" fill="#FFA500"/>
<path d="M197.325 331.164C197.325 331.164 206.313 373.054 202.76 425.365C176.422 425.365 135.87 425.365 135.87 425.365C135.87 425.365 132.735 369.928 147.367 306.78" fill="#FFECCA"/>
<path opacity="0.2" d="M83.8203 336.999C154.472 417.029 210.702 373.263 229.305 353.881C225.125 339.709 220.735 331.164 220.735 331.164L98.0344 306.78C92.1815 317.2 87.5829 327.204 83.8203 336.999Z" fill="#AE2B39"/>
<path d="M215.509 345.127C215.509 345.127 207.775 373.68 164.506 370.345C121.237 366.802 110.367 327.204 110.367 327.204" fill="#E6BB01"/>
<path d="M234.113 427.449H70.2338C69.1886 427.449 68.3525 426.616 68.1435 425.574C68.1435 425.157 62.9177 385.767 81.9394 336.374C85.911 325.954 90.7187 315.533 96.3625 305.738C96.7806 304.904 97.6167 304.487 98.6619 304.696L221.363 329.08C221.99 329.288 222.617 329.705 222.826 330.122C223.035 330.539 227.424 339.083 231.605 353.255C236.413 369.928 241.22 396.188 236.413 425.574C235.995 426.616 234.949 427.449 234.113 427.449ZM72.115 423.281H232.232C236.413 395.354 231.814 370.553 227.215 354.506C223.871 343.252 220.526 335.54 219.272 333.04L99.0799 309.072C93.8542 318.242 89.4645 328.038 85.702 337.833C69.6067 380.349 71.2789 415.153 72.115 423.281Z" fill="#2D2B39"/>
<path d="M162.5 417C179.345 417 193 403.345 193 386.5C193 369.655 179.345 356 162.5 356C145.655 356 132 369.655 132 386.5C132 403.345 145.655 417 162.5 417Z" fill="#FFCF01"/>
<path d="M152.558 397.077C156.437 399.241 161.397 397.843 163.574 393.972L164.955 391.515L167.416 392.888C171.295 395.052 176.255 393.653 178.432 389.782C180.609 385.911 179.215 380.967 175.336 378.804C169.817 375.724 164.298 372.645 158.764 369.558L149.466 386.111C147.289 389.982 148.68 394.914 152.558 397.077Z" fill="#EE9B03"/>
<path d="M160.434 375.526L153.284 388.241C152.296 389.998 152.937 392.273 154.698 393.255C156.458 394.237 158.74 393.593 159.74 391.833L163.264 385.565L169.559 389.077C171.319 390.059 173.601 389.415 174.601 387.655C175.589 385.898 174.947 383.624 173.187 382.642C168.933 380.258 164.685 377.898 160.434 375.526Z" fill="#FFA500"/>
<path d="M166.059 395.476L173.114 399.412L162.099 402.518L166.059 395.476Z" fill="#EE9B03"/>
<path d="M170.005 400.289L162.099 402.518L165.079 397.218C163.55 399.954 170.005 400.289 170.005 400.289Z" fill="#D78E08"/>
<path d="M164.942 391.518C155.739 386.383 169.509 375.573 158.754 369.573L149.465 386.11C147.288 389.981 148.682 394.925 152.56 397.089C156.439 399.253 161.399 397.854 163.576 393.983L164.942 391.518Z" fill="#FFA500"/>
<path d="M162.989 377.988C163.391 374.868 162.872 371.869 158.755 369.572L157.608 371.612C159.814 372.569 163.243 374.609 162.989 377.988Z" fill="#D78E08"/>
<path d="M164.944 391.518C162.751 390.295 161.864 388.754 161.641 387.025C158.286 393.897 149.008 394.383 149.269 386.479C147.378 390.295 148.8 394.98 152.559 397.077C156.437 399.241 161.398 397.843 163.574 393.972L164.944 391.518Z" fill="#D78E08"/>
<path d="M164.943 391.518C158.323 386.093 168.522 379.559 165.184 373.159C163.048 371.958 160.903 370.771 158.755 369.572C169.51 375.573 155.754 386.392 164.943 391.518Z" fill="#C4830D"/>
<path d="M164.944 391.518C155.74 386.383 169.511 375.573 158.756 369.572C160.546 370.571 162.323 372.638 162.716 374.97C163.027 376.787 162.635 378.739 162.24 380.504C161.725 382.779 160.911 385.552 161.527 387.871C161.981 389.572 163.329 390.695 164.944 391.518Z" fill="#D78E08"/>
<path d="M154.407 400.828L154.661 401.283L155.065 401.332L154.746 401.584L154.77 402.116L154.525 401.647L154.121 401.598L154.44 401.345L154.407 400.828Z" fill="#FFA500"/>
<path d="M151.569 399.636L152.14 400.678L153.05 400.785L152.333 401.363L152.391 402.549L151.832 401.504L150.907 401.389L151.639 400.819L151.569 399.636Z" fill="#FFA500"/>
<path d="M149.245 376.501L149.815 377.543L150.725 377.65L150.005 378.216L150.063 379.402L149.493 378.361L148.583 378.254L149.303 377.688L149.245 376.501Z" fill="#FFA500"/>
<path d="M179.376 392.911L179.935 393.956L180.856 394.06L180.128 394.641L180.197 395.824L179.627 394.782L178.702 394.667L179.434 394.097L179.376 392.911Z" fill="#FFA500"/>
<path d="M172.906 369.429L173.871 371.199L175.431 371.385L174.198 372.36L174.3 374.373L173.348 372.599L171.787 372.413L173.021 371.439L172.906 369.429Z" fill="#FFA500"/>
<path d="M227.424 102.329C237.814 102.329 246.237 93.9313 246.237 83.5721C246.237 73.2129 237.814 64.8152 227.424 64.8152C217.034 64.8152 208.611 73.2129 208.611 83.5721C208.611 93.9313 217.034 102.329 227.424 102.329Z" fill="#00868F"/>
<path d="M227.424 104.413C215.928 104.413 206.521 95.0348 206.521 83.5722C206.521 72.1097 215.928 62.7312 227.424 62.7312C238.921 62.7312 248.328 72.1097 248.328 83.5722C248.328 95.0348 238.921 104.413 227.424 104.413ZM227.424 67.1078C218.227 67.1078 210.702 74.6106 210.702 83.7806C210.702 92.9507 218.227 100.453 227.424 100.453C236.622 100.453 244.147 92.9507 244.147 83.7806C244.147 74.4022 236.622 67.1078 227.424 67.1078Z" fill="#2D2B39"/>
<path d="M150.293 139.218C150.293 139.218 166.388 79.8209 219.691 88.3657C272.994 96.9106 252.3 170.896 252.3 170.896" fill="#00A29D"/>
<path d="M252.299 172.98C252.09 172.98 251.881 172.98 251.672 172.98C250.627 172.772 250 171.521 250.209 170.479C250.418 170.062 261.078 130.464 246.028 107.123C240.175 98.1609 231.187 92.5338 219.272 90.6581C197.951 87.3235 180.393 94.4095 166.597 111.916C156.563 125.046 152.383 139.635 152.383 139.635C152.174 140.677 150.919 141.302 149.874 141.093C148.829 140.885 148.202 139.635 148.411 138.592C148.62 137.967 165.552 77.5282 220.108 86.2815C233.277 88.3656 243.311 94.6179 249.791 104.622C265.886 129.631 254.807 169.646 254.389 171.313C254.18 172.355 253.344 172.98 252.299 172.98Z" fill="#2D2B39"/>
<path d="M234.113 151.097L301.839 117.335C301.839 117.335 293.687 88.9909 303.302 83.3638C312.918 77.5284 315.635 104.622 323.996 101.496C332.357 98.3694 312.291 72.7349 325.041 66.0658C337.792 59.3967 337.583 93.9928 344.272 91.9087C350.961 90.033 347.199 64.8153 363.294 67.5247C379.389 70.234 374.163 97.1189 352.215 112.541C330.267 127.755 247.491 178.816 247.491 178.816" fill="#B55D47"/>
<path d="M169.731 142.344L130.015 77.9454C130.015 77.9454 151.963 58.1464 146.947 48.3511C141.93 38.5558 125.208 59.8137 119.773 52.7277C114.338 45.6418 144.856 34.3876 137.54 22.0914C130.224 9.58677 112.248 39.181 107.44 33.9708C102.841 28.7605 119.146 9.37836 104.096 3.33446C89.0454 -2.91785 79.221 22.7166 89.6725 47.3091C100.333 71.6931 143.602 158.392 143.602 158.392" fill="#B55D47"/>
<path d="M247.699 180.692C247.072 180.692 246.235 180.275 245.817 179.65C245.19 178.608 245.608 177.357 246.445 176.732C247.281 176.315 329.429 125.671 350.96 110.666C365.592 100.454 372.281 85.2397 370.19 76.2781C369.354 72.3183 366.846 70.0258 362.874 69.4005C355.349 68.1501 353.259 73.9856 350.96 82.7388C349.496 87.9491 348.451 92.5341 344.689 93.5761C339.881 95.035 338 88.5743 335.909 81.2799C334.237 75.4444 332.147 68.3585 329.011 67.108C328.384 66.8996 327.548 66.6912 325.876 67.5248C320.65 70.2342 322.531 77.3201 325.458 86.6986C327.757 93.993 330.057 101.079 324.413 102.955C318.769 105.039 315.424 98.578 312.289 92.9509C310.408 89.1995 308.108 85.0313 306.018 84.4061C305.6 84.1977 304.973 84.1977 303.928 84.8229C298.075 88.3659 300.583 106.081 303.51 116.501C303.719 117.543 303.301 118.585 302.465 119.002L234.739 152.765C233.694 153.182 232.439 152.765 232.021 151.931C231.603 150.889 232.021 149.639 232.858 149.222L299.12 116.293C297.448 109.624 292.431 87.3238 301.837 81.4883C303.719 80.4463 305.391 80.0295 307.063 80.6547C311.035 81.6967 313.543 86.6986 316.052 91.2836C318.142 95.4518 320.65 100.245 322.95 99.4116C324.831 98.7864 322.95 92.9509 321.486 88.1575C318.769 79.4042 315.215 68.5669 323.786 63.9819C326.085 62.7314 328.384 62.523 330.475 63.3566C335.491 65.4407 337.582 72.9435 339.881 80.2379C340.926 83.5724 342.389 88.9911 343.644 89.6163C344.898 89.1995 345.943 85.0313 346.779 81.6967C348.66 74.4024 351.587 63.1482 363.501 65.2323C369.145 66.2744 372.908 69.8174 374.162 75.4444C376.461 85.4481 369.772 102.538 353.259 114C331.729 129.214 249.58 179.858 248.744 180.275C248.535 180.483 248.117 180.692 247.699 180.692Z" fill="#2D2B39"/>
<path d="M143.603 160.476C142.766 160.476 142.139 160.059 141.721 159.225C141.303 158.392 98.2431 72.3182 87.7916 47.9342C79.8484 29.3857 83.1929 11.4624 90.5089 4.168C94.4805 -0.000209659 99.7063 -1.04226 104.932 1.25025C116.011 5.83528 112.666 16.881 110.367 23.967C109.322 27.3015 108.067 31.2613 109.113 32.5118C110.367 32.5118 114.547 28.7604 117.056 26.4679C122.7 21.4661 128.552 16.2558 133.987 17.0894C136.287 17.5063 137.959 18.7567 139.422 21.0492C144.439 29.5941 135.659 36.8884 128.552 42.9323C124.79 46.0585 120.191 50.0183 121.445 51.6856C122.909 53.5612 127.507 50.8519 131.688 48.351C136.287 45.6417 141.094 42.9323 144.857 43.9744C146.529 44.3912 147.992 45.6417 148.828 47.5173C153.845 57.3126 137.75 73.5686 132.733 78.5705L171.404 141.094C172.031 142.136 171.613 143.386 170.777 144.011C169.731 144.637 168.477 144.22 167.85 143.386L128.134 78.9873C127.507 78.1537 127.716 77.1116 128.552 76.278C136.496 68.9836 147.992 55.2285 144.857 49.1846C144.23 48.1426 143.812 47.9342 143.394 47.7258C141.303 47.1005 137.123 49.6015 133.36 51.6856C127.716 55.0201 121.445 58.7715 117.683 53.9781C114.129 49.1846 119.564 44.5996 125.417 39.5978C133.151 33.137 138.377 28.1352 135.241 23.1333C134.196 21.4661 133.36 21.2576 132.733 21.0492C129.389 20.6324 123.745 25.4259 119.355 29.5941C113.711 34.5959 108.695 38.9725 105.559 35.4296C103.051 32.5118 104.305 28.1352 105.977 22.9249C108.695 14.1717 109.949 8.12779 102.842 5.21005C99.0792 3.75118 95.7347 4.37641 93.0173 7.29415C86.5374 13.7549 84.238 30.2193 91.136 46.4753C101.588 70.6509 144.439 156.933 144.857 157.766C145.275 158.808 144.857 160.059 143.812 160.476C144.23 160.476 143.812 160.476 143.603 160.476Z" fill="#2D2B39"/>
<path d="M234.322 152.348C234.322 152.348 225.961 107.748 207.357 101.079C193.561 96.0769 193.561 117.752 193.561 117.752C193.561 117.752 189.59 105.455 179.347 107.748C169.105 110.04 173.912 133.799 173.912 133.799" fill="#862D43"/>
<path d="M234.322 154.432C233.277 154.432 232.44 153.807 232.231 152.765C232.231 152.348 223.87 109.415 206.521 103.163C204.012 102.329 201.922 102.329 200.25 103.58C196.278 106.289 195.442 114.834 195.442 117.96C195.442 119.002 194.606 119.836 193.77 120.044C192.725 120.253 191.68 119.627 191.471 118.585C191.262 118.168 187.917 108.165 179.765 110.04C173.076 111.499 174.748 127.964 176.002 133.591C176.211 134.633 175.584 135.883 174.33 136.092C173.285 136.3 172.031 135.675 171.822 134.424C171.195 131.715 167.014 108.582 178.929 106.081C184.991 104.622 189.38 107.748 192.307 111.291C193.143 107.331 194.815 102.746 198.16 100.454C200.877 98.5779 204.221 98.1611 208.193 99.6199C227.842 106.706 236.203 150.472 236.621 152.348C236.83 153.39 235.994 154.64 234.949 154.849C234.531 154.432 234.531 154.432 234.322 154.432Z" fill="#2D2B39"/>
<path d="M147.576 144.428C147.576 144.428 153.429 102.746 93.4373 80.2375C61.6647 123.378 81.7316 157.558 121.238 159.642" fill="#FFA500"/>
<path d="M121.238 161.726C101.38 160.684 86.1209 151.722 79.4319 137.551C71.6978 121.086 76.0874 100.453 91.9737 78.9872C92.6008 78.1536 93.4369 77.9452 94.4821 78.362C126.046 90.2414 139.424 107.539 145.067 120.044C151.338 133.591 149.875 144.428 149.875 144.845C149.666 145.887 148.621 146.721 147.576 146.721C146.531 146.512 145.694 145.47 145.694 144.428C145.903 142.761 150.293 104.83 94.4821 82.947C80.4771 102.538 76.5055 121.503 83.4035 136.092C89.4654 149.013 103.47 156.933 121.656 157.975C122.91 157.975 123.746 159.017 123.537 160.267C123.119 160.892 122.283 161.726 121.238 161.726Z" fill="#2D2B39"/>
<path d="M130.017 145.887C130.017 145.887 126.882 114.417 100.962 101.287C87.1662 124.837 107.233 148.179 130.017 145.887Z" fill="#FFECCA"/>
<path d="M278.427 282.187C266.513 314.283 241.847 342.418 193.143 347.42C115.175 355.339 66.0526 319.076 44.5225 282.604C33.2349 263.639 29.4724 244.673 33.0259 231.752C44.5225 190.07 86.5376 191.737 86.5376 191.737L106.604 142.552C193.979 96.9105 286.37 177.357 286.37 177.357C286.37 177.357 296.613 234.045 278.427 282.187Z" fill="#FFA500"/>
<path d="M228.888 199.032C227.006 199.032 225.334 198.198 224.289 196.531C215.51 181.525 199.623 185.277 198.996 185.485C196.279 186.11 193.352 184.443 192.725 181.734C192.098 179.024 193.561 176.107 196.488 175.481C204.849 173.189 223.244 173.814 233.486 191.321C234.949 193.822 234.113 196.948 231.605 198.407C230.769 198.823 229.933 199.032 228.888 199.032Z" fill="#892B34"/>
<path d="M134.406 167.979C133.152 167.979 131.689 167.562 130.644 166.52C129.808 165.686 122.701 159.225 113.085 165.686C110.786 167.353 107.441 166.728 105.769 164.227C104.097 161.935 104.724 158.6 107.232 156.933C120.819 147.763 133.361 154.223 137.96 159.017C140.05 161.101 140.05 164.436 137.96 166.311C137.124 167.353 135.661 167.979 134.406 167.979Z" fill="#892B34"/>
<path d="M210.701 244.882C208.402 263.014 245.818 267.807 247.073 249.675C248.327 231.335 214.046 220.29 210.701 244.882Z" fill="#FF3F69"/>
<path opacity="0.2" d="M278.428 282.188C266.513 314.283 241.848 342.418 193.144 347.42C115.176 355.34 66.0535 319.076 44.5234 282.604C68.98 305.738 121.237 340.959 200.251 318.659C235.368 308.864 260.452 295.734 278.428 282.188Z" fill="#AE2B39"/>
<path d="M167.223 142.553C161.161 138.801 151.337 157.975 155.935 160.267C161.997 163.394 173.494 146.304 167.223 142.553Z" fill="#FF7C00"/>
<path d="M190.426 147.346C183.319 146.929 183.946 168.396 188.963 168.396C195.861 168.187 197.533 147.763 190.426 147.346Z" fill="#FF7C00"/>
<path d="M179.557 140.052C172.45 138.384 169.523 159.642 174.54 160.476C181.229 161.518 186.455 141.719 179.557 140.052Z" fill="#FF7C00"/>
<path d="M171.613 350.546C89.2556 350.546 52.4663 300.111 42.8509 283.438C31.7723 264.681 27.3827 244.882 31.1452 230.919C41.5967 192.571 77.5499 189.653 85.284 189.445L104.515 141.927C104.724 141.511 105.142 141.094 105.56 140.885C193.144 95.035 286.58 175.065 287.625 175.898C288.043 176.107 288.252 176.732 288.252 177.149C288.252 177.774 298.286 235.087 280.309 283.021C265.468 322.828 236.204 345.127 193.353 349.504C185.827 350.129 178.511 350.546 171.613 350.546ZM85.9111 193.613C79.8492 193.613 45.3592 195.28 35.3258 232.169C31.7723 244.882 36.1619 263.847 46.6134 281.562C56.8559 299.069 97.8258 355.131 193.144 345.336C234.322 341.168 262.332 319.701 276.547 281.562C293.06 237.588 285.535 185.485 284.49 178.608C276.756 172.147 189.799 102.329 108.486 144.22L89.0465 192.363C88.6285 193.196 88.0014 193.822 86.9562 193.613C86.7472 193.613 86.3291 193.613 85.9111 193.613Z" fill="#2D2B39"/>
<path d="M258.361 170.063C258.361 170.063 273.83 131.09 337.166 140.677C343.646 194.03 309.365 213.829 273.83 196.322" fill="#FFA500"/>
<path d="M272.994 179.858C272.994 179.858 291.18 154.015 320.444 155.265C320.653 182.567 291.598 193.196 272.994 179.858Z" fill="#FFECCA"/>
<path d="M298.287 204.659C290.134 204.659 281.564 202.575 272.785 198.198C271.74 197.781 271.322 196.531 271.74 195.489C272.158 194.447 273.412 194.03 274.457 194.447C290.762 202.575 306.857 202.366 318.563 194.238C331.731 184.86 337.584 166.52 335.076 142.552C275.502 134.008 260.243 170.479 260.243 170.896C259.825 171.938 258.571 172.564 257.526 172.147C256.481 171.73 255.854 170.479 256.272 169.437C256.481 169.021 273.203 129.006 337.375 138.801C338.211 139.009 339.047 139.635 339.047 140.677C342.183 167.145 335.912 187.361 321.071 197.781C314.591 202.366 306.648 204.659 298.287 204.659Z" fill="#2D2B39"/>
<path d="M144.65 269.474C112.25 269.474 90.9289 251.551 90.7198 251.343C89.8837 250.509 89.6747 249.259 90.5108 248.425C91.3469 247.591 92.6011 247.383 93.4372 248.216C93.8553 248.633 130.854 279.478 180.812 257.595C181.857 257.178 183.111 257.595 183.529 258.637C183.947 259.679 183.529 260.93 182.484 261.346C168.688 267.39 155.937 269.474 144.65 269.474Z" fill="#2D2B39"/>
<path d="M92.183 203.617C82.9857 212.787 95.7366 226.959 104.516 229.877C114.549 233.211 132.526 225.083 131.69 216.538C131.063 208.202 96.3636 199.449 92.183 203.617Z" fill="#862D43"/>
<path d="M98.0361 207.993C96.1548 210.703 118.939 217.58 120.402 214.663C122.075 211.745 102.217 202.366 98.0361 207.993Z" fill="white"/>
<path d="M195.235 265.306C178.722 265.306 175.378 251.759 175.378 251.759C175.168 250.717 175.796 249.467 177.05 249.258C178.095 249.05 179.349 249.675 179.558 250.926C179.767 251.343 182.276 261.763 196.071 261.346C197.326 261.346 198.162 262.18 198.162 263.43C198.162 264.681 197.326 265.515 196.071 265.515C195.653 265.306 195.444 265.306 195.235 265.306Z" fill="#2D2B39"/>
<path d="M100.336 196.948C98.8724 196.948 97.4092 195.906 97.2002 194.238C96.9912 192.571 98.0363 190.904 99.9176 190.695L110.578 189.028L103.471 180.275C102.426 179.233 102.635 177.149 103.889 176.107C105.143 175.065 107.234 175.273 108.279 176.523L118.73 189.445C119.357 190.279 119.566 191.529 119.148 192.571C118.73 193.613 117.894 194.447 116.64 194.447L100.545 196.948C100.545 196.948 100.545 196.948 100.336 196.948Z" fill="#2D2B39"/>
<path d="M203.595 225.5C202.968 225.5 202.132 225.291 201.713 224.875L184.782 211.328C183.946 210.703 183.528 209.452 183.737 208.41C183.946 207.368 184.573 206.326 185.618 205.909L205.685 197.573C207.357 196.948 209.03 197.573 209.866 199.24C210.493 200.907 209.866 202.575 208.193 203.408L192.934 209.661L205.685 219.873C206.939 220.915 207.148 222.999 206.103 224.249C205.267 225.083 204.431 225.5 203.595 225.5Z" fill="#2D2B39"/>
</g>
<defs>
<clipPath id="clip0_180_7407">
<rect width="375" height="427" fill="white"/>
</clipPath>
</defs>
</svg>
