<svg width="387" height="425" viewBox="0 0 387 425" fill="none" xmlns="http://www.w3.org/2000/svg">
<g clip-path="url(#clip0_180_7241)">
<path d="M228.048 391.285L231.184 342.503C231.184 342.503 276.628 362.316 303.022 375.333C309.516 378.64 314.963 381.326 318.107 383.397C334.455 393.539 324.948 418.798 317.432 421.122C315.136 421.757 306.137 419.295 294.624 415.593C268.04 406.953 228.048 391.285 228.048 391.285Z" fill="#FFA500"/>
<path d="M294.624 415.593L303.022 375.333C309.516 378.64 314.962 381.326 318.107 383.397C334.455 393.539 324.947 418.798 317.432 421.122C315.135 421.757 306.137 419.295 294.624 415.593Z" fill="#862D43"/>
<path d="M231.174 340.419C230.338 340.423 229.504 340.843 229.298 341.678C228.885 342.721 229.308 343.97 230.355 344.382C230.774 344.589 276.009 364.195 302.194 377.212C309.316 380.725 314.135 383.414 317.068 385.068C325.452 390.243 325.49 399.204 324.884 404.001C323.873 412.133 319.51 418.196 317.004 418.832C316.378 419.043 313.033 419.057 295.45 413.297C269.076 404.865 229.502 389.195 229.083 388.988C228.036 388.576 226.783 388.998 226.371 390.25C225.957 391.294 226.381 392.543 227.636 392.954C228.055 393.161 267.838 408.621 294.213 417.262C312.214 423.02 316.396 423.211 318.275 422.786C323.076 421.307 327.849 413.158 329.066 404.399C330.486 394.39 326.897 386.068 319.352 381.307C316.417 379.444 311.598 376.755 304.058 373.245C277.873 360.227 232.429 340.622 232.01 340.415C231.801 340.416 231.592 340.417 231.174 340.419Z" fill="#2D2B39"/>
<path d="M78.7435 422.964C78.7435 422.964 175.392 422.964 238.264 422.964C242.74 394.861 238.467 370.017 233.788 353.115C229.718 339.267 225.445 330.918 225.445 330.918L105.805 306.888C100.108 317.07 95.6315 327.048 91.969 336.62C73.4533 385.086 78.7435 422.964 78.7435 422.964Z" fill="#FFA500"/>
<path d="M202.453 330.714C202.453 330.714 211.202 371.646 207.743 422.76C182.106 422.76 142.633 422.76 142.633 422.76C142.633 422.76 139.581 368.591 153.824 306.888" fill="#FFECCA"/>
<path opacity="0.2" d="M91.9697 336.62C160.743 414.818 215.476 372.053 233.585 353.115C229.515 339.267 225.243 330.918 225.243 330.918L105.806 306.888C100.109 317.07 95.6322 327.048 91.9697 336.62Z" fill="#AE2B39"/>
<path d="M220.155 344.358C220.155 344.358 212.627 372.257 170.508 368.998C128.39 365.74 117.81 327.048 117.81 327.048" fill="#E6BB01"/>
<path d="M171.5 413C188.345 413 202 399.344 202 382.5C202 365.655 188.345 352 171.5 352C154.655 352 141 365.655 141 382.5C141 399.344 154.655 413 171.5 413Z" fill="#FFCF01"/>
<path d="M161.558 393.077C165.437 395.241 170.397 393.842 172.574 389.971L173.955 387.514L176.416 388.888C180.295 391.051 185.255 389.653 187.432 385.782C189.609 381.911 188.215 376.967 184.336 374.803C178.817 371.724 173.298 368.645 167.764 365.557L158.466 382.11C156.289 385.981 157.68 390.913 161.558 393.077Z" fill="#EE9B03"/>
<path d="M169.435 371.526L162.285 384.241C161.297 385.998 161.938 388.272 163.699 389.254C165.459 390.236 167.741 389.593 168.741 387.833L172.265 381.564L178.56 385.076C180.32 386.058 182.602 385.415 183.602 383.655C184.59 381.898 183.948 379.623 182.188 378.641C177.934 376.258 173.686 373.898 169.435 371.526Z" fill="#FFA500"/>
<path d="M175.059 391.475L182.115 395.412L171.1 398.518L175.059 391.475Z" fill="#EE9B03"/>
<path d="M179.006 396.289L171.099 398.518L174.08 393.218C172.551 395.954 179.006 396.289 179.006 396.289Z" fill="#D78E08"/>
<path d="M173.944 387.518C164.741 382.383 178.511 371.572 167.756 365.572L158.467 382.11C156.29 385.981 157.684 390.925 161.562 393.088C165.44 395.252 170.401 393.854 172.578 389.983L173.944 387.518Z" fill="#FFA500"/>
<path d="M171.99 373.987C172.392 370.867 171.873 367.869 167.756 365.572L166.609 367.612C168.815 368.568 172.244 370.608 171.99 373.987Z" fill="#D78E08"/>
<path d="M173.944 387.518C171.751 386.294 170.864 384.753 170.641 383.025C167.286 389.896 158.008 390.382 158.269 382.479C156.378 386.294 157.8 390.98 161.559 393.077C165.437 395.241 170.398 393.842 172.574 389.971L173.944 387.518Z" fill="#D78E08"/>
<path d="M173.944 387.518C167.324 382.093 177.523 375.559 174.185 369.159C172.049 367.957 169.904 366.771 167.756 365.572C178.511 371.572 164.755 382.391 173.944 387.518Z" fill="#C4830D"/>
<path d="M173.945 387.517C164.741 382.383 178.512 371.572 167.757 365.572C169.547 366.571 171.324 368.638 171.717 370.97C172.028 372.786 171.636 374.738 171.241 376.503C170.726 378.778 169.912 381.551 170.528 383.87C170.982 385.571 172.33 386.695 173.945 387.517Z" fill="#D78E08"/>
<path d="M163.408 396.828L163.662 397.282L164.066 397.331L163.747 397.584L163.771 398.116L163.526 397.646L163.122 397.597L163.441 397.345L163.408 396.828Z" fill="#FFA500"/>
<path d="M160.57 395.636L161.141 396.678L162.051 396.784L161.334 397.362L161.392 398.549L160.833 397.503L159.908 397.388L160.64 396.819L160.57 395.636Z" fill="#FFA500"/>
<path d="M158.245 372.501L158.815 373.543L159.725 373.649L159.005 374.216L159.063 375.402L158.493 374.36L157.583 374.253L158.303 373.687L158.245 372.501Z" fill="#FFA500"/>
<path d="M188.378 388.91L188.937 389.956L189.858 390.059L189.13 390.64L189.199 391.823L188.629 390.782L187.704 390.666L188.436 390.097L188.378 388.91Z" fill="#FFA500"/>
<path d="M181.906 365.428L182.871 367.199L184.431 367.385L183.198 368.359L183.3 370.372L182.348 368.599L180.787 368.413L182.021 367.438L181.906 365.428Z" fill="#FFA500"/>
<path d="M238.264 425H78.7437C77.7263 425 76.9125 424.185 76.709 423.167C76.709 422.76 71.6222 384.272 90.138 336.009C94.0039 325.827 98.6838 315.644 104.177 306.073C104.584 305.259 105.398 304.851 106.416 305.055L225.853 328.881C226.463 329.085 227.073 329.492 227.277 329.899C227.48 330.307 231.753 338.656 235.823 352.504C240.502 368.795 245.182 394.454 240.502 423.167C240.095 424.185 239.282 425 238.264 425ZM80.5749 420.927H236.433C240.502 393.639 236.026 369.406 231.55 353.725C228.294 342.729 225.039 335.194 223.818 332.75L106.823 309.332C101.736 318.292 97.4629 327.863 93.8005 337.434C78.1333 378.977 79.761 412.781 80.5749 420.927Z" fill="#2D2B39"/>
<path d="M247.014 157.822L314.362 127.683C314.362 127.683 307.648 99.7844 317.211 94.4897C326.774 89.195 328.402 115.668 336.744 113.021C345.086 110.374 326.57 84.5112 339.389 78.402C352.208 72.2927 350.376 106.097 357.091 104.468C363.805 102.839 361.16 78.1983 376.624 81.4566C392.088 84.7149 385.984 110.781 364.009 124.832C342.034 138.884 259.425 185.11 259.425 185.11" fill="#B55D47"/>
<path d="M188.617 153.342L198.791 80.2347C198.791 80.2347 227.48 78.8092 229.922 68.2199C232.363 57.6305 206.523 63.3325 206.726 54.7795C206.93 46.0229 237.043 56.6123 239.281 42.561C241.52 28.7134 209.575 39.71 209.371 32.9899C209.168 26.2697 233.381 21.7896 225.852 7.73831C218.324 -6.31296 195.128 6.92375 187.804 32.1753C180.479 57.2232 159.114 149.473 159.114 149.473" fill="#B55D47"/>
<path d="M259.221 187.147C258.407 187.147 257.797 186.739 257.39 186.128C256.779 185.11 257.186 183.888 258.204 183.277C259.018 182.87 341.016 136.847 362.584 123.203C377.234 113.836 384.355 99.377 382.727 90.6204C382.117 86.7512 379.675 84.3075 376.013 83.4929C368.688 81.8638 366.45 87.5658 363.805 96.1187C362.177 101.21 360.956 105.69 357.294 106.504C352.614 107.726 350.986 101.413 349.358 94.2859C347.934 88.584 346.306 81.4565 343.254 80.031C342.644 79.8274 341.83 79.6238 340.202 80.2347C335.115 82.6784 336.54 89.6022 338.981 98.9697C341.016 106.301 342.847 113.021 337.354 114.854C331.656 116.687 328.808 110.17 325.959 104.468C324.128 100.802 322.297 96.526 320.059 95.7114C319.652 95.5078 319.041 95.5078 318.024 96.1187C312.123 99.377 313.751 116.89 316.193 127.072C316.396 128.09 315.989 128.905 314.972 129.312L247.623 159.451C246.606 159.859 245.385 159.451 244.978 158.433C244.571 157.415 244.978 156.193 245.996 155.786L311.716 126.258C310.292 119.537 306.426 97.7479 315.786 92.4532C317.617 91.435 319.245 91.2313 321.076 91.8422C324.942 93.0641 327.18 97.9515 329.418 102.635C331.453 106.708 333.488 111.595 335.726 110.781C337.557 110.17 335.929 104.468 334.708 99.7843C332.267 91.0277 329.418 80.4383 337.964 76.1618C340.406 74.94 342.644 74.94 344.475 75.9582C349.155 78.1983 350.986 85.733 352.817 92.8604C353.631 96.1187 354.852 101.617 356.073 102.228C357.294 101.821 358.514 97.9515 359.532 94.6932C361.77 87.5658 365.026 76.7728 376.42 79.2165C381.914 80.4383 385.373 84.1039 386.39 89.6022C388.221 99.5806 381.1 115.872 364.415 126.461C342.644 140.309 260.645 186.332 259.832 186.739C259.832 187.146 259.425 187.147 259.221 187.147Z" fill="#2D2B39"/>
<path d="M188.617 155.379H188.414C187.396 155.175 186.582 154.157 186.582 153.138L196.756 80.0312C196.959 79.0129 197.773 78.402 198.587 78.1984C209.168 77.7911 226.259 74.5328 227.683 67.8127C227.887 66.5908 227.683 66.1835 227.48 65.7762C226.259 63.9435 221.579 63.3325 217.51 62.518C211.202 61.4998 204.284 60.4816 204.488 54.576C204.691 48.874 211.813 48.6703 219.341 48.4667C229.108 48.2631 236.229 47.6521 237.043 42.1538C237.247 40.321 236.84 39.5065 236.433 39.0992C234.194 36.6555 226.87 36.8591 221.172 37.2664C213.847 37.6737 207.336 37.8773 207.133 32.9899C206.929 29.3244 210.795 26.6771 215.272 23.8261C222.8 18.9387 227.48 15.2731 224.021 8.55295C222.19 5.09104 219.341 3.66555 215.272 4.07283C206.523 5.09104 194.518 15.884 189.635 32.5827C182.513 57.2233 161.352 148.862 161.149 149.677C160.945 150.695 159.724 151.509 158.707 151.102C157.69 150.898 156.876 149.677 157.283 148.658C157.486 147.64 178.647 56.0014 185.972 31.1572C191.466 12.2185 205.098 0.814569 215.068 -0.203639C220.562 -0.814564 225.038 1.62914 227.683 6.51653C233.177 16.9023 223.817 23.0115 217.713 27.0843C214.865 28.9171 211.406 31.1572 211.406 32.5827C212.22 33.3972 217.917 32.9899 221.172 32.9899C228.497 32.5827 236.229 32.379 239.688 36.2482C241.112 37.8773 241.723 40.1174 241.316 42.5611C239.892 51.9286 228.701 52.1323 219.748 52.3359C214.865 52.3359 208.964 52.5395 208.964 54.3723C208.964 56.6124 214.051 57.4269 218.527 58.2415C223.614 59.0561 228.904 59.8706 231.142 63.1289C232.16 64.5544 232.363 66.3872 231.956 68.2199C229.515 78.8093 207.54 81.253 200.622 81.6603L190.652 153.138C190.448 154.564 189.635 155.379 188.617 155.379Z" fill="#2D2B39"/>
<path d="M235.212 169.226C235.212 169.226 236.636 125.036 220.155 114.65C207.947 107.115 203.471 127.683 203.471 127.683C203.471 127.683 202.25 115.057 192.077 115.261C181.903 115.261 181.496 138.883 181.496 138.883" fill="#862D43"/>
<path d="M235.211 171.263C233.99 171.263 233.176 170.244 233.176 169.226C233.176 168.819 234.397 126.054 219.137 116.483C216.899 115.058 214.864 114.854 213.236 115.465C208.963 117.298 206.318 125.24 205.708 128.091C205.504 129.109 204.487 129.72 203.673 129.72C202.656 129.72 201.842 128.905 201.842 127.887C201.842 127.48 200.621 117.094 192.482 117.298C185.768 117.298 183.937 133.385 183.937 138.884C183.937 139.902 182.919 140.92 181.902 140.92C180.681 140.92 179.867 139.902 179.867 138.884C179.867 136.236 180.681 113.225 192.482 113.225C198.586 113.225 202.045 116.89 204.08 120.963C205.708 117.501 208.15 113.428 212.015 111.799C215.067 110.578 218.323 110.985 221.782 113.021C239.077 123.814 237.856 167.393 237.856 169.226C237.246 170.448 236.432 171.263 235.211 171.263Z" fill="#2D2B39"/>
<path d="M163.183 147.64C163.183 147.64 170.508 107.319 113.333 82.6787C80.574 123.611 98.6828 157.619 136.935 161.488" fill="#FFA500"/>
<path d="M136.936 163.524C117.606 161.692 103.16 152.324 97.0554 138.069C90.1374 121.778 95.4277 101.617 111.705 81.4568C112.316 80.8458 113.333 80.4385 114.147 80.8458C144.464 93.8789 156.672 111.392 161.759 123.611C167.253 137.255 165.421 147.64 165.421 148.048C165.218 149.066 164.201 149.88 162.98 149.677C161.962 149.473 161.148 148.455 161.352 147.233C161.555 145.604 167.456 108.745 114.147 85.1223C99.7005 103.654 95.0207 121.981 101.125 136.44C106.415 149.269 119.641 157.619 137.342 159.248C138.36 159.451 139.377 160.266 139.174 161.488C138.767 162.71 137.953 163.524 136.936 163.524Z" fill="#2D2B39"/>
<path d="M146.091 148.251C146.091 148.251 144.26 117.501 119.64 103.45C105.194 125.851 123.913 149.677 146.091 148.251Z" fill="#FFECCA"/>
<path d="M284.655 287.746C271.633 318.495 246.402 344.969 198.994 347.82C122.896 352.3 76.7084 314.83 57.1753 278.174C47.0018 259.236 44.1532 240.501 48.2226 227.875C61.0412 187.554 102.142 191.016 102.142 191.016L123.507 144.178C210.388 103.246 296.863 185.721 296.863 185.721C296.863 185.721 304.391 241.519 284.655 287.746Z" fill="#FFA500"/>
<path d="M97.0551 211.584C87.6955 220.34 99.4967 234.595 107.839 237.853C117.402 241.519 135.104 234.391 134.901 226.042C134.697 217.693 101.124 207.714 97.0551 211.584Z" fill="#862D43"/>
<path d="M102.549 216.064C100.514 218.711 122.489 226.246 124.117 223.395C125.745 220.748 106.822 210.769 102.549 216.064Z" fill="white"/>
<path d="M248.844 194.274C246.81 194.274 244.775 193.052 243.961 190.812C238.264 174.724 222.393 175.539 221.783 175.539C218.934 175.743 216.493 173.503 216.493 170.855C216.289 168.004 218.324 165.561 221.172 165.357C229.515 164.746 247.013 168.615 253.728 187.35C254.745 189.998 253.321 192.849 250.675 193.867C249.862 194.274 249.251 194.274 248.844 194.274Z" fill="#892B34"/>
<path d="M212.016 235.817C206.523 266.974 270.819 278.174 274.278 246.61C277.737 215.045 219.545 193.256 212.016 235.817Z" fill="#FF3F69"/>
<path opacity="0.2" d="M284.654 287.745C271.632 318.495 246.402 344.969 198.993 347.82C122.896 352.3 76.7079 314.83 57.1748 278.174C79.9634 302 129.203 338.452 206.929 320.124C241.519 311.979 266.545 300.168 284.654 287.745Z" fill="#AE2B39"/>
<path d="M182.513 146.622C176.612 142.753 166.439 161.08 170.712 163.524C176.612 166.782 188.414 150.491 182.513 146.622Z" fill="#FF7C00"/>
<path d="M204.692 152.324C197.774 151.713 197.57 172.688 202.454 172.688C209.168 172.892 211.813 152.935 204.692 152.324Z" fill="#FF7C00"/>
<path d="M194.518 144.789C187.803 142.956 183.938 163.524 188.617 164.542C195.332 165.764 201.233 146.622 194.518 144.789Z" fill="#FF7C00"/>
<path d="M186.786 350.06C100.311 350.06 64.7037 296.095 55.5475 278.989C45.5775 260.05 42.1185 240.704 46.3914 227.264C58.1926 190.405 93.1895 188.776 100.921 188.979L121.675 143.364C121.879 142.956 122.286 142.549 122.693 142.345C209.778 101.21 297.27 183.481 298.287 184.296C298.694 184.703 298.898 185.11 298.898 185.517C298.898 186.128 306.223 242.333 286.689 288.56C270.412 326.845 241.112 347.413 199.197 349.856C194.925 349.856 190.652 350.06 186.786 350.06ZM99.4971 193.052C90.5444 193.052 60.8378 195.7 50.4608 228.486C46.5948 240.908 49.8504 259.439 59.21 277.156C67.9592 293.855 102.549 345.987 186.786 345.987C190.855 345.987 194.925 345.783 198.994 345.58C239.078 343.34 267.36 323.586 282.824 286.727C300.729 244.37 295.642 193.256 294.828 186.536C287.503 179.815 205.912 107.93 125.134 145.604L103.973 191.83C103.566 192.645 102.753 193.052 101.939 193.052C101.735 193.052 100.921 193.052 99.4971 193.052Z" fill="#2D2B39"/>
<path d="M269.801 177.372C269.801 177.372 286.485 139.902 347.73 151.917C351.799 204.252 317.616 222.173 283.84 203.641" fill="#FFA500"/>
<path d="M283.637 187.554C283.637 187.554 302.559 163.117 330.638 165.561C330.028 192.238 301.135 201.402 283.637 187.554Z" fill="#FFECCA"/>
<path d="M309.071 212.805C300.729 212.805 291.573 210.362 282.62 205.474C281.603 204.863 281.196 203.642 281.806 202.623C282.417 201.605 283.638 201.198 284.655 201.809C300.322 210.362 315.786 210.973 327.587 203.438C340.813 194.885 347.324 177.168 345.696 153.749C288.317 142.956 272.243 176.761 271.633 178.186C271.226 179.205 270.005 179.612 268.988 179.205C267.97 178.797 267.563 177.575 267.97 176.557C268.174 176.15 286.079 137.662 348.138 150.084C348.951 150.287 349.765 151.102 349.765 151.917C351.8 177.779 344.679 197.329 329.825 206.9C323.721 210.769 316.6 212.805 309.071 212.805Z" fill="#2D2B39"/>
<path d="M152.603 153.342C151.178 153.342 149.754 152.731 148.737 151.509C147.719 150.288 138.563 140.92 124.117 149.88C121.675 151.306 118.623 150.491 117.199 148.251C115.775 145.807 116.588 142.753 118.827 141.327C136.732 130.331 151.178 139.087 156.469 144.993C158.3 147.029 158.096 150.288 155.858 152.12C154.841 153.139 153.823 153.342 152.603 153.342Z" fill="#892B34"/>
<path d="M54.3265 143.364C54.3265 156.6 43.7461 167.19 30.5205 167.19C43.7461 167.19 54.3265 177.779 54.3265 191.016C54.3265 177.779 64.9069 167.19 78.1325 167.19C64.9069 167.19 54.3265 156.397 54.3265 143.364Z" fill="#FFCF01"/>
<path d="M330.64 241.926C330.64 255.163 320.06 265.752 306.834 265.752C320.06 265.752 330.64 276.342 330.64 289.578C330.64 276.342 341.22 265.752 354.446 265.752C341.424 265.752 330.64 254.959 330.64 241.926Z" fill="#FFCF01"/>
<path d="M319.652 221.562C319.652 226.449 315.582 230.522 310.699 230.522C315.582 230.522 319.652 234.391 319.652 239.482C319.652 234.595 323.721 230.522 328.605 230.522C323.518 230.319 319.652 226.449 319.652 221.562Z" fill="#FFCF01"/>
<path d="M169.898 166.172C163.997 160.266 103.363 135.625 92.7825 146.622C85.0507 154.564 80.7778 184.703 85.0507 193.867C89.3236 203.031 141.615 222.784 150.161 214.638C158.503 206.289 176.002 171.874 169.898 166.172ZM143.854 206.493C137.342 212.806 97.6658 197.736 94.4103 190.812C91.1548 183.888 94.4103 160.877 100.311 154.768C108.45 146.418 154.434 165.153 158.91 169.634C163.59 173.91 150.365 200.18 143.854 206.493Z" fill="#2D2B39"/>
<path d="M157.893 181.648C154.637 190.812 147.923 202.42 144.057 206.289C137.546 212.602 97.8692 197.532 94.6137 190.609C93.3928 187.961 92.9859 183.277 93.3928 178.186C94.0032 169.226 96.6484 158.637 100.311 154.768C108.45 146.418 154.434 165.153 158.91 169.633C160.741 171.263 159.928 175.946 157.893 181.648Z" fill="#62AAEF"/>
<path d="M131.156 187.761C132.71 182.982 130.062 177.841 125.279 176.326C123.858 175.876 123.095 174.307 123.652 172.897C124.123 171.706 125.422 171.033 126.666 171.333C127.637 171.568 128.334 172.31 128.568 173.195C128.826 174.168 129.538 174.956 130.497 175.259L130.609 175.295C132.794 175.987 134.889 174.012 134.33 171.789C133.787 169.631 132.411 167.723 130.451 166.546L130.606 166.057C130.936 165.016 130.359 163.904 129.318 163.574C128.277 163.245 127.166 163.821 126.836 164.862L126.681 165.352C122.836 165.071 119.149 167.447 117.935 171.28C116.515 175.761 119.006 180.562 123.487 181.981C125.205 182.525 126.125 184.425 125.441 186.129C124.87 187.55 123.323 188.353 121.832 188.002C120.587 187.708 119.712 186.722 119.48 185.57C119.269 184.522 118.494 183.676 117.474 183.353C115.317 182.67 113.215 184.558 113.673 186.774C114.186 189.261 115.735 191.476 117.99 192.787L117.839 193.264C117.509 194.305 118.086 195.416 119.127 195.746C120.168 196.076 121.279 195.499 121.609 194.458L121.76 193.981C125.862 194.333 129.834 191.824 131.156 187.761Z" fill="white"/>
<path d="M182.92 225.024C184.954 236.632 238.874 251.09 247.827 246.203C256.779 241.315 270.819 214.231 269.191 203.234C266.953 188.165 203.47 172.688 195.128 173.91C186.989 175.335 180.885 213.416 182.92 225.024ZM202.046 183.277C208.354 182.259 256.576 194.07 258.407 205.474C259.628 213.824 248.844 234.392 242.13 238.057C235.415 241.723 194.314 230.726 192.89 221.969C191.262 213.213 195.738 184.092 202.046 183.277Z" fill="#2D2B39"/>
<path d="M252.506 224.82C249.25 230.93 245.181 236.224 242.129 238.057C235.414 241.723 194.314 230.726 192.889 221.969C192.075 216.878 193.093 204.66 195.534 195.292C197.162 188.776 199.604 183.481 202.045 183.074C208.353 182.056 256.575 193.867 258.407 205.271C259.017 209.955 256.168 217.897 252.506 224.82Z" fill="#62AAEF"/>
<path d="M229.156 218.761C230.71 213.982 228.062 208.841 223.279 207.326C221.858 206.875 221.095 205.307 221.652 203.897C222.123 202.706 223.422 202.032 224.666 202.333C225.637 202.567 226.334 203.31 226.568 204.195C226.826 205.168 227.538 205.955 228.497 206.259L228.609 206.294C230.794 206.987 232.889 205.012 232.33 202.788C231.787 200.631 230.411 198.723 228.451 197.546L228.606 197.056C228.936 196.015 228.359 194.904 227.318 194.574C226.277 194.244 225.166 194.821 224.836 195.862L224.681 196.352C220.836 196.071 217.149 198.447 215.935 202.28C214.515 206.761 217.006 211.561 221.487 212.981C223.205 213.525 224.125 215.425 223.441 217.128C222.87 218.55 221.323 219.353 219.832 219.001C218.587 218.707 217.712 217.722 217.48 216.57C217.269 215.522 216.494 214.676 215.474 214.353C213.317 213.67 211.215 215.558 211.673 217.774C212.186 220.261 213.735 222.475 215.99 223.787L215.839 224.264C215.509 225.305 216.086 226.416 217.127 226.746C218.168 227.076 219.279 226.499 219.609 225.458L219.76 224.98C223.862 225.333 227.834 222.824 229.156 218.761Z" fill="white"/>
<path opacity="0.2" d="M157.893 181.648C150.771 176.15 141.208 170.855 128.796 167.19C95.8342 157.822 93.3926 177.983 93.3926 177.983C94.003 169.023 96.6481 158.433 100.311 154.564C108.449 146.215 154.434 164.95 158.91 169.43C160.741 171.263 159.927 175.946 157.893 181.648Z" fill="#AE2B39"/>
<path opacity="0.2" d="M252.507 224.82C251.489 220.951 245.996 204.864 226.463 197.94C216.493 194.478 205.098 194.274 195.535 195.292C197.163 188.776 199.605 183.481 202.046 183.074C208.354 182.056 256.576 193.867 258.407 205.271C259.018 209.955 256.169 217.897 252.507 224.82Z" fill="#AE2B39"/>
<path d="M166.235 170.244L197.162 179.612L192.482 188.979L165.421 180.426" fill="#2D2B39"/>
<path d="M137.546 274.713C134.697 274.713 132.255 273.898 130.628 271.454C129.407 269.622 129.203 267.789 129.61 265.956C130.221 263.512 132.255 261.679 133.68 260.458C132.255 258.828 130.628 256.588 130.628 254.145C130.628 252.312 131.238 250.886 132.459 249.461C137.749 244.37 146.702 249.868 147.109 250.072C148.126 250.683 148.33 251.905 147.719 252.923C147.109 253.941 145.888 254.145 144.871 253.534C144.871 253.534 138.156 249.461 135.308 252.312C134.901 252.719 134.697 253.33 134.697 253.941C134.697 255.978 137.342 258.625 138.36 259.236C138.97 259.643 139.173 260.458 139.173 261.069C139.173 261.679 138.767 262.29 137.953 262.698C136.935 263.105 134.087 264.938 133.476 266.974C133.273 267.381 133.273 268.196 133.883 269.214C135.918 272.269 142.836 269.621 145.074 268.603C146.091 267.992 147.312 268.4 147.719 269.418C148.33 270.436 147.923 271.658 146.905 272.065C144.667 273.287 140.801 274.713 137.546 274.713Z" fill="#2D2B39"/>
<path d="M98.4794 350.467L95.2239 398.119C95.2239 398.119 51.0709 378.57 25.4337 365.74C19.1261 362.482 13.8359 359.835 10.7838 357.798C-5.08683 347.82 4.27279 323.179 11.5977 320.939C13.8359 320.328 22.5851 322.772 33.7759 326.438C59.6166 334.991 98.4794 350.467 98.4794 350.467Z" fill="#FFA500"/>
<path d="M33.7759 326.438L25.4337 365.74C19.1261 362.482 13.8359 359.835 10.7838 357.798C-5.08683 347.82 4.27279 323.179 11.5977 320.939C13.8359 320.328 22.5851 322.772 33.7759 326.438Z" fill="#862D43"/>
<path d="M95.2244 400.156C95.0209 400.156 94.614 400.156 94.4105 399.952C94.0036 399.749 49.8506 380.403 24.4168 367.573C17.2954 364.111 12.4121 361.464 9.5635 359.631C2.23858 354.947 -1.01694 346.802 0.20388 337.027C1.4247 328.474 6.10451 320.532 10.7843 319.107C12.6156 318.496 16.6849 318.699 34.1834 324.605C59.8206 333.158 98.4799 348.431 98.8868 348.635C99.9042 349.042 100.515 350.264 100.108 351.282C99.7007 352.3 98.4799 352.911 97.4626 352.504C97.0556 352.3 58.3963 337.027 32.9626 328.474C15.8711 322.772 12.6156 322.976 12.0051 322.976C9.5635 323.79 5.29063 329.696 4.27328 337.434C3.66287 342.118 3.66287 350.875 11.8017 355.966C14.6503 357.798 19.3301 360.242 26.248 363.704C51.4783 376.33 95.6313 395.879 96.0383 396.083C97.0556 396.49 97.4626 397.712 97.0556 398.73C96.6487 399.749 96.0383 400.156 95.2244 400.156Z" fill="#2D2B39"/>
</g>
<defs>
<clipPath id="clip0_180_7241">
<rect width="387" height="425" fill="white"/>
</clipPath>
</defs>
</svg>
