<svg width="12" height="23" viewBox="0 0 12 23" fill="none" xmlns="http://www.w3.org/2000/svg">
<g id="XMLID_834_">
<path id="XMLID_835_" d="M0.362903 12.2335H2.82927V22.3871C2.82927 22.5876 2.9917 22.75 3.19217 22.75H7.37398C7.57444 22.75 7.73688 22.5876 7.73688 22.3871V12.2813H10.5722C10.7565 12.2813 10.9116 12.143 10.9327 11.9599L11.3633 8.22182C11.3751 8.11898 11.3425 8.01598 11.2737 7.93883C11.2049 7.8616 11.1063 7.8174 11.0029 7.8174H7.73702V5.47421C7.73702 4.76785 8.11735 4.40967 8.86754 4.40967C8.97445 4.40967 11.0029 4.40967 11.0029 4.40967C11.2033 4.40967 11.3658 4.24716 11.3658 4.04677V0.615589C11.3658 0.415121 11.2033 0.252685 11.0029 0.252685H8.06008C8.03932 0.251669 7.99323 0.25 7.9253 0.25C7.41469 0.25 5.63988 0.350234 4.23791 1.63999C2.68454 3.06925 2.90047 4.78056 2.95207 5.07727V7.81733H0.362903C0.162435 7.81733 0 7.97977 0 8.18023V11.8705C0 12.071 0.162435 12.2335 0.362903 12.2335Z" fill="#9197AF"/>
</g>
</svg>
