<svg width="22" height="21" viewBox="0 0 22 21" fill="none" xmlns="http://www.w3.org/2000/svg">
<g id="Group 20">
<path id="Vector" d="M21.4945 20.9998L21.4998 20.999V13.2973C21.4998 9.52955 20.6886 6.6272 16.2839 6.6272C14.1664 6.6272 12.7455 7.78919 12.1653 8.89081H12.1041V6.97894H7.92773V20.999H12.2765V14.0568C12.2765 12.2289 12.623 10.4614 14.8866 10.4614C17.1169 10.4614 17.1502 12.5474 17.1502 14.174V20.9998H21.4945Z" fill="#9197AF"/>
<path id="Vector_2" d="M0.845703 6.97998H5.19967V21H0.845703V6.97998Z" fill="#9197AF"/>
<path id="Vector_3" d="M3.02173 0C1.62962 0 0.5 1.12962 0.5 2.52173C0.5 3.91385 1.62962 5.06709 3.02173 5.06709C4.41385 5.06709 5.54346 3.91385 5.54346 2.52173C5.54259 1.12962 4.41297 0 3.02173 0Z" fill="#9197AF"/>
</g>
</svg>
