<svg width="20" height="21" viewBox="0 0 20 21" fill="none" xmlns="http://www.w3.org/2000/svg">
<g id="Group">
<g id="Group_2">
<path id="Vector" d="M16.2461 13.6172C15.0303 13.6172 13.959 14.2152 13.2861 15.1247L7.46834 12.1457C7.56493 11.8165 7.63281 11.4753 7.63281 11.1152C7.63281 10.6269 7.53269 10.1626 7.35973 9.73563L13.4483 6.07179C14.1259 6.867 15.1218 7.38281 16.2461 7.38281C18.2817 7.38281 19.9375 5.72697 19.9375 3.69141C19.9375 1.65584 18.2817 0 16.2461 0C14.2105 0 12.5547 1.65584 12.5547 3.69141C12.5547 4.1605 12.6513 4.60548 12.8115 5.01859L6.70483 8.69318C6.02783 7.92159 5.04624 7.42383 3.94141 7.42383C1.90584 7.42383 0.25 9.07967 0.25 11.1152C0.25 13.1508 1.90584 14.8066 3.94141 14.8066C5.17721 14.8066 6.26662 14.191 6.93698 13.256L12.7356 16.2253C12.6288 16.5701 12.5547 16.9292 12.5547 17.3086C12.5547 19.3442 14.2105 21 16.2461 21C18.2817 21 19.9375 19.3442 19.9375 17.3086C19.9375 15.273 18.2817 13.6172 16.2461 13.6172Z" fill="#9197AF"/>
</g>
</g>
</svg>
