<svg width="191" height="34" viewBox="0 0 191 34" fill="none" xmlns="http://www.w3.org/2000/svg">
<rect width="33" height="34" rx="16.5" fill="white"/>
<path d="M3.39062 13.6556C3.70762 13.5228 4.03555 13.3734 4.37441 13.2075C4.72419 13.0304 5.06305 12.8423 5.39098 12.6432C5.71891 12.4329 6.03044 12.2172 6.32557 11.9959C6.63164 11.7635 6.90491 11.5201 7.14539 11.2656H8.85061V22.7676H6.40755V14.4855C6.07963 14.7068 5.71344 14.9115 5.309 15.0996C4.90455 15.2766 4.51104 15.4315 4.12846 15.5643L3.39062 13.6556Z" fill="#262C3A"/>
<path d="M20.252 19.5643C20.252 20.0622 20.1645 20.5214 19.9896 20.9419C19.8257 21.3513 19.5742 21.7109 19.2354 22.0207C18.8965 22.3306 18.4702 22.574 17.9565 22.751C17.4537 22.917 16.8689 23 16.2021 23C15.4369 23 14.7974 22.8949 14.2837 22.6846C13.7809 22.4633 13.371 22.1923 13.054 21.8714C12.7479 21.5505 12.5293 21.2019 12.3981 20.8257C12.2669 20.4385 12.2014 20.0844 12.2014 19.7635C12.2014 19.4315 12.2451 19.1272 12.3325 18.8506C12.42 18.574 12.5402 18.325 12.6932 18.1037C12.8463 17.8714 13.0157 17.6611 13.2015 17.473C13.3983 17.2849 13.606 17.1079 13.8246 16.9419C13.3546 16.5546 13.0048 16.1729 12.7752 15.7967C12.5566 15.4205 12.4473 14.9391 12.4473 14.3527C12.4473 13.9101 12.5347 13.4841 12.7096 13.0747C12.8955 12.6653 13.1523 12.3112 13.4803 12.0124C13.8082 11.7026 14.2017 11.4592 14.6608 11.2822C15.1308 11.0941 15.6501 11 16.2185 11C16.8852 11 17.4537 11.0996 17.9237 11.2988C18.4046 11.4869 18.7982 11.7303 19.1042 12.029C19.4103 12.3278 19.6289 12.6653 19.7601 13.0415C19.9022 13.4066 19.9732 13.7718 19.9732 14.1369C19.9732 14.668 19.8311 15.166 19.5469 15.6307C19.2736 16.0844 18.9293 16.444 18.514 16.7095C19.137 17.1189 19.5797 17.5505 19.8421 18.0041C20.1153 18.4467 20.252 18.9668 20.252 19.5643ZM14.5788 19.6639C14.5788 19.7967 14.6062 19.9461 14.6608 20.112C14.7264 20.2669 14.8248 20.4108 14.9559 20.5436C15.0871 20.6763 15.2565 20.787 15.4642 20.8755C15.6719 20.964 15.9233 21.0083 16.2185 21.0083C16.7869 21.0083 17.2022 20.87 17.4646 20.5934C17.7269 20.3167 17.8581 20.0069 17.8581 19.6639C17.8581 19.4094 17.798 19.1826 17.6777 18.9834C17.5684 18.7842 17.4154 18.6127 17.2186 18.4689C17.0219 18.314 16.7869 18.1812 16.5136 18.0705C16.2513 17.9488 15.9671 17.8382 15.661 17.7386C15.3549 17.971 15.098 18.242 14.8904 18.5519C14.6827 18.8617 14.5788 19.2324 14.5788 19.6639ZM17.6122 14.2033C17.6122 14.0816 17.5848 13.9544 17.5302 13.8216C17.4864 13.6777 17.4045 13.545 17.2842 13.4232C17.1749 13.3015 17.0328 13.2019 16.8579 13.1245C16.683 13.036 16.4699 12.9917 16.2185 12.9917C15.978 12.9917 15.7703 13.0304 15.5954 13.1079C15.4205 13.1853 15.2729 13.2905 15.1527 13.4232C15.0434 13.545 14.9614 13.6777 14.9068 13.8216C14.8521 13.9654 14.8248 14.1037 14.8248 14.2365C14.8248 14.5906 14.9505 14.9225 15.2019 15.2324C15.4642 15.5422 15.9069 15.8077 16.53 16.029C16.8798 15.8077 17.1476 15.5533 17.3334 15.2656C17.5192 14.9779 17.6122 14.6238 17.6122 14.2033Z" fill="#262C3A"/>
<path d="M21.6843 16.7759H24.4225V13.7054H26.6524V16.7759H29.3906V18.8506H26.6524V21.9212H24.4225V18.8506H21.6843V16.7759Z" fill="#262C3A"/>
<path d="M52.8724 21.9917C54.706 21.9917 55.6228 21.3692 55.6228 20.1243C55.6228 19.7413 55.5384 19.418 55.3695 19.1547C55.2127 18.8794 54.9955 18.6459 54.7181 18.4544C54.4406 18.2509 54.1209 18.0773 53.759 17.9337C53.4092 17.7901 53.0352 17.6464 52.6371 17.5028C52.1787 17.3471 51.7444 17.1736 51.3343 16.982C50.9241 16.7785 50.5682 16.5451 50.2667 16.2818C49.9651 16.0064 49.7238 15.6832 49.5429 15.3122C49.374 14.9411 49.2895 14.4922 49.2895 13.9655C49.2895 12.8762 49.6635 12.0262 50.4114 11.4157C51.1594 10.8052 52.1908 10.5 53.5057 10.5C54.2657 10.5 54.9533 10.5838 55.5685 10.7514C56.1958 10.907 56.6542 11.0806 56.9438 11.2721L56.3828 12.6906C56.1295 12.535 55.7495 12.3854 55.2428 12.2417C54.7482 12.0861 54.1692 12.0083 53.5057 12.0083C53.1679 12.0083 52.8543 12.0442 52.5647 12.116C52.2752 12.1878 52.0219 12.2956 51.8047 12.4392C51.5876 12.5829 51.4127 12.7684 51.28 12.9959C51.1594 13.2113 51.099 13.4687 51.099 13.768C51.099 14.1031 51.1654 14.3844 51.2981 14.6119C51.4308 14.8393 51.6178 15.0428 51.859 15.2224C52.1003 15.39 52.3778 15.5456 52.6914 15.6892C53.0171 15.8329 53.373 15.9765 53.759 16.1202C54.3019 16.3356 54.7965 16.5511 55.2428 16.7666C55.7012 16.982 56.0933 17.2394 56.419 17.5387C56.7568 17.8379 57.0161 18.1971 57.1971 18.616C57.378 19.023 57.4685 19.5198 57.4685 20.1064C57.4685 21.1957 57.0644 22.0336 56.2561 22.6202C55.46 23.2067 54.332 23.5 52.8724 23.5C52.3778 23.5 51.9193 23.4641 51.4971 23.3923C51.087 23.3324 50.719 23.2606 50.3933 23.1768C50.0676 23.081 49.7841 22.9853 49.5429 22.8895C49.3136 22.7818 49.1327 22.692 49 22.6202L49.5248 21.1837C49.8022 21.3393 50.2244 21.5129 50.7914 21.7044C51.3584 21.8959 52.052 21.9917 52.8724 21.9917Z" fill="white"/>
<path d="M62.9193 10.6616C64.6805 10.6616 66.0316 10.9968 66.9726 11.6671C67.9256 12.3255 68.4021 13.3131 68.4021 14.6298C68.4021 15.3481 68.2694 15.9645 68.004 16.4793C67.7507 16.982 67.3767 17.395 66.8821 17.7182C66.3996 18.0295 65.8084 18.2569 65.1088 18.4006C64.4091 18.5442 63.6189 18.616 62.7383 18.616H61.345V23.2307H59.5898V10.9669C60.0844 10.8471 60.6332 10.7693 61.2364 10.7334C61.8516 10.6855 62.4126 10.6616 62.9193 10.6616ZM63.064 12.1878C62.3161 12.1878 61.7431 12.2058 61.345 12.2417V17.1257H62.6659C63.2691 17.1257 63.812 17.0898 64.2945 17.018C64.777 16.9342 65.1811 16.8025 65.5069 16.6229C65.8446 16.4314 66.104 16.174 66.285 15.8508C66.4659 15.5276 66.5564 15.1146 66.5564 14.6119C66.5564 14.1331 66.4599 13.738 66.2669 13.4268C66.0859 13.1156 65.8326 12.8702 65.5069 12.6906C65.1932 12.4991 64.8253 12.3674 64.4031 12.2956C63.9808 12.2238 63.5345 12.1878 63.064 12.1878Z" fill="white"/>
<path d="M70.5988 10.7873H72.354V23.2307H70.5988V10.7873Z" fill="white"/>
<path d="M83.004 21.7224V23.2307H75.4583V10.7873H77.2136V21.7224H83.004Z" fill="white"/>
<path d="M92.3873 21.7224V23.2307H84.8417V10.7873H86.5969V21.7224H92.3873Z" fill="white"/>
<path d="M106.791 23.2307C106.586 22.692 106.393 22.1653 106.212 21.6506C106.031 21.1238 105.844 20.5912 105.651 20.0525H99.9692L98.8292 23.2307H97.0016C97.4841 21.9139 97.9365 20.6989 98.3587 19.5856C98.7809 18.4604 99.1911 17.395 99.5892 16.3895C99.9993 15.384 100.403 14.4263 100.802 13.5166C101.2 12.5948 101.616 11.6851 102.05 10.7873H103.661C104.095 11.6851 104.511 12.5948 104.909 13.5166C105.307 14.4263 105.705 15.384 106.103 16.3895C106.514 17.395 106.93 18.4604 107.352 19.5856C107.774 20.6989 108.227 21.9139 108.709 23.2307H106.791ZM105.144 18.616C104.758 17.5746 104.372 16.5691 103.986 15.5994C103.612 14.6179 103.22 13.6782 102.81 12.7804C102.388 13.6782 101.984 14.6179 101.598 15.5994C101.224 16.5691 100.85 17.5746 100.476 18.616H105.144Z" fill="white"/>
<path d="M119.007 23.2307C118.741 22.7878 118.434 22.291 118.084 21.7403C117.746 21.1897 117.378 20.6211 116.98 20.0345C116.582 19.436 116.166 18.8315 115.732 18.221C115.309 17.6105 114.887 17.0239 114.465 16.4613C114.043 15.8867 113.633 15.3481 113.234 14.8453C112.836 14.3425 112.468 13.8996 112.131 13.5166V23.2307H110.412V10.7873H111.805C112.372 11.3858 112.975 12.0861 113.614 12.8881C114.266 13.6782 114.905 14.4982 115.533 15.3481C116.172 16.186 116.769 17.012 117.324 17.826C117.891 18.64 118.367 19.3642 118.753 19.9986V10.7873H120.473V23.2307H119.007Z" fill="white"/>
<path d="M126.49 21.9917C128.324 21.9917 129.24 21.3692 129.24 20.1243C129.24 19.7413 129.156 19.418 128.987 19.1547C128.83 18.8794 128.613 18.6459 128.336 18.4544C128.058 18.2509 127.738 18.0773 127.377 17.9337C127.027 17.7901 126.653 17.6464 126.255 17.5028C125.796 17.3471 125.362 17.1736 124.952 16.982C124.542 16.7785 124.186 16.5451 123.884 16.2818C123.583 16.0064 123.341 15.6832 123.16 15.3122C122.991 14.9411 122.907 14.4922 122.907 13.9655C122.907 12.8762 123.281 12.0262 124.029 11.4157C124.777 10.8052 125.808 10.5 127.123 10.5C127.883 10.5 128.571 10.5838 129.186 10.7514C129.813 10.907 130.272 11.0806 130.561 11.2721L130 12.6906C129.747 12.535 129.367 12.3854 128.86 12.2417C128.366 12.0861 127.787 12.0083 127.123 12.0083C126.785 12.0083 126.472 12.0442 126.182 12.116C125.893 12.1878 125.639 12.2956 125.422 12.4392C125.205 12.5829 125.03 12.7684 124.897 12.9959C124.777 13.2113 124.717 13.4687 124.717 13.768C124.717 14.1031 124.783 14.3844 124.916 14.6119C125.048 14.8393 125.235 15.0428 125.477 15.2224C125.718 15.39 125.995 15.5456 126.309 15.6892C126.635 15.8329 126.99 15.9765 127.377 16.1202C127.919 16.3356 128.414 16.5511 128.86 16.7666C129.319 16.982 129.711 17.2394 130.037 17.5387C130.374 17.8379 130.634 18.1971 130.815 18.616C130.996 19.023 131.086 19.5198 131.086 20.1064C131.086 21.1957 130.682 22.0336 129.874 22.6202C129.077 23.2067 127.95 23.5 126.49 23.5C125.995 23.5 125.537 23.4641 125.115 23.3923C124.704 23.3324 124.337 23.2606 124.011 23.1768C123.685 23.081 123.402 22.9853 123.16 22.8895C122.931 22.7818 122.75 22.692 122.618 22.6202L123.142 21.1837C123.42 21.3393 123.842 21.5129 124.409 21.7044C124.976 21.8959 125.67 21.9917 126.49 21.9917Z" fill="white"/>
<path d="M143.341 10.7873C142.882 12.1041 142.442 13.325 142.02 14.4503C141.609 15.5635 141.205 16.6229 140.807 17.6285C140.409 18.634 140.011 19.5976 139.613 20.5193C139.227 21.4291 138.829 22.3329 138.419 23.2307H136.772C136.362 22.3329 135.958 21.4291 135.56 20.5193C135.174 19.5976 134.776 18.634 134.365 17.6285C133.967 16.6229 133.557 15.5635 133.135 14.4503C132.713 13.325 132.278 12.1041 131.832 10.7873H133.768C134.42 12.6786 135.059 14.4982 135.686 16.2459C136.314 17.9936 136.959 19.6335 137.622 21.1657C138.286 19.6455 138.931 18.0115 139.559 16.2638C140.186 14.5041 140.819 12.6786 141.459 10.7873H143.341Z" fill="white"/>
<path d="M152.347 23.2307C152.142 22.692 151.949 22.1653 151.768 21.6506C151.587 21.1238 151.4 20.5912 151.207 20.0525H145.525L144.385 23.2307H142.557C143.04 21.9139 143.492 20.6989 143.915 19.5856C144.337 18.4604 144.747 17.395 145.145 16.3895C145.555 15.384 145.959 14.4263 146.357 13.5166C146.756 12.5948 147.172 11.6851 147.606 10.7873H149.216C149.651 11.6851 150.067 12.5948 150.465 13.5166C150.863 14.4263 151.261 15.384 151.659 16.3895C152.07 17.395 152.486 18.4604 152.908 19.5856C153.33 20.6989 153.783 21.9139 154.265 23.2307H152.347ZM150.7 18.616C150.314 17.5746 149.928 16.5691 149.542 15.5994C149.168 14.6179 148.776 13.6782 148.366 12.7804C147.944 13.6782 147.54 14.6179 147.154 15.5994C146.78 16.5691 146.406 17.5746 146.032 18.616H150.7Z" fill="white"/>
<path d="M162.102 18.0235C162.295 18.2629 162.536 18.5801 162.826 18.9751C163.127 19.3582 163.435 19.7891 163.748 20.268C164.062 20.7348 164.37 21.2256 164.671 21.7403C164.985 22.2551 165.25 22.7518 165.467 23.2307H163.549C163.308 22.7758 163.043 22.3149 162.753 21.8481C162.476 21.3812 162.192 20.9383 161.903 20.5193C161.613 20.0884 161.324 19.6874 161.034 19.3163C160.757 18.9452 160.503 18.622 160.274 18.3467C160.117 18.3587 159.954 18.3646 159.786 18.3646C159.629 18.3646 159.466 18.3646 159.297 18.3646H157.723V23.2307H155.968V10.9669C156.462 10.8471 157.011 10.7693 157.614 10.7334C158.229 10.6855 158.79 10.6616 159.297 10.6616C161.058 10.6616 162.397 10.9908 163.314 11.6492C164.243 12.3076 164.707 13.2891 164.707 14.5939C164.707 15.4199 164.484 16.1262 164.038 16.7127C163.604 17.2993 162.958 17.7362 162.102 18.0235ZM159.442 12.1878C158.694 12.1878 158.121 12.2058 157.723 12.2417V16.9282H158.971C159.575 16.9282 160.117 16.8983 160.6 16.8384C161.082 16.7785 161.487 16.6648 161.812 16.4972C162.15 16.3297 162.409 16.0962 162.59 15.797C162.771 15.4857 162.862 15.0787 162.862 14.576C162.862 14.1091 162.771 13.7201 162.59 13.4088C162.409 13.0976 162.162 12.8522 161.848 12.6727C161.547 12.4931 161.185 12.3674 160.763 12.2956C160.353 12.2238 159.912 12.1878 159.442 12.1878Z" fill="white"/>
<path d="M174.893 21.7224V23.2307H167.348V10.7873H169.103V21.7224H174.893Z" fill="white"/>
<path d="M176.731 10.7873H178.486V23.2307H176.731V10.7873Z" fill="white"/>
<path d="M189.245 17.1077H191V22.9254C190.855 22.9733 190.644 23.0272 190.367 23.087C190.101 23.1469 189.788 23.2067 189.426 23.2666C189.076 23.3264 188.69 23.3743 188.268 23.4102C187.845 23.4581 187.417 23.482 186.983 23.482C186.102 23.482 185.3 23.3384 184.576 23.0511C183.852 22.7638 183.231 22.3448 182.712 21.7942C182.194 21.2436 181.79 20.5672 181.5 19.7652C181.223 18.9632 181.084 18.0414 181.084 17C181.084 15.9586 181.241 15.0368 181.554 14.2348C181.88 13.4208 182.314 12.7385 182.857 12.1878C183.4 11.6372 184.033 11.2182 184.757 10.9309C185.493 10.6436 186.277 10.5 187.11 10.5C187.677 10.5 188.177 10.5359 188.611 10.6077C189.058 10.6796 189.438 10.7634 189.751 10.8591C190.065 10.9549 190.318 11.0506 190.511 11.1464C190.717 11.2422 190.855 11.314 190.928 11.3619L190.367 12.8163C190.017 12.5889 189.552 12.4033 188.973 12.2597C188.394 12.1041 187.803 12.0262 187.2 12.0262C186.561 12.0262 185.976 12.14 185.445 12.3674C184.926 12.5948 184.48 12.924 184.106 13.355C183.744 13.7859 183.46 14.3126 183.255 14.9351C183.05 15.5456 182.948 16.2339 182.948 17C182.948 17.7422 183.032 18.4185 183.201 19.029C183.382 19.6395 183.647 20.1662 183.997 20.6091C184.359 21.0401 184.799 21.3752 185.318 21.6146C185.849 21.8541 186.47 21.9738 187.182 21.9738C187.689 21.9738 188.117 21.9498 188.467 21.9019C188.829 21.8421 189.088 21.7882 189.245 21.7403V17.1077Z" fill="white"/>
</svg>
