<svg width="24" height="19" viewBox="0 0 24 19" fill="none" xmlns="http://www.w3.org/2000/svg">
<g id="Group">
<g id="Group_2">
<path id="Vector" d="M23.25 2.66422C22.4133 3.03125 21.5217 3.27453 20.5922 3.39266C21.5484 2.82172 22.2783 1.92453 22.6214 0.843125C21.7298 1.37469 20.7455 1.75016 19.6964 1.95969C18.8498 1.05828 17.6433 0.5 16.327 0.5C13.7733 0.5 11.7173 2.57281 11.7173 5.11391C11.7173 5.47953 11.7483 5.83109 11.8242 6.16578C7.98938 5.97875 4.59609 4.14078 2.31656 1.34094C1.91859 2.03141 1.68516 2.82172 1.68516 3.6725C1.68516 5.27 2.50781 6.68609 3.73406 7.50594C2.99297 7.49187 2.26594 7.27672 1.65 6.93781C1.65 6.95188 1.65 6.97016 1.65 6.98844C1.65 9.23 3.24891 11.0919 5.34562 11.5208C4.97016 11.6234 4.56094 11.6727 4.13625 11.6727C3.84094 11.6727 3.54281 11.6558 3.26297 11.5939C3.86063 13.4206 5.55656 14.7636 7.57313 14.8072C6.00375 16.0348 4.01109 16.7745 1.85391 16.7745C1.47563 16.7745 1.11281 16.7577 0.75 16.7113C2.79328 18.0289 5.21484 18.7812 7.82625 18.7812C16.3144 18.7812 20.955 11.75 20.955 5.65531C20.955 5.45141 20.948 5.25453 20.9381 5.05906C21.8536 4.40938 22.6228 3.59797 23.25 2.66422Z" fill="#9197AF"/>
</g>
</g>
</svg>
